<?xml version="1.0" encoding="UTF-8"?>
<svg id="Capa_2" data-name="Capa 2" xmlns="http://www.w3.org/2000/svg" viewBox="0 0 603 452">
  <defs>
    <style>
      .cls-1 {
        fill: none;
      }
    </style>
  </defs>
  <g id="Capa_1-2" data-name="Capa 1">
    <g>
      <g>
        <path d="M433.59,126.79c-1.07.19-.65-.22-.87-.85-1.79-5.08-2.85-9.32-6.67-13.48l-4.06-3.87c6.63,3.34,11.11,10.84,11.6,18.19Z"/>
        <g>
          <path d="M251.31,102.02c3.5-8.84,11.74-13.8,20.81-15.37,20.17-3.49,35.21-1.28,39.27-26.15.06-.35.16-1.16.67-1.06.38,14.41-9.59,23.2-22.89,26.06-10.42,2.24-21.73.6-30.52,7.8-2.98,2.44-5.13,5.62-7.34,8.71Z"/>
          <path d="M341.48,86.92l-1.28-7.05c-1.77-6.37-5.53-12.29-10.99-16.11-2.62-1.84-5.96-3-8.25-5.3-2.49-2.51-3.6-5.96-5.49-8.83-3.41-5.2-8.5-8.85-14.64-10.13,5.66-.52,11.52,4.13,14.64,8.59,1.97,2.82,3.17,6.24,5.48,8.84,3.31,3.72,8.46,5.1,12.16,8.74,3.07,3.02,8.36,11.36,8.36,15.64v5.61Z"/>
          <path d="M249.75,97.37c-.91-.12-.08-1.96.09-2.42,7.17-19.66,38.22-13.12,49.65-26.99l3.67-5.81c-4.01,15.48-23.08,15.18-35.52,19.24-7.66,2.5-15.56,7.9-17.89,15.98Z"/>
          <path d="M307.42,133.38c.18.74-.27.75-.65,1.09-4.36,3.97-7.47,8.84-14.23,7.02-3.12-.84-5.59-3.92-8.34-5.59l6.78-4.04c2.55.42,4-.04,6.19-.39,3.63-.58,6.38,2.87,10.23,1.92ZM303.55,134.16c-1.89-.1-3.8-2.11-5.57-1.94-.99.1-1.8,1.08-2.77,1.14-1.22.08-2.4-.96-3.67-.61l-3.86,2.56h8.32s7.55-1.15,7.55-1.15ZM304.33,135.32l-17.41,1.35c5.76,5.94,12.62,5.22,17.41-1.35Z"/>
          <path d="M301.23,122.15c.11,2.61-2.09,1.64-3.58,2.03-.93.24-1.11,1.05-2.8,1.1-1.99.06-2.03-.76-3.19-1.1-1.39-.41-2.92.3-3.93-1.49-1.84-3.29,1.17-4.79,2.19-7.4.96-2.46.71-5.12,1.83-7.46.49,2.79-.03,6.22-1.29,8.78-.9,1.82-3.29,3.25-1.79,5.52,1.18,1.79,2.2.59,3.36.86.86.21,1.14,1.16,2.82,1.14,1.52-.02,1.77-.89,2.78-1.13,1.28-.29,2.49.31,3.6-.85Z"/>
        </g>
        <path d="M250.53,132.41c-.3,2.85-1.97,6.01-2.27,8.95-.46,4.41.46,7.53,3.43,10.79-.62,1.16-2.1-.17-2.71-.76-4.78-4.66-2.95-10.41-2.7-15.89.13-2.93-.19-5.99,0-8.9.11-1.57,1-2.9.76-4.62-.22-1.55-1.53-2.03-2.24-3.2-3.52-5.75-4.82-15.5-1.56-21.55.33-.61,1.3-1.17,1.4-1.65.37-1.92-1.52-7.24-1.84-9.64-.38-2.84-.55-6.85.03-9.63s2.65-5.18,3.44-7.97c-7.41,2.24-12.14-1.66-15.55-7.87-4.71-8.59-5.25-18.25.14-26.71,2.54-3.99,5.75-4.23,7.88-6.83,1.28-1.56,1.15-3.37,2.88-4.86,3.28-2.83,6.05-1.3,9.49-1.31,1.25,0,2.08-.66,3.13-.77,7.21-.79,16.43,3.56,19.31,10.43.72,1.71,1.08,5.81,3.17,6.12.53.08,1.65-1.08,2.35-1.38,6.37-2.67,14.01-2.6,18.47,3.32,2.46-1.89,7.32-3.74,10.35-3.32.83.12,3.05,1.29,3.38,1.06.08-.06.18-1.13.8-1.72.95-.89,2.95-.88,3.06-1,.18-.19.25-3.68.89-5.11,1.48-3.29,11.37-9.21,14.8-9.58.84-.09,2.26-.11,3.08.02,2.07.33,3.18,3.08,4.36,3.4s2.65-1.01,3.98-.72c-.79,4.07,3.43,3.13,6.11,4.15,3.33,1.25,2.5,2.72,3.95,4.96,1.89,2.93,5.96,4.06,7.54,8.33,3.23,8.73-.24,28.33-11,30.78-1.3.3-3.82.03-4.41.21-1.96.63.68,5.74,1.01,7.02,1,3.79.82,8.92.68,12.9-.06,1.65-.82,4.3-.75,5.81.03.7,1.17,1.78,1.52,2.68,2.34,5.95,1.7,18.81-3.3,23.43-1.01.94-2.58,1.3-3.47,2.34-.72.85-4.42,7.15-4.67,8.1-1.29,4.95,4.42,8.22,5.14,13.47.35,2.53-.35,4.37-.32,6.48s.82,4.8.42,7.16l16.71-7.09c1.13-.91,2.5.42,3.05.34.64-.1,5.17-2.57,6.18-3.11,8.62-4.6,18.82-10.63,27.05-15.91,5.93-3.81,10.23-7.05,10.86-14.68.24-2.92.61-8.82.39-11.6-.28-3.6-3.27-8.51-2.24-11.93.72-2.4,5.07-1.26,6.64-.21,4.05,2.73,3.08,8.73,4.71,12.72,1.66-.09,9.06-8.42,10.82-10.08,1.62-1.53,5.96-5.75,7.85-6.11,1.66-.32,3.99.81,4.3,2.54.48,2.75-5.44,8.55-6.91,10.94l8.95-6.33c2.01-1.2,6.51-2.38,7.22.81,1.19,5.32-5.91,9.41-8.82,12.88,3.09-.99,9.37-6.37,12.61-4.28.75.49,1.35,2.01,1.3,2.9-.23,5.02-10.37,10.24-13.91,13.2,3.42.94,9.9-2.19,12.6.56s-.68,4.86-3.11,5.84c-4.98,2-10.6,2.64-15.67,4.84-3.48,1.51-6.71,3.77-10.36,5.12-2.44.9-7.11,1.57-8.97,2.64-2.59,1.48-7.16,7-9.7,9.27-10.52,9.4-21.56,18.68-34.28,24.95-.33.54,3.08,8.5,3.25,9.99.13,1.12-.14,1.63-.9,2.41-1.35,1.41-8.43,4.87-10.63,6.01-5.38,2.79-11.02,5.07-16.27,8.12-.67.39-1.71.77-2,1.51-.5,6.42-2.12,12.71-2.97,19.06-.37,2.76-1.29,6.43.02,8.78,1.66,2.98,4.07,4,5.94,6.06,2.16,2.39,1.47,11.19,1.74,14.52.72,8.9,8.37,21.7,11.61,30.58,4.01,10.98,6.77,22.3,9.78,33.57.47,1.76,3.09,6.84,1.83,8.25-.28.31-1.35.65-1.84.87-5.34,2.42-12.84,5.06-18.48,7.07-4.67,1.66-9.48,2.88-14.15,4.51.1,3.08-.07,6.17,0,9.25.15,6.62-.43,17.22.39,23.23.15,1.09,1.01,1.85,1.07,2.75.06,1.07-.86,1.76-1.03,2.67-.4,2.07-.91,10.45-.41,12.28.12.43,1.33.64,1.73,1.45.97,1.98.78,5.71,2.75,7.7.68.69,1.74.87,2.52,1.74,2.86,3.21,6.48,4.85,10,7.41,2.68,1.94,11.55,8.77,12.74,11.26,1.7,3.55,1.31,8.58-1.86,11.17-8.27,6.77-34.54,2.7-43.61-2.46-5.46-3.11-6.95-4.84-7.82-11.15-1.51-10.97,1.47-27.54-1.62-36.7-.3-.87-1.01-1.25-1.14-1.97-.21-1.17.39-2.25.36-3.41-.06-2.64-1.46-6.82-1.85-9.79-.96-7.38-1.64-14.81-2.38-22.21l-18.58-.39c-.16,2.5-.47,5.01-.84,7.49-.99,6.58-4,18.46-3.76,24.47.03.78.78,1.33.73,2.27-.06,1.08-1.16,1.68-1.52,2.77-.73,2.18-1.92,11.52-1.95,13.97-.01,1.09.94,1.55,1.12,2.67.8,4.83.66,14.26.4,19.33-.07,1.38-.22,4.63-.46,5.73-.37,1.64-3.91,4.16-5.37,5.08-7.55,4.81-17.25,6.42-26.08,6.82-5.34.24-19.96.16-23.84-3.67-1.96-1.94-2.17-9.36-.37-11.53,2.63-3.17,9.92-8.16,13.52-10.59,1.16-.78,4.37-2.41,4.58-2.58.35-.28.39-1.36,1.27-2.02s2.33-.63,2.97-1.09c.27-.19.39-.87.9-1.22.73-.5,2.22-1.15,2.68-1.59,2.05-1.98.9-8.05,3.22-9.17.84-.4,2.14-.07,2.22-1.27-.16-4.8-.04-9.71-1.21-14.34.9-10.05,1.22-20.67,1.61-30.94.07-1.72-.04-3.48-.05-5.2-3.95-1.08-8.7-2.26-12.34-4.11-1.85-.94-4.25-3.42-5.8-3.88-1.37-.4-3.13-.33-4.66-.76-2.32-.66-11.83-4.34-11.97-6.95,4.08-10.09,6.89-20.72,11.02-30.78s10.88-20.46,14.51-30.78c2.25-6.41,1.04-10.01,1.52-16.28.41-5.24,3.7-5.27,6.52-8.97l.88-14.21c-.71-.02-2.77-1.32-2.93-1.32-.52,0-4.84,7.37-5.68,8.57-7.21,10.32-15.82,19.1-24.4,28.24-1.54,3.78,3.13,12.22,3.54,16.4.1.98.3,2.55-.73,3.06-3.47,1.72-9.17-6.54-10.21-6.36-5.25,3.48-4.9,12.56-8.59,16.59-2.63,2.87-6.31,1.51-6.37-2.3-1.34.99-2.1,2.26-4.04,1.94s-1.92-3.27-2.15-3.49c-.25-.23-4.07,1.7-4.62-1.77-.68-4.35,1.42-8.66,3.07-12.55-.41-.32-8.08,4.2-7.75-1.35.26-4.37,6.73-8.8,10.33-10.6,2.54-1.28,12.93-4.44,13.86-5.88s2.06-5.01,3.11-6.96c6.77-12.63,14.4-24.85,22.63-36.57-2.15-2.81-4.84-2.09-2.89-6.01,3.07-6.19,12.49-20.92,17.03-25.93,4.29-4.74,12.69-6.97,18.67-9.19,4.87-1.81,10.52-2.06,15.58-2.8-.2-1.31.43-3.87-.35-4.88-.48-.62-4.31-1.87-5.33-2.41-12.4-6.61-21.96-16.09-24.53-30.43l-2.3-.99c-.22,2.92.3,6.23,0,9.1ZM358.9,41.63v6c0,5.03-5.91,12.57-10.19,14.97-3.47,1.94-8.13,1.08-4.26,6.14,13.6,2.06,18.33-22.68,13.46-30.96-1.32-2.25-4.16-3.6-5.79-5.43-2.14-2.4-.97-4.41-4.74-5.71-2.38-.82-6.32-.23-6.28-3.59-5.79,1.98-4.11-3.88-10.22-3.06-2.69.36-11.95,5.97-13.33,8.34-.44.76-1.22,3.45-1.2,4.24.03,1.07,1.68,1.22,2.2,1.81.35.41.36,1.26.54,1.39.36.25,4.33,0,5.18,1.59,2.56-7.04,8.99-12.83,16.83-12.37.09.54-.69.57-1.07.66-6.08,1.47-13.47,4.99-14.7,12.01-.58,3.31.94,1.33,3.2,2.81,1.89,1.24,1.71,3.68,2.21,4.18.32.32,3.16.63,3.78,1.63.28-6.37,5.7-7.49,10.06-10.45.97,1.06-4.91,3.75-5.39,4.09-4.12,2.96-3.91,6.38-3.51,11.01,6.38-.88,10.74-5.06,14.31-10.06-1.16,4.31-5.69,8.28-9.79,9.75-.99.35-3.6.59-3.75.7-.8.62,1.59,1.14,1.92,1.37.95.65,1.88,2.37,1.92,3.5.04.9-.83,2.38-.75,2.48.13.16,2.41.9,3.27,2.34,1.18,1.98-.38,2.89,2.85,2.04,5.35-1.4,10.51-8.59,11.79-13.75.69-2.77.34-4.59.66-7.08.07-.57.3-1.2.77-.57ZM273.75,34.66c-1.8-7.51-6.59-11.28-13.93-12.97-4-.92-4.16-.18-7.54.21-2.82.32-4.93-1.14-8.04.09s-2.81,4.08-4.73,6.1c-3.03,3.19-6,1.04-5.14,7.44.8,5.93,5.54,9.98,10.86,11.98l6.46,1.86c-9.02.47-19.26-6.32-18.19-16.25-.7-.51-2.4,2.78-2.63,3.37-4.37,11.28,8.39,20.02,18.5,19.85-.97-1.46.21-3.96,1.56-4.82.88-.56,2.21-.52,2.3-.61.14-.14-.24-2.47.61-3.84,1.45-2.32,3.84-1.83,4.09-2.18.11-.15,1.45-3.28,1.49-3.47,1.25-6.67-3.65-14.72-9.78-17.28-1.56-.65-2.83-.7-4.33-1.09-.53-.14-1.2.01-1.35-.77,9.94-.3,17.5,8.82,16.26,18.58.72-.42,2.64-.21,3.03-.45.1-.06.5-1.34,1.25-2.04,1.86-1.75,3.57-.95,4.62-1.57.43-.25.52-1.18,1.43-1.66s2.16-.49,3.21-.47ZM316.64,40.15c-.26-.17-2.71-.37-3.68-.77-1.33-.55-1.86-1.47-2.94-2.09-3.93-2.28-9.16.31-12.47,2.81-2.96-2.02-4-4.65-7.91-5.26-2.7-.42-9.47.5-11.46,2.51-1.3,1.32-1.15,2.92-3.55,3.42-.81.17-2.37-.09-2.76.15-.21.13-.48,1.7-1.12,2.28-1.2,1.1-3.8,1.03-3.95,1.17-.13.12-.19,2.21-1.18,3.27-1.13,1.21-3.12,1.15-3.42,1.41-.12.11-.38,1.72-.64,2.26-1.38,2.9-3.81,2.06-4.07,2.32-.14.13.26,2.16-.77,3.68-1.12,1.63-3.36,1.97-3.49,2.13-.18.23,1.66,3.11-1.18,5.2-.95.7-2.35.78-3.03,1.61-1.11,1.36-4.89,9.48-5.07,11.18-.42,3.81.05,8.55.88,12.28.19.87.88,1.51,1.03,2.45.29,1.82-.5,3.95.6,5.59,1.42-.62,0-4.95-.19-6.19,3.13,2.78,1.12,9.07,1.13,12.98.04,8.13.47,14.54.03,22.83-.24,4.43.04,8.92-.39,13.35l2.31-9.88c-.45-13.19-.07-29.74,12.42-37.51,10.97-6.82,22.83-2.21,34.79-7.01,12.29-4.93,17.29-14.74,16.3-27.52-.16-2.09,1.3-.33,1.48.84.92,5.84-2.08,8.77,4.92,12.12,7.37,3.53,12.11,4.41,14.82,13.43,2.98,9.94-.51,14.07-1.82,22.91-.71,4.83,2.49,8.14,1.84,13.85-.49,4.32-4.29,7.33-3.87,11.61.39,4.02,4.62,7.22,6.38,10.65l2.51,8.9c.05-2.7.72-5.01.22-7.76-.74-4.02-5.78-7.93-5.61-11.73.15-3.29,4.17-7.35,5.46-10.44,1.66-3.96.13-6.74-.06-10.52-.5-9.61,5.52-17.1,5.81-26.69.06-1.92.1-4.21-.12-6.1-.25-2.08-3.37-11.11-4.72-12.31-.61-.54-1.76-.35-2.67-.82-3.56-1.81-1.57-5.87-1.79-6.14-.06-.08-1.39-.27-1.91-.62-1.82-1.22-3.03-3.46-1.97-5.58-1.97.44-4.34-1.05-5.06-2.88-.36-.91-.25-2.83-.36-2.93s-1.66.09-2.9-.78c-2.25-1.56-1.57-4.09-1.74-4.26-.13-.13-2.14-.01-3.46-.99-1.02-.76-1.52-2.34-1.65-2.42ZM316.66,38.86c.1-.09.14-.88.42-1.3.26-.38,1.06-.8,1.09-1.15.18-2.19-4.76-2.49-5.9-.19s3.88,3.11,4.39,2.64ZM271.71,35.9c-2.57.77-.81,4.11,2.2,3.76,4.8-.56.59-4.6-2.2-3.76ZM322.06,42.33c.13-.08.31-.76.64-1.08,1.03-1.02,2.26-.9.6-2.91-2.56-3.1-7.11-.07-5.06,2.75.51.7,3.02,1.73,3.82,1.24ZM267.07,38.22c-.7.16-2.69,1.69-2.57,2.39.09.54,2.38,2.59,3.21,2.56,4.26-.15,3.48-5.88-.64-4.95ZM325.51,40.92c-3.95.72-3.25,7.34,1.06,6.54.16-.03,2.42-1.95,2.55-2.12,1.3-1.69-1.23-4.85-3.61-4.42ZM249.37,56.73c-.09-.09-1.56.46-2.52.41-6.57-.31-14.87-5.19-16.94-11.72l-1.05-4.17c-1.99,7.83,1.4,20.21,8.15,24.94,1.67,1.17,6.25,2.22,7.87,1.03.39-.29.24-1.31.52-1.87.26-.53,1.13-1.16,1.15-1.46.02-.26-.57-.97-.65-1.57-.19-1.53.11-3.02,1.33-4.05.51-.43,2.82-.85,2.13-1.54ZM260.33,42.53c-.33.3-1.21,2.05-1.16,2.41,1.52.93,2.13,3.37,4.16,2.73,5.05-1.59.88-8.75-2.99-5.14ZM260.81,49.4c0-1.77-1.44-3.21-3.21-3.21s-3.21,1.44-3.21,3.21,1.44,3.21,3.21,3.21,3.21-1.44,3.21-3.21ZM334.71,49.74c0-1.97-1.59-3.56-3.56-3.56s-3.56,1.6-3.56,3.56,1.59,3.56,3.56,3.56,3.56-1.6,3.56-3.56ZM256.2,55.14c0-1.65-1.34-2.99-2.99-2.99s-2.99,1.34-2.99,2.99,1.34,2.99,2.99,2.99,2.99-1.34,2.99-2.99ZM339.06,56.18c0-1.77-1.44-3.21-3.21-3.21s-3.21,1.44-3.21,3.21,1.44,3.21,3.21,3.21,3.21-1.44,3.21-3.21ZM248.87,58.75c-3.37,1.01-1.79,7.29,2.01,5.11,3.01-1.72,1.57-6.18-2.01-5.11ZM338.67,59.89c-2.69.48-2.93,4.83-.58,5.84,5.7,2.45,5.06-6.65.58-5.84ZM247.29,64.67l-1.48,2.1,1.13.79,1.48-2.1-1.13-.79ZM314.38,68.73c-.65-.65-.65.14-.78.57-1.94,6.46-4.73,10.04-9.67,14.53,8.43,1.57,21.64-2.03,28.44,4.26.52.48.66,1.32,1.35,1.55-.66-5.87-3.89-11.79-9.27-14.53-3.19-1.63-6.7-1.66-9.31-4.63-.51-.58-.71-1.68-.78-1.74ZM331.81,89.24c-7.53-7.24-19.65-1.77-28.84-4.88-1.98.48-2.03,1.94-.34,2.91,2.73,1.56,9.8.13,13.1.03,5.65-.17,10.74-.04,16.08,1.95ZM329.48,90.02c-.12-.69-.78-.66-1.3-.83-7.33-2.33-17.01.78-24.41-.36-2.81-.43-2.7-2.63-3.32-3.07-.17-.12-3.06,1.58-3.76,1.84-5.31,2.01-10.74,2.53-16.36,3,6.35,1.23,12.21,2.62,18.79,2.14,5.15-.37,10.32-2.72,15.47-3.11,4.69-.35,10.24-.04,14.89.38ZM267.17,92.34h10.64c.54,0,3.76,1.05,4.45,1.36,8.18,3.71,6.6,16.84,1.93,22.83-9.09,11.65-29.75,6.53-31.34-8.31-1.09,1.01-1.56,4.24-1.19,5.61,2.43,9.05,11.53,10.49,19.6,10.28,8.44-.22,12.93-2.64,16.23-10.48,1.19-2.83,2.9-11.75,4.87-12.93.7-.42,1.67-.64,2.49-.64,5.13,0,4.75,5.74,5.81,9.32,1.8,6.13,5.02,12.11,11.72,13.82,4.46,1.14,15,.99,18.99-1.29,2.25-1.29,1.57-1.94,1.59-4.4-8.26,8.1-23.29,7.36-28.85-3.47-4.9-9.55-2.92-20.8,9.29-21.71,6.48-.49,14.33-.28,20.52,1.57.38-.02.44-2.5-.44-2.66-5.88-.21-11.87-.85-17.76-.46-8.88.6-14.78,3.9-24.75,3.11-7.1-.56-15.66-4.5-22.73-2.2-.41.13-1.17.1-1.08.66ZM432.82,115.96c-1.29-1.28,4.97-5.59,5.81-6.38,1.65-1.57,8.99-7.97,6.03-10.3-2.51-1.98-8.59,2.98-10.64,4.53-1.2.9-7.33,6.55-8.17,6.17-.15-.07-.66-.62-.68-.79-.14-1.49,9.35-10.38,10.17-13.35.59-2.14-.3-3.48-2.52-2.95-3.17.76-12.18,11.65-15.48,14.36-1.74,1.43-3.64,3.36-4.84.57-1.65-3.84.07-10.64-5.4-12.41-3.35-1.08-3.71.12-3.22,3.22.75,4.73,2.36,6.33,2.25,12.11-.23,11.91-.5,16.51-10.73,23.33-7.81,5.2-18.25,11.07-26.56,15.62-2.59,1.42-5.59,2.99-8.39,3.81,1.3,2.71,5.76,21.44,6.95,22.29.86.61,5.67-2.4,6.71-3.01,9.05-5.26,18.37-13.27,26.21-20.24,2.89-2.57,7.95-8.66,10.94-10.35,2.44-1.37,7.31-2,10.33-3.22,4.24-1.71,8.17-4.47,12.57-6.01,3.56-1.24,7.39-1.75,10.95-2.98,1.51-.53,6.71-2.24,3.95-4.54-1.83-1.53-9.43.63-12.17.6-1.57-.02-3.09-.29-1.5-1.91,2.3-2.35,7.24-4.71,10-7.03,1.31-1.1,6.9-6.24,4.08-7.93-3.32-1.99-15.13,8.28-16.64,6.78ZM264.75,93.6c-4.76.8-11.58,9.1-11.08,14,1.33,13.1,19.3,18.93,28.41,9.53,5.75-5.93,7.82-20.21-2.13-23.05-2.9-.83-12.18-.99-15.2-.48ZM312.37,93.61c-13.12,1.57-11.04,18.52-3.02,24.87,5.58,4.41,14.58,4.34,20.26.12,5-3.71.83-4.5,1.02-9.01.13-3.04,4.12-11.77,2.92-14.15-.27-.55-.93-.68-1.44-.88-3.68-1.47-15.59-1.43-19.74-.94ZM246.6,99.39c-1.53-.64-1.63-2.96-2.84-.47-2.33,4.82-.81,14.43,1.93,18.98,1.42,2.36,1.48.9,1.38-.99-.18-3.48-.7-7.34-.81-10.81-.07-2.25-.02-4.5.34-6.71ZM341.1,121.76c.35.41,1.66-1.04,1.94-1.34,4.66-5.06,5.13-16.66,2.12-22.65-.37,1.18-1.86,1.17-2.44,2.2-1,1.76-2.44,9.41-2.43,11.54.03,3.24,1.38,6.82.81,10.25ZM332.58,122.93c-11.65,4.03-26.03,4.17-31.65-8.8-1.11-2.57-2.52-11.33-3.98-12.28-1.08-.71-2.85-.79-3.97-.14-1.35.78-2.64,7.81-3.35,9.81-4.69,13.32-13.42,15.37-26.87,13.3-4.18-.64-6.65-2.45-9.52-5.38,1.11,6.89,3.08,14.38,7.19,20.1,6.18,8.61,22.27,18.1,32.85,19.02,10.28.89,25.45-7.48,32.72-14.53.82-.8,4.46-4.73,4.58-5.51.15-.99-1.18-2.62-1.4-3.88-.92-5.36,2.22-7.08,3.39-11.71ZM252.46,122.93c.22-.3-.34-3.66-.49-4.35-.14-.63-.48-2.3-1.05-2.62.09,2.61-1.96,6.26,1.54,6.97ZM310.59,161.96c.21.34,4.12,1.51,4.82,1.57,1.64.15,2.76-.41,4.21-.38,2.76.06,6.71,1.32,9.28,1.22.71-.03,8.84-3.66,9.13-4.06,1.64-2.28-1.95-14.78-3.58-17.39-.26-.42-2.44-3.09-2.65-3.17-.46-.19-.85.46-1.17.78-4.73,4.71-7.27,7.87-13.18,11.59-1.05.66-6.54,3.38-6.74,3.71-.28.46-.33,5.79-.12,6.14ZM340.43,204.32c9.59-5.8,20.28-9.67,29.66-15.85l-11.4-35.35-18.64,7.83c-.43.41-1.14,2.9-1.27,2.99-1.44,1.07-.37-2.38-1.34-1.93-1.32,1.21-8.1,3.09-8.64,4.13l-4.58,27.86c-.16,3.17.82,4.31,1.52,6.8,2.78,9.89,4.39,20.5,10.72,28.95l3.98-25.44ZM309.36,156.22c-2.59.54-4.93,2.1-7.44,2.82-6.26,1.78-11.74.5-17.71-1.66-.23,1.41.63,4.93-.78,5.61-.65.32-2.08.02-2.28.81-.25.98,1.65,4.73,2.35,5.71,6.87,9.48,29.06,8.29,30.48-5.13-.88.09-4.61-1.45-4.61-2.16v-6ZM279.94,163.57c-.62.17-2.5.35-2.61.95,1.21,2.24,1.32,9.77,2.34,11.33.22.34,4.15,3.13,4.81,3.51,8.03,4.64,20.95,5.19,28.37-.89.65-.53,2.73-2.55,2.99-3.2.37-.91,1.5-8.65,1.49-9.75s-1.96-.96-2.15-.78c-.13.13-.51,2.72-.88,3.58-5.45,12.84-33.34,11.21-34.36-4.75ZM276.07,163.96c-1.28.56-9.38,1.9-9.57,2.88,1.5,3,4.65,26.09,5.95,26.51.58.19,8.47-1.2,8.61-1.74l-4.99-27.65ZM322.88,194.13l4.64-28.37-.94-.64-8.32-.78-3.84,28.02c.29.97,7.07,1.64,8.46,1.76ZM265.62,167.44c-4.84,1.25-9.9,2.47-13.9,5.65-4.2,3.33-9.89,13.14-12.96,18-.86,1.36-6.42,10-6.42,10.62,0,.67,1.6,1.99,2.14,2.5,3.26,3.05,7.79,6.45,11.45,9.07,1.17.84,8.84,6.37,9.63,5.66l3.48-25.94-2.7,39.48c7.97-9.43,10.88-21.86,13.81-33.6.54-2.14.75-3.48.72-5.9l-5.25-25.53ZM312.4,194.49l3.15-16.98c-7.61,8.12-20.61,8.23-30.19,3.69l-5.41-3.3c1.32,5.35,1.16,11.23,3.54,16.2l28.92.39ZM280.33,193.38c-1.2.56-7.96,1-8.35,1.53-.7.95,1.56,4.63,2.35,5.44.93-1.5-.52-1.52-.92-2.16-2.53-3.95,4.69-3.5,6.92-3.65v-1.16ZM283.04,199.57c.27-.94-.63-7.5-2.32-6.19-.15.11.95,1.14.97,1.54l1.35,4.65ZM322.51,199.96c1.88-5.97-.16-4.35-4.74-5.13-1.73-.29-4.61-2.3-4.16.87.67-.22.89-1.11,1.72-1.14.5-.02,5.52,1.34,6.01,1.73.31.25.58.43.71.84.26.86-.36,2.46.46,2.83ZM311.68,195.7l-27.86-.39c1.19,3.2-.13,7.01-2.5,9.3-4.1,3.96-7.04-2.75-9.16-5.18-.31-.36-.47-.98-.92-.26-.68,1.12-1.28,6.48-1.76,8.3-2.67,10.12-7.42,21.41-14.66,29.08-1,1.06-4.61,3.49-4.97,4.71-.6,2.03.09,7.44-.06,10-.67,11.12-9.64,24.64-14.28,34.88-3.91,8.62-6.79,17.69-9.75,26.66.1,1.03,2.92,2.25,3.9,2.7,3.61,1.66,7.59,2.44,11.2,4.08,5-20.36,11.52-40.37,18.78-60.01l-18,60.39c11.82,4.8,23.92,8.29,36.77,8.91.08-8.32.72-16.69,1.55-24.97.94-9.38,2.22-19.25,3.53-28.6.47-3.38.98-7.04,1.63-10.37.1-.51.04-1.87.64-1.87l-6.52,65.75c.54.86,15.06.58,17.17,1.25l19.93-1.59c-1.39-12.7-3.2-25.4-4.26-38.13-.65-7.8-1.23-15.78-1.57-23.59-.05-1.13-.03-2.37.02-3.5.02-.47-.29-1.44.38-1.35l6.19,66.58c6.23.09,12.49-.29,18.58-1.55-3.9-21.89-9.63-43.49-10.83-65.8l11.61,65.42,15.88-6.02c-6.56-19.37-14.52-38.32-19.36-58.24l20.12,57.68,12.75-3.9c-3.36-13.8-7.72-27.36-13.08-40.5-2.82-6.92-6.99-13.62-7.8-21.23-.36-3.33.16-10.71-1.25-13.46-.38-.74-3.09-2.75-3.99-3.75-5.31-5.93-10.01-16.47-12.29-24.1-1.29-4.31-1.92-8.81-3.39-13.07-1.33,1.58-1.69,3.9-3.29,5.42-5.39,5.1-10.7-5.02-9.09-9.67ZM280.67,195.76c-.34-.31-6.49.31-6.52.91,0,.08.74,1.31.95,1.32.19.01,2.35-1.38,3.56-1.39.96-.01,1.53.68,2.45.65-.3-.37-.31-1.37-.44-1.49ZM320.92,197.3c-.16-.26-5.36-1.39-5.91-1.24-.32.09-.72,2.24-.62,2.35,1.16-.11,1.99-.89,3.25-.77s2.1,1.38,3.32,1.54c-.08-.52.19-1.51-.05-1.88ZM281.06,200.32c0-1.38-1.12-2.49-2.49-2.49s-2.49,1.12-2.49,2.49,1.12,2.49,2.49,2.49,2.49-1.12,2.49-2.49ZM319.78,201.52c0-1.38-1.12-2.51-2.5-2.51s-2.5,1.12-2.5,2.51,1.12,2.51,2.5,2.51,2.5-1.12,2.5-2.51ZM251.26,218.2l-16.02-11.28c-8.1,12.51-16.38,25.06-23.22,38.33-2.16,4.19-.77,5.09-5.61,7.16-6.11,2.62-12.61,3.68-17.6,8.72-2.22,2.24-5.42,7.51.58,6l6.18-2.9c.26.26-1.83,3.27-2.12,3.87-1.03,2.14-4.45,10.67-2.36,12.42.68.57,2.51-.04,2.84-.52.27-.38,1.16-4.73,1.81-6.12.52-1.11,3.79-6.18,4.67-6.56.22-.1.65-.07.57.19-2.08,3.24-7.93,12.07-5.21,15.67,1.13,1.5,2.23.47,3.3-.55,2.6-2.51,3.86-7.72,6.02-11.02.27-.41,1.9-3.31,2.48-2.74l-6.1,12.66c-.59,2.27.48,5.31,3.14,3.93s3.9-7.95,5.09-10.78c.8-1.91,3.61-8.06,6.37-6.79.85.39,4.07,4.04,5.46,5.01s3.71,2.69,3.44-.31c-.3-3.31-2.97-9.13-3.74-12.93-.71-3.54-.26-3.93,2.01-6.66,8.58-10.36,17.31-17.72,25.06-29.52.68-1.03,2.4-3.32,2.81-4.16.17-.35.36-.75.15-1.11ZM278.79,331.39c-.24,1.85.18,4.1,0,6l-.73-2.95-.02-4.17-.27-.26c-12.67-.84-24.53-4.41-36.28-8.91-.79.13-.82,5.68-2.17,6.22l1.15-6.95c-5.42-1.42-10.54-3.59-15.46-6.21l-2.53,7.37c2.93,2.21,6.55,4.37,10.09,5.38,1.98.56,4.73.59,6.45,1.29s4.05,3.11,6.62,4.22c12.5,5.41,29.08,7.2,42.65,8.06s26.33-.87,39.85-2.32c7.42-.8,13.54-2.54,20.52-5.02,5.37-1.91,13.89-4.77,18.76-7.16.39-.19.99-.34,1.1-.81-.34-2.89-2.3-5.38-2.26-8.29l-12.22,4.26,1.77,7.74-1.55-3.28-1.16-4.07-15.87,5.99c-1.17.87.53,6.74,0,8.33l-1.27-6.68-.52-1.09c-2.74,1.78-16.44.56-17.59,1.36-.91.63-.15,6.23.02,7.57-1.66-.84-.64-7.09-1.8-7.37-8.87.89-17.73,1.4-26.66,1.19l-10.01-.82c-.13.02-.59,1.21-.61,1.39ZM284.98,341.26l-27.87-3.48-.76,29.79,24.36,2.73,4.26-29.04ZM333.74,338.93l-27.87,2.71,3.49,29.42,24.6-2.68-.22-29.45ZM280.29,373.73c.08-.07.46-1.57.27-1.9-.87-1.12-20.82-2.26-23.68-3.06-1.1-.02-1.2,1.7-.76,2.33.32.46,5.95,1.32,7.04,1.47,2.07.29,16.49,1.74,17.13,1.16ZM334.13,369.9l-23.41,2.32c-1.3-.27-.85,2.2-.34,2.35,1.18.33,9,.06,10.74-.07,1.46-.11,12.55-1.81,12.98-2.31.23-.27-.06-1.74.04-2.29ZM280.66,376.81c.51-.32.64-1.99-.52-1.88l-24.58-2.32c-.64,2.18,2.01,1.99,3.73,2.27,2.58.41,20.4,2.55,21.36,1.93ZM334.9,373.39c-8.43,1.58-16.5,2.91-25.16,2.32-.07,1.56-.36,2.14,1.41,2.18,5.63.1,15.14-1.14,20.78-2.24,1.66-.32,3.37,0,2.97-2.26ZM279.56,378.03l-23.22-2.71c-.27,4.43.8,8.76,0,13.16,6.58-.56,11.92,2.04,13.21,8.85,1.63.27,7.74-.17,8.08-2.07s.15-4.62.39-6.58c.43-3.55,1.06-7.1,1.54-10.65ZM334.13,376.48l-23.22,2.71c1.17,2.79,1.01,16.28,2.32,17.62.6.61,5.14,1.31,5.76.91.16-.1.8-2.71,1.28-3.56,2.42-4.28,8.93-5.92,13.47-4.91l.39-12.77ZM268.43,398.07c-.76-.9-.81-3.97-2.78-5.92s-10.2-3.6-12.18-2.16c-.34.24-1.04,7.11-1.39,8.17,3.04-.63,12.56,3.54,13.39,6.18.25.8.11,2.39-1.12,2.27-2.44-.23-7.05-5-10.18-4.92l-3.24-.05c2.97.5,10.74,3.44,11.44,6.58.09.39-.04,1.36-.27,1.51-1.52.96-7.6-3.76-9.53-4.51s-4.13-1.05-6.29-1.25c-.19,1.2.31.61.97.76,3.04.67,11.65,3.34,12.13,6.88.53,3.91-6.3-1.23-7.55-1.78-3.05-1.35-7.06-2.23-10.4-2.37-3.9-.16-5.55,1.63-8.5,3.88-1.62,1.23-6.28,4.84-7.39,6.16-1.71,2.02,2.57,3.54,4.09,4.09,9.01,3.27,24.2,2.74,33.36.09,2.98-.86,15.3-6.37,16.09-9.07.41-1.41.17-7.35.1-9.23-.08-2.27-.75-4.74-.41-7.15-1.26,1.99-9.21,3.2-10.35,1.84ZM344.19,404.74h-6c-.45,0-3.6,1.19-4.33,1.48-1.33.53-6.48,3.71-7.26,3.54-2.3-.5,2.17-5.28,3.38-5.48l5.3-2.24c-2.31.22-4.82,1.2-6.96,2.13-.95.41-5.03,3.62-5.29,1.55-.49-3.86,11.68-8.26,14.96-7.17-.33-1.2-1.13-2.03-1.56-3.27-.46-1.33-.57-4.41-1.81-4.78-.98-.29-4.89-.17-6.07-.04-4.65.54-8,3.78-8.38,8.46-3,.34-5.66-.36-8.5-1.14.32,3.79-.75,12.85,1.33,15.89.62.91,5.48,4.54,6.68,5.32,8.68,5.71,22.76,5.97,32.71,4.22,3.74-.66,8.1-1.67,11.14-3.97.28-1.11-10.3-9.4-11.89-10.56-5.77.26-11.07-.94-16.74,1.29-2.16.85-4.09,2.93-6.22,2.73-2.99-2.12,6.87-6.94,8.53-7l6.97-.96ZM264.47,405.13c-1.41-3.39-13.25-7.7-15.48-5.41-1.12,1.15,2.03.34,2.49.37,2.27.16,5.27,1,7.31,2.02,1.79.89,3.55,2.91,5.68,3.03ZM341.09,400.87c-.09-.49-.71-.86-1.14-.98-3.96-1.14-12.07,1.04-14.72,4.46,5.07-2.32,10.13-4.71,15.87-3.48ZM260.47,407.19c-2.58-2.88-12.24-6.03-16.12-4.77l7.72,1.37,8.73,4.82c.52-.26-.08-1.15-.33-1.42ZM342.84,402.81c-1.54-.24-4.1,0-5.81,0-.91,0-5.68,2.01-6.66,2.63s-1.85,1.44-2.44,2.39c1.75-.66,3.3-1.8,5.04-2.51.78-.32,4.75-1.75,5.22-1.75h5.61c.15-.34-.64-.72-.97-.77ZM258.27,411.71c-1.83-2.61-5.25-4.22-8.21-5.14-2.68-.83-7.75-2.33-9.98-.47,4.92.3,9.53,1.26,13.94,3.48,1.43.72,2.57,2.17,4.25,2.13ZM349.61,407.07c-5.34-1.45-11.25-1.15-16.27,1.33-.53.26-4.12,2.22-3.46,2.92,2.24-1.39,4.67-2.78,7.27-3.37,4.06-.92,7.21-.34,11.11-.5.47-.02,1.44.3,1.35-.38ZM279.17,414.81l-8.25,5.1c-11.39,5.4-24.38,6.39-36.72,4.06-3.56-.67-7.34-1.55-9.99-4.13-.05,5.73-.43,8.09,5.5,9.79,12.08,3.46,36.69,1.45,46.54-7.09,3.43-2.98,2.12-3.55,2.91-7.73ZM312.46,415.2c.52,4.23.85,6.37,4.29,9.06,8.82,6.89,27.66,8.99,38.36,7.08,5.42-.96,10.33-3.24,9.21-9.76-.31-1.79-1.43-.21-2.45.26-10.71,4.93-31.35,4.93-41.68-1.03l-7.73-5.62Z"/>
      </g>
      <rect class="cls-1" width="603" height="452"/>
    </g>
  </g>
</svg>