<?xml version="1.0" encoding="UTF-8"?>
<svg id="Capa_2" data-name="Capa 2" xmlns="http://www.w3.org/2000/svg" viewBox="0 0 603 452">
  <defs>
    <style>
      .cls-1 {
        fill: none;
      }
    </style>
  </defs>
  <g id="Capa_1-2" data-name="Capa 1">
    <g>
      <g>
        <path d="M166.9,9.49c11.2-.64,23.09-.17,34.52-.23,35.95-.19,72.39.55,108.42.54,46.38-.02,98.86-3.71,144.58-.54,13.89.96,23.04,7.94,24.65,22.24v380.06c-.14,11.52-8.36,20.87-19.8,22.23H163.37c-8.41-.76-15.53-7.1-18.2-14.95-1.8-129.47-.22-259.34-.8-388.96,1.03-12.24,10.64-19.72,22.52-20.4ZM218.77,54.57l-14.1-42.14-28.38-.74-4.38.89,8.97,42.7,37.88-.71ZM257.57,54.58l-16.94-41.67c-11.1-.47-22.13-.55-33.17-1.18,3.55,14.38,8.09,28.89,13.34,42.85h36.78ZM296.37,53.77c-6.27-14.16-13.61-27.95-21.36-41.29-3.12-2.25-12.98.07-16.99.09-5.04.03-9.92-1.34-14.99-.84l16.16,42.04h37.18ZM310.08,52.92c.11-3.66,1.87-7.95,4.2-10.76,1.78-2.13,8.89-6.22,8.66-8.88-.1-1.16-11.84-18.73-12.79-19.57-.9-.8-1.51-1.34-2.82-1.22l-29.54-.76,20.62,41.28,11.67-.08ZM476.62,293.08V29.92c0-4.11-5.46-12.11-8.94-14.5-5.13-3.51-7.88-2.35-13.32-2.85-1.02-.09-2.13-.84-2.39-.84h-140.24l12.94,19.85c10.15-1.03,22.02-2.85,29.43,6.08,2.16,2.61,1.88,8.93,5.03,9.51.52.1,7.84-2.37,10.38-2.36,3.52.02,7.01,2.31,9.76,2.44,2.32.11,5.21-1.47,8.01-1.6,2.55-.12,6.33,1.09,7.89.71,1.39-.35,3.14-2.66,5.36-2.39-2.07-7.21,14.05-15.59,19.07-15.23,2.15.16,3.44,2.15,5.25,2.84,3.37,1.29,7.76,1.86,11.33,4.03,1.17.72,10,11.32,10.7,12.74,2.98,6.05,1.62,13.92-.37,20.17-1.42,4.47-3.83,8.49-8.45,10.14-2.25.81-6.98.83-7.4,1.08-1.67,1.01,1.32,9.11,1.54,11.59.58,6.69-1.48,12.39-1.48,17.82,0,6.67,3.68,9.79-1.43,17.33-3.71,5.48-10.16,5.23-11.27,6.51-.31.36-4.19,8.13-4.24,8.61-.26,2.3,4.28,8.59,4.62,12.12s-1.61,11.12-5.62,11.62c1.77-6.57.89-12.64-3.64-17.77-1.99,1.74-3.64,3.96-5.68,5.62-2.49,2.03-9.91,5.83-10.91,6.9-1.19,1.27-.29,5.61.82,6.47,1.94,1.49,8.94,1,11.98,1.76,3.92.97,12.42,5.28,15.42,8.02,3.79,3.46,17.04,22.35,18.32,26.99,1.03,3.71-.78,3.05-1.66,4.9-1.37,2.88,2.75,12.97,2.87,17.35.18,6.36-1.94,12.02-7.86,14.83-2.79,1.33-8.99,1.24-9.2,3.77l18.62,48.92h34.76ZM146.84,27.49c-1.38,8.25,1.02,20.04,0,28.7l32.33-.82-8.93-42.8c-9.81-2.29-21.73,4.91-23.4,14.92ZM428.12,33.56c-6.17.65-5.83-3.88-12.71-1.8-8.09,2.44-20.93,12.74-6.7,17.15,1.16-6.4,6.91-11.48,12.93-13.35,2.28-.71,5.47.44,6.48-2ZM354.57,45.68c1.72-1.59-3.16-7.96-4.91-9.24-7.45-5.48-14.4-2.61-22.57-3.68l6.25,3.03c5.87,3.68,6.79,9.27,8.3,15.55,1.16.88,3.94-3.29,5.62-3.71,1.25-.31,2.23.54,2.77.47.76-.09.67-1.58,1.3-2,1.09-.73,3.08-.27,3.24-.42ZM338.18,55.17c6-5.78-3.94-22.54-12.95-20.81-4.38,6.74-12.6,7.14-7.7,16.43,3.09,5.86,9.25,6.86,14.82,9.34,1.09-3.12,4.46-3.64,5.83-4.96ZM428.12,73.99c1.84,6.36,9.33,3.84,12.97.43,2.52-2.37,5.45-13.44,5.63-17.05.37-7.77-3.91-10.66-8.45-15.78-.72-.81-.94-2.24-1.72-3.13-6.7-7.56-25.55.91-26.25,10.89-.23,3.28,1.69,1.63,3.08,2.98,1.04,1.02,1.47,5.53,4.54,4.61.91-.27,6.05-11.45,11.01-10.45-3.43,3.04-9.33,6.51-9.69,11.78-.38,5.59,7.74-.7,10.45-1.73l5.7-6.82c-.81,7.06-8.99,10.92-15.34,12.13.03,1.51,2.26.59,3.32,1.92s.4,3.27,1.13,4.52c.45.77,1.82.99,2.44,1.63.73.74,1.1,2.39,1.7,2.49,4.94.82,13.75-7.86,14.65-12.78l1.79-5.88c.51,10.46-6.73,18.81-16.96,20.22ZM332.74,61.06c-8.59-1.54-17.3-5.56-17.78-15.37-6.65,8.23.61,18.1,9.68,20.64,6.71,1.88,3.75-.39,4.92-2.32,1.07-1.75,2.71-1.51,3.18-2.95ZM397.41,46.5c-2.1,2.12,4.1,5.11,4.84,2,.53-2.22-4.43-2.42-4.84-2ZM377.2,48.11c-.54-.45-7.91-.91-9.29-.8-5.75.44-16.05,5.68-20.88,9.03-14.58,10.09-23.23,29.14-23.18,46.75,7.83.71,12.52-5.54,19.35-6.92,9.99-2.03,19.19.13,28.89-5.06,8.95-4.79,14.01-14.6,15.21-24.4,1.91,2.65,1.58,6.29,2.8,9.32,3.84,9.49,15.9,8.38,20.28,20.14,3.68,9.9-.92,15.42-.04,24.3.29,2.93,2.28,6.17,2.28,8.88,0,4.01-3.64,7.87-3.64,12.02l7.01,15.07c1.48-5.07-3.9-10-4.09-14.16-.23-5.01,4.42-9.12,4.89-13,.43-3.59-1.85-7.31-1.51-11.94.41-5.51,4.21-11.02,4.77-16.68l.8,5.65c2.98-1.06,5.58-.2,8.07,1.62,1.35-5.86,2.66-18.39-.14-23.7-.88-1.66-3.05-1.43-4.38-2.91-4.08-4.57-6.15-10.01-10-14.82s-8.52-7.98-12.54-11.94c-.84-.83-.89-2.82-1.34-3.1-.68-.43-2.31.06-3.31-.3-1.48-.53-1.92-2.06-3.06-2.63-5.9-2.94-12.69,1.26-18.55,1.97-.48-1.03,3.41-.89,1.61-2.41ZM405.09,48.02l-3.33,3.32,3.32,3.34,3.33-3.32-3.32-3.34ZM351.33,51.33c-2.4-3.36-7.13-1.78-4.84,2.43l4.84-2.43ZM342.17,53.08c-1.97.51-3.15,3.49-.93,4.73,3.13-.24,5.24-5.84.93-4.73ZM412.7,55.79c0-1.53-1.24-2.76-2.76-2.76s-2.76,1.24-2.76,2.76,1.24,2.76,2.76,2.76,2.76-1.24,2.76-2.76ZM297.18,55.39l-36.38.81c1.63,25.18,35.94,25.02,36.38-.81ZM309.31,55.38h-9.7c.32,8.85,5.95,16.29,14.54,18.6-1.73-3.86-3.71-6.94-4.48-11.28-.44-2.47-.46-4.83-.36-7.32ZM220.39,57.01c1.84,19.71,28.18,26.56,35.96,7.26,1.24-3.08,3.39-7.72-.76-8.12-11.41-1.09-23.73,1.39-35.2.86ZM326.27,68.35c-.34-.45-7.97-3.01-10.11-4.87-2.57-2.22-2.91-5.21-5.23-7.29-1.83,5.14,7.41,24.39,13.79,19.86.32-.23,1.79-7.39,1.56-7.71ZM218.77,57h-35.16c-.6,0-2.58.38-2.66,1.18,3.25,25.11,36.31,24.4,37.82-1.18ZM179.17,57.81h-31.93c-1.93,0-1.71,12.06.02,14.54,1.06,1.52,5.16,3.84,7,4.32,14.24,3.69,23.31-5.38,24.91-18.85ZM339.21,57.82c-.28-.28-3.1-.1-3.69.75-1.97,2.82,1.46,5.51,3.29,2.49.42-.7.65-2.98.39-3.24ZM418.21,61.04c0-1.72-1.39-3.11-3.11-3.11s-3.11,1.39-3.11,3.11,1.39,3.11,3.11,3.11,3.11-1.39,3.11-3.11ZM304.45,185.55v-114.4c0-.32-3.32-3.99-3.91-4.98-.96-1.62-.94-4.4-2.54-5.12-1.93,15.9-22.15,21.49-33.18,10.14l-5.61-9.33c-1.06,5.21-4.78,10.88-9.71,12.94,17.68,12.18,22.18,30.14,14.95,50.12-.6,1.65-2.27,2.89-2.67,4.62-.71,3.08.81,7.38.63,11.13-.72,15.29-11.99,25.38-25.85,29.53,6,4.2,10.69,6.71,14.7,13.17,10.07,16.23,12.94,35.91,18.12,53.97l35.08-3.28c-.46-2.38.87-9.05-.52-10.59-3.26-3.61-8.96-1.4-12.83-1.48-6.86-.14-15.96-3.39-19.43-9.71-2.89-5.26-.61-5.1-.69-8.54-.03-1.23-1.74-3.68-2.03-5.73-.97-6.93.91-14.67,8.82-15.7-1.99-2.61-4.45-5.27-4.04-8.88,4.79-.58,8.01.73,11.31,4.04-.88-4.24,5.53-7.76,5.65-2.85.04,1.47-3.12,5.98-2.4,6.89,6.46-3.37,12.05-1.66,16.16,4.04ZM154.92,78.83v184.34h4.04c.27-2.91-1.2-5.48-.79-8.42,1.09-7.84,12.73-6.02,12.96-7.41.92-5.58-.51-3.69-3.27-4.77-14.8-5.79-11.47-23.08-7.87-35.36,4.18-14.28,13.9-31.62,28.65-36.83,4.42-1.56,9.2-1.37,13.16-3.83l-7.83-5.89c-16.54,8.04-35.28-4.94-31.43-23.66.63-3.07,4.13-6.94,4.3-8.56.15-1.37-1.99-7.06-2.22-9.6-1.4-15.21,4.04-30.28,16.7-39.05l8.34-4.18c-4.89-1.87-7.66-7.39-9.29-12.14-3.79,10.94-13.38,18.98-25.47,15.36ZM422.58,66.87c0-1.6-1.29-2.89-2.89-2.89s-2.89,1.3-2.89,2.89,1.29,2.89,2.89,2.89,2.89-1.3,2.89-2.89ZM329.5,73.17c.3-.23,2.56-4.42.41-4.84-4.24.23-2.54,6.47-.41,4.84ZM262.41,124.91c6.33-15.02,3.83-33.89-9.3-44.44-6.9-5.55-5.26-2.86-12.14-2.43-3.19.2-7.72-.92-10.62-2.29-5.22-2.48-5.66-7.19-12.77-5.78-2.57.51-4.34,4.21-6.48,5.64-8.7,5.86-15.95.28-24.94,4.16-12.92,5.57-21.03,23-19.82,36.57.31,3.43,3.53,12.53,3.17,14.63-.14.83-1.68-.03-2.53.92-.32.36-1.86,4.37-2.01,5.11-3.39,17.32,11.22,28.21,27.13,22.68l-6.83-10.59c-13.76,2.95-20.97-22.08-7.32-23.39,5.64-.54,6.43,2.31,9.11,6.25.49.72-.13,1.5,1.8,1.05l1.61-15.36-4.03,1.22c11.14-7.01,20.58-16.9,19.4-31.13.69-.75,11.31,7.26,13.19,8.23,13.6,7.01,27.81,5.94,41.68,11.26l-.33,2.33,2.03,15.37ZM426.42,73.51c0-1.51-1.22-2.73-2.73-2.73s-2.73,1.22-2.73,2.73,1.22,2.73,2.73,2.73,2.73-1.22,2.73-2.73ZM313.34,75.6l-7.27-3.23v135.02c0,.37,6.47,1.32,7.27,1.62V75.6ZM152.32,78.19l-6.29-3.39.8,189.19,6.47-.82-.98-184.97ZM315.77,75.6v134.21c2.8-.13,8.23,2.65,10.5,1.22,5.44-3.42-2.33-5.3-.46-9.33,5.98-9.03,10.93-19.67,19.48-26.63,7.73-6.29,10.32-5.67,19.37-7.31,1.22-.22,2.01-.59,2.04-2,.01-.62-9.78-2.54-11.88-3.49-10.65-4.81-17.64-13.73-23.29-23.6-1.22,3.21-3.66,8.37-3.64,11.73s2.4,5.52,3.24,8.48c-11.56-4.23-4.99-16.89-5.64-24.65s-7.45-21.63-4.8-28.89c1.92-5.26,1.01-5.89,1.64-11.45.53-4.66,2.93-9.65,3.96-14.23-3.87-.21-7.14-2.46-10.51-4.05ZM379.22,100.66c5-.71,11.39.52,16.57,0,.19-1.22-1.51-1.01-2.41-1.22-1.92-.44-5.02-1.1-6.89-1.2-4.17-.22-12.5,3.1-11.45-3.7.68-4.44,17.45-.73,20.77.85,5.14,2.43,7.94,8.75,14.54,7.68-1.36-4.69-2.63-9.22-6.15-12.84-4.32-4.44-10.4-5.09-14.43-10.63-.96-1.32-.88-4.55-2.45-4.02-.32.11-1.96,5.05-2.68,6.22-5.25,8.53-11.55,12.11-21.13,14.44-2.31.56-6.44.3-8.3,1.2-.99.48-.95,1.92-1.95,2.27-3.04,1.07-10.23-.62-14.04.94l13.75,2c4.15.93,6.44,4.5,10.89,4.53,5.36.04,9.69-5.73,15.37-6.54ZM186.42,145.94c.37.28,3.2,6.32,4.54,8.02,10.78,13.63,33.24,19.88,49.12,12.89,21.53-9.48,21.43-25.05,19.95-46.41-.21-3.1-.93-10.24-3.19-12.17-3.21-2.73-17.64-3.59-22.73-4.75-9.15-2.09-18.41-6.26-25.43-12.54-1.91,1.75-.99,4.51-1.76,7.11-1.19,3.98-3.68,8.26-6.31,11.48-1.38,1.68-7.69,6.78-7.96,7.45-1.54,3.81-.58,14.48-3.14,17.4-2.4,2.74-4.22-2.97-5.87-4.66-2.5-2.57-3.62-3.38-7.18-1.5-7.43,3.93-2.79,16.48,4.29,18.14,2.8.66,5.45-.64,5.69-.46ZM398.22,99.04c-.33-1.43-1.89-1.72-3.02-2.23-2.34-1.05-18.85-4.75-18.79-1.4.06,3.16,6.71,1.08,8.43,1.18,4.28.26,9.18,1.5,13.38,2.45ZM352.95,96.62c-2.42.87-4.96.65-7.44,1.04-.96.15-3.92.2-3.87,1.37,3.01-.13,6.1.34,9.1-.22,1.41-.26,2.67-.34,2.2-2.2ZM322.35,106.43c1.61,12.05,2.78,26.39,18.04,27.41,8.17.55,14.05-2.59,17.32-10.23,1.65-3.84,1.07-11.39,6.23-11.64s5.62,9.67,7.72,13.23c5.01,8.49,17.21,10.67,25.76,6.6,8.82-4.2,7.44-16.48,11.13-24.14-.36-4.23-8.19-5.15-11.52-5.41-7.24-.56-17.46-.37-24.09,2.64-3.36,1.53-3.4,3.83-9.08,3.92-5.09.08-6.38-2.7-10.45-4.15-9.17-3.27-22.07-1.71-31.05,1.78ZM418.43,130.57c10.93,1.4,15.99-20.39,6.69-22.47-10.63-2.37-6.83,16.76-6.69,22.47ZM407.11,116.03c2.71,19.34-25.15,25.87-35.12,12.89-4.33-5.64-8.05-29.49-11.76-4.81,1.14.74,2.28-7.28,3.21-3.65-.85,3.87-6.09,7.3-2.89,11.01,1.53,1.77,4.11.7,3.71,3.15-5.31-.21-6.76-2.16-6.87-7.28-2.75,6.74-11.08,8.66-17.82,8.12-2.6-.21-4.47-1.47-6.83-1.25,9.63,25.66,33.41,36.68,58.9,24.16,3.39-1.66,14.6-9.36,15.89-12.45.47-1.13-.71-4.51-.39-6.8.44-3.14,3.54-6.92,3.23-10.54l-3.27-12.55ZM325.48,148.36l4.89-12.54c.48-2.86-.82-4.39-2.88-6.05.35,6.42-.5,12.32-2.01,18.59ZM390.13,161.3c-7.21,2.9-14.66,5.35-22.63,4.85,2.57,4.94-3.88,2.28-.33,8.01,5.01,8.07,23.43,4.27,26.11-4.49.49-1.62-1.09-.97-1.89-1.92-1.53-1.84-1.32-4.19-1.27-6.45ZM227.66,171.81c-7.95,1-15.08-2.43-22.62-4.04,2.39,9.56,19.76,16.54,22.62,4.04ZM203.41,168.57c-.16-.15-3.95.74-4.1,1.3-1.38,5.13,8.55,19.7,14.6,16.89.57-.27,5.97-5.76,5.67-6.05-5.68-.48-12.16-3.7-15.26-8.6-.76-1.2-.78-3.41-.92-3.54ZM396.6,169.39l-6.18,7.15c-5.8,4.86-19.66,6.55-24.41-.4-2.06-3.02-.66-6.83-4.16-5.95-3.19,21.14,36.19,19.04,34.75-.8ZM360.22,170.19l-7.3,2.15c-.21,7.69.49,15.34,1.66,22.91,1.12-1.27,6.19-1.41,6.42-1.65.82-.84-1.82-20.34-.78-23.41ZM393.36,194.45c1.7-.67,5.13.76,6.12.58,1.9-.34,4.73-18.56,6.67-21.4,2.05-4.12-6.26-4.28-7.21-2.95-.74,1.03-3.92,12.69-4.38,14.85-.27,1.27-1.56,8.55-1.19,8.92ZM220.39,213.85h14.15c.4,1.26,3.55,6.29,3.51,6.72-.34,3.74-5.06,8.31-7.35,11.27-1.77,1.19-6.12,2.03-8.3,2.21-3.61.3-10.62-1.28-12.74-.64-1.1.33-5.84,3.82-8.12,4.84-5,2.22-16,5.67-21.27,6.05-3.38.25-8.86-3.05-7.57,2.7l26.16-2.37.52-3.29c3.6-.48,4.88,2.3,8.46,2.51,6.3.37,14.43-2.5,20.97-1.62,7.77,1.04,11.76,10.12,17.44,14.48.6-4.36-2.78-11.53.77-15,1.41-1.38,3.93-.95,4.1-3.18-.42-14.88-1.34-29.7-5.26-44.09-1.1-4.05-4.98-16.77-6.98-19.7-1.15-1.69-5.58-3.04-5.57-1.7,1.25,3.17,2.38,6.44,3.18,9.75.68,2.82,3.67,13.8,1.69,15.32-2.74,2.09-32.41,2.96-35.04,1.26-2.08-3.23-4.93-27.93-7.51-28.43-1.56-.3-4.12,1.24-5.96.88,4.29,14.37,5.58,29.69,2.43,44.46,3.82-1.37,9.91.01,13.17-.97,2.58-.78,10.62-9.57,13.88-9.98.57-.07,2.72.3,2.91.94.2,2.85-.06,5.22-1.67,7.59ZM230.89,171.81c-1.35-1.46-1.37.54-1.68,1.15-1.58,3.12-1.77,6.53-6.39,6.95-1.01,1.36,7.82,10.9,9.51,1.01.3-1.74-.55-8.15-1.44-9.1ZM413.58,217.09c8.66-2.57,17.17-5.82,24.14-11.71-7.44-11.68-14.72-30.13-29.8-32.77-.7,7.66-6.21,17.92-5.6,25.37.3,3.64,5.61,24.69,8.55,25.5s4.02-2,3.33-4.36c-.13-.45-1.78-1.03-2.68-2.82-1.88-3.75-3.56-10.39-3.6-14.57,1.16-.19,1.06,1.36,1.4,2.22,1.68,4.25,3.11,8.72,4.26,13.14ZM185.63,216.27c1.31-.06,3.61.47,4.48-.77.54-.77,1.95-11.55,2.02-13.34.21-5.78-.74-14.31-1.89-20.01-.31-1.53-1.92-8.53-3.38-8.64-15.81,7.66-27.11,32.75-27.93,49.6-1.22,25.14,27.29,20.04,42.6,12.7,8.92-4.27,3.38-4.4,2.09-12.07-.33-1.95-.24-3.9-.21-5.86-9.97-.09-20.12.36-29.91,2.43-.4-2.26.48-1.36,1.77-1.82,2.06-.74,7.33-1.21,8.35-2.2,2.15-2.09,1.22-11.78,5.22-13.77l-3.22,13.74ZM346.48,222.74l6.01-24.94-1.97-23.57c-5.42.98-22.69,25.68-22.61,28.72.08,3.31,13.1,10.01,16.15,11.7.7-5.5.68-11.82,1.84-17.17.17-.78.29-2.42,1.39-2.23l-1.64,19.77.83,7.71ZM285.05,182.31c-1.56-4.27-4.8-7.89-9.7-7.26.63,4.9,5.33,6.72,9.7,7.26ZM267.27,238.1c-3.81-14.37-6.66-29.09-12.55-42.82-2.87-6.68-6.45-14.31-12.49-18.62,4.47,12.33,8.29,25.27,9.69,38.41.87,8.19.32,16.52,1.63,24.66,4.44-1.25,9.13-1.79,13.73-1.63ZM393.36,181.51c-3.58,1.34-6.26,4.01-10.29,4.65-7.81,1.23-15.27-.13-21.22-5.46,1.41,3.18.29,11.37,1.98,13.78,1.25,1.78,23.21.33,27.03.69l2.5-13.66ZM220.41,181.51c-5.06,11.53-12.99,8.14-19.41,0l3.33,16.06c10.73,2.28,21.49-.25,32.23-.7.09-1.81-1.17-13.23-1.63-13.75-1.33-1.54-2.35,2.89-3.28,3.61-4.93,3.82-10.32-5.86-11.25-5.23ZM281.2,207.97c1.46.61,3.16-.11,4.68.61,1.24.59,1.65,3.23,2.88,3.52.38.09,7.02-.66,7.84-.84,9.1-2.02,13.36-33.26-6.12-28.76-1.4.32-3.32,1.29-3,3.05l3.22.4c-2.66,2.45-6.54,1.23-9.7,1.22-.16-4.2,6.07,2.28,4.86-3.23-11.5-2.43-18.72,6.15-14.15,16.97,2.22,5.25,4.6,3.88,8.32,5.4.9.37.93,1.56,1.16,1.66ZM390.09,197.72c-1.47-1.59-22.15-.5-25.83-.85.88,1.63-1.01,6.19-.81,6.45.26.33,6.37,2.19,7.27,4.07-.71-2.94,2.97-6.5,4.84-4,.65.87-1.93,6.63-2.4,8.04,5.61-1.85,12.24-.95,15,4.81,1.23,2.57.72,5.37,2.82,6.88,5.59,4.03,11.57,2.67,17.74,1.24-3.98-6.97-6.12-14.7-7.28-22.62l-3.27,4.4c-7.93,5.35-7.57-7.85-8.08-8.41ZM397.4,200.11c-5.34-1.34-4.9,5.15-1.22,4.03,1.34-.41,1.36-2.84,1.22-4.03ZM363.46,212.23c-2.09-5.73-6.62-5.66-10.5-9.69-.22,6.23-1.92,13.04-4.24,18.81-2.76,6.88-7,10.16-7.88,17.99-.32,2.85.39,5.85-.19,8.7-1.36,6.64-9.14,20.78-11.96,28.46-1.6,4.35-6.58,16.89-6.92,20.58-.25,2.69,11.64,6.48,12.56,5.68l14.18-50.92-13.01,50.9c-.08,2.09,9.2,5.26,11.27,5.82s15.27,2.94,15.88,2.3c2.56-16.77,2.64-34.73,5.66-51.34.24-1.31-.29-2.67,1.22-3.63l-5.15,54.86c11.51,3.95,22.91,2.52,34.65.92-.79-18.69-4.39-37.13-5.65-55.78l2.3,10.22,4.97,44.75c9.36-.36,19.69-.97,27.35-6.94-4.39-16.65-11.37-32.65-14.42-49.64l15.77,48.54c1.26,1.78,10.24-3.22,12.52-3.28l-21.1-56.5c-6.33.48-14.38-.97-20.48-.03-3.38.52-7.11,1.29-10.44,1.84-2.93.49-7.13,2.39-9.83,2.22s-3.45-2.63-5.81-3.15c-4.44-.98-5.94,1.63-11.31-1.61-9.96-6.01-14.35-27.9.57-30.09ZM370.73,213.03c-1.45-2.61-2.81-7.44-6.23-7.94-6.43-.95,1.97,9.62,6.23,7.94ZM276.15,214.65c-.57-2.76-.68-7.2-3.22-8.89-.44,3.24.57,6.81,3.22,8.89ZM220.39,207.39c-.79-.88-13.36,8.73-14.12,10.52-1.22,2.86-.19,11.15,2.56,12.77s18.67,2.18,21.27-1.46c-2.55.35-6.46,2.31-8.08-.81,4.17.23,9.13-.54,12.12-3.65l-11.31,1.21c-.38-2.3.48-1.35,1.86-1.73,3.45-.93,10.14-.42,11.06-4.73-4.58.66-9.02,2.18-13.74,1.6-.35-2.04,15.31-2.87,12.12-5.65-5.15-.84-12.35,2.35-16.99-.39-1.38-.82-.44-.94.02-1.63,1.2-1.8,3.81-3.06,3.23-6.06ZM328.7,214.65c-.77.7-18.24-3.58-20.38-4.26-3.67-1.17-7.81-6.02-6.29,1.84-2.42-1.49-3.69,1.11-6.16,1.36-1.09.11-2.32-.69-3.74-.43-1.51.28-3.23,2.29-3.43,2.29-.83-.03-3.84-7.72-6.06-5.64-.29.27,1.97,6.87,2.39,7.5,2.6,3.91,12.13,1.39,16.43,2.37,2.89.65,10.27,6.39,13.76,8.06,3.98,1.9,10.41,4.57,14.74,4.73,6.87.25,14.89-8.09,13.78-15.02-.32-2-11.8-6.36-13.83-8.44-2.1,1.15-.98,5.44-1.21,5.65ZM283.43,218.7c-1.15-2.05-2.6-8.39-3.65-9.68-.72-.88-2.37-1.24-2.8-.83-1.02.98,2.99,10.82,6.45,10.51ZM378.01,244.57c1.44-.02,2.94.16,4.38-.06,5.59-.86,13.69-3.41,18.63-3.99,5.5-.65,12.32,1.36,18.6.81,6.75-.59,16.99-3.1,18.12-10.97.51-3.53-.99-16.03-2.75-18.94-.8-1.32-.98-.43-1.76-.15-4.89,1.77-9.99,6-15.63,6.64.56.96.86,3.13,1.57,3.69s6.47-2.37,5.71,1.14c-8.01.31-17.88,5.52-25.62,5.39-3.02-.05-6.43-2.78-8.69-2.85-4.26-.13-13.52.69-16.88,3.26-5.44,4.16,4.93.48,6.7.23,1.11-.16,2.77-1.29,2.45.84-1.11.26-12.66,5.75-10.5,7.69.83.74,9.71-4.89,12.12-4.03.45,2.34-.68,1.29-1.77,1.82-1.33.65-10.21,4.66-7.92,7.06.44.47,10.47-4.82,11.31-4.03,2.01,1.88-8.21,4.71-8.08,6.46ZM385.04,214.9c-1.34-1.47-5.31-2.77-7.33-2.63-3.16.22-5.04,3.09-6.53,3.17-2.29.12-4.56-2.37-8.76-1.42-12.63,2.84-5.2,28.21,6.29,28.2,6.27,0,2.25-2.61,2-4.57-.2-1.55.82-2.89.77-4.04s-1.48-1.98-1.42-3.05c.32-5.62,13.28-7.82,17.66-7,.97-1-1.63-7.51-2.67-8.65ZM313.35,234.07c1.27-5.73-3.14-6.7-7.27-8.9-.23,7.3-1.32,9.97,7.27,8.9ZM335.97,254.28c-.26-2.97,2.55-5.37,3.06-7.86.77-3.74-.36-8.2.23-11.9.38-2.41,2.23-3.11,2.37-5.3-7.75,8.82-16.41,4.61-25.85,1.61.25,1.52-.93,3.09-.08,4.47.92,1.48,16.53,16.99,18.25,18.18.68.47.8,1.12,2.02.8ZM333.55,259.12c.1-1.26.9-1.54.08-2.83-1.48-2.34-15.96-16.49-18.66-18.61-1.19-.93-2.39-2.18-4.06-2,3.45,6.89,10.38,8.86,13.74,15.76l8.88,7.68ZM285.87,238.91c5.82.21,9.99,6.03,12.92-2.42-2.66,1.39-5.56.6-8.38.91-.94.1-4.43.36-4.54,1.51ZM313.34,242.95c-2.21-6.66-11.59-8.14-15.38-2.04-3.71,5.97,1.16,4.68,4.86,7.71,1.24-4.65,6.09-6.09,10.52-5.67ZM281.01,238.92h-5.24s-9.3,1.6-9.3,1.6c2.86.38,4.47,3.25,7.6,2.42l6.94-4.02ZM292.27,246.12c2.55-3.58-7.24-8.03-12.12-4.43-7.42,5.46.32,7.18,2.88,11.78.09-4.52,8.69-6.59,9.24-7.35ZM257.57,241.35c-20.24.11-5.85,13.4.79,20.63,4.65,5.06,16.42,18.33,23.02,18.2,14.05-.27,29.46-4.43,43.68-4.88,2.35-.23,2.25-2.97,3.64-4.45-.62-.79-2.63-.46-3.62-.39-12.62.94-26.18,4.25-38.81,4.83-2.4.11-5.43.32-7.71-.36-3.32-.98-17.14-15.17-20.19-18.61-1.43-1.62-6.25-7.05-6.84-8.54-1.52-3.88,4.53-3.4,6.05-6.43ZM271.31,247.8c-.73-8.68-16.52-7.42-16.1.44.14,2.67,4.99,5.87,5.99,8.47,1.64-4.98,4.32-9.06,10.1-8.91ZM206.65,251.04c.65-.71-2.81-8.79-5.65-8.08-1.57,2.25,4.45,9.38,5.65,8.08ZM227.66,244.58c-4.76.69-15.88-1.51-16.16,4.84,3.24-.85,6.77-1.23,10.1-1.61,3.81-.44,5.19,1.66,6.06-3.23ZM161.57,252.03c-.47.46-1.45,3.51-1.44,4.27.04,3.84,13.7,20.95,17.01,24.67,5.37,6.03,8.41,9.95,16.98,9.68,15.27-.48,35.52-3.34,50.81-5.76,5.97-.95,18.92-1.04,13.01-10.36-3.46-5.46-17.36-21.75-22.2-26.3-1.64-1.54-9.44-6.22-7.27-1.63.49,1.02,2.62,1.12,3.59,2.07,2.13,2.1,4.41,6.03,6.5,8.08.76.75,2.22.41,2.94,1.3.53.66.04,2.83.64,3.72.84,1.24,4.28,2.46,6.07,4.69,1.2,1.49,6.51,10.22,6.09,11.58-.44,1.44-4.62,1.67-6.16,1.97-10.32,1.97-23.24,3.17-33.82,4.17-5.53.52-21.9,2.7-26.06,1.01-1.63-.66-8.66-8.05-10.32-9.89-2.31-2.56-12.55-15.23-13.17-17.59-.66-2.51.23-3.04,2.4-3.72,9.58-3,21.96-1.38,31.57-4.02,4.68-1.29,1.72-3.22-2.16-3-7.24.4-16.93,1.53-24.18,2.54-2.01.28-9.81,1.49-10.83,2.5ZM322.24,251.84c-1.67-8.17-17.64-9.79-18.39-1.9-.29,3.04,3.29,7.01,6.01,7.47.83.14,8.57-7.82,12.38-5.56ZM302.84,255.08c-1.08-11.68-18.4-8.57-18.59,2.43h3.23s.39-2.41.39-2.41c.73,2.19,3.28,4.73,5.64,4.88.58.04.37-1.18,1.02-1.64,2.37-1.7,5.27-3.46,8.31-3.25ZM279.95,252.1c-2.97-3.36-9.43-3.51-13.09-1.06-8.86,5.93,2.28,13.05,6.47,17.79.32-4.31,2.05-7.32,5.29-10.07.89-.76,3.03-1.15,3.14-1.3.58-.78-1.13-4.57-1.82-5.35ZM220.39,250.24c-1.45-.11-2.89-.01-4.34.09-1.01.07-4.97.45-5.35,1.5l5.08,1.52,4.61-3.12ZM205.03,252.67c-3.64-1.24-6.58-1.48-9.25,1.64-3.32,3.88-.54,4.52.63,8.2.53,1.67.3,4.7.9,5.56.18.25,5.42,2.28,5.72,2.25,1-.08,2.42-5.02,5.26-5.88,5.39-1.63,9.02,2.39,7.08-6.36-.79-3.55-4.52-5.11-7.91-4.61-.49.99,3.47.97,1.61,2.41-.84.65-5.12-.51-6.46-.81l2.42-2.41ZM225.24,255.89c1.99-5.82-6.84-4.99-8.09-.41,2.44-.5,1.3.76,1.72,1.08,1.46,1.11,2.74-2.8,4.75-2.28,1.94,4.85-4.61,7.9,1.87,9.9,4.15,1.28,7.45-4.44,12.68-1.82-1.2-5.61-3.94-10.92-10.5-8.88l2.42.81c-.61,2.05-3.1,1.64-4.85,1.61ZM194.52,252.67c-3,.4-6.35.44-9.3.81-1.46.18-1.32-.31-1.21,1.61,5.12-.4,8.03,4.58,10.51-2.41ZM253.52,265.59c.87-5.57-1.03-9.18-5.64-12.13.26,5.17,1.54,8.84,5.64,12.13ZM179.16,254.28c-3.41.64-7.71.56-10.94,1.59-.84.27-1.5-.53-1.2,1.24.16.96,2.65,4.84,3.24,4.44l2.84-4.05,6.06-3.22ZM314.15,269.64c4.43-.7,16.58.38,16.94-5.3.51-8.18-9.81-13.36-16.33-8.46-3.73,2.8-.93,4.42-.64,6.93.26,2.26-.08,4.58.03,6.83ZM182.4,259.93c-.74-6.96-10.83.44-11.26,2.95-.16.92,10,13.24,10.86,13.21.8-2.2,5.52-5.47,5.94-7.04.76-2.81-2.58-4.93-.27-6.69l7.67,3.63c-1.18-7.13-5.7-8.43-12.13-9.29-.68,4.88.7,1.55,2.42,4.03-2.68.98-5.71,1.37-7.27-1.6l4.04.79ZM222.81,256.71c-3.32.1-3.73,4.12-4.85,6.45,3.32-.1,3.73-4.12,4.85-6.45ZM312.54,270.45c2.27-8.89-6.22-17.05-14.49-12.47-5.18,2.87-1.7,3.95-1.06,7.4.41,2.21.12,4.47.19,6.68,4.8-1.14,10.33-1.46,15.35-1.61ZM294.6,271.92c.54-.36.92-2.59.89-3.4-.53-12.93-21.41-12.13-20.14.7.54,5.49,16.83,4.28,19.25,2.7ZM260.8,274.49c.96-5.64-1.09-9.66-5.64-12.94-.96,5.51,1.48,9.58,5.64,12.94ZM167.03,279.34l-.15-8.32-5.49-7.03.36,8.12,5.28,7.24ZM194.52,269.63c-1.03-2.68-2.96-4.62-5.65-5.65-.21,3.47,2.21,5.87,5.65,5.65ZM246.01,266.65c-1.56-1.14-5.17-.89-7.21-1.28-2.75-.53-4.22-2.92-8.35-.62-3.28,1.83.31,5.95.36,9.43.03,2.08-.82,4.08-1.53,5.97,3.79-.9,17.05-.79,19.4-2.81s-.79-9.3-2.67-10.68ZM209.08,282.57c3.52-1.4,16.03-.6,18.26-2.34,3.16-2.48,1.24-15.58-5.74-15.49-1.98.02-3.23,1.52-4.8,1.57-3.27.11-6.58-2.4-9.8,1.65-3.67,4.62,4.13,8.89,2.08,14.61ZM158.92,265.64c-4.92.48-13.36-2.49-12.47,4.91l29.12,46.75,2.4,1.65,138.16-16.2c3.08-.4,2.28-4.01,3.66-6.04l-33.54,3.64c-12.72,2.43-18.79-7.37-27.06-14.54-.9.7-2.58,13.48-3.86,15.95-1.66,3.2-10.23,4.22-13.75,4.84-17.35,3.09-35.25,3.76-52.76,5.52-2.3-.47-4.41-1.21-6.37-2.53-4.66-3.15-18.56-19.99-20.94-25.14-2.83-6.11-1.05-12.4-2.6-18.83ZM207.46,282.57c.17-4.21-1.22-8.58-5.09-10.68-.61-.33-5.53-2.21-5.86-2.24-.35-.04-.28,1.46-.9,1.6-4.27.97-6.52-1.66-10.33,3.28-2.79,3.62-1.32,5.58,2.37,8.04,4.27,2.85,14.54-.26,19.82,0ZM268.88,282.57c1.22-6.51-1.59-9.37-6.45-12.94-2.12,6.88,1.68,8.92,6.45,12.94ZM177.55,290.65c1.22-7.15-4.85-11.99-8.88-16.97.12,2.69-.46,5.41.43,8.05.36,1.06,7.54,9.98,8.45,8.93ZM146.84,276.51c.97,28.36-.73,56.92,0,85.3l11.32,8.08v-77.21c0-.88-8.21-12.56-9.57-14.71-.87-1.37-.51-3.12-2.14-2.68-1.14.14.39,1.02.4,1.22ZM167.84,289.04c.42-6.09-2.15-9.88-6.45-13.74.66,5.13,1.96,10.5,6.45,13.74ZM277.77,289.04c1.54-7.97-2.21-7.92-7.26-12.12.37,1.96-.65,6.49.17,7.91.21.36,6.7,4.66,7.09,4.21ZM326.28,276.92c-1.28.5-7.79.52-8.09.8-.26.25-.62,6.98-.42,7.28,2.84,4.35,8.67-5.04,8.51-8.08ZM316.49,285.72c.58-.68-.22-6.45.08-8-1.67,1.26-11.54,1.18-12.07,1.66-.3.27-.98,6.86-.86,8.04.5.51,12.43-1.21,12.85-1.7ZM268.88,291.47c1.43-6.48-2.86-9.28-7.26-12.93-2.91,6.58,2.67,9.57,7.26,12.93ZM302.84,280.14c-.43-.43-11.57.53-12.04.9-.52.42-1.28,7.61-.9,8,7.92-1.7,14.94,2.55,12.94-8.9ZM289.1,281.76c-1.53.25-9.36-.34-9.7.01-.25.27-.88,6.75-.47,7.31.89,1.23,8.51.2,9.41-.4,1.43-.96.56-5.18.76-6.92ZM177.54,301.17c1.67-7.85-4.18-11.88-8.88-16.98-1.6,7.56,4.04,12.19,8.88,16.98ZM186.27,291.63c-.14-.25-3.34-1.76-4.28-2.59-1.49-1.32-2-3.13-3.63-4.04.2,2.73-.61,6.15.58,8.7.18.39,5.89,5.68,6.29,5.84,1.66.69,1.13-1.12,1.2-2,.1-1.27.29-5.13-.17-5.92ZM257.57,285.01c-6.93,1.24-11.85-.21-10.51,8.89.33.33,7.26-.49,7.92-.97.93-.69,1.33-6.46,2.59-7.92ZM246.25,286.62c-1.94,1.23-13.25,1.13-13.74,1.61-.29.28.31,6.56-.8,8.08,1.88-.1,13.22-1.15,13.69-1.66.27-.3.42-6.71.85-8.04ZM270.51,286.62c.27,2.07-.65,5.52.4,7.27.18.3,5.31,4.01,5.65,4.03,1.76.13-.01-6.22.84-7.31l-6.89-3.99ZM323.04,286.62c-7.4-1.2-5.01,2.95-6.46,8.07,5.23.99,4.66-4.86,6.46-8.07ZM315.76,287.43c-1.76,1.1-11.68,1.19-12.12,1.61-.28.27.2,6.01,0,7.28,1.94-.3,11.43-.8,12.01-1.74.68-1.09-.23-5.48.11-7.16ZM230.9,289.04c-2.35.45-12.69.39-13.8,1.16-1.53,1.07-.46,6.55-.75,8.54,2.42-1.68,12.19-.86,13.62-1.73,1.06-.64.98-6.47.92-7.98ZM289.91,297.93c7.89-2.29,13.87,2.96,12.11-8.89-1.98,1.38-11.08.63-12.07,1.66-.43.44.21,5.89-.04,7.23ZM214.74,290.65c-2.15.11-13.84.76-14.44,1.74-.68,1.09.23,5.47-.12,7.16,1.84-.2,14.04-.3,14.56-.81.3-.3-.22-6.73,0-8.09ZM288.29,297.94c.24-.24.44-6.67.04-6.9l-9.75-.38c.06,3.01-1.07,7.44,2.93,7.85.51.05,6.53-.33,6.77-.57ZM199.37,292.28h-11.32v8.09c8.21-.25,12.84,2.65,11.32-8.09ZM255.15,294.71c-7.37.43-10.07.54-9.69,8.88,6.93-.36,8.39-2.41,9.69-8.88ZM476.62,294.7h-33.95c.34,3.55,4.94,11.53,2.21,14.35l-28.93,11.99.23,39.37c2.46,11.91,13.76,14.41,20.55,21.89,3.27,3.59,5.64,9.77,1.84,13.8-7.86,8.34-39.83,1.52-45.57-7.66-2.87-4.58-1.1-19.6.07-25.28l-5.37-38.55h-6.46s0,31.12,0,31.12c0,4.12-6.08,2.84-9.36,4.38-3.84,1.81-.76,3.87-.4,7,.54,4.73,1.5,16.27-.7,20.2-3.13,5.59-23.21,10.55-29.52,10.9-4.5.25-16.9-.67-19.39-4.92-7.13-12.15,16.31-19.46,21.79-26.64.62-.81,1.57-1.02,1.2-2.43-20.14,1.94-40.47,4.81-60.28,8.02-2.01,2.71,4.03,10.93-1.28,11.65l-80.36,12.59c-4.29-.22-2.69-8.84-4.36-10.08-.84-.62-14.86,3.86-16.65,1.28-.61-.87.67-2.28.47-2.43-.86-.68-4.94,1.5-6.49.48l-28.69-21.5c-2.47-.22-.39.87-.39,1.2v50.94c0,5.87,10.37,15.04,16.57,14.96l295.07.03c5.87-.41,11.65-3.68,14.79-8.65.81-1.29,3.36-7.67,3.36-8.76v-119.25ZM186.31,301.29c-.27-.42-7.01-3.82-7.95-5.78-1.75,4.29,3.28,12.23,6.87,13.74,1.65.69,1.13-1.12,1.2-2,.09-1.19.26-5.34-.13-5.96ZM175.13,382.83v-62.66l-15.36-23.85v74.79l15.36,11.72ZM244.63,296.32c-1.8.74-12.47,1.15-12.93,1.61-.26.26-.15,6.12-.8,7.27.47.44,11.23-.53,12.17-1.16s2.02-7.27,1.57-7.72ZM230.09,298.74c-1.87.43-13.26.32-13.74.82-.28.29-.63,6.9-.81,8.08,2.34-.5,12.47-.8,13.58-1.77.58-.51,1.33-6.76.97-7.13ZM333.52,304.45c-.43-.59-11.31-3.05-12.9-4.9-4.32,9.33,4.04,9.43,10.93,12,1.12-.11,2.2-6.78,1.97-7.1ZM214.74,300.36c-.49-.49-13.23.77-13.8,1.16-1.48,1.02-.51,5.86-.75,7.73,2.25-.73,13.74-.87,14.5-1.66.42-.43-.2-5.88.05-7.24ZM442.67,300.36l-12.59,4.82c-.28.36,1.45,5.69,2.06,6.16.48.37,9.67-2.79,10.61-4.05,1.65-2.22-.3-4.41-.07-6.93ZM199.37,301.98h-11.32v8.09c6.98-.09,13.08,1.09,11.32-8.09ZM310.92,305.21v60.64l21.82-2.43c-.94-5.94,1.46-47.87-.49-49.39-2.96-2.31-12.74-2.44-14.68-7-.34-.79-.04-2.46-.18-2.63-.21-.25-6.22.59-6.46.81ZM362.66,312.49c-9.72-.56-18.54-2.53-27.06-7.28-.46,1.01-3.09,6.96-2.85,7.26.27.34,6.87,3.49,7.86,3.87,7.35,2.8,13.83,2.19,21.23,3.42l.82-7.27ZM309.3,306.02l-22.63,2.43v61.45l22.63-3.23v-60.64ZM428.89,306.05c-5.51,1.44-9.86,4.61-15.93,5.42-7.58,1.01-15.12-3-11.5,8.3,4.63-1.69,9.78-.35,14.74-1.02,1.9-.26,13.71-4.7,14.26-5.55.91-1.42-1.37-5.42-1.56-7.15ZM285.05,308.45l-22.23,2.42c-.66-.03-2.02.76-2.02,1.22v12.53c2.81.01,12.62-2.86,14.16-.82,3.64,13.73,4.45,28.62,7.79,42.34.36,1.48.05,4.38,2.29,3.76v-61.45ZM260,324.62v-11.72c0-.83-1.88-1.26-2.79-1.25-6.43.05-14.31,3.02-21.06,2.46-.66-.03-2.02.76-2.02,1.21v12.53l25.87-3.23ZM399.73,319.66c.52-.81.47-6.68-1.07-6.96s-10.19,2.03-12.98,2.21c-7.87.5-14.61-1.03-22.21-2.42.28,1.44-.46,6.58.08,7.2.42.48,10.88,2.36,12.46,2.49,3.35.28,22.28-.28,23.73-2.52ZM232.51,314.91l-26.67,3.23v13.74l25.33-3.37,1.35-1.08v-12.53ZM334.36,315.72v46.89c2.94.06,12.91-.04,13.4-3.6l-1.23-38.75-12.17-4.54ZM204.22,318.14l-26.63,3.28-.86,62.22c2.42.06,5.32.56,6.28-2.21l7.85-47.13c1.34-1.73,12.2-.58,13.81-3.22.63-1.03-1.29-10.61-.46-12.94ZM348.91,320.57v19.81c0,.28.98,2.65,1.33,2.9,2.18,1.55,16.94,3.25,19.19,1.64.93-.67,3.64-20.4,2.45-21.2-3.88-2.62-17.9-1.97-22.97-3.14ZM413.57,344.02v-19.81c0-.41,1.28-1.7.8-2.83-8.27-.52-16.39.56-24.29,2.89.27,3.31,1.32,19.71,3.25,20.99,6.77,1.4,13.47-1.29,20.24-1.24ZM378.78,324.65c-.18-.17-3.1-.03-3.99-.85l-4.05,33.95,8.07-.81c-.83-3.99,1.13-31.17-.03-32.29ZM273.73,325.43l-80.82,10.51,9.65,57.86,80.89-11.8-9.71-56.58ZM198.57,384.44l-7.27-42.04-7.28,43.65,14.55-1.61ZM353.36,348.06c4.96.73,11.42-.54,16.57,0-.05-1.37.55-1.73-1.02-1.44-6.72,1.23-13.06-.07-19.58-1.8-1.66,1.77,3.11,3.11,4.03,3.24ZM413.51,347.18c.16-.27.39-2.29-.33-2.34-6.06,2.13-13.24,2.95-19.6,1.78-1.56-.29-.97.06-1.02,1.43,2.84,1.32,20.01.66,20.96-.88ZM354.97,351.3c4.37.55,9.66-.4,14.15,0,.11-1.89.28-1.43-1.2-1.62-5.88-.75-12.62.86-18.6-1.63-.48,1.95,4.27,3.07,5.65,3.24ZM414.38,348.87c-6.75.54-11.59,1.77-18.42,1.04-1.16-.12-2.91-1.11-2.58.97.95,1.43,2.16,1.15,3.58,1.26,4.33.34,11.76-.85,16.21-1.68,1.32-.25,1.4.53,1.21-1.59ZM369.12,352.91h-13.34c-.8,0-5.87-1.87-6.05-1.62.3,1.55-.49,7.33.08,8,.28.32,5.79.89,7.49,1.8,3.71,1.99,2.95,8.9,8.83,5.39,3.5-2.09,1.73-9.78,2.99-13.58ZM413.57,352.1c-4.57.28-9.64,1.42-14.15,1.69-2.23.14-5.82-1.98-5.75.79.03,1.15,1.71,11.24,2.06,11.72,1.03,1.45,3.23,2.07,4.95,1.64,1.97-.5,2.1-4.38,5.4-5.96,2.45-1.17,7.23-.73,7.5-.99.32-.31-.24-7.46,0-8.9ZM369.11,366.66c-9.42,7.19-9.11-1.06-12.97-3.6-2.35-1.54-8.44-2.41-9.49.93-1.48,4.72,1.93,3.24,5.23,4.95,2.19,1.13,4.25,2.76,5.9,4.59-.69,1.77-3.21,1.62-3.88,2.15-.14.11.7,1.5-.46,2.34-2.13,1.54-3.76-.55-2.11,3.19-4.6.59-6.75-2.86-11.27-3.67-5.91-1.06-8.22-.2-12.55,3.7-3.77,3.4-5.74,4.74.37,6.86,10.41,3.61,24.8,1.3,34.51-3.5,9.9-4.9,7.87-7.67,6.71-17.94ZM415.88,363.54c-1.22-1.51-7.58-.43-9.37.5-2.91,1.51-2.13,5.1-3.96,5.74-2.46.85-6.09-.43-8.37-1.51-.21,3.76-2.07,9.06-.05,12.58,2.31,4.04,16.07,9.43,20.74,9.97,4.91.57,18.31.35,22.14-2.75,1.18-.96-.86-3.25-1.62-4.03-4.67-4.82-8.76-6.32-15.57-5.07-3.39.62-5.59,3.99-9.48,3.04,1.88-3.68-1.08-1.89-3.22-4.44l4.83-3.63c-2.34-.39-8.3,5.11-7.31-.37.18-1.01,10.05-6.29,12.16-4.5-.62-1.16-.57-5.1-.92-5.53ZM323.05,388.49c-.64,5.67,5.62,6.85,10.11,7.26,9.76.89,22.41-1.36,31.01-6.14,2.8-1.56,6.37-3.9,5.74-7.59-13.14,9.61-31.67,13.06-46.87,6.47ZM438.63,390.11c-15.36,5.73-32.87,3.77-45.25-7.28.48,7.13,11.39,11.25,17.35,12.96,7.1,2.03,27.05,4.99,27.91-5.68Z"/>
        <g>
          <path d="M226.85,377.16c-2.44,2.24-4.42-6.58-7.27-5.65,1.04,1.1.81,9.81-1.23,6.48-.76-1.24-2.47-14-1.96-14.53.59-.61,5.82-1.15,7.27.33,3.33,3.41-.05,5.12.12,7.19.11,1.36,4.02,5.32,3.07,6.19ZM220,365.05c-1.57.43-1.87,3.87-.02,4.82,3.7-.76,3.61-5.81.02-4.82Z"/>
          <path d="M226.05,349.68c-1.01,1.14,2.71,6.79-1.62,6.46-.01-5.21-5.83-18.18,4.27-15.21,4.03,1.19,1.29,6.23,1.61,8.23.16,1.03,3.02,4.25,2.99,4.97-.02.51-1.28,1.59-2.43.83-1.33-.88-1.82-5.74-4.82-5.28ZM229.27,346.43c1.78-2.75-5.83-6.34-4.03.82.25.26,3.92-.65,4.03-.82Z"/>
          <path d="M256.75,335.94c.62.47,6.23,14.01,5.67,14.55-2.22,2.13-3.1-3.01-3.31-3.15-3.66-2.52-4.25,4.73-5.18,4.75-2.01.05-.43-9.28-.17-10.67.16-.88.88-7.08,2.99-5.49Z"/>
          <path d="M243.02,364.23c-.91,1.17-3.7-4.48-4.84-1.2-1.24,3.59,5.72,1.79,6.47,5.66,1.54,8.01-8.47,8.8-8.09,1.21,2.12-.57,1.85,2.08,2.98,2.44,2.4.77,3.39-.41,2.72-2.78-.26-.93-8.26-.73-6.39-7.17,1.18-4.07,8.46-3.57,7.15,1.85Z"/>
          <path d="M272,355.46c.5.31,1.02,3.05.93,3.91-.67.72-3.83-2.64-4.84-1.61-2.74,2.79,5.61,2.52,6.27,6.23,1.44,8.06-7.79,8.51-7.89,1.05,2.02-.46,2.69,3.32,4.45,3.21,1.09-.07,1.67-3.41,1.18-3.99-.73-.86-6.85.55-6.52-5.29.19-3.32,4.17-4.91,6.42-3.52Z"/>
          <path d="M260.79,356.96c.62.41,3.93,12.14,5.67,13.73-3.31.88-3.68-5.19-7.07-2.22-1.31,1.15.11,4.44-2.62,3.84.19-2.62-.27-18.19,4.02-15.35Z"/>
          <path d="M234.13,363.42l-5.66.82c.15,6.09,5.27.8,6.47,3.64.85,2.01-4.21,1.44-4.75,2.1-.46.55.08,2.94-.09,3.96.8.84,6.78-2.84,6.46,1.61-1.69.08-6.91,1.64-8,.72-.62-.52-2.35-13.5-1.61-14.37.6-.7,8.07-2.09,7.18,1.52Z"/>
          <path d="M232.52,339.98c.19-.17,1.76.1,2.42-.01.71,2.51-.27,12.23,3.62,11.35,4.25-.96-.27-8.61.43-11.72,1.06-4.69,3.13,4.52,3.21,5.64.26,3.53,1.03,9.95-4.25,9.15-4.33-.65-6.03-13.87-5.43-14.41Z"/>
          <path d="M254.33,363.42c-1.87.42-2.41-1.94-3.76-2.31-4.56-1.25-3.69,11.67,2.08,9.52.89-.62-.14-4.8,2.49-3.97-.28,13.83-13.16,4.23-9.08-5.46,2.03-4.82,8.45-2.72,8.27,2.21Z"/>
          <path d="M221.2,344.01c-6.73-.04-7.27,5.27,0,4.05v2.42s-4.04,0-4.04,0c.38,2.37,2.04,5.29-.41,7.25-1.18,0-3.17-12.84-2.76-14.02.54-1.55,7.66-3.68,7.2.29Z"/>
          <path d="M214.74,364.24v2.42s-4.85,0-4.85,0l.81,4.04c.97.33,3.74-1.16,4.03-.81.08.09.1,2.33.01,2.42-.29.28-2.96-.28-3.25,0-.41.39,1.57,9.54-1.6,7.28-.6-.43-2.83-13.91-2.41-14.51s6.91-1.21,7.26-.84Z"/>
          <path d="M251.1,337.56c.66,2.57-2.87,2.12-3.2,2.46-.38.4,1.66,8.72,1.62,10.85-.03,1.65.5,2.38-1.64,2.04-1.51-2.95-.87-8.27-1.74-10.8-.6-1.78-4.42-1.06-3.93-3.74l8.88-.81Z"/>
        </g>
        <g>
          <path d="M214.73,124.1c.22-1.26-1.16-.88-2.04-.84-2.63.14-4.38.71-6.05,2.85-1.46,1.86-.85,4.73-3.21,4.46-.23-13.65,21.27-10.08,16.36,1.41-4.54,10.6-18.33-4.19-5.05-7.88Z"/>
          <path d="M248.68,124.1c.13-1.5-3.5-.86-4.27-.63-2.31.7-3.51,4.11-3.82,6.29-1.93-.33-.43-4.1.11-5.15,5.77-11.15,18.75,4.47,10.86,9.24-7.53,4.55-11.66-9.19-2.89-9.76Z"/>
          <path d="M218.77,146.74c5.6,1.32,9.72,2.91,15.68,2.35,1.61-.15,7.37-2.95,6.97-.31-.51,3.36-4,6.59-7.23,7.32-7.8,1.78-12.12-2.32-15.82-8.53l-3.63,4.83c.06-4.68,3.94-7.54,6.87-10.5,1.59,1.51-3.47,4.22-2.83,4.84ZM239.79,149.18c-4.11,1.15-7.27,1.93-11.63,1.52-1.03-.1-7.17-2.71-6.14-.32,2.58,5.99,15.96,5.98,17.77-1.19Z"/>
          <path d="M202.05,114.65c2.84-3.48,16.89-8.62,17.56-2.22.44,4.19-6.36,3.24-8.96,3.97-1.86.52-6.61,2.88-7.68,2.87-2.59-.03-2.22-3.01-.91-4.61ZM217.96,113.59c3.47-4.83-14.96-1.11-15.35,3.23,2.1-.83,14.9-2.6,15.35-3.23Z"/>
          <path d="M256.76,117.64c-3.05-1.2-13.56-1.54-15.37-2.8s-.68-3.74.88-4.82c4.72-3.3,13.76,2.04,14.5,7.63ZM253.53,115.21c-1.97-3.9-7.73-5.71-11.31-2.81l11.31,2.81Z"/>
          <path d="M230.09,141.09c15.73.19.47-8.07,2.82-15.37,1.6,1.45,1.5,3.76,2.51,5.58,1.58,2.85,4.19,4.02,3.57,7.72-.57,3.36-7,5.48-8.9,2.07Z"/>
          <path d="M182.17,132.44c1.48,1.19,2.16,4.35,1.84,6.22-2-.57-2.02-5.02-3.74-5.6-1.58-.53-3.48,1.03-5.14.75,1.1-2.92,4.84-3.15,7.04-1.36Z"/>
        </g>
        <g>
          <path d="M327.09,101.47c7.5-19.06,32.65-10.78,45.29-23.82,2.32-2.39,3.13-5.66,5.62-7.71-7.4,24.15-38.97,11.77-50.91,31.53Z"/>
          <path d="M420.03,95.81l-2.6-9.11c-3.85-10.64-9.62-10.41-15.98-17.17-3.46-3.69-5.15-8.82-7.27-13.33,3.54,2.43,4.16,7.09,6.84,10.53,3.92,5.04,11.32,8.15,14.84,13.46,2.82,4.25,4.63,10.56,4.17,15.63Z"/>
          <path d="M379.63,139.47c-1.18,17.78-22.81,19.2-24.25.81,8.32,2.14,15.97-.63,24.25-.81ZM378.01,141.09l-20.2,2.41c6.32,1.85,15.11,2.28,20.2-2.41ZM376.39,145.14c-3.05.95-6.79,1.03-9.71,2s-6.68,3.94-1.23,4.51c4.71.49,9.23-2.1,10.93-6.52Z"/>
          <path d="M327.31,107.35c4.21-4.13,22.52-4.2,27.24-.61,6.53,4.96,2.82,19.83-3.74,23.71-4.89,2.89-15.14,2.45-19.65-1.12s-8.21-17.71-3.85-21.98ZM331.13,107.13v14.96c0,.27,1.07,4.96,1.21,5.26,1.75,3.7,11.7,3.74,15.17,3.04,6.79-1.36,11.03-15.24,7.42-20.79-3.4-5.21-18.34-3.12-23.8-2.47ZM329.51,122.09v-13.34c-4.65,2.38-1.66,8.7-1.05,12.77l1.05.57Z"/>
          <path d="M402.03,105.74c6.05,6.08,1.4,24.43-9.26,26.26-14.43,2.47-25.16-7.13-21.86-21.87,1.85-8.3,26.72-8.82,31.13-4.39ZM385.92,104.95c-9.9.85-15.21,2.59-13.21,13.54,2.74,14.96,24.15,16.94,28.9,3.77,5.13-14.24-2.54-18.43-15.69-17.31Z"/>
          <path d="M427.31,112.8c-.29,1.81-3.02-.09-4.44,1.6-2.86,3.41,1.22,5.41,1.04,7.55-.05.54-1.85,5.24-3.06,3.77-.68-.83,1.7-2.98,1.46-4.3-.21-1.15-2.23-2.25-2.22-4.18.01-3.92,3.65-6.09,7.22-4.44Z"/>
          <path d="M353.75,121.68c-2.55-1.7-1.26-5.14-2.89-8.02-3.94-6.93-13.18-3.78-14.09,3.57-.44,3.55,2.01-1.99,2.48-2.39,10.94-9.29,14.08,16.14.47,9.15-4.94-2.54-2.67-7.74-7.77-9.19l4.01-1.62-1.59-1.62c.79-1.57,2.13-.4,3.14-.85,1.83-.81,3-2.41,5.4-2.75,7.8-1.1,11.67,6.96,10.84,13.71Z"/>
          <path d="M398.21,110.37l-.8,4.04,2.41.4c-3.43,1.25-1.83,2.98-2.83,5.24s-4.92,4.45-7.34,4.8c-19.52,2.8-10.96-23.37,2.31-16.72,2.5,1.25,2.6,4.07,6.24,2.25ZM390.14,123.29c4.96-1.12,6.65-3.76,5.03-8.67-2.71-8.19-14.72-6.41-15.53,2.21,5.61-8.21,14.03-2.25,10.5,6.46Z"/>
        </g>
      </g>
      <rect class="cls-1" width="603" height="452"/>
    </g>
  </g>
</svg>