<?xml version="1.0" encoding="UTF-8"?>
<svg id="Capa_2" data-name="Capa 2" xmlns="http://www.w3.org/2000/svg" xmlns:xlink="http://www.w3.org/1999/xlink" viewBox="0 0 603 452">
  <defs>
    <style>
      .cls-1 {
        fill: none;
      }

      .cls-2 {
        clip-path: url(#clippath);
      }
    </style>
    <clipPath id="clippath">
      <rect class="cls-1" width="603" height="452"/>
    </clipPath>
  </defs>
  <g id="Capa_1-2" data-name="Capa 1">
    <g class="cls-2">
      <g>
        <path d="M429.68,397.02c.73.62,6.7-4.89,7.46-1.22.19.93-3.5,7.46-4.56,8.68-1.92-1.59,2.38-7.19,2.07-7.44-1.15-.22-1.88.36-2.77.95-2.03,1.34-1.56,3.46-3.85,3.18v-9.94c-3.37,2.45-4.5,6.83-4.15,10.77-1.09,1.28-4.78-5.12-6.61-4.97-.29.35,4.6,10.98.83,7.45-.34-.32-3.46-8.05-3.33-8.68.66-3.2,6.4,2.83,7.44,2.05,1.88-8.71,10.01-13.63,7.47-.83Z"/>
        <path d="M181.32,395.3c.51.37,10.62-2.67,9.82,4.21-2.28.55-1.44-1.4-3.01-2.33-3.86-2.28-6,.92-7.25.62-1.83-.43-2.07-6.83-8.82-4.55-1.21.41-2.49,2.24-3.57,2.04-.8-.15-1.57-1.87-2.77-2.25-5.5-1.75-6.86,4.04-7.31,4.01-1.5-.08-3.33-2.56-5.66-2.31-2.61.29-3.68,3.92-6.32,3.93.24-3.29,3.99-5.87,7.04-5.85,1.84,0,3.53,1.55,4.15,1.5.81-.06,2.93-3.64,5.93-3.72,1.96-.05,3.43,1.95,4.96,2.09,2.97.27,5.55-4.44,11.05-.22,1.21.93,1.51,2.64,1.76,2.82Z"/>
        <path d="M214.34,373c6.35-5.99,7.91-.4,3.71,4.97l.41-5.79-5.78,4.14-.42-9.11c-2.4,1.94-1.1,6.27-3.72,7.45l-1.66-2.48-.82,4.14c.22-2.67-1.28-7.48,2.47-7.45l.82,1.65c2.61-8.37,6.05-5.03,4.99,2.49Z"/>
        <path d="M299.64,325.78v9.11c-4.02.63.35-6.56-2.07-7.45-.59-.22-1.58,5.8-3.31,6.62-2.86-7.15-8.66-8.34-2.9.42-3.04,1.54-5.82-8.15-2.87-8.71,3.02.41,4.1,2.85,5.78,4.96,2.05-1.74,1.75-5.71,5.38-4.95Z"/>
        <path d="M338.51,402.06c2.86,4.48-2.5,1.08-3.03.95-5.53-1.32-5.76,1.92-7.38,2.22-.8.15-2.44-1.79-4.85-1.68-2.15.11-2.66,1.78-4.56,1.75,2.05-6.16,5.7-2.72,8.7-2.81,1.36-.04,3.51-1.72,5.8-1.73.84,0,5.18,1.08,5.33,1.31Z"/>
        <path d="M384.95,377.14c.33.32.45,7.69.83,9.11-2.5.41-1.33-.62-1.67-2.01-.28-1.14-.63-5.26-1.23-5.45-1.79-.4-1.22,1.31-1.62,2.48-.56,1.63-1.29,3.22-1.27,4.98-3.67-.32-3.13-6.24-7.44-5.79l2.48,6.21c-2.68,1.6-4.79-6.56-3.34-7.49,2.92-1.86,5.2,2.11,7.07,3.74.96-.01,2.24-5.15,3.07-5.6.6-.32,3.02-.3,3.14-.19Z"/>
        <path d="M266.51,388.75c.59.61.44,1.78-1.17,1.56-2.2-.3-4.6.12-5.65-.1-2.23-.46-3.55-2.67-7.25-.65-.32-1.67.79-2.01,2.03-2.56s11.61,1.3,12.04,1.75Z"/>
        <path d="M452.03,368.03l-3.09,8.12-1.87,1.81c-.98-1.44,3.19-11.87,4.96-9.93Z"/>
        <circle cx="199.94" cy="156.99" r="2.87"/>
        <g>
          <path d="M148.73,10.38c71.51-.19,143.05-.4,214.24-.28,25.58.04,53.5-1.42,78.75,0,14.73.83,25.52,4.96,27.75,21.12v394.41c-.87,9.7-9.83,18.61-19.47,19.47H146.8c-12.17-1.05-19.37-10.27-20.29-21.96V32.89c1.07-12.47,9.59-21.62,22.22-22.51ZM129.02,30.44v193.44l49.61-14.16c.73-8.97-1.58-6.49-7.11-8.88-2.31-1-7.25-4.66-8.29-4.96-2.49-.7-5.83.42-8.46-1.07-1.2-1.8,2.16-4.94,1.58-5.72-.45-.61-10.89-4.77-13.52-6.78-4.19-3.2-7.38-7.77.27-8.15-5.44-6.72-.99-10.75,5.79-5.79-.22-2.02-.37-4.02,2.1-3.82,3.9.32,10.8,12.22,13.23,15.4,2.85-4.34,11.81-10.2,14.02-14.13,2.49-4.45,1.47-10.02,5.08-15.63,2.46-3.82,5.14-1.98,1.19-7.07,1.01-2.43,5.86-1.68,6.5-2.23.88-.75-.47-5.1,4.57-2.23,2.12,1.21,2.54,3.36,3.91,4.38s3.82,1.34,5.68,2.6c2.55,1.74,5.08,6.65,6.7,7.38,1.23.56,7.46.78,7.45,1.68-.42,2.58-4.6,2.57-4.14,5.36,7.1,2.89,1.47,4.3-3.32,4.16,2.04,12.34-2.67,28.57-14.33,34.96-2.88,1.58-12.2,2.92-6.03,7.35,1.56,1.12,17.87,1.15,20.79.79,1.48-.18,8.42-2.73,8.69-3.92.94-4.08-.99-6.8,2.46-11.44,1.82-2.45,8.21-6.27,11.2-6.27,3.72,0,1.1,10.29.04,12.54-2.76,5.84-8.21,5.74-12.06,9.88,2.71-.02,6.84-.03,9.31-1.03,3.11-1.26,4.5-5.02,9.3-5.6,4.51-.55,18.44,1.83,12.79,7.82-3.61,3.83-9.06,5.3-14.22,4.43-2.54-.43-5.94-3.07-7.65-3.06-1.85.01-5.05,2.75-7.86,1.61,1.87,3.14,5.51.59,9.14,1.16,4.54.72,13.83,8.52,12.33,13.22-.93,2.9-10.39.92-12.94-.14-5.8-2.41-6.32-7.49-8.56-8.83-1.48-.89-8.34-1.83-10.43-1.99-10.58-.83-19.97,1.76-30.12,4.05l9.91,4.58c7.96-1.18,16.7,8.37,16.56,15.79-.09,4.62-13.23.17-15.67-1.76-4.1-3.25-4.17-10.09-4.65-10.42-1.48-1.04-13.19-3.15-15.63-3.25-4.93-.21-6.96.45-11.43,1.9-11.59,3.76-22.18,10.87-33.75,14.7v30.65c5.92-2.66,14.38,1.01,15.75,7.45,5.67-4.62,13.63-5.21,18.22,1.24.85,1.2,2.22,5.38,2.89,5.38.14,0,1-1.27,1.85-1.44,6.69-1.32,11.07.86,12.94,7.46.47,1.66-.42,2.99-.31,3.09.37.35,6.38.65,8.05,2.73,1.21,1.51.89,4.5,1.1,4.71.27.26,5.63-.04,7.48.39,7.61,1.75,9.49,9.49,7.39,16.21,5.18-1.7,7.52,4.94,11.06,4.94,4.73-2.41,38.06-5.99,39.43-7.46.28-.3-.47-4.67,1.69-7.83,2.46-3.59,5.98-3.47,7.27-4.74,1-.99,1.18-4.86,3.28-6.46,2.41-1.84,7.23-1.44,7.58-1.73.28-.24,1.03-4.92,3.19-6.56,4.26-3.23,9.03-.42,9.31-.81.26-.36.19-4.69,1.9-6.4,3.32-3.32,7.7-.8,8.04-1.05.17-.13.6-2.96,1.32-4.09,3.12-4.89,8.49-2.7,9.38-3.46.38-.33,1.81-5.9,5.25-8.42,4.65-3.4,10.52-1.41,12.1-2.4.39-.25,1.64-5.13,4.83-7.18,5.31-3.43,7.86-.48,10.55-1.11,1.1-.26,2.7-4.24,4.34-5.53,2.07-1.63,5.01-1.62,5.22-1.82.67-.65-2.12-14.06-2.39-16.17-4.68-1.12-18.15.96-20.66-3.37-.6-1.04-.68-3-1.11-3.43-.46-.47-10.29-2.3-12.8-3.35-12.98-5.46-14.87-21.61-17.42-33.94-2.08-10.04-1.31-8.99-5.96-18.08-.52-1.01-.84-3.44-.98-3.56-.69-.61-16.1,1.31-18.35,1.8-1.83.4-3.18,1.89-5.23,2.22-16.19,2.64-18.03-14.33-15.72-26.5,1.75-9.27,7.02-10.97,15.73-9.86,7.42.95,11.97,1.74,19.96,1.65,7.37-.08,5.74.51,11.61,1.57,4.81.87,11.5-.56,16.54.02,2.38.27,3.84,1.82,6.18,1.68.17-1.81-1.11-3.54-.86-5.34s2-2.3,2.36-3.52c.84-2.84.63-9.06,1.36-12.72s5.48-14.27,5.38-16.15c-.13-2.53-3.25-2.65-4.96-4.07-9.77-8.11-8.97-25.62-.8-34.61,2.29-2.52,5.47-2.83,7.43-4.4,2.48-1.98,3.11-5.59,7.98-6.16,9.86,1.39,23.13,1.36,27.02,12.64.56,1.63.77,7.01,2.02,7.28,3.39-.27,6.3-1.22,9.82-.89,3.76.35,8.62,3.66,10.74,3.79,1.79.11,4.76-1.37,7.47-1.37,2.89,0,6.24,1.67,8.16,1.48.36-.03,5.29-1.64,5.52-1.81.8-.61,1.06-3.28,1.91-4.72,2.11-3.58,13.46-8.19,17.54-8.2,5.83-.02,4.88,2.32,7.9,3.77,2.7,1.29,7.01,2.13,9.87,4.21,2.67,1.94,9.53,12.65,10.57,15.94,1.17,3.73,1.63,7.81.51,11.64-.63,2.14-4.44,10.61-5.63,12.59-1.92,3.18-4.92,5.61-8.7,6.28-2.84.5-6.52-1.77-7.92,1.16-.28.58,1.43,9.97,1.26,12.82-.34,5.71-3.5,11.52-3.97,15.97-.22,2.1.79,3.67.75,5.57-.17,7.42-4.63,14.24-11.81,16.42-1.71.52-4.89.32-5.52.7-.32.2-3.39,5.76-3.79,6.59-2.81,5.88,5,10.89.51,19.53-1.11,2.14-3.52,3.03-3.48,5.21,9.9,2.84,13.06,13.55,14.06,22.81.27,2.47.18,17.97.84,18.63.24.24,4.85-.21,6.68.36,1.99.63,4.63,4.53,6.18,4.4.59-.05,3-3.04,5.89-3.1,2-.04,3.04,1.61,3.22,1.61.96-.01,2.28-4.51,3.91-5.2,2.87-1.22,6.84.41,7.14.2.57-.41,2.23-4.37,4.28-5.29s4.46-.28,6.61-.43l-.37-203.02c-2.21-7.18-6.99-12.53-14.32-14.67-95.17.45-191.21-4.09-286.42-1.06-5.72.18-14.58.2-19.86.85-7.8.95-15.77,9.41-16.96,17ZM348.42,73.02c3.08-3.53-5.58-22.45-13.97-18.55-1.13.53-3.25,3.43-4.57,4.55-1.02.86-3.02,1-3.8,1.99-2.16,2.72.53,8.6,2.03,11.39l8.81,8.99c-7.39-3-12.29-10.37-13.25-18.22-2.61,2.09-4.21,7.12-4.2,10.35.02,5.4,4.58,10.96,9.41,13.02,5.82,2.47,3.11-1.54,4.92-3.31.9-.88,3.16-.57,3.78-1.19s.31-2.9,1.19-3.78c1.09-1.1,3.79-.57,4.63-1.17.62-.44.47-2.29,1.17-2.96.95-.92,3.55-.73,3.88-1.1ZM363.42,68.13c-.75-10.43-12.24-15.19-21.53-14.07,5.02,4.84,8,10.21,8.29,17.39,2-2.36,5.38-.82,6.65-1.29,1.54-.58,3.05-3.34,6.59-2.03ZM438.78,64.83c-4.79,1.79-6.58-3.46-9.72-4.02-3.97-.71-17.26,5.31-18.26,9.57-1.56,6.63.51,4.31,3.13,5.62,1.23.62,1.84,4.32,3.31,2.91.22-.21.82-3.87,2.14-5.74,2.05-2.91,6.09-5.32,9.47-6.27l9.94-2.06ZM445.96,70.07c-9.24-7.04-25.8-.9-28.7,10.09-.09.36,2.27,1.09,2.97,1.97,1.65,2.07.61,4.53,4.07,5.85,3.41-5.32,7.9-9.87,14.48-10.73l-9.81,6.33c-4.32,6.22-5.2,10.61,3.99,7.3,5.06-1.82,7.39-4.8,10.78-8.67-1.77,6.82-9.91,10.85-16.56,10.78,3.37,1.83,2.36,6.55,2.89,7.44.44.75,3.85,2.8,4.28,5.04,6.16-.82,11.79-4.44,15.36-9.43l3.97-8.85c-.53,9.9-9.52,19.68-19.87,19.05,1.19,5.47,3.05,5.91,8.51,4.78,7.66-1.59,8.41-11.44,12.01-16.98,2.31-11.1-4-15.12-8.37-23.97ZM355.96,71.45c-1.78-1.73-5.87,2.3-4.13,4.13,1.34,1.41,5.55-2.76,4.13-4.13ZM384.12,73.94c-31.62-8.58-62.08,23.85-60.46,54.67,5.31.87,8.42-3.27,12.68-5.13,14.37-6.27,28.26,2.64,43.21-9.8,6.32-5.26,7.32-10.09,10.16-17.22.5-1.26-.48-2.24,1.86-1.82-3.53,18.48,17.31,18.56,19.67,34.59,1.24,8.45-1.98,12.6-2.31,19.65-.21,4.47,1.54,8.65.81,13.22-.59,3.68-4.61,6.63-4.15,10.82l5.03,16.15c1.22-5.02-2.96-9.79-2.55-14.5.33-3.72,5.68-8.58,6.49-13.44s-1.33-8.89-.43-13.7l6.02-14.69-.41,6.62c4.18-2.47,6.93.75,10.75,1.66,1.61-5.67,4.64-20.98,1.19-25.63-1.02-1.38-6.87-6.48-7.4-7.51-1.2-2.36-2.91-8.58-4.16-10.75-.56-.98-2.68-1.24-3.3-2.5s-.13-3.21-.8-4.17c-.62-.91-2.64-.63-3.34-1.63-.55-.78-.29-2.31-.87-3.27-.5-.82-6.56-5.85-7.89-7.03-.84-.75-1.27-2.36-1.82-2.72-4.15-2.72-14.91-.26-19.65.59l1.65-2.47ZM329.39,88.13c-.27-.38-5.49-2.87-6.89-4.34-.99-1.04-2.6-3.75-3.17-5.11-.71-1.68-.02-4.37-1.45-4.75-.39,5.82.19,13.94,4.12,18.65,6.34,7.59,7.84-3.81,7.39-4.45ZM347.41,74.89c-.86.23-1.68,1.29-2.16,2.05,2.24,6.84,7.71-3.53,2.16-2.05ZM414.69,80.16c0-1.51-1.22-2.73-2.73-2.73s-2.73,1.22-2.73,2.73,1.22,2.73,2.73,2.73,2.73-1.22,2.73-2.73ZM344.24,82.11c.65-1.13-.04-2.53-1.15-3.2-3.1-.82-4.41,3.78-2.87,4.96.37.28,3.9-1.57,4.01-1.76ZM419.58,85.29c0-1.59-1.29-2.88-2.88-2.88s-2.88,1.29-2.88,2.88,1.29,2.88,2.88,2.88,2.88-1.29,2.88-2.88ZM424.49,91.73c0-1.78-1.44-3.23-3.23-3.23s-3.23,1.45-3.23,3.23,1.44,3.23,3.23,3.23,3.23-1.45,3.23-3.23ZM428.33,98.5c0-1.69-1.37-3.07-3.07-3.07s-3.07,1.37-3.07,3.07,1.37,3.07,3.07,3.07,3.07-1.37,3.07-3.07ZM431.53,105.2c0-1.54-1.25-2.79-2.79-2.79s-2.79,1.25-2.79,2.79,1.25,2.79,2.79,2.79,2.79-1.25,2.79-2.79ZM377.91,129.44c3.59-.45,8.61,0,12.42,0,.91,0,3.6,1.67,5.38.82-.16-1.29-3.05-1.78-4.13-2.07-5.12-1.38-9.38-.46-13.65-1.26-2.77-.51-4.13-4.65-2.44-5.87,4.11-2.96,17.16,1.87,21.31,4.38,3.45,2.08,5.56,5.77,7.7,7.21,3.32,2.26,5.65-.09,3.64,6.72,1.55-.18,1.74-3.47,1.72-4.55-.04-1.64-.67-5.67-1.11-7.24-3.09-10.89-16.85-13.3-19.25-24.66-3.51,10.45-13.58,17.63-24.26,19.64-2.52.47-7.07.15-8.47.58-1.72.53-2.56,2.59-4.56,2.97-5.16.99-12.27-.97-17.79.85l14.72,2.25c5.02.77,7.82,5.89,13.05,6.06,4.91.16,10.04-5.13,15.71-5.83ZM433.81,112.86c1.58-1.56-1.15-5.35-4.14-3.3-1.24,2.66,3.1,4.33,4.14,3.3ZM399.03,129.43c-2.73-3.26-7.56-5.19-11.59-6.21-3.17-.8-12.29-3.38-10.35,2.08,7.76-.61,14.92,1.09,21.94,4.13ZM353.48,122.82c-3.12.12-6.31-.25-9.44.08-1.5.16-5.55.86-6.3,2.39,2.12.16,4.07-.79,6.17-.85,3.44-.09,8.29,1.72,9.56-1.62ZM406.38,135.34c-10.24-3.51-22.76-6.33-33.25-2.4-4.56,1.71-6.01,4.4-11.77,3.98-5.34-.39-6.2-3.27-9.91-5.04-6.41-3.05-19.55-3.22-26.32-1.39-6.47,1.75-4,2.63-3.12,8.06,2.8.37,2.11-2.69,2.93-4.1,3.56-6.12,24.47-4.22,28.56.35s1.02,15.68-2.49,19.92l-6.63,5.37c4.98-1.61,7.66-4.05,9.94-8.69,1.8-3.65,2.38-11.95,7.03-11.95,5.17,0,4.92,8.3,6.17,11.99,2.36,6.99,6.94,11.31,14.5,12,8.92.81,15.34-.33,19.39-8.83,1.12-2.34,5.72-18.09,4.97-19.27ZM349.34,153.46c3.98-2.7,5.72-14.07,2.87-17.38-2.47-2.86-19.53-4.7-21.98-2.97-1.19.84-.73,3.28-.78,4.61,7.01,1.61,9.31-5.31,16.33-1.83,6.24,3.09,5.67,11.96,3.56,17.57ZM263.2,166.71c1.56.1,3.12-.04,4.47-.9,6.11-3.87,6.26-32.66-6.13-31.39,6.73,9.12,8.04,22.67,1.66,32.29ZM256.33,135.35c-6.22,1.75-5.77,18.57-4.15,23.75,3.34,10.68,10.73,10.74,12.47-.45.81-5.16.35-25.73-8.32-23.3ZM271.48,164.22c3.94-.76,21.75-.82,23.61-2.47,4.76-4.2,3.86-24.32-3.34-25.67-6.49-1.22-14.39,1.7-21.09.81,3.74,8.79,4.78,18.35.82,27.33ZM347.47,152.43c3.65-3.75.53-16.95-7.24-15.53.36,2.68,2.78,3.22,3.26,6.26.34,2.17.09,5.13.06,7.43-.01,1.13-1.68,3.9.85,3.34.34-.08,2.85-1.28,3.07-1.5ZM314.96,138.55c-3.6-1.12-12.68.83-16.98,0,2.37,7.04,3.58,13.52.83,20.71,2.35.02,6.32.24,8.24-1.27,2.05-1.6.64-4.92,3.95-5.21,4.16-.36,3.58,6.54,5.62,4.01,2.91-3.6,2.31-17-1.66-18.23ZM197.05,145.07c-.09-.07.54-1.21-.05-1.96-1.02-1.31-2.71-2.4-3.8-3.73l1.24,4.96-6.62-1.65,3.29,3.73c-9.29,3.74-7.68,11.1-10.35,18.62s-6.03,7.36-11.17,12.02c-.95.86-9.06,9.54-3.9,7.7,1.25-.45,4.74-3.9,5.56-3.13l-5.79,6.62c2.69,2.06,9.41-3.81,9.93-3.3,1.71,1.67-5.59,4.4-4.13,5.79.42.4,9.52-3.08,10.35-4.97,1.21,2.81-4,3.43-4.56,5.79,7.4-.65,17.68-12.53,12.44-19.48-1.51-2-4.2-1.62-4.57-3.71,15.61,2.73,5.46,22.09-5.21,24.63l-13.43,3.54c3.93,1.63,17.43,6.16,20.75,3.79.39-.28,2.65-7.46,3.38-9.05,2.6-5.65,8.14-15.84,14.19-18.11,1.91-.72,5.37-.45,5.57-.64.28-.27.17-6.89-.02-7.86-.38-1.97-2.32-2.31-2.55-4.97-.26-2.95,1.84-4.72,1.43-6.24-.28-1.03-2.58-4.1-3.54-4.84-2.04-1.59-7.52-2.8-8.46-3.54ZM338.98,140.21c-4.53-1.3-15.03.96-20.29,0,1.57,2.35,1.93,4.63,1.66,7.46,1.69-.04,4.25-4.03,4.72-4.15.39-.1,7.59-.64,8.01-.59,3.89.44,6.19,5.83,8.78,8.06.32-2.35-.37-10.04-2.89-10.77ZM416.42,163.4c5.67.82,11.53-4.72,12.86-9.92,3.81-14.85-12.86-18.86-12.86-2.92v12.84ZM406.49,141.86c-.42.44-1.8,9.51-2.68,11.83-6.49,17.03-31.57,15.69-37.48-.25-1.17-3.17-1.37-11.22-4.5-12.01-3.92-.99-3.2,6.71-5.05,9.12l2.48-1.23c1.31,1.78-5.42,6.91-2.56,10.44,1.25,1.54,3.97.2,3.39,2.81-5.04.6-5.99-3.39-6.21-7.46-.06,4.01-9.43,6.53-9.59,7.13s1.04,10.92,1.35,11.89c.68,2.13,9.58,14.14,11.5,15.84,8.72,7.71,39.28-2.17,45.66-10.76,2.3-3.09.64-6.59,1.37-10.22.53-2.66,3.61-5.76,3.94-8.55.28-2.36-.84-4.76-.85-7.33-.02-3.84.35-6.38.81-10.06.21-1.65-1.11-1.67-1.59-1.17ZM380.81,227.19v-12.84c0-.51-2.19-9.15-2.59-9.42-1.5-.97-8.34,1.08-12.73-1.76-2.91-1.88-16.95-20-19.3-23.77-4.61-7.39-2.48-7.23-3.48-14.74s-2.47-15.26-9.52-19.48c-.57,2.25,2.79,3.92,3.92,6.85.39,1.01,1.26,3.1.23,3.91-2.75-4.11-5.95-9.58-11.18-10.76l7.1,10.7c.67,1.04.61,2.2-.89,1.72-.72-.23-6.17-10.36-9.53-9.94-1.92,2.26,6.35,8.77,6.62,11.59-1.18,1.09-5.88-5.04-7.04-5.79-1.09-.71-1.89-.82-2.07.43-.21,1.45,3.45,5.2,4.31,7.27,1.7,4.12,1.43,8.99,3.51,13.05,1.27,2.48,3.43,3.68,4.77,6,4.47,7.76,6.87,18.97,12.1,27.66,9.08,15.11,18.05,18.82,35.77,19.31ZM215.99,155.13c-7.05-1.89-9.82,7.6-2.22,2.33.85-.59,1.99-1.25,2.22-2.33ZM319.64,199.74l-10.87-25.23c-.68-4.07,3.43-6.81,4.07-10.74.23-1.42.5-8.66-1.19-8.63-1.91.03-1.92,4.73-2.5,5.76-.99,1.75-6.69,2.69-6.2,6.65-2.4-.48-1.01-3.42-.03-4.61.86-1.04,2.61-.7,2.53-2.01-4.74.04-8.86,2.14-13.04,3.93-3.39,1.45,2.88,7.17,3.7,9.13,2.31,5.49,2.59,18.38,4.79,25.87,3.63,12.36,7.62,18.64,20.91,21.33,1.87.38,5.52,1.11,7.28.25.92-1.49-.29-19-1.19-20.25-1.03-1.44-7.28-.83-8.25-1.45ZM336.91,196.54c-2.25-4.46-3.61-10.99-6-15.11-1.75-3.03-4.24-4.32-5.74-8.34-.97-2.6-2.5-15.38-6.05-15.37-.2,0-3.17,2.15-3.31,2.39-.79,1.33-.2,3.42-.81,4.99-1,2.6-3.8,5.96-3.8,8.67,0,5.28,9.19,17.71,9.89,23.95,1.45,2.08,12.66-2.89,15.83-1.17ZM162.14,182.46c-1.02-3.85-4.53-9.24-7.1-12.36-1.09-1.33-2.53-3.46-4.48-3.38-1.92,2.26,9.35,13.98,11.58,15.74ZM160.49,184.94c.34-1.62-.37-2.23-1.19-3.35-1.73-2.36-14.62-15.06-17.02-13.21,3.2,7.68,11.62,11.99,18.21,16.56ZM209.36,173.35c-11.93,2.13-17.17,16.35-20.7,26.5,12.67-2.03,21.15-13.94,20.7-26.5ZM159.67,185.78c-6.75-2.62-11.34-9.54-19.04-9.95-2.38,2.13,13.84,11.47,16.22,11.6,1.29.07,2.5-.25,2.82-1.65ZM406.37,195.61c3.24-2.02,1.23-12.56-.73-15.64-1.58,1.99-13.72,8.85-13.99,9.66-.48,1.49.19,3.32,1.58,4,.94.46,12.57,2.33,13.14,1.98ZM163.81,185.78c-1.13-1.19-6.98,5.74-6.62,7.44,1.03,1.44,15.18,1.3,17.39-1.24-4.39.93-7.23-2.33-11.6-2.91l.83-3.3ZM225.1,203.16c7.64-1.39,9.95-8.77,9.1-15.74-5.52,2.19-11.3,6.26-11.6,12.84-.06,1.4.76,2.01,1.65,1.23.36-.31,4.76-8.65,5.81-7.45l-4.96,9.11ZM367.55,194.88c-1.17,7.58,1.53,8.73,8.66,7.41,1.6-.3,2.89-1.74,4.53-2.09,2.59-.54,10.63.02,10.89-3.26.17-2.1-2.36-4.52-1.72-7.03-7.09,2.71-14.6,5.26-22.36,4.97ZM351.82,239.62v-19.47c0-.62-6.43-7.38-7.8-9.59-1.74-2.81-5-11.88-7.51-12.36-10.3-1.99-5.69,3.66-5.36,9.5.27,4.7.12,10.22.01,14.98-.03,1.28-1.53,5.35.37,5.35h14.08c.26,0,1.17,1.14,2.07.83l.82-7.45,3.32,18.22ZM402.34,233c-.33.36,2.16,8.03,2.69,9.32,1.64,4.02,5.16,9.55,9.15,11.56,8.9,4.47,7.48-4.12,7.25-10.56-.34-9.77-.69-30.86-6.3-38.43-1.18-1.6-6.42-6.01-8.22-5.9-.4.02-.39,1.7-.89,1.74-1.09.07-3.44-1.07-5.76-.92-6.61.41-13.53,2.78-20.28,2.55,2.49,9.66,4.78,19.9,2.49,29.81,8.94.64,17.65-.9,26.5-1.64-.37,2.3-6.23,2.05-6.63,2.48ZM187.62,203.38c-1.51-1.45-5.23-.99-7.25-1.04-.51,7.37,3.02,7.42,9.11,5.79.3-.34-1.36-4.26-1.87-4.75ZM235.04,208.98c5.04,5.81,13.8,3.06,18.21-2.08-4.82-4.32-13.38-5.5-17.38.41,2.29,1.27,9.46-2.91,9.11.83l-9.94.84ZM129.02,225.54v13.26c12.37-3.32,27.72-14.87,40.39-16.36,7.1-.84,15.75,2.16,22.56,3.93-2.73-3.2-8.37-4.05-12.09-5.71-.75-.33-2.52-.35-1.16-1.73.74-.75,18.03-4.4,20.51-4.76,8.26-1.19,15.15-.28,23.38.59l-3.31-1.66c-1.26-1.68,8.16-2.01,9.12-2.89-3.74-1.22-8.77,2.81-9.55-2.91-2.76.77-5.48,2.08-8.36,2.41-5.63.65-10.16-1.43-14.9,2.08-.55.41-.29,1.28-.35,1.32-.38.26-4.67-4.71-8.27-1.64l.83,2.47-2.88-.84-.44,2.51c-3.36-3.02-1.86-3.68-6.92-3.21-15.89,1.48-33.07,9.41-48.56,13.15ZM244.15,225.53c-2.55-5.6-8.14-11.67-14.9-9.52l7.45,5.38-9.1-4.13c.09,8.22,10.15,8.81,16.56,8.28ZM207.7,240.45c-.09-7.44-5.66-13.71-13.24-14.08,1.06,2.36,5.69,4.02,6.62,6.22.42.98-.24,1.65-1.22,1.22-.8-.35-6.7-7.13-7.88-5.79-.69,9.23,8.72,10.81,15.72,12.42ZM389.81,234.77c-.99-.89-8.12,1.13-10.64-1.38-1.06-1.05-1.01-3.41-2.48-4.15-.56-.28-11.96-2.07-12.47-1.7-1.76,1.28.35,15.19-10.73,7.93.88,9.49-3.12,20.92-.86,30.08.32,1.29,7.94,1.93,5.81,3.88-.24.22-4.51-1.52-6.22-1.65-7.65-.58-15.53.42-22.76,2.88,3.28.94,8.41,5.92,11.25,6.22,4.39.45,15.51-4.83,21.05-4.13-.29,1.59-1.73,1.37-2.86,1.69-2.44.7-16.15,2.36-16.18,4.51,4.87,5.07,7.95,11.24,11.98,16.93l20.3-14.85c-5.05,7.37-13.35,10.96-19.64,16.96-.12,1.5,8.1,13.1,9.73,14.9,1.18,1.29,5.81,5.71,7.03,6.23,1.39.58,1.11-.54,1.4-1.04,6.34-10.78,10.81-22.09,13.88-34.21.35-1.38-.84-2.43,1.67-2.01-1.77,14.38-9.37,25.96-14.91,38.92,8.64,3.58,17.67,7.69,27.24,7.37,2.45-16.71,5.25-32.41,3.64-49.44-.09-.91-.98-2.82.58-2.65,1.08,5.58,1.74,11.33,1.7,17.01l-4.18,35.17c.69.69,15.11-1.59,16.85-2.62,2.51-1.49,1.09-7.41,1.38-10.22.38-3.7,1.48-7.9,1.68-11.57.55-10.05-.72-19.62-2.51-29.44l3.08,10.58c-.23,3.25,1,6.51,1.08,9.68.12,4.8-3.37,27.73-1.68,29.45l6.6-3.95c2.58-12.77,6.45-22.68,3.93-36-1.95-10.3-8.12-19.28-9.72-29.64-12.47,8.82-21.64-9.58-23.19-19.88-2.08,1.24-2.66,4.46-5.49,4.76-4.84.5-4.71-4.03-5.38-4.64ZM466.95,232.99c-6.6-1.09-8.13,2.15-10.35,7.44-7.16-7.7-8.79,3.9-9.96,4.16-1.63.36-2.81-4.07-7.78-1.17-1.19.7-2.55,3.15-3.78,2.83-1.11-.29-4.76-7.68-10.66-5.69-2.34.79-.66,8.66-.15,10.69,2.77,11.14,10.45,23.28,11.81,34.58.71,5.91.41,12.58-.59,18.4,2.11-1.05,11.96,1.26,12.41.83.48-.44-.2-6.06,4.49-5.02,1.23.27.88,4.54,2.1,5.5.49.39,10.15-1.18,12.47.35v-72.9ZM350.99,248.74c-5.44-1.69-7.78,7.91-8.29,8.28s-6.74-4.13-12.38.45c-3.28,2.67-3.05,7.53-3.35,7.84-.44.46-7.01-2.21-12.38,1.28-4.42,2.87-4.89,8.45-5.79,9.15-1.07.83-3.57-.81-5.86-.16-4.16,1.19-3.41,6.52-4.18,7.07-1.49,1.05-11.45-4-9.06,8.33-3.92-.83-5.97-2.99-9.9-.37-3.14,2.09-2.77,6.45-3.45,6.9s-4.25-.26-6.83,1.04c-4.32,2.18-2.17,5.6-3.36,7.41-.59.9-12.3,2.05-9.59,9.88l64.58-8.33c-.44-13.87-14.93-27.57,1.95-36.55,7.05-3.76,19.26-6.6,27.06-4.82-.03-5.83-.23-11.65.83-17.39ZM336.91,280.21c.52-.68,2.14-2.58,1.65-3.3-3.75-1.14-8.52-5.65-12.64-4.86-.27.05-4.57,2.18-4.74,2.38-1.51,1.72,4.6,2.39,5.78,2.9,5.15,2.25,4.06,3.32,9.95,2.88-.92,1.2-2.06.49-1.58,1.98,2.47,3.58,5.46,6.74,7.9,10.34,1.16,1.72,3.94,8.74,5.62,8.35.28-.07,4.5-3.37,4.52-3.66.17-1.95-9.51-15.68-11.88-17.07s-2.73-.07-4.58.07ZM129.02,273.59v151.19c0,7.19,9.38,17.57,16.98,17.81,99.33-1.63,198.9,2.19,298.21-.04,1.71-.04,3.43.7,4.82.6,4.03-.27,10.76-3.97,13.38-7.17,2.85-3.48,4.54-7.92,4.54-12.03v-116.4c-2.98.23-5.69-1.14-8.7-.88-1.8.16-4.29,1.84-4.95,1.71-2-.39-.48-5.78-2.51-6.63-2.44,9.3-3.17,4.39-9.09,4.07-6.56-.36-7.09.86-8.72,6.69,9.16-2.04,14.45,14.15,16.59,21.11,4.03,13.11,5.82,33.5-13.71,31.11-11.1-1.36-7.35-14.9-13.66-17.84-3.88-1.81-10.59,7.06-13.68,9.51-8.96,7.12-19.4,14.46-31.23,8.91-12.5-5.86-7.87-22.99-5.98-33.78-6-3.25-13.17-4.05-18.67-8.24-.38.52.57,11.37.85,12.81.76,3.87,3.66,7.3,4.09,13.3.56,7.76.87,11.37-6.04,15.47-9.83,5.84-29.27,11.11-40.08,6.63-6.99-2.89-7.91-9.7-3.57-15.5,5.92-7.92,19.85-9.12,21.38-20.9.61-4.69-6.92-20.06-7.31-25.91l-107.62,16.62c-1.54,6.21,2.94,3.1,6.09,5.84,1.46,1.26,1.15,2.86,1.42,3.11.56.52,8.6-1.55,13.56,2.6,3.6,3.01,3.39,8.73,3.75,9.09.79.78,7.08-1.95,11.1,3.4.84,1.11,2.02,4.65,2.25,4.79,1.65,1.01,5.9-.91,10.65,3.01,1.34,1.1,3.23,4.25,3.47,4.4,1.86,1.07,7.57-.68,12.22,3.11,2.91,2.37,5.37,9.96,5.84,10.33.54.42,7.28-5.54,12.85-.86,1,.84,1.4,2.92,2.58,3.26s3.73-1.14,6.31-.59,3.37,2.95,4.76,3.56c1.61.71,3.62.37,5.56,1.06,2.79.99,5.3,4.73,6.59,5.04,2.69.64,5.21-2.45,10.99-.25,3.73,1.42,4.93,4.77,6.39,5.2,1.78.53,4.2-.05,6.28.34,7.03,1.34,9.71,9.01,11.96,9.64,1.39.39,4.87-.83,7.25-.73,4.7.18,14.36,3.87,17.05,7.84.51.76,1.51,2.34.38,2.93-6.69-5.87-10.74-8.39-19.92-8.31-1.86.02-4.05,1.19-5.59.76-2.73-.76-4.85-10.29-13.46-10.71-1.63-.08-5.68,1.14-6.11.82-.87-.65-.77-4.85-5.84-6.19-5.78-1.53-10.32,2.42-10.78,2.09-.23-.17-1.23-3.35-3.04-4.85-3.58-2.97-7.09-1.73-9.39-3.03-.93-.52-1.13-2.65-3.29-3.38-3.31-1.12-5.09,1.81-6.95,1.26-1.62-.48-1.67-5.76-7.58-5.79-2.68-.01-5.71,2.28-7.45,4.18-1.04.02-3.4-13.43-11.97-14.53-2-.26-4.98,1.19-6.51.3-.27-.16-2.15-4.06-3.44-5.25-4.59-4.23-7.58-2.29-12.59-2.49-1.63-.07-3.25-1.18-5.18-1.13-4.2.11-12.15,4.93-14.18,4.89-1.38-.03-3.51-2.83-5.31-3.76-7.28-3.8-11.5-.84-17.85-1.13-2.1-.09-3.6-1.57-5.8-1.77-1.81-.16-3.98.7-5.02.55s-2.91-3.34-6.67-3.75c-4.04-.45-6.27,1.73-9.05,1.66-2.44-.07-5.34-2.77-9.07-2.59-2.33.11-5.5,2.54-5.81,2.52-1.51-.11-1.35-7.62-6.74-8.04s-6.16,6.24-7.32,6.33c-.31.02-2.01-1.61-4.06-1.56-3.17.09-4.86,2.93-6.01,3.16-1.03.21-2.85-1.54-4.83-1.57-2.45-.04-4.55,1.94-7.06,1.69,2.48-4.98,7.74-2.39,11.08-2.71,1.64-.16,3.31-2.11,5.91-2.31,1.55-.12,3.43.74,4.18.62,1.19-.18,2.49-5.83,8.21-5.59s6.97,6.66,7.56,6.75c1.41.21,4.97-1.26,8.12-.82,2.36.33,4.65,2.35,5.87,2.38,2.34.06,5.64-2.4,10.72-1.57,2.87.47,3.87,2.83,5.18,3.14,2.56.6,11.66.87,14.71.91s6.75-.27,9.77.24c3.26.55,8.7,4.69,10.13,4.74s7.72-3.52,11-3.9c3.65-.43,11.2,2.56,6.35-3.47-3.95-4.9-11.2-.96-11.95-1.71.74-6.44-1.47-12.26-8.69-12.5-2.62-.09-6.75,1.96-7.04,1.73-1.44-1.17-.29-8.32-9.12-5.81,2.55-8.05-2.74-13.32-10.77-10.77-.43-2.74,2.22-4.64,2.47-7.11.79-7.89-9.2-12.08-15.72-9.45,1.28-6.22-3.75-8.54-9.11-7.46,1.07-6.48-2.12-12.68-9.47-11.57-2.07.31-4.07,2.65-5.01,2.46s-1.67-5.42-3.39-7.4c-3.52-4.09-8.69-4.35-13.11-1.59-.92.57-1.98,3.84-3.77,2.33-.27-.23-1.33-4.23-3.44-6.1-2.19-1.95-9.95-4.61-11.51-2.15ZM322,277.74c-6.35-1.51-5.41,4.77-4.13,9.1,1.53-.09.59-2.74,1.19-4.18.35-.85,3.21-4.73,2.94-4.92ZM349.25,318.24c1.23-10.88-6.77-25.64-14.37-33.09-1.4-1.37-8.91-6.86-10.41-6.2-9.97,4.34.88,33.27,2.93,41.02,3.46,4.23,17.17-.54,21.84-1.72ZM370,326.57c.25-.17,2.27-5.49,2.14-5.78-.29-.64-7.11-6.05-8.7-7.88-2.13-2.44-8.68-14.38-9.54-14.45-.62-.05-4.19,2.84-4.45,3.87-.6,2.39,7.39,13.73,9.4,15.99,1.49,1.67,9.45,9.41,11.15,8.24ZM364.24,326.6l-13.24-14.9c.62,2.16.35,7.64,1.22,9.13.65,1.11,9.99,5.14,12.02,5.78ZM441.27,363.05c12.13-3.61,8.98-19.71,6.18-28.95-1.89-6.25-6.2-18.11-12.8-19.92l6.17,10.8c4.36,11.79,11.75,28.01.44,38.07ZM442.67,359.49c6.35-7.15.27-24.68-3.17-32.35-1.72-3.83-3.81-8.98-7.33-11.3-1.38,3.33,2.31,10.34,1.56,12.69-.54,1.69-4.32,2.54-4.71,3.21-.68,1.19.18,4.47-.17,4.81-.26.25-2.93-.64-4.58.81-.4.35-2.95,5.73-2.89,6.21.16,1.23.98,1.15,2.07.44,2.52-1.65,6.6-8.21,9.85-5.73.52.4,5.46,8.01,5.38,8.51-.15.85-2.86,3.08-3.77,3.71-4.29,2.94-8.46,1.19-4.58,8.18,2.63,4.73,8.99,4.58,12.33.82ZM350.16,319.98c-.75-.67-7.35,2.33-8.94,2.23l-12.58,1.48c2.44,2,8.02,1.51,11.09,1.17.92-.1,12.93-2.65,10.44-4.88ZM401.39,330.04c-.4-.65-12.17-2.02-14.97-2.84-2.4-.7-11.99-5.54-12.67-5.49-.72.06-2.91,4.42-2.89,5.35.04,1.92,7.68,5.21,9.73,5.98,3.15,1.18,18.92,5.11,20.56,2.73.53-.76.68-5.02.24-5.73ZM431.28,328.19c.52-.71-1.39-5.04-.78-6.55-4.91,3.54-8.98,2.48-6.61,9.94,1.02-.99,7.15-3.06,7.39-3.39ZM329.46,328.26h13.67c1.2,0,9.04-2.4,7.03-4.97-6.38,2.6-13.84,4.44-20.69,2.49v2.48ZM422.22,326.6c-6.34,1.55-12.41,3.17-19.05,2.49v6.64c6.59-.41,22.31,1.13,19.05-9.12ZM350.99,327.44c-6.79,2.07-13.63,2.61-20.69,2.88.6,7.22,8.69,3.57,11.93,8.77,1.72,2.75-.18,4.56,4.09,4.01,10.05-1.3,3.94-9.09,4.67-15.67ZM404,338.21h-14.49l-16.14-5.8c-4.57,15.31-5.02,36.58,17.43,31.94,3.85-.8,17.87-9.58,19.4-12.91s-1.46-10.2-3.3-13.22c-2.89,3.86-4.26,9.01-8.69,11.58l5.79-11.6ZM427.19,333.24c-1.54.68-10.39,2.9-10.76,3.32-.26.28,1.4,7.18,1.67,7.45,1.49,1.51,1.37-.5,1.65-1.23.85-2.17.81-4.35,2.84-6.28,2.23-2.12,4.8-.62,4.6-3.26ZM340.04,339.22c-.76-.74-6.41-2.02-7.64-1.86-2.23.29-3.92,3.4-2.87,4.91.45.65,12.25,3.15,10.7,8.35-4.65-1.32-2.22,2.25-3.75,2.49-1.37.22-2.05-2.14-3.71-1.65,3.27,2.31.65,6.12-1.95,5.7-.39-.06-4.57-3.48-6.57-4.22-5.65-2.07-8.31-1.58-12.63,2.62-3.68,3.58-5.42,5.52,0,7.54,9.1,3.39,20.12,1.36,29.04-1.69,2.55-.87,12.56-5.01,13.95-6.56,1.89-2.11-.4-11.13-.3-14.16-3.06,2.74-5.61,4.89-10.08,4.49-4.23-.39-2.39-4.2-4.18-5.96ZM416.42,346.49c.3-3.04-.38-8.52-4.13-9.1.76,2.39,1.59,4.77,2.39,7.17.43,1.29-.72,2.37,1.74,1.94ZM412.29,348.98c3.98-1.04-1.55-12.54-3.32-10.76,1.64,3.35,3.25,6.96,3.32,10.76ZM307.93,363.89c-2.46,2.77,4.48,5.83,6.57,6.26,8.88,1.84,17.74-.01,26.15-2.94,2.66-.93,17.53-6.51,14.47-10.78-11.65,7.23-26.13,12.59-39.95,9.73-1.33-.27-6.9-2.66-7.25-2.27Z"/>
          <path d="M326.96,126.12c-.1.08-1.74.3-1.64-.4,2.14-3.49,4.95-6.78,8.53-8.87,11.71-6.83,26.21-2.58,36.97-10.24,2.73-1.94,4.57-5.25,7.5-6.99-1.56,3.85-6.55,8.19-10.2,10.08-15.01,7.78-26.04-.84-40.33,14.37-.61.65-.72,1.96-.82,2.05Z"/>
          <path d="M421.38,127.78l-2.24-10.58c-1.86-9.6-11.46-13.2-16.33-20.12-2.61-3.71-3.8-8.98-5.43-13.2,3.88,2.76,3.47,8.28,6.26,12.37s8.4,7.11,11.56,10.8c4.79,5.6,6.99,13.43,6.18,20.73Z"/>
          <path d="M375.01,170.04c-3.65,5.31-12.37,6.57-17.99,4.31-1.57-.63-5.37-2.6-3.96-4.31,3.71,2.65,7.87,3.76,12.43,3.31,4.05-.4,5.74-3.08,9.52-3.31Z"/>
          <path d="M377.3,132.97c6.31-.92,23.66-1.53,24.99,6.87,2.21,13.93-6.09,24.75-20.7,22.36-15.53-2.54-20.23-26.91-4.3-29.23ZM378.11,134.61c-10.73,1.67-10.47,11.79-5.94,19.63,4.86,8.41,19.61,9.29,25.21,1.3,2.43-3.47,4.52-12.19,2.88-16.14-2.25-5.39-17.17-5.57-22.14-4.79Z"/>
          <path d="M426.36,145.19c2.14,2.27-2.72.94-3.29,1.2-4.21,1.9-1.24,3.96-.87,5.87.5,2.58,0,6.13-3.29,6.16,1.53-1.86,2.3-4.46,1.67-6.87-.25-.96-2.41-1.1-2.49-1.81-.19-1.69,5.83-7.14,8.27-4.55Z"/>
          <path d="M256.32,137.86c.97-.29,2.01-.29,2.98,0,5.37,1.62,7.55,25.27-.66,27.23-7.8-1.92-7.84-25.56-2.32-27.23ZM256.59,139.38c-2.49,1.72-2.78,21.3,2.06,24.01,4.06-3.47,4.31-10.29,3.73-15.31-.24-2.11-2.78-10.77-5.79-8.69Z"/>
          <path d="M396.54,140.21c-1.77,4.54.42,2.85.79,3.34,1.23,1.6-1.22,1.68-1.33,1.87-.8,1.46-.72,3.19-1.59,4.67-4.5,7.66-19.75,6.95-19.48-2.85.21-7.6,9.02-13.33,15.77-9.07,2.6,1.64,2.78,5.17,5.83,2.04ZM384.12,154.28c18.14-1.88,6.97-23.19-5.79-12.83,3.12.18,4.38-1.31,7.43.85,4.66,3.3,2.41,9.24-1.64,11.98Z"/>
        </g>
        <path d="M206.97,79.63c.17.23,3.22,1.2,4.86,3.01,2.15,2.38,3.1,7.48,3.43,7.76.21.17,3.88.35,5.34.88,13.35,4.79,10.15,22.14-3.74,24.54-6.58,1.14-13.18-1.7-16.86-1.13-1.72.26-5.83,3.72-8.68,4.59-6.12,1.85-13.31,1.49-19.22-1.02-1.77-.75-5.01-3.43-5.5-3.53-1.32-.26-5,1.52-7.35,1.53-16.3.04-22.7-20.89-8.99-28.93,3.32-1.94,9.76-1.52,10.15-1.86s1.47-6.37,3.53-9.3c2.96-4.21,7.99-5.41,9.34-7.23,1.23-1.66,2.58-7.64,3.87-10.22,18.98-38.01,72.63-42.87,96.65-7.4,1.66,2.45,4.34,9,5.56,10.18,1.78,1.73,5.37,1.57,7.86,4.57,1.41,1.69,2.57,6.21,3.27,6.67,1.11.72,3.44.21,5.03.77,10.58,3.75,8.99,19.66-1.46,21.79-4.94,1.01-39.4,1.01-44.35,0-5.89-1.2-8.87-7.27-6.6-12.85,2.03-4.99,7.55-1.71,3.34-9.57-5.93-11.07-21.12-13.86-31.25-6.74-2.54,1.78-10.39,10.53-8.24,13.52ZM277.28,61.5c-20.43-46.1-86.74-41.41-101.85,6.23,1.2,2.03,2.11.31,3.71.37,1.09.04,2.76.97,2.89.88.2-.14,1.01-3.6,1.52-4.71,14.58-31.81,57.52-39.17,80.5-12.3,1.56,1.82,6.09,9.68,6.6,10,1.79,1.14,4.64-.83,6.63-.46ZM265.67,68.13c.31-.26,3.4-5.25,3.21-6-.38-1.5-4.78-7.41-6.08-8.91-23.25-26.9-67.56-17.93-78.98,15.36.12,1.19,5.79,2.59,6.46,2,.12-.1.29-2.12.7-3,13.39-29,52.78-32.09,70.43-5.51.87,1.32,2.69,7.39,4.27,6.06ZM263.2,68.95c-12.49-28.7-52.51-31.63-68.58-4.38-4.47,7.58-4.03,8.27,2.31,14.33-.38-12.94,13.95-25.25,26.11-26.5,14.11-1.45,23.66,3.52,31.77,14.63.58.8.87,2.66.98,2.75.29.23,5.91-1.62,7.41-.83ZM249.95,77.24c1.58,1.49,3.81-6.05,4.86-6.89-14.16-25.72-50.85-19.77-57.05,8.53,8.85,1.11,6.06-1.27,8.94-6.38,10.14-18.01,38.29-15.97,43.25,4.73ZM288.08,74.73c-.21-.2-.47-3.61-1.52-5.52-2.94-5.37-8.71-6.64-14.26-4.8-4.58,1.51-5.66,6.55-7.15,6.96-2.06.57-5.46-2.34-9.35,1.37-2.2,2.09-1.28,5.86-2.47,6.64-1.5.99-5.26-.37-7.53,2.63-4.55,6.03.57,11.09,7.05,11.81,6.48.72,36.24.82,41.37-.88,7.74-2.56,8.76-13.67,1.51-17.16-2.43-1.17-7.37-.78-7.65-1.05ZM195.34,82.16c-.28-.21-2.04-4.59-3.4-6.14-7.02-8.01-21.04-6.92-26.86,2.09-1.49,2.3-2.2,8.24-2.88,8.72-.82.58-5.3.42-7.36.92-13.33,3.29-13.15,21.82-.84,25.39,5.31,1.53,9.03-.73,12.63-.28,1.7.22,3.83,2.54,5.84,3.34,6.24,2.49,12.03,3.02,18.5,1.07,3.05-.92,6.42-4.11,8.06-4.41,5.99-1.09,11.51,3.1,20.03.19,11-3.76,10.03-18.4-.76-20.33-1.43-.26-4.4.56-4.78.24-.43-.36-.32-6.59-4.58-9.92-6.59-5.15-12.52-.11-13.6-.89Z"/>
      </g>
    </g>
  </g>
</svg>