<?xml version="1.0" encoding="UTF-8"?>
<svg id="Capa_2" data-name="Capa 2" xmlns="http://www.w3.org/2000/svg" viewBox="0 0 603 452">
  <defs>
    <style>
      .cls-1 {
        fill: none;
      }
    </style>
  </defs>
  <g id="Capa_1-2" data-name="Capa 1">
    <g>
      <g>
        <path d="M442.35,79.24c.44-.36-2.43-9.39-1.72-11.14l-15.38,4.31c-.83,5.87,4.97,17.91-1.27,21.43-6.98,3.94-11.85-5.01-3.05-9.07,1-.46,3.29-.27,3.43-.41,1.12-1.11-4-17.43-1.71-19.28,2.62-2.12,14.23-3.83,18.03-5.19.99.77,4.52,22.67,4.12,24.71-1.36,6.88-13.26,7.15-10.62-1.12,1.66-5.22,7.5-3.68,8.19-4.25ZM439.77,62.11c-2.47.49-15.84,4.28-16.04,5.52-.09.54.92,2.06.64,3.04.55.54,13.94-3.5,14.9-4.18,1.18-.84.28-3.2.5-4.38ZM441.28,86.74c2.77-2.79.49-8.32-4.03-4.45-4.21,3.6,1.14,7.37,4.03,4.45ZM425.15,87.02c-1.7-2.4-9.05,1.4-6.41,5.12,2.3,3.26,8.24-2.55,6.41-5.12Z"/>
        <path d="M360.1,194.09c3.83-18.16,20.03-33.05,36.61-40.08,10.94-4.64,23.04-5.81,33.95-10.61,9.04-3.98,16.31-9.75,22.82-17.02-.77,3.31-3.96,6.36-6.4,8.59-25.52,23.34-61.31,10.42-82.55,50.27-1.51,2.82-1.85,6.81-4.43,8.84Z"/>
        <path d="M362.66,158.94c-1.94-.13-2.44-1.44-4.66-1.75-13.53-1.94-3.68,9.34-2.39,16.1,2.24,11.73-14.27,11.44-10.3,2.17,1.25-2.92,4.34-4.08,7.09-4.96l-6.87-20.12c7.11,1.31,17.77-2.96,17.13,8.56ZM360.09,155.51c-2.54-4.94-7.74-3.1-12-2.55l.87,3.42c4.03-1.09,6.94-2.22,11.12-.87ZM351.25,172.79c-5.56.48-5.46,10.65.61,6.62,3.1-2.06,2.56-6.9-.61-6.62Z"/>
        <path d="M378.07,110.95c-2.62.25-1.84-2.52-4.49-3.64-1.62-.69-3.19-.78-4.92-.64.53,6.19,7.56,20.81-1.71,22.75-10.65,2.23-7.07-12.65,2.56-10.76l-4.28-21.41c6.96,2.5,15.99,4.14,12.84,13.71ZM377.23,106.66c-1.3-5.01-6.61-4.55-10.27-6.85.06,6.74,5.6,4.56,10.27,6.85ZM366.72,120.5c-6.16.9-4.59,9.86.69,6.79,3.89-2.26,3.66-7.43-.69-6.79Z"/>
        <path d="M399.29,122.32c.52.49,2.24,4.56,1.93,4.92l-8.61,2.29c-1.15,5.72,2.42,14.24-.63,18.91-3.73,5.72-12.8,1.98-9.5-4.35,2.54-4.88,7.9-2.58,8.46-3.12.74-.73-1.39-18.1-1.72-20.56,1.13-.81,8.77.72,10.07,1.93ZM397.79,123.82l-5.99-1.72c-2.04,8.42,7.58,3.38,5.99,1.72ZM390.94,142.67c-3.74-1.08-9.86,2.47-5.61,6.09,2.74,2.33,6.97-2.84,5.61-6.09Z"/>
        <path d="M454.34,98.11c.8.89-6.92,13.57-8.21,15.34-12.19,16.72-30.59,23.6-50.05,28.35.22-1.28,1.57-1.65,2.57-2.13,7.03-3.38,15.81-4.67,23.31-8.39,16.38-8.14,21.48-16.53,30.25-31.48.3-.52.74-3.22,2.13-1.68Z"/>
        <path d="M410.65,90.39c-6.71,15.82-22.7,21.09-36.83,28.27-.47-2.01,2.33-2.75,3.7-3.57,9.46-5.64,18.62-7.65,26.25-16.6.93-1.09,5.65-9.31,6.88-8.11Z"/>
        <path d="M342.96,167.53c.31.32-2.72,6.61-3.18,8.38-3.28,12.37-3.62,19.92-.28,32.36.33,1.23,1.9,2.39-.38,2.1-5.79-12.15-4.25-25.94.4-38.15.26-.68,1.89-6.28,3.45-4.69Z"/>
        <path d="M402.08,126.38c-1.63-1.33,1.14-1.82,1.71-2.09,10.96-5.34,19.46-10.09,27.39-19.78l4.3-6.4c2.1,8.75-30.65,30.53-33.4,28.27Z"/>
        <path d="M386.65,131.53l-15.7,9.57c-2.99,1.72-4.76,6.06-8.29,6.7,5.97-7.46,14.55-14.12,23.99-16.27Z"/>
        <path d="M345.53,206.08c-1.23.18-1.35-2.37-1.47-3.24-.37-2.64,0-15.04,1.48-16.47,3.31-3.21-.01,6.05-.01,6.42v13.28Z"/>
        <path d="M359.24,129.82c.47.45-7.19,9.39-8.05,10.38-.4.46-.8,2.97-2.23,1.6-.58-.56,8.57-13.63,10.28-11.98Z"/>
        <path d="M367.81,160.66c1.27-5.78,7.55-8.92,11.98-12,1.35,1.48-6.64,6.28-7.72,7.27-1.69,1.54-2.45,3.56-4.26,4.73Z"/>
        <path d="M163.03,394.63c1.64-.99,5.41-8.05,7.69-5.12.34.44-1.32,10.71-1.71,11.12-.54.56-1.83.49-1.64-1.21.29-2.69,1.63-5.46,1.64-8.22-3.1,1.51-4.07,4.94-5.56,7.71-3.27-5.18-2.61-12.14-7.72-16.28-1.77,5.87,1.57,11.41,2.14,17.13-2.5.03-2.24-2.73-4.33-4.66-.73-.67-5.31-3.66-5.94-3.05l5.13,9c.19.59-.89.62-1.27.42-.52-.27-6.43-9.27-6.42-9.86.12-3.69,9.25,1.32,10.25,3,.45-.6-4.1-14.38-.43-14.55,3.29-.15,8.25,11.26,8.15,14.55Z"/>
        <path d="M468.92,400.63c1.12-1.66,8.43-3.08,7.68-.46-.59,2.04-4.62,8.07-6.82,6.89l4.27-7.29-7.7,3.42,3.42-14.56c-5.07,3.37-8.03,10.27-7.71,16.28-2.5.52-2.11-2.8-3.42-4.72-.7-1.03-2.28-2.4-3.42-2.99l1.7,10.28c-1.23.2-1.16-1.49-1.45-2.38-.46-1.43-2.49-9.08-1.96-9.61,3.66-.3,5.36,3.15,7.7,5.14-1.09-3.95,6.08-15.14,9.84-14.57,1.59.24.81,1.65.72,2.39-.27,2.23-3.74,10.93-2.84,12.19Z"/>
        <g>
          <path d="M404.76,299.38c1.81,2.86,5.13-1.55,5.45-1.58,2.62-.22-.11,4.08-3.43,4.19-2.82.09-3.02-2.48-3.55-2.52-1.1-.09-2.25.9-3.77.53-1.65-.4-4.53-3.41-3.39-4.78.98-1.17,3.85,5.42,6.48,1.75l-1.34-6.89c2.76-.18,5.2-.39,6.84,2.15.32,1.5-5.62,3.5-3.31,7.15Z"/>
          <path d="M435.51,284.07l-6.81-9.73c8.82-8.56,13.45-9.54,9.96,4.76-.49,2.01-.39,5.26-3.15,4.97ZM438.06,269.51c-3.39.19-5.42,3.51-7.7,5.57,2.61,1.22,4.43,3.58,5.15,6.42,1.67,1.16,3-10.73,2.55-11.99Z"/>
          <path d="M401.97,268.54c-.27.42-8.82,4.06-9.31,3.53-.09-5.12,1.71-9.88,3.43-14.56,1.07-.8,7.39,8.66,5.88,11.03ZM397.78,260.94c-1.22-1.04-1.48.16-1.9,1.08-.6,1.32-2.11,7.5-1.51,8.34.93-1.42,5.78-2.34,5.97-2.6.53-.74-2.18-6.49-2.57-6.82Z"/>
          <circle cx="418.24" cy="290.49" r="3.69"/>
          <path d="M398.53,281.63c2.86,4.56-4.92,10.31-5.9,3.69-.68-4.61,4.87-5.33,5.9-3.69Z"/>
          <path d="M434.63,300.37c.21,1.54-1.87.78-2.78.64-2.74-.44-8.31-1.3-10.07-3.21l12.85,2.57Z"/>
        </g>
        <path d="M159.59,274.65l.87,7.71c1.7-1.14,2.87-2.16,5.13-1.71.5.47-2.51,9.63-4.27,7.29l2.56-5.57-6,3.41c1.16-2.57,1.3-5.85.43-8.56-2.24,2.15-2.58,5.64-3.01,8.56l-5.99-3.42c-.28.29,4.69,10.59.87,6.85-.44-.43-2.85-6.95-2.56-8.09.9-3.56,5.71,3.12,6.83,2.09-.56-1.64,2.91-10.18,5.14-8.56Z"/>
        <g>
          <path d="M464.23,8.08l-309.1.27c-12.5,1.49-21.05,10.82-22.12,23.3v393.44c1.11,12.85,9.78,21.6,22.71,22.71h310.23c11.48-1.08,20.78-9.27,21.85-20.99V29.93c-1.26-12.41-11.24-21.26-23.57-21.85ZM157.42,10.65h306.8c11.06.95,18.93,7.45,20.96,18.45v174.41c-.3.29-5.22-.4-8.03,1.83-1.72,1.37-2.37,4.62-3.63,4.93-2.1.5-4.73-3.43-10.92.23-5.16,3.05-5.11,9.48-5.78,10.07-1.4,1.21-8.92-2.42-12.97,3.74-.99,1.51-2.11,6.42-2.39,6.63-.51.39-6.63-2.62-12.28,1.84-3.96,3.12-3.68,8.07-4.02,8.41-.86.87-8.55-2.35-12.13,4.58-.97,1.87-1.29,5.86-1.71,6.43-.51.7-3.63.82-4.92,1.52-1.16.63-3.51,3.78-3.92,3.78-1.87,0-6.47-11.51-11.75,3.69-1.97,5.67-.98,12.51-5.57,16.9l-64.52-6.86-.85-7.71c8.74.75,16.21-.98,24.03-4.68,8.98-4.24,29.3-16.17,33.53-24.73,1.55-3.14,2.16-9.5,3.78-10.79,4.81-3.83,10.1-3.08,15.77-3.52-1.62,10.05,11.05,4.45,6.65.21-.99-.95-3.27-.39-3.21-1.91l5.99-1.72c-3.48,11.15,14.52,3.23,3.43-1.29.8-.77,6.42-4.78,5.8-1.89-1.71,7.98,7.16,4.17,6.92,1.18-.2-2.45-2.72-2.4-3.3-4,8.67.52,5.79-12.08,3.62-16.92-.39-.86-8.5-10.22-9.18-10.27-1.26-.1-3.74,2.71-5.57,2.33,1.26-5.9-6.67-5.8-7.64-1.99-.79,3.11,6,4.21-.53,7.12-2.51.35.13-1.81-.48-3.7-1.37-4.18-9.34-.96-7.26,2.87.93,1.72,3.76.97,3.04,3.4l-5.14,1.72c2.83-9.66-11.14-5.17-6.39-.02.81.88,3.16.75,2.02,2.53-.07.1-1.05,0-1.28.38-1.43,2.37-2.4,5.1-4.68,6.93l-57.75,25.35c-6.2-1.87,0-5.56-2.28-8.88-11.94-14.42-24.15-32.02-45.31-30.57-.44-2.43.58-1.41,1.88-1.93,2.51-1,5.12-1.53,7.58-2.75,8.51-4.22,17.38-13.79,20.54-22.74,6.24,4.81,7.36,10.85,4.28,17.99,6.37-.57,6.79-10.82,5.8-15.66-.55-2.68-3.32-5.42-4.13-7.86-2.72-8.17,1.69-15.14,2.65-23.23.2-1.68-.95-3.25-.73-4.91.21-1.59,1.57-2.32,1.5-5.21-.13-5.39-3.98-4.17-4.28-5.4-.36-1.5.28-3.99.03-5.86-.59-4.47-1.58-9.88-3.01-14.13-.73-2.18-3.89-6.51-3.85-8.2.02-.88,5.95-5.8,7.21-8.19,3.93-7.46,1.68-10.55-.13-17.7-1.21-4.76.18-6.87-4.47-10.96-2.38-2.09-13.34-9.68-15.94-9.78-1.47-.05-2.86.86-4.22.81-4.66-.16-5.2-1.83-10.62.51-4.62,1.99-10.67,5.8-12.51,10.63-.86,2.26-1.95,9.21-3.18,10.95-2,2.83-16.17.66-20.59,1.27-4.41.6-14.65,6.54-15.5,6.48-3.66-.27-3.74-8.31-8.82-10.88-6.97-.69-13.91-5.95-20.81-2.18-1.18.65-11.99,8.36-12.44,8.98-1.25,1.7-7.18,12.09-7.6,13.82-.79,3.25-.9,6.03-.21,9.32.37,1.75,3.76,10.95,4.59,12.55,3.5,6.75,11.25,8.24,18.17,7.12-2.96,8.56-1.01,19.06,2.16,27.4.76,2,3.14,4.64,3.4,5.9.26,1.22-.61,2.82-.24,4.57,1.12,5.32,3.13,10.53,8.09,13.41,3.45,2,9.64,1.18,11.04,4.45.96,2.25-1.12,4.98-1.26,7.36-.27,4.69,3.87,14.47,9.38,13.59-2.86-5.62-4.61-10.33-2.57-16.7l12.06,8.93c18.41,8.75,5.7,7.1-4.53,9.32-9.89,2.15-17.66,7.8-25.08,14.34-2.69,2.37-12.65,11.96-13.71,14.58-1.47,3.63,1.04,4.93.97,6.39-.06,1.16-4.31,5.86-4.01,8.15-2.45-3.68-9.82-1.38-10.26-1.71-.2-.15-.61-3.42-1.69-4.75-4.96-6.12-13.19-.75-13.73-1.25-.97-.89.14-5.78-6.41-7.78-4.04-1.23-7,1.15-7.3.92-.23-.18-.93-4.21-1.69-5.61-2.69-5.01-8.91-9.6-14.6-7.25l-.04-176.16c1.09-11.84,10.04-20.48,21.85-20.99ZM442.79,266.06c-2.98-7.96-14.86,3.7-18.8,3.43-1.63-.11-5.02-2.26-7.47-2.87-2.61-.65-6.92-.18-8.73-1.34-.32-.2-3.82-6.13-3.79-6.51.26-3.5,9.14-4.68,9.7-5.51,1.13-1.66-.68-6.08,2.73-8.64,3.36-2.52,6.76-1.55,10.49-.84-.95-8.74,7.99-15.27,15.84-10.28,1.69-1.9.8-4.48,2.28-7.18,4.44-8.08,12.14-1.81,12.72-2.26.6-.46.65-8.34,5.18-11.53,6.21-4.37,9.34.55,11.54.36.83-.07,2.12-4.68,3.65-5.98,2.11-1.78,4.38-1.94,7.05-1.7v84.85l-42.84-6c.52-6.21,2.73-11.88.44-18.01ZM438.95,297.4c-.54,6.83-4.5,12.88-10.59,15.97-2.29,1.16-5.91,1.23-7.43,3.27,2.43.82,6.63-1.67,8.56-.45,1.18.75,4.88,6.68,6.4,8.2,11.47,11.49,21.57,16.58,18.25,36.19-2.38,14.11-14.8,14.26-26.35,15.2l.85-3.42c-2.86-.51-1.89,4.28-5.13,2.14l2.57-3c-2.13-1.45-2.89,2.99-4.28,1.7-.22-.21,1.79-3.69,3.16-4.11,2.59-.79,8.98,1.13,9.69-.6-13.85-5.4-10.65-26.22,5.14-24.43.03-1.4-2.97-1.75-3.85-1.73-12.01.32-16.36,16.25-8.14,24.01-3.12.23-5.46,3.08-8.57,1.72,1.89-8.09,5.62-16.35,3.86-24.85l-3.44,15.42c-2.26,6.11-3.07,12.96-8.57,17.14l-.43-3.42-3.41,3.42c.77-5.08,1.18-6.15-2.57-1.71,4.14-9.68,5.1-20.44,3.41-30.85-3.52,1.46,1.2,5.64-2.13,7.7-.8-.02-8.48-8.98-8.15-11.12-2.07.23-.3,3.66.15,4.57,1.95,3.99,7.32,6.86,8.01,8.27,1.96,4.01-.79,18.14-5.57,20.58l-1.72-2.58c.98,4.21-2.71,2.57-3.3.25-.44-1.71,1.35-3.97,1.52-5.89,1.23-14.12-5.64-27.18-4.12-40.12.19-1.64,2.4-9.82,3.31-10.46,1-.7,4.33.91,5.82,1.15.9.15,2.98.9,2.77-.64-10.52-2.77-20.44-9.61-22.28-21l6.01-1.29c-4.06-.32-6.96,1.73-5.99-3.43,1.69-1.04,5.76,1.93,5.99,1.71,1.94-1.92-5.18-2.99-5.16-3.9.29-4.28,6.45-9.51,7.36-12.34.97-3.01.77-7.45,1.84-11.02.7-2.33,2.89-9.12,5.85-7.05,2.29,1.59,8.67,8.3,6.4,11.16,4.08-.29,8.06.29,12,1.29,2.25.57,7.7,3.56,8.14,3.59,1.88.11,11.81-8.98,15.81-7.4,3.55,7.9-1.79,16.05-2.26,22.79-.18,2.53.87,6.11.61,9.35ZM434.64,319.22l11.99,2.57c-.8,1.51-4.84,3.67-6.24,3.3-1.36-.35-4.7-4.5-5.75-5.88ZM210.15,348.78l-30.89,17.97c-3.38,1.21-12.17-3.04-16.23-4.25-4.47-1.33-9.11-2.24-13.71-3.01l41.98-22.27c-6.31,10.62,12.1,11.97,18.85,11.56ZM188.78,245.88c.29,1.85,2.34,4.44,2.28,5.2-.08.96-5.72,7.85-7.06,8.12-5.72,1.12-15.83-.38-22.3-.02-8.68.48-17.41,2.17-26.1,2.61v-53.14c8.93-.64,14.37,6.11,14.57,14.57,7.87-3.63,13.12-2.14,14.57,6.86.92.68,8.83-6.43,13.59.54.87,1.27,1.61,5.29,1.84,5.47.55.41,9.66-3.66,9.37,2.02-.14,2.59-1.28,4.5-.76,7.78ZM228.93,161.2c-.52-6.5-5.7-11.94-5.06-18.54,3.94,4.45,3.5,10.83,7.7,15.85,6.95,8.31,23.35,6.87,30.45-.4,6.13-6.28,5.46-21.56,6.47-22.23,3.83-2.57,6.95,6.74,7.63,9.35l-3.41-2.57c.02,4.57,6.78,4.66,4.51,9.23-1,2.02-3.3,1.2-2.8,3.62,3.51.51,5.09-3.1,5.15-5.99l4.56,3.56c6.56,3.13,13.81,1.55,20.27-.99-.68,18.91-19.48,35.66-38.12,36.05-11.37.24-29.39-6.21-36.97-14.93-3.46-3.97.03-6.91-.38-12.01ZM222.99,183.8c-1.63-.63-1.78-4.94-1.77-6.41.05-5.28,2.24-9.04,1.68-14.49-.6-5.9-4.77-10.89-6.91-16.22-2.79-6.96-4.01-12.65-3.28-20.29l-1.74,6.47.89,8.09c-5.21-1.25-6.32,1.71-10.27,3.43-2.41-5.86-4.72-12.01-5.14-18.44-.12-1.84-.02-10.77.85-11.57.24-.22,3.62,2.31,5.91-1.36.92-1.48.55-3.45,1.16-4.41.47-.74,2.51-.7,3.05-2.53.41-1.38-.25-3.35.33-4.38.22-.39,2.26-.8,3.17-2.39.86-1.51.58-3.46,1.17-4.4.41-.65,2.47-1.07,3.27-2.31.86-1.35.52-3.11.96-3.74.46-.66,2.36-.48,3.07-1.21.77-.8.67-2.88,1.52-4.05.81-1.1,2.86-1.49,3.4-2.6.81-1.68-.03-3.87.59-4.99.61-1.1,9.13-4.49,10.92-4.92,6.44-1.54,12.06-1.19,18.41.52,2.37.64,4.65,2.84,6.47,2.1l-5.13-3.85c14.22-2.51,33.01,6.5,41.96,17.58,7.49,9.26,9.7,19.69,9.45,31.27-6.75,1.09-4.58-1.46-6.85-6.44-5.72-12.54-15.6-9.64-22.14-18.99-1.71-2.44-2.02-5.53-4.42-7.14,1.65,15.02-4.44,25.24-17.7,31.59-6.12,2.93-14.27,4.24-19.75,7.67-2.94,1.84-4.62,4.81-7.17,6.54-1.58,1.06-5.97,2.38-6.41,3.02-.74,1.1-.58,10.45-.32,12.39.62,4.53,3.83,7.66,4.24,12.89.68,8.75-4.83,14.75-3.47,23.6ZM215.59,164.7c-8.05.42-16.99-14.65-9.69-20.72,1.36-1.13,5.3-2.02,6.69-1.17.82.51,7.61,16.69,7.71,17.65.28,2.59-2.41,4.12-4.71,4.24ZM199.24,104.04c0-1.8,1.46-3.25,3.25-3.25s3.25,1.46,3.25,3.25-1.46,3.25-3.25,3.25-3.25-1.46-3.25-3.25ZM202.17,110.66c0,1.44-1.17,2.61-2.61,2.61s-2.61-1.17-2.61-2.61,1.17-2.61,2.61-2.61,2.61,1.17,2.61,2.61ZM202.81,96.64c0-1.92,1.55-3.47,3.47-3.47s3.47,1.55,3.47,3.47-1.55,3.47-3.47,3.47-3.47-1.55-3.47-3.47ZM207.99,91.25c-2.12-4.26,2.82-5.6,5.38-3.22,3.01,2.8-3.14,7.74-5.38,3.22ZM213.13,85.26c-2.82-4.58,4.29-5.18,5.51-3.36,1.8,2.68-3.07,7.32-5.51,3.36ZM217.86,76.68c1.14-1.22,6-.38,5.14,2.98-.93,3.65-6.96-1.04-5.14-2.98ZM215.02,78.98c-.5.53-3.46,2.47-4,1.98-1.65-9.82-11.29-14.6-20.57-14.14,2.9-4.03,7.55-4.67,12.23-3.67,1.59.34,2.97,1.69,4.67,2.18,3.56,1.03,5.11-1.01,8.17,2.97,2.85,3.71,2.68,7.24-.5,10.67ZM207.43,75.53c3.34,4.89,4.67,9.76-2.41,11.42-1.32-6.58-7.28-10.57-13.72-11.13l9.41,5.57c7.15,8.9,4.8,14.11-6.84,10.27-5.15-1.7-7.7-5.18-11.14-8.99,2.11,7.67,11.39,11.76,18.85,11.14,1.26,5.18-2.11,5.71-4.85,9.29-2.97.43-5.75.32-8.62-.53-1.5-.45-7.62-4.8-7.94-4.47-1.39,1.42,1.15,1.84,1.6,2.23,3.25,2.8,6.78,3.94,11.04,4.41,2.14.24,5.26-2.14,5.34,1.91-5.01,1.96-1.51,5.89-8.9,5.1-7.89-.85-12.05-9.41-13.79-16.21-2.4-9.37-.21-10.17,4.04-17.39.9-1.53,1.17-3.46,2.04-4.82,5.58-8.81,20.67-5.47,25.91,2.21ZM302.69,55.25c9.75,3.88,1.6,24.74-6.29,22.2-.9-.29-3.07-4.18-3.03-4.65.05-.52,2.91-2.12,3.76-2.96,4.7-4.62,6.39-7.62,5.55-14.59ZM307.84,68.11c1.26-.15,1.53,2.24,1.62,3.07.67,6.01.03,9.99-4.61,14.09-1.01.89-2.79,2.7-4.18,2.42-4.09-.82-.73-4.16-.53-5.51.19-1.32-.87-3.09-.46-3.83.95-1.71,9.11-5.57,8.16-10.24ZM296.28,78.58c3.28.26,2.81,8.72-3,1.95,0-.41,2.41-1.99,3-1.95ZM293.26,78.38c-.76.76-7.32-.5-5.02-4.16,1.97-3.12,6.91,2.27,5.02,4.16ZM290.28,71.58c-2.51-.4-2.38-3.58-4.48-4.21-2.11-.63-4.38.92-4.53.75-.12-.15.14-1.68-.48-2.51-1.14-1.53-3.04-.8-2.94-3.81.19-6.3,6.78-16.41,13.91-14.97,3.2.65,3.51,3.29,5.32,5.02.94.89,2.79.73,3.82,2.18,4.02,5.66-4.32,18.56-10.63,17.55ZM285.13,74.76c-2.33.18-5.95-4.56-1.55-5.71,3.94-1.02,4.72,5.47,1.55,5.71ZM279.54,71.52c-8.72.24-4.05-8.78-.2-4.91,1.36,1.37.62,3.33.2,4.91ZM280.22,51.2c-.54.75-2.63,4.9-2.84,5.73-.56,2.17.17,7.19-1.73,7.74-2.11.23-3.53-1.97-5.43-2.19-1.34-.16-2.23,1.05-3.05,1-4.7-.29-4.57-3.94-2.84-7.61,2.61-5.56,15.06-11.03,21.22-9.18-1.59,2-3.54,2.05-5.32,4.52ZM272.7,68.96c-1.36-.05-3.91.42-4.77-.8-2.83-4.03,3.67-4.99,4.66-3.37.51.84-.06,3.01.11,4.17ZM265.83,65.11c1.12,3.75-4.58,2.74-5.13,2.13-2.08-2.33,4.17-5.37,5.13-2.13ZM306.58,147.85c-4.94,5.23-18.37,7.8-23.6,1.68,14.68,6.56,27.86-.62,26.55-17.57-.97-12.58-10.94-11.01-20.73-8.75-15.83,3.65-14.35,10.86-8.4,23.74-4.27-2.83-3.61-11.64-9.2-12.73-6.73-1.31-4.94,7.5-5.58,11.22-2.2,12.78-11.82,19.19-24.68,16.55-10.56-2.16-10.51-10.34-13.47-18.24-.88-2.36-3.9-3.01-2.8-7.38.88-3.48,24.72-7.65,28.77-7.46,4.17.2,9.13,2.55,12.73,2.51,8.96-.1,19.1-10.99,32.66-11.12,1.45-.01,10.12.78,11,1.06,3.92,1.26.77,6,.63,8.08-.43,6.33,1.05,13.17-3.88,18.39ZM308.23,158.12c2.5,5.09,5.81,9.35,4.73,15.4l-6.84-13.35.86-10.64,1.25,8.59ZM303.97,146.14c-1.65,3.6-11.44,4.72-15.05,3.87-6.21-1.46-11.79-11.2-11.06-17.12.9-7.3,17.11-9.76,23.07-9.03-.6,3.22,3.51,21.26,3.04,22.28ZM307.82,128.96c.04,2.65.12,5.27-.22,7.92-.17,1.32-.87,5.28-2.34,5.79-.16-4.3-3.47-12.7,2.56-13.7ZM243.57,126.83c3.2-.83,8.25-.95,10.82-2.06,1.01-.44,4.39-2.47,6.05-3.34,10.66-5.53,17.16-12.19,17.4-25.05,3.85,5.32,12.79,6.61,16.84,10.57,1.16,1.14,6.1,10.14,5.42,10.85-2.7-.63-4.01-2.85-6.86-3.84-3.74-1.31-16.71-2.73-17.08,2.53-.43,6.1,9.47,1.33,13.22,1.25,1.82-.04,6.3-.04,7.29,1.77-10.63-2.9-21.61,9.48-29.8,10.12-3.74.29-7.92-2.01-11.76-2.39-4.73-.46-9.47.24-14.13.84-.21-1.32,1.6-1.01,2.58-1.26ZM241,125.51c.89-1.56,4.5-2.31,6.2-2.79,2.45-.68,4.9-1.59,7.5-1.49-1.03,4.17-10.12,3.1-13.7,4.27ZM256.42,120.37c7.24-5.02,13.88-9.86,16.94-18.61l1.9-7.94c1.76,12.95-6.31,23.77-18.84,26.56ZM294.97,116.11l-17.13,1.7c-.96-3.09,2.25-3.21,4.72-3.41,4.5-.37,8.24.15,12.41,1.72ZM249.58,187.22c3.3,3.6,21.51,1.74,22.27,2.57.26.28-.28,2.69-.03,3.69.32,1.27,4.08.45,1.82,5.39-3.54,7.73-19.98,3.02-24.53-3.04-3.65-4.86-.11-4,.47-8.62ZM247.83,197.96c7.71,8.44,30.02,12.2,28.3-4.73,1.96-.38,1.37.13,1.91,1.09,1.87,3.34,1.61,6.24-.33,9.49-5.7,9.57-24.42,5.59-30.23-2.07-.59-.78-4.75-7.62-4.75-8.09.06-4.63,4.78,3.95,5.1,4.31ZM318.97,231.76c-.24.33-6.51,2.98-7.45,3.31-.65.23-3,1.74-2.82-.28.07-.76,8.48-7.33,9.4-6.43-.4,1.01.97,3.26.87,3.4ZM402.36,208.91c1.18.21,2.25,2.12,4.35,1.41,1.84-.63,1.03-4.64,2.69-5.1,1.78-.49,3.41,2.44,5.86,1.65,2.6-.83,1.67-5.97-1.55-5.09l-28.76,11.15-.8-2.47,26.12-14.62c2.78-2.1.56-5.43-2.55-4.28-1.18.43-1.72,6-4.36,5.93-.95-.03-.38-4.07-4.5-1.99-2.64,1.33-.74,3.84-1.88,4.98-3.88,3.88-3.45-2.14-6.46-1.26-1.55.46-.94,3.28-1.48,4.09-.17.25-4.97,2.62-5.4,2.75-3.57,1.08,2.55-6.13,3.43-6.86,6.34-5.28,19.13-7.49,25.73-13.55,3.15,3.17,7.56,6.27,8.78,10.77.39,1.44.14,3.18.4,4.73.32,1.88,2.33,3.9.69,5.35-1.01.9-22.33,9.27-25.07,10.09-3.83,1.14-6.1,1.26-10.1.61.98-3.96,10.48-2.54,11.04-3.52.76-1.3-1.51-5.72,3.8-4.78ZM384.72,215.85l-7.42,4.03-.95-1.76,7.42-4.03.95,1.76ZM383.22,212.09c1.63,1.3-1.2,1.84-1.69,2.13-1.48.87-6.67,4.32-7.73,1.72-.19-.47,8.72-4.4,9.42-3.85ZM367.81,215.5l10.52-5.32,4.04-.66c-3.53,3.36-9.74,5.28-14.56,5.98ZM372.33,226.08c.38.94-.31,3.99,1.04,3.98,1.96,0,.34-5.97,0-6.85-.85-2.22-2.81-3.89-3.86-5.98,11.14,2.37,8.24,13.1,2.59,20.15-4.89,6.11-32.39,22.13-40.07,23.34-6.14.97-14.35,1.76-13.87-6.57l32.11-15.48c2.29-.81.28,3.58,2.52,2.53,1.62-.76.97-3.95,2.11-4.76,1.95-1.4,4.49,1.74,3.27-4.03-.28-1.32-3.56-5.28-1.07-5.77,2.96-.58,4.89,7.51,7.26,8.57.9-4.63-3-7.48-5.13-10.72-1.79-2.71,1.8-2.21,3.74-1.16,3.96,2.13,3.55,6.65,6.54,9.31,1.27-6.7-5.64-9.07-6.84-14.56,4.02-.2,8.29,4.56,9.66,8ZM319.83,272.94c21.4,2.03,42.73,5.74,64.25,6.86-2.03,5.13-2.6,7.55-8.56,6,2.02,3.58,6.37-.61,5.14,4.7-.8,3.48-3.91,1.09-6,3.43,1.15,1.51,4.78-1.06,5.58.38,1.14,2.05,1.06,7.64,3.83,9.91l-1.28.44-34.04-7.96c-4.12-1.81-2.96-7.24-6.88-10.35-6.11-4.84-15.51-3.34-21.44-5.88-2.95-1.27.04-4.96-.6-7.54ZM320.68,363.77c-1.49-1.74,2.48-17.21,5.14-14.56-2.8,4.25-3.29,8.08-3.75,12.98-.12,1.22,1.39,1.86-1.38,1.58ZM324.31,357.55c.52-3.02,5.84-9.53.93-10.82-4.24-1.11-7.27,12.1-6.28,15.33-1.45.22-.87-2.01-.87-3.01,0-5.86,2.18-8.99,4.3-14.12-1.57-.76-4.04-.44-5.35-.93-1.24-.46-1.4-3.67-5.57-1.96-2.49,1.02-4.24,11.2-3.65,14.02-5.81-.28-8.12.07-7.61-6.32.55-7,1.84-9.32,9.33-8.25.42-4.18-.21-6.14-3.43-8.56,3.96-.28,7.11-2.56,11.17-1.34,1.62.49,13.49,8.08,15.33,9.53,6.66,5.25,9.05,12.79,6.49,20.95-2.24,7.17-5.56,8.86-12.18,5.3-3.78-2.03-3.3-5.89-2.62-9.83ZM313.82,358.63c-1.43.23-.91-2.06-.88-3.02.1-3.45,1.07-8.87,4.31-10.69-1.32,4.6-3.87,8.65-3.43,13.71ZM311.25,356.92c-1.07,1.44-1.56-.1-1.72-1.27-.52-3.89.93-9.69,3.86-12.42,2.22,1.63.54,1.43.06,2.61-1.57,3.88-2.95,6.53-2.21,11.08ZM298.41,351.79c-4.61.04-9.22.25-13.71-.87,2.9-6.76,4.05-13.16,3.44-20.56,5.68,4.34,18.39.78,19.69,8.57-8.68-1.38-9.87,5.9-9.42,12.86ZM248.53,370.39c1.41,2.37,4.1,3.54,4.46,6.24-3.08.57-4.62-1.36-6.43-3.42-5.15-5.88-6.84-16.6-4.7-24,.26-.18,3.28.78,3.38.92.43.58-.93,3.9-.85,5.46.2,3.93,2.12,11.39,4.14,14.79ZM250.28,368.63c-3.43-6.26-3.7-11.48-3.28-18.56,1.54,1,7.12.57,7.59.98.27.23.22,2.01.93,2.88,4.83,5.85,11.43,9.18,4.68,17.5-4.87,6-6.97,2.6-9.93-2.79ZM257.28,351.79c1.51-1.36,8.75,7.94,7.7,10.28l-7.7-10.28ZM233.82,345.67c-4.86-1.23-10.95-2.76-14.25-6.74,12,3.75,24.56,1,34.89-5.81,2.97-1.96,9.06-8.53,10.54-9.21,1.73-.79,10.65,2.04,12.31,3.1,5.21,3.34.03,18.22-2.19,22.91-3.21,1.98-35.67-2.82-41.31-4.25ZM282.81,311.76l-10.11,1.45c6.63-15.02,23.72-9.32,34.56-16.42.87-.57,8.66-7.2,8.97-7.7.2-.32-.71-5.73,2.44-6.63,1.2-.34,19.2,3.24,20.86,5.9-1.59.13-2.84-.79-4.48-.64-12.52,1.17-32.96,21.1-44.09,28.77-7.35,5.07-14.66,10.85-23.38,4.02,3.91-9.07,8.52-5.16,15.87-7.25,3.54-1.01,7.28-3.85,9.81-6.47l-10.45,4.98ZM348.11,298.65l22.27,5.15-43.69,26.55c-.51-2.22.65-1.49,1.62-2.21,10.61-7.79,22.18-13.77,19.81-29.5ZM337.36,319.19c-2.58,2.29-10.42,7.83-13.49,8.78-5.68,1.76-14.26.46-20.37,2.81-1.39-.63-7.82-13.66-7.28-14.97.35-.84,9.33-7.97,10.81-8.97,5.51-3.69,12.14-5.71,17.08-9.91l-4.28.84c19.6-19.53,37.73,3.46,17.54,21.41ZM280.42,327.78c.55.34,2.33.87,2.42,1,.68,1.01.07,9.9-.24,11.89-.17,1.06-3.44,12.59-5.61,10.24-.62-.67,4.16-13.9,4.31-17.62.09-2.16-.62-3.52-.88-5.51ZM283.58,342.53c1.14-4.44.61-7.71,1.11-11.76.15-1.27.69-2.64,1.71-1.27,1.04,6.64.5,14.53-3.2,20.35-.78,1.23-2.04,1.78-2.79,1.07-.33-.31,2.77-6.82,3.17-8.39ZM281.27,325.65l6.37-3.85,4.76,7.7-11.13-3.84ZM291.12,319.22c.61-.26,5.14,10.74,5.56,11.99-1.23,1.45-9.49-10.34-5.56-11.99ZM292.51,318.76l2.46-1.26,6,13.71c-1.98,2.06-8.29-10.94-8.46-12.44ZM278.66,353.15c1.83-.49,6.23,1.02,8.6.36l-20.56,11.98c1.5-3.84,8.15-11.33,11.96-12.34ZM335.67,340.64l-15.84-10.28c6.27,1.82,17.96,7.57,21.79,12.9,5.37,7.49,6.82,24.63-4.66,26.5,7.14-8.44,6.82-21.34-1.29-29.13ZM345.09,343.99c-3.98-6.32-9.74-8.67-15.83-12.35l43.45-26.82c8.06.66,14.19,3.19,20.79,7.55l-48.41,31.62ZM252.13,221.52l29.13-2.57-11.41,4.43c-9.28,7.71-16.4,15-29.72,12.7l.87-7.72c5.92,7.61,15.03,2.4,11.13-6.85ZM243.95,238.69c14.9.27,16.57-6.74,27.1-13.25,14.85-9.18,26.92-1.56,35.89,11.08-.09,1.12-18.46,9.37-20.33,9.68-3.79.64-5.77-1.84-9.28-2.33-6.17-.86-12.72.99-17.19,5.37-1.3,1.28-2.87,5.06-4.3,5.55-.63.22-12.33.97-13.34.85-3-.36-15.65-9.58-18.94-11.98-.73-.53-1.66-.77-1.39-1.97.07-.3,3.7-4.69,4-4.77,3.26-.91,13.44,1.69,17.78,1.77ZM277.34,245.58c.77.1,5.43,1.44,5.64,1.65,3.2,3.31-7.51,1.63-8.14,1.63-2.96-.02-7.5,1.26-9.83,3.1-2.4,1.9-2.08,4.99-6.88,3.83,2.49-7.83,11.61-11.15,19.2-10.21ZM280.39,252.79c-2.11.63-14.73,7.81-15.4,7.28-.15-.12-.91-3-.74-3.67,1.08-4.43,12.61-7.86,16.14-3.61ZM278.72,255.39c.86-.31,5.22-2.27,5.1-.03-.06,1.21-19.14,9.71-22.26,8.99,4.59-3.7,11.55-6.92,17.16-8.97ZM282.71,257.66c.82-.29,2.48-1.71,2.84.29.28,1.56-1.57,2.04-2.57,2.55-2.1,1.07-11.46,5.78-12.84,6.07-1.39.29-2.15-.38-3.43-.5-.91-1.08,14.65-7.93,16.01-8.41ZM286.24,256.16l67.33-31.47,1.25,2.67-67.33,31.47-1.25-2.67ZM285.33,263.74c-4.76,2.99-11.12,4.68-16.05,7.48-.26-1.61.18-2.34,1.24-3.46.83-.87,15.28-7.44,15.88-6.82.69.72.17,2.01-1.07,2.8ZM285.67,255.29l-1.1-2.38,73.45-33.88,1.1,2.38-73.45,33.88ZM287.26,264.37c-1.53,6.82-4.91,12.21-12.54,12.54-1.18.05-6.04-.61-6.3-1.85-.56-2.67,15.91-9.56,18.84-10.69ZM273.98,278.99c10.72.03,10.4-7.62,17.56-12.06-1.65,13.65-15.76,19.07-27.41,12.84,1.88-4.47,6.01-.8,9.85-.79ZM288.99,266.08l-1.09-2.26,63.35-30.53-62.36,28.84-1.23-2.67,66.96-30.97,1.23,2.67-.62.29,1.06,2.2-67.3,32.44ZM282.86,252.71l-.92-2.04,80.26-36.17.92,2.04-80.26,36.17ZM306.73,231.68c-1.65-.46-9.02-7.67-9.55-11.82l-.5,2.51c-2.85-2.78-1.99-9.7-2.78-13.92-.76-4.02-2.48-7.78-3.2-11.78,2.87-3.01,25.59,23.05,27.08,26.52.41,1.54-8.25,9.28-11.05,8.5ZM292.41,215.51c-2.27-.28-6.61,1.07-7.55-1.45-2.02-5.39-1.91-14.92-4.44-20.83.24-.24,6.07.64,6.65,1.05,1.64,1.16,6.22,20.35,5.35,21.23ZM282.91,216.29l-30.39,3.3c-1.68-.32-2.46-12.3-4.67-14.35,3.88,1.48,7.54,4.27,11.77,4.93,7.22,1.13,14.62,1.06,18.97-5.47.88-1.33.33-3.67,1.81-3.75l2.51,15.34ZM249.56,218.93c-1.56-.83-7.39,1.1-7.7.87-.68-.51-3.57-13.54-4.73-16.28-1.42-3.36-3.75-6.3-5.56-9.43,3.53.47,6.55-2.37,9.47.38,2.29,2.15,9.53,23.62,8.52,24.46ZM234.54,203.54c4.68,10.41,6.65,20.5,3.88,31.67h-9.41c-.93-.9,3.6-7.57,4.27-9-1.93-1.7-3.1,3.28-4.8,4.63l-8.04,9.51c-3.69-9.61-14.95-13.98-23.12-19.27,3.18-5.7,27.58-28.49,33.24-25.18.37.22,3.46,6.5,3.97,7.63ZM199.42,225.02c2.38.73,20.15,11.72,17.57,14.49.03.03-8.4-4.75-5.95-1.32,8.4,3,23.89,19.04,31.53,19.7,6.04.52,13.4-1.33,19.83.48.24,1.19-.77,2.59-1.74,3.03-2.28,1.03-6.5-2.47-5.97,1.24,2.05,1.12,12.3,5.31,12.84,6.45.91,1.89-2.93,1.38-3.85,1.28-2.64-.3-4.67-1.71-7.28-1.71-.23,2.94,11.66,4.5,9.42,6.84-4.38,1.29-7.85-1.03-11.99-1.7,1.46,2.97,4.97,3.6,7.71,4.7-3.34,3.33-7.4-.43-11.13-.42-.65,3.29,5.34,1.85,5.99,4.27-10.83,2.82-15.78-9.48-22.34-13.21-5.17-2.94-16.96-5.1-23.65-8.06-20.24-8.93-25.43-16.34-11.01-36.06ZM229.83,279.22c.61,1.02,2.11.27,2.46.67.47.54-.14,2.06.17,2.67.45.87,1.69.68,1.7,1.15,0,.74-.87,1.69-.9,2.44-.02.48,1.38.48,2.01,1.54.5.86.47,3.12.59,3.23.6.55,3.76-1.2,4.23-.85.28.21,2.42,6.06,2.48,6.64.31,3.02-2.51,2.97-4.6,4.39-.82-.06-4.67-8.32-5.43-9.88-2.31-4.69-8.3-16.32-9.35-20.65-.22-.93-.26-1.86-.19-2.8,1.13,1.35,7.48,2.24,7.7,2.58,1.49,2.28-2.63,3.48-2.63,3.9,0,.26,1.6,4.71,1.74,4.95ZM237.57,281.92c.8-3.73,4.31-3.53,5.99-.43-2.26.06-4.19,3.15-5.99.43ZM240.14,286.64c-2.49-2.61,7.02-5.89,6.83-3-.06.86-6.1,3.76-6.83,3ZM193.44,253.24c7.3,6.83,17.38,10.81,26.83,13.86,1.75,6.64,5,13.56,7.99,19.86,1.32,2.78,5.98,13.66,7.16,15.12,1.74,2.16,9.15-.82,9.74-3.17.97-3.9-5.53-7.87-1.92-11.31,3.97-3.78,8.97-1.82,13.22-3.06,2.01-.59,4.5-3.8,6.38-3.86,1.66-.05,6.02,3.07,9.43,3.39,9.82.94,17.51-4.54,20.62-13.68.44-1.28.06-3.42.54-4.16.68-1.07,20.1-9.69,22.97-10.45,1.98,10.43,3.77,23.96-6.05,31.23-9.29,6.87-20.87,3.25-29.85,7.86-7.44,3.82-12.07,14.65-17.64,20.92-12.84,14.45-30.46,19.91-47.82,9.25-18.67-11.46-35.32-52.18-21.59-71.81ZM184.44,260.94c-6.53,12.4-4.31,27.32.87,39.84-3.32.71-5.54-4.07-9.43-2.98,1.05,3.06,5.28,2.9,6.85,5.12-6.61,3.54-8.3-1.93-14.56-2.55.9,2.53,3.88,2.87,5.75,4.07.85.54,1.52-.08,1.1,1.91-1.53,0-2.88,1.59-4.35,1.33-1.5-.27-7.64-4.69-8.5-3.88-1.49,1.4,4.79,4.51,5.99,4.29-.79,1.92-3.37,2.9-5.34,2.41-2.52-.63-6.54-6.71-8.36-2.43,1.31-.28,7.35,3.62,6.85,4.29-3.92,3.63-11.42-2.76-12.4-2.57-.3.06-1.52,1.4-1.31,1.71.23.34,7.75,2.71,6,4.29-.17.15-3.87.79-4.53.7-1.81-.24-7.14-4.11-7.9-4.1-4.74.06,3.79,4.13,4.17,4.38,2.94,1.91-1.21,3.18-2.97,2.87-.36-.06-6.76-2.62-6.76-2.98v-53.14c16.23-1.7,32.48-3.11,48.84-2.56ZM185.03,303.89c2.01-.19,5.92,9.23,6.29,11.44l-55.71,26.16v-16.28l49.42-21.32ZM186.17,260.94c2.26.16-.01,3.36-.01,3.85,0,4.07-.38,8.93,0,12.86,3.12,32.11,33.61,71.11,68.31,48.62,10.85-7.04,13.21-14.97,20.82-23.74,8.39-9.67,13.28-6.63,24.01-8.55,3.99-.72,8.21-3.29,11.95-4.75-6.59,12.33-23.36,6.99-33.36,14.19-5.4,3.89-9.62,13.09-14.18,18.38-11.78,13.67-30.37,20.97-47.87,13.58-23.1-9.76-40.26-51.18-29.68-74.43ZM202.89,329.47c2.79,2.38,6.11,4.14,8.95,6.46-4.91,4.91-12.44,3.8-18.83,3.85l3.43-16.27c.84-.96,5.26,4.95,6.45,5.97ZM206.29,341.5c2.04-.34,7.71-4.33,8.45-4.2,1.22.21,6.02,6.51,8.26,7.2-8.66,2.27-21.9,4.08-29.73-1.08-.82-.54-1.54.11-1.11-1.92,4.34-.5,10,.69,14.14,0ZM185.58,364.49c9.97-5.81,30.39-18.52,41.29-18.31.88.02,11.96,2.61,12.3,3.15.53.83.43,6.95-.73,8.04l-34.27,19.76c-8.6-1.13-16.37-6.23-24.86-8.21,1.39-1.88,4.23-3.23,6.28-4.42ZM239.27,358.64c.08,3.72,1.06,8.21,2.56,11.59,1.47,3.31,4.09,4.93,5.16,8.11-3.68.45-6.4,4.29-9.65,5.35-4.48,1.46-17.04-1.76-22.23-3.02-3.09-.75-6.21-1.85-9.26-2.75l33.42-19.28ZM248.07,379c10.52.87,11.19-5.74,16.6-9.96,2.23-1.74,23.13-14.12,24.92-14.49,1.88-.39,5.56-.54,7.34-.01,1.34.39,2.32,2.33,3.98,2.87,1.93.63,4.12.19,6.11.74,2.52.69,4.19,2.74,6.79,3.08l-1.08,1.95-44.9,28.68c-9.67-2.76-19.41-5.29-29.41-6.66l9.64-6.19ZM314.48,363.93c2.63-.65,11.48,6.14,15.44,7.32,17.71,5.27,20.8-13.57,15.99-26.35l47.59-30.83c-1,4.41-3.15,8.71-3.41,13.31-.19,3.3,2.02,10.57.94,12l-93.22,62.85c-.95.78-1.7.81-2.86.63-7.28-1.11-17.72-8.86-25.67-9.95l45.2-28.98ZM391.37,340.66c1.48,0,3.96,16.7,2.82,18.67l-70.12,50.28c-5.51,2.03-19.59-4.24-25.66-5.55l92.96-63.39ZM394.36,365.07c1.16,3.87-3.85,2.73-5.99,2.13-.53-3.17,5.18-4.8,5.99-2.13ZM136.46,342.78l53.98-25.77c7.59-1.93,2.97,15.38.34,18.4l-44.03,22.88c-1.11.28-10.68-1.86-11.05-2.29-.44-.51-.43-12.22.77-13.21ZM485.25,293.04l-.07,133.72c-.62,9.1-9.39,17.67-18.38,18.47H155.71c-7.97.71-20.1-9.96-20.1-17.6v-69.85c10.26,3.63,21.13,5.07,31.5,8.34,14.18,4.47,27.42,11.46,42,15.41,17.24,4.68,35.25,6.06,52.45,10.96,14.15,4.03,27.13,11.12,41.16,15.39,7.13,2.17,15.88,2.96,22.24,5.18.5.18,1.25.61,2.1,1.13h4.1c-2.62-1.44-5.92-3.05-3.64-4.57,3.12-2.09,11.19,5.39,12.86,3.87.75-.68-.96-2.53-1.98-2.73-.77-1.25-7.37-2.01-6.58-3.68,2.69-5.71,12.52,3.23,13.7,2.13,1.65-1.55-6.56-5.26-7.7-5.15,1.39-9.28,14.79,2.25,16.27.86,2.13-1.99-9.57-5.92-10.27-6.42,1.24-.87,4.3-3.58,5.57-3.58,1.57,0,8.9,6.3,10.71,4.86,1.75-1.39-5.98-4.56-6.59-4.97-3.5-2.37-1.8-3.76,1.48-3.24,2.18.35,9.03,4.9,10.25,3.92.86-.69-.42-2.3-1.69-2.13-.9-.98-7.65-2.67-6.87-4.29,3.15-6.57,14.03,2.54,15.41,1.27,1.95-1.78-8.41-5.16-9.42-5.15,2.64-7.69,15.43,2.35,17.13.86,2.43-2.13-9.15-4.84-9.74-5.14-2.13-1.06,3.3-4.22,4.02-4.16,2.62.22,7.25,5.2,10.87,4.15-1.74-2.98-6.34-3.88-9.42-5.14,3.23-7.42,10.36,1,13.28.85.55-.03,1.74-1.91,1.28-2.54-.27-.36-7.29-2.08-8.56-2.59,2.28-4.6,7.1-3.47,10.5-.87,1.03.78,1.31,2.2,2.29,3.06,4.46,3.93,5.86.56,8.87,1.37,1.14.31,1.72,2.06,3.63,2.45,2.01.41,4.91.1,6.75-.94,2.1-1.2,3.89-5.77,4.38-5.92,3.17-.99,1.74,2.51,3.09,4.65,3,4.75,22.23,1.63,27.08-1.03,3.49-1.91,4.58-5.81,6.62-7.09,1.82-1.14,4.94-1.09,7.34-2.09,7.34-3.05,12.06-12.9,12.06-20.57,0-9.24-9.98-21.88-2.98-29.48,3.12-3.39,7.67-2.71,7.25-9.07-.71-10.77-16.58-5.48-20.43,4.45-7.09,18.24,14.9,32.1-.61,45.67-.64-8.1-2.21-15.32-7.3-21.83-1.01-1.3-6.8-6.39-6.82-6.88-.12-3.24,8.14,2.38,9.4,1.28.66-3.24-5.48-2.77-5.99-3.43,9.48-8.11-15.37-6.99-15.41-10.7,6.04-4.2,10.27-11.3,10.33-18.86.02-2.58-2.44-8.76.48-9.72,2.91-.96,21.85,1.89,26.3,2.59,3.86.61,12.71,1.65,15.81,3.03.84.38,1.26.29,1.1,1.51ZM455.2,364.63c.69-1.38.5-5.04,1.01-5.83.28-.43,2.33-.71,3.22-1.48,16.53-14.13-7.47-30.1,1.42-47.45,2.47-4.83,12.11-11.8,15.36-5.23,2.25,4.56-4.15,5.89-6.45,8.14-8.59,8.39.59,19.25,1.63,28.38,1.28,11.26-4.37,21.96-16.18,23.47Z"/>
          <polygon points="355.19 231.38 351.24 233.28 355.22 231.44 355.19 231.38"/>
          <path d="M219.57,138.38c-1.78-.45-.77-4.87-.47-6.04,4.52-17.74,30.59-16.9,40.26-30,2.4-3.25,2.98-7.42,5.62-10.23-3.56,27.2-44.34,18.92-45.41,46.28Z"/>
          <path d="M300.11,98.1l-10.27-8.56c2.4-.78,11.54,7.24,10.27,8.56Z"/>
          <path d="M284.69,159.81c-.29,19.2-18.97,21.16-24.87,3.89-.05-1.27,21.98-2.48,24.87-3.89ZM282.12,161.53l-17.99,3.41c5.92,1.22,14.1,2.27,17.99-3.41ZM282.12,164.96l-9.42,3.41c6.46.43,7.3,4.89,9.42-3.41ZM277.84,170.96c-1.53-1.58-10.38-1.98-12.85-1.72,2.17,4.23,7.52,5.46,11.79,3.64.96-.41,2.08-.87,1.06-1.92Z"/>
          <path d="M251.94,130.05c13.44.12,14.97,10.35,10.89,21.17-3.39,8.99-15.14,11.55-23.58,9.05-6.72-1.98-11.83-15.79-9.86-21.94s17.17-8.33,22.55-8.29ZM251.13,131.73c-4.2.1-18.92,2.81-20.23,7.25-1.66,5.59,3.04,17.09,8.63,19.29,9.34,3.68,21.58-.85,22.92-11.73,1.2-9.78-.61-15.08-11.31-14.81Z"/>
          <path d="M214.42,160.66c-6.35-2.5.85-15.19-7.69-10.28-1.3-5.93,8.62-1.91,7.56,1.91-.3,1.1-1.68,1.69-1.6,3.59.07,1.8,1.99,2.93,1.73,4.79Z"/>
          <path d="M298.41,135.81l2.57-.42c-3.61,6.58-8.21-1.84-14.8,2.97-1.36,1-1.57,3.82-4.06,3.45-.72-5.17,4.35-8.67,8.98-8.65,2.95.01,4.59,2.07,7.28-.77l.02,3.43Z"/>
          <path d="M235.85,146.96l2.56-.42-.85-2.15c6.44-.99,8.48-5.32,16.05-2.77,4.79,1.62,5.42,6.51,1.95,4.92s-3.91-3.11-8.82-1.97c-4.85,1.12-6.25,9.77-10.89,2.4Z"/>
        </g>
      </g>
      <rect class="cls-1" width="603" height="452"/>
    </g>
  </g>
</svg>