<?xml version="1.0" encoding="UTF-8"?>
<svg id="Capa_2" data-name="Capa 2" xmlns="http://www.w3.org/2000/svg" viewBox="0 0 603 452">
  <defs>
    <style>
      .cls-1 {
        fill: none;
      }
    </style>
  </defs>
  <g id="Capa_1-2" data-name="Capa 1">
    <g>
      <g>
        <path d="M171.55,129.46c.67.5.54,5.97,5.88,4.19-1.55,3.4-3.43,4.94-2.52,9.22-3.19-2.58-5.62-1.09-9.21-.84,2.68-5.41-1.8-4.51-1.65-8.34,2.85.93,6.41-5.05,7.51-4.23ZM171.55,131.98c-1.61-1.31-1.72,1.51-2.52,2.06s-2.4.37-2.49.46c-.49.47,2.7,4.06.85,5.86,2.49-.98,4.2-.41,6.7,0-2.24-1.9,1.51-5.22.84-5.85-.1-.09-1.65.12-2.49-.46s-.76-1.96-.88-2.06Z"/>
        <path d="M200.04,147.09c.08.05-.11,1.19.58,1.68.82.57,2.72.71,2.81.82.25.31-1.12,1.36-1.37,2.24-.2.73.08,3.29-.32,3.62-.23.19-2.78-3.24-5.01,0,.9-1.7-2.15-5.18-1.68-5.85.17-.23,4.69-2.69,4.99-2.5Z"/>
        <path d="M190,48.96c.46,2-.34,1.36-1.09,1.87-2.11,1.44-3.32,1.8-5.2,3.99-9.38,10.93-2.03,28.06,11.85,29.32,1.37.12,7.96-1.92,7.02.44-.58,1.44-7.05,5.64-8.76,6.33-18.77,7.56-37.31-12.17-27.97-30.49,4.56-8.94,14.52-12.74,24.16-11.47ZM185.81,50.64c-8.17-1.28-17.35,5.86-19.71,13.39-6.05,19.29,16.27,35.03,32.29,22.23-16.78-.66-27.5-18.97-15.94-32.7,1.2-1.43,2.89-1.55,3.35-2.92Z"/>
        <path d="M210.96,105.15c-.19.23-4.53-1.06-5.86-.01.98-2.41.2-3.07-1.66-4.61,2.01-.14,4.29-3.75,4.59-3.76s4.55,3.45,4.56,3.75c0,.12-1.09,1.09-1.39,1.95s-.15,2.58-.24,2.68Z"/>
        <path d="M210.09,58.23c.21.21-.59,5.62-.8,5.83s-4.59-1.08-5.86,0c.85-1.62-1.76-4.52-1.28-5.05.72-.79,1.94-.52,2.69-1.09.7-.54.82-1.88,1.52-2.25.49-.26.49,1.46,1.3,2.06.76.56,2.24.32,2.43.5Z"/>
        <path d="M248.67,50.64c.17.14.11,3.11,1.24,4.22,1.47,1.44,4.17.1,5.46,2.06-5.2,3.04-2.17,5.77-2.5,8.37-.36,2.82-4.17-1.24-5.45-1.24-1.71,0-5.27,4.69-5.48.43-.06-1.29,1.07-2.8.76-4.06-.53-2.16-4.34-1.58-3.25-4.76,1.53-.04,4.11.1,5.34-.77.97-.69,1.12-6.54,3.87-4.27ZM252.88,56.51c-1.09-.02-2.4.15-3.36-.41-1.46-.84-.86-3.64-2.5-3.78-.72,4.1-.52,4.77-5.04,4.19-.68,2.2,2.45,2.05,2.58,3.05.16,1.22-1.27,2.99-.91,4.48,1.65.44,2.21-1.69,3.63-1.56,1.24.11,2.3,1.99,3.91,1.56-2.46-3.77,1.02-4.39,1.68-7.53Z"/>
        <path d="M251.47,92.35c.7.5,2.1.09,2.25.22.22.2-1.39,4.61-.84,5.87-1.34-1.06-5.67.23-5.86,0s-.78-4.93-1.68-5.87c1.89.85,4.34-2.52,4.61-2.51.56.02.87,1.82,1.52,2.29Z"/>
        <path d="M225.22,249.36c2.05.25,6.66-.96,7.43,1.37.44,1.34.39,16.66-.05,18.16-.5,1.7-3.99,3.67-4.86,1.44,1.63.46,4.19-1.57,4.19-2.94v-16.35h-5.87v15.51c0,.46,1.27,1.83.83,2.93-.35.73-1.67-1.58-1.67-2.09v-18.03Z"/>
        <g>
          <path d="M148.73,12.28l302.44-.25c13.49.49,22.86,10.76,23.89,23.9v384.1c-1.09,12.65-9.64,21.14-22.22,22.22H149.32c-11.33-.98-20.15-9.2-21.38-20.54V33.42c1.01-11.59,9.57-19.37,20.79-21.14ZM472.52,320.64V34.28c0-9.84-11.53-20.02-21.35-19.74H151c-9.38.81-17.24,6.04-19.94,15.28-.28,96.23-1.38,192.79-1.07,289.1,0,.7.31,1.71.91,1.71h23.89v-10.9c-4.82.02-11.54.54-12.53-5.5-.33-2.03-.38-8-.01-9.97.53-2.84,20.95-32.39,24.25-36.72,1.9-2.49,5.08-2.78,3.43-8.51-.13-.44-6.01-1-2.99-7.22,1.47-3.02,9.18-1.2,12.16-1.67-.27-3.08.41-6.61-.05-9.61-.11-.7-3.61-7.17-.38-7.17h13.41c.37,0,1.84,2.21,1.82,2.94-.03,1.13-1.57,2.13-1.79,3.36-.27,1.5-1.02,10.32.03,10.48h8.74c-.3-3.07.44-6.66-.05-9.62-.24-1.41-4.05-7.17.46-7.17h12.57c3.23,0-.27,6.47-.38,7.17-.46,3,.23,6.53-.05,9.61h8.74c.69-.09.7-8.44.53-9.69-.16-1.13-3.42-7.08-.46-7.08h13.41c.42,0,2.14,2.04,2.13,2.94-.01,1.61-2.13,2.31-2.36,3.44-.35,1.77,1.56,7.75.64,10.39,5.19-.35,14.55-.99,11.64,7.03-.63,1.74-5,.41-3.25,6.39,8.23-.84,18.48,1.1,26.45.03,2.82-.38,4.49-2.24,8.31-2.58,4.38-.4,8.19,0,12.18,1.71l.84-5.03c-3.66.38-6.45,1.19-10.28.63-4.27-.63-19.91-4.78-23.72-6.45-2.71-1.19-3.78-3.29-2.77-6.22.75-2.2,19.11-5.61,22.52-5.57-1.16-1.86-3.63-1.41-4.96-3.9-1.13-2.1,1.07-5.37-1.7-6.56-3.59-1.53-3.23,2.67-3.42,2.86-.95.93-6.47-1.04-7.14-3.23-1.67-5.44,1.59-4.06,2.08-5.63.44-1.39-.67-2.85-.64-4.11.09-4.29,4.03-8.07,8.24-5.43v-4.19s-122.8,0-122.8,0c-2.1,0-3.22-3.57-2.97-5.41l.2-161.7,1.5-1.85,152.97-.39c5.63.88,1.55,10.98,3.07,13.28.55.84,8.26,2.64,9.72,3.28,6.17,2.7,7.4,7.47,8.62,13.61,3.19-.97,8.11-2.51,11.35-2.54,3.69-.04,7.2,2.35,10.08,2.49,2.39.11,5.41-1.51,8.3-1.66,2.49-.13,5.57.99,6.65.9.59-.05.87-2.06,2.36-2.77,1.18-.56,3.83-.49,3.97-.64.17-.18-.01-3.58.43-5.03,1.69-5.54,5.66-5.53,9.96-7.64,1.31-.64,2.24-2.34,3.85-2.86,7.4-2.37,9.39,1.1,14.54,3.16,2.93,1.18,5.82.69,8.58,3.16,1.88,1.68,1.86,3.55,2.9,4.64,2.58,2.71,5.41,3.46,7.42,7.67,3.3,6.89,1.17,9.49.22,15.88-.35,2.4.26,4.9-.26,7.29-1.29,5.93-10.05,10-15.75,8.98,2.64,7.99,4.12,16.24,3.34,24.72-.33,3.59-1.96,6.93-2.43,10.14-1.04,7.02,1.51,12.5-5.18,18.3-2.84,2.46-9.17,3.15-10.04,4.42-3.79,5.55,1.96,10.41,1.78,15.76-.14,4.01-3.17,10.37-7.58,11.34.42-3.3,2.65-6.16,2.55-9.61-.04-1.35-2.04-7.81-3.78-7.14-3.38,1.3-11.91,14.03-18.08,14.68,1.33,6.14,7.88,4.11,12.97,5.47,3.45.92,8.64,3.92,11.38,6.23,1.39,1.17,4.09,5.08,4.38,5.25,4.36,2.53,13.63-1.16,16.17,8.57,1.15,4.42.67,17.14.43,22.28-.15,3.13-.49,10.7-1.05,13.21-1.41,6.24-9.34,6.05-9.97,6.98-.48.71-.51,2.45-1.23,3.62-1.2,1.96-3.43,2.23-2.92,5.48.11.71.75,2.12,1.3,2.12h15.93c4.43-7.82,7.46-15.56,6.31-24.76-.61-4.84-5.88-8.02,3.14-9.4,3.6-.55,14.21-1.26,13.63,4.33-.12,1.16-1.47,2.29-1.75,4.21-.92,6.44,1.21,19.01,5.15,24.29,1.52,2.03,5.29,1.81,6.99,3.91,3.83,9.13,22.92,29.28,24.6,37.44.54,2.61.64,11.21-.6,13.28-2.52,4.22-10.61.17-11.67,3.42-.5,1.52-.5,10.36,1.14,10.36h22.22ZM299.83,32.19h-152.57v165.19h121.56v-5.87h-112.75c-.24,0-2.29-1.3-2.51-1.68l-.46-146.36.88-4.57h139.16c.34,0,1.16,5.83.84,6.71,9.2.74,7.1-7.03,5.87-13.42ZM154.76,40.57v71.27h63.75V40.57h-63.75ZM226.89,40.57h-6.71v72.95h-65.39v5.87h64.13c.09,0,1.26,1.17,1.26,1.26v68.34h6.71v-68.34c0-.09,1.17-1.26,1.26-1.26h58.26c-1.27-1.14-.54-5.87-.84-5.87h-58.68V40.57ZM291.02,40.57h-62.45v71.27h57.01c-.73-6.9.81-12.76,2.52-19.28-7.21-.32-12.42-6.65-13.42-13.42-2.82.53-1.17,6.16-1.67,6.7-4.22-1.73-4.98-1.14-9.21,0,1.04-3.42,1.63-5.65-1.66-7.96.95-1.52,2.88-.93,4.13-1.72.98-.62,1.25-2.41,2.15-2.89,1.77-.95,1.52,2.81,2.21,3.23,5.54,3.39,3.26-7.54,3.31-9.44.16-6.84,4.82-8.9,8.33-12.88,1.19-1.35,2.48-4.91,3.57-5.83,1.39-1.18,5.16-1.22,6.07-2.73.81-1.33.67-4.58-.85-5.05ZM391.2,44.77c-3.84-.29-5.44-2.87-9.53-2.48-2.23.21-9.71,4.25-12.01,5.65-4.17,2.53-5.37,6.29-3.38,10.86l6.49,4.4c.03-6.68,4.62-12.17,10.06-15.52l8.39-2.92ZM317.37,57.27c.69-.92-1.34-4.88-2.07-5.76-1.69-2.04-9.86-4.86-12.53-5.11-3.93-.37-6,1.71-9.64,1.73l4.95,3c4.94,3.11,5.38,8.33,8.04,12.92.65-4.33,9.82-4.85,11.25-6.77ZM393.07,87.37c.26.45,4.05,2.71,5.16,2.67,2.68-.09,7.63-2.87,9.27-5.08,2.5-3.36,3.62-16.95,2.93-21.28-.97-6.15-9.1-10.93-12.54-15.97-7.96-1.67-16.1-.3-20.95,6.68-.97,1.4-3.43,6.98-3.18,8.28.22,1.16,2.41,2.36,3.23,3.46s.67,4.59,3.27,2.91c.45-.29,2.07-8.87,5.07-9.19-2.48,5.74-6.13,8.49-1.22,14.28,5.04-1.93,10.02-4.99,13.33-9.3,1.2-1.57,1.37-4.2,2.98-4.97-.85,7.01-8.37,13.25-15.08,14.26,2.12,1.36,2.27,5.31,3.37,6.26.54.47,5.45,3.02,6.24,3.03,5.18.06,10.68-5.99,12.07-10.67l2.62-7.85c.08,7.35-3.94,15.88-10.89,18.86-2.64,1.13-7.4.62-5.68,3.62ZM299.62,68.88c.56-.46.73-2.14,1.49-3.1.67-.85,2.55-1.21,2.81-2.23.16-.62-1.96-6.37-2.54-7.34-2.39-4.03-9.55-8.97-14.08-5.94-2.24,1.49-2.18,3.88-3.37,5.63-1.68,2.46-4.17.66-3.19,6.69,1.12,6.93,7.82,10.02,13.65,12.36.05-6.32,3.23-4.4,5.23-6.06ZM364.38,59.03c-1.41-.32-3.24-1.02-4.54-.04-2.93,2.22,4.61,6.59,4.54.04ZM280.54,77.47l-4.18-4.19c-.64,5.24.74,11.27,5.07,14.62,1.24.96,7.16,3.96,8.27,2.91.12-.11.9-3.04.8-3.17-.22-.3-1.89-.25-2.3-1.46-.44-1.3.28-3.86-.2-4.43-.29-.35-7.1-1.38-7.45-4.28.27.25,5.28,2.57,6.02,2.78,5.23,1.47,3.37.69,4.42-2.8.24-.79,1.51-2.21,1.3-2.49-.35-.45-8.94-3.02-9.66-5.87l-4.58-9.23c-1.85,4.98-2.45,8.16-.18,13.16.19.43,2.5,4.27,2.69,4.45ZM339.23,64.88c4.43-4.43-5.31-4.41-8.79-4.17-26.3,1.83-50.28,35.58-41.5,61.2,6.71-.66,9.23-6.01,15.23-7.82,11.62-3.48,23.06-.42,34.5-8.26,8.51-5.84,9.62-12.31,12.27-21.28.36-1.23-.46-1.47,1.7-1.22-2.44,16.06,15.91,18.19,20.37,30.36,2.4,6.57,1.16,14.16,1.52,21.12.1,1.97,1.44,4.1,1.51,6.03.12,3.39-2.08,7.21-2.25,10.61l6.51,16.57c1.01-7.03-3.65-11.35-2.14-18.5.45-2.14,2.03-3.85,2.2-6.24.23-3.31-1.56-6.16-1.74-9.24-.46-7.57,5.46-10.65,4.21-18,3.62-.66.79,3.88.87,4.62.2,1.8,3.5.19,5.33.41,2.34.28,3.99,2.46,6.37,2.51.57-4.59,1.81-9.18,1.73-13.86-.03-1.89-1.93-13.93-2.67-14.54-.61-.5-4.1.28-5.56-1.15-.6-.59-.69-2.18-1.49-3.1-.87-1.01-2.82-1.48-3.34-2.55-.65-1.35-.17-3.88-.45-4.16-.25-.25-1.9.1-2.68-.21-2.8-1.1-1.86-5.08-2.4-5.6-.36-.35-2.55.09-3.76-.84-1.5-1.17-.8-3.52-1.32-4.13-.31-.37-2.84-.47-4.05-1.4-1.65-1.28-1.42-3.26-1.84-3.61-.56-.45-2.19-.09-3.15-.59-1.15-.6-2.91-2.87-6.14-4.62-.46-.25-.53-1.29-.82-1.41-2.97-1.23-7.76-.8-10.86-.02-3,.76-4.64,2.21-7.36,3.11ZM369.62,63.92c0-1.52-1.23-2.75-2.75-2.75s-2.75,1.23-2.75,2.75,1.23,2.75,2.75,2.75,2.75-1.23,2.75-2.75ZM313.24,62.38c-.39-.56-4.45-.7-4.97.05-1.38,7.34,6.8,2.6,4.97-.05ZM375.81,68.3c0-1.75-1.42-3.17-3.17-3.17s-3.17,1.42-3.17,3.17,1.42,3.17,3.17,3.17,3.17-1.42,3.17-3.17ZM303.72,65.83c-2.99,1-1.55,5.74-.13,5.76.89.01,6.29-4.38,2.42-5.78-.75-.18-1.56-.22-2.3.03ZM301.49,73.03c0-1.38-1.12-2.5-2.5-2.5s-2.5,1.12-2.5,2.5,1.12,2.5,2.5,2.5,2.5-1.12,2.5-2.5ZM381.7,73.69c0-1.82-1.47-3.29-3.29-3.29s-3.29,1.48-3.29,3.29,1.47,3.29,3.29,3.29,3.29-1.48,3.29-3.29ZM273,78.32c-3.03.47-3.04-2.13-5.02-3.36.24,3.02-.97,2.97-3.36,3.77,1.91.65,1.5,4.43,1.68,4.62.18.21,3.64-1.57,5.02.83-.34-2.47.19-3.99,1.68-5.86ZM386.97,79.56c0-1.85-1.5-3.36-3.36-3.36s-3.36,1.5-3.36,3.36,1.5,3.36,3.36,3.36,3.36-1.5,3.36-3.36ZM297.31,76.63c-.65-.62-5.89-.32-5.02,2.92s6.86-1.19,5.02-2.92ZM391.37,85.73c0-1.7-1.38-3.08-3.08-3.08s-3.08,1.38-3.08,3.08,1.38,3.08,3.08,3.08,3.08-1.38,3.08-3.08ZM352.63,91.72c-1.27-1.29-1.46.45-1.87,1.08-6.98,10.73-7.53,15.42-21.6,19.46-2.28.65-10.88,1.77-11.55,2.27-.82.61-.38,2.93-1.57,3.23-2.15.53-5.82-.5-8.24-.03l-6.29,1.66c4.26-.15,8.6.14,12.76,1.08,3.99.9,8.28,3.92,11.96,4.03,4.95.16,7.91-3.63,12.54-5.15,9.9-3.25,24.42-2.15,33.99,1.72-.63-6.99-3.33-10.97-8.37-15.52-2.9-2.62-6.72-4.06-9.23-7.54-1.51-2.09-2.29-6.04-2.53-6.29ZM315.75,114.37l-4.37.23-7.35,2.27c3.27-.75,11.15,2.14,11.73-2.5ZM293.96,147.91c4.43,5.27,14.88,4.76,20.41,1.54,7.68-4.47,6.03-16.28,9.34-19.16,6.9-6.02,8.74,9.35,11.16,13.16,6.32,9.96,26.11,10.66,31.8-.38.56-3.28,4.97-18.72,4.33-20.63-.4-1.18-1.06-1.1-2.05-1.33-8.58-2.04-20.23-2.75-28.7-.27-6.51,1.91-9.66,6.66-17.19,5.07-2.23-.47-5.55-2.82-8.17-3.56-6.66-1.89-16.66-1.88-23.3.13-2.48.75-6.1,1.86-6.1,4.86,0,1.23,3.71,14.02,4.45,15.76.69,1.6,1.33,2.87,2.75,3.96l-3.81-12.12c-3.38-13.97,14.57-14.19,23.74-12.01,9.64,2.29,9.15,12.08,5.79,19.68-4.39,9.92-15.93,9.32-24.47,5.3ZM218.51,121.91h-63.71v67.08h63.71v-67.08ZM286.41,121.91h-57.84v67.08h41.08c1.02-3.8,5.02-13.22,8.97-14.08,1.42-.31,4.76.1,5.19-.26.31-.26.25-3.1,1.31-4.14,1.34-1.32,3.71-.29,5.09-1.62,2.57-2.48,3.38-13.31,2.55-16.86-.74-3.17-4-6.3-5.32-9.77-1.85-4.89-1.94-10.33-3.93-15.21-.21-3.32,1.26-3.13,2.91-5.15ZM381.99,146.23c5.87-.96,9.91-3.77,11.69-9.68,4.38-14.6-11.28-18.56-13.03-5.43-.62,4.66,2.54,10.02,1.35,15.11ZM296.48,134.49c-.07,10.59-1.13,15.59,11.31,14.25,5.58-.6,8.45-4.15,10.06-9.22,5.68-17.95-10.69-16.02-23.06-14.24l.85,7.54h3.35s-.83-2.52-.83-2.52c3.17,1.57,3.43-1.3,5.55-2.42,3.96-2.09,8.1-1.12,10.74,2.47,8.05,10.92-8.15,19.5-14.62,9.6-1.37-2.1-.84-5.77-3.35-5.45ZM312.95,130.58c-6.1-6.05-16.61,2.45-11.44,9.77l2.09-5.86c2.05-2.69,6.61-3.02,8.84-.47,1.45,1.66.72,4.66,2.46,5.49,1.4-2.78.17-6.82-1.96-8.93ZM298.99,152.94c2.83,3.26,11.81,3.75,10.93,9.59-.29,1.94-2.72,2.78-2.49,4.12.27,1.58,5.85,5.08,7.48,6,14.65,8.31,28.52,6.44,42.7-1.76,3.73-2.16,14.87-10.03,15.13-14.23.13-2.14-1.1-4.34-.74-7.43.31-2.73,2.54-5.76,2.41-8.4-.15-3.14-2.97-8.46-2.48-12.22l-3.71,15.14c-6.04,11.96-27.19,11.9-34.17,1.37-2.09-3.16-4.2-12.08-5.26-13.18-4.08-4.23-6.03,4.52-5.46,7.56l2.5-1.26c-1.07,2.15-5.07,7.7-3.82,9.66.85,1.33,4.16,1.28,4.66,3.33-5.2.78-4.64-2.41-7.53-5.02-3.07,7.77-13.21,6.8-20.13,6.72ZM293.73,133.88c-.44-.6-2.46-1.91-2.3.19.15,1.99.87,4.99,1.45,6.95.29.97.69,3.54,1.91,3.53-.29-3.15.88-8.03-1.06-10.67ZM307.36,162.16c-.91-4.61-6.94-6.05-10.89-5.86-.46,2.54.75,1.29,1.97,1.75,3.14,1.18,6.12,2.2,8.91,4.11ZM292.28,170.53c3.21.26,6.4,2.06,8.81,4.19,4.89-8.5,8.05-13.48-4.53-15.02l-4.27,10.83ZM324.97,178.94c-7.28-1.54-13.54-5.52-19.27-10.07.55,2.18-2.24,4.84-2.22,6.29.01,1.18,1.61,2.44,1.37,4.95-.17,1.76-3.63,7.71-3.35,8.04,2.18,2.52,8.02-3.55,10.58-4.92,1.42-.76,5.55-2.62,7-3.06,1.95-.59,5.11.34,5.89-1.22ZM303.17,180.6c2.75-2.96-11.16-8.61-13.39-8.88-1.51-.19-2.28-.71-3.36.93l16.75,7.95ZM299.6,187.09c.35-.34,1.76-3.3,1.79-3.71.22-2.39-14.37-9.13-15.82-7.8-.33,1.86,2.14,2.46,1.59,4.44-.26.95-1.81,1.59-2.25,2.87-1.52,4.47-1.88,9.62-5.67,13.61-1.38,1.46-9.06,4.82-6.15,8.32.32.38,7.3,2.84,9.13,3.85,1.26.69,6.99,5.12,7.52,4.62-.37-3.86,3.81-8.18,3.96-11.45.14-3.1-2.59-4.32-.66-9.15,1.62-4.07,4.72-3.83,6.54-5.61ZM354.31,175.57c-6.37,2.27-12.9,4.56-19.73,4.86-.71.03-1.95-.79-2.05-.67-.15.18.24,1.3-.09,1.8-.59.9-1.55.67-1.68,1.95-1.04,10.32,16.94,6.47,22.29,1.28,3.85-3.73,2.72-4.71,1.25-9.22ZM284.73,180.6c.59-4.34-5.41-5.08-7.53-2.08-.39,2.03,1.47,1.08,2.81,1.35,1.57.32,3.08.91,4.72.73ZM359.35,180.61l-5.41,5.9c-7.54,7.4-27,9.68-25.61-5.07-7.07,7.95,1.82,15.03,10.49,15.08,11.62.07,16.15-6.31,20.54-15.91ZM370.24,182.29c-2.87.19-7.14-2.78-9.24-.48-2.22,2.43-11.33,21.19-10.01,23.07,9.87,4.1,8.76-4.31,11.83-11.16,1.9-4.24,4.33-7.99,7.42-11.43ZM283.06,185.63c-.63-4.24-6.8-5.91-9.21-2.08l9.21,2.08ZM324.97,181.45c-.43-.39-5.72.42-6.48,1.05-1.66,1.37-4.78,11.96-4.4,14.39.24,1.54,4.46,8.72,5.85,5.77.98-2.07,1.48-9.51,2.26-12.69.73-2.97,1.9-5.64,2.78-8.53ZM363.54,222.11c-.5-4.62.36-9.96,0-14.67l2.65,16.22,1.19,1.3c3.53-.89,25.62-2.07,26.27-4.58.69-2.7-7.24-22.38-9.31-25.77-1.62-2.64-8.75-11.13-11.87-10.52-4.33.84-11.4,18.86-12.08,23.14-.41,2.59.42,19.26,1.53,20.29.36.33,2.44-.08,3.3.05.23-.17-1.58-4.56-1.68-5.44ZM314.91,184.8c-5.78,1.63-12.47,6.64-3.75,10.05,1.52.59,1.08-.56,1.32-1.15.43-1.07,2.76-8.58,2.43-8.9ZM280.54,190.66c.74-5.16-8.28-5.62-9.2-1.24-.51,2.45,3.17.45,4.5.47,1.42.02,3.06,1.15,4.7.76ZM351.8,194.87c-6.55,2.65-17.01,4.49-23.06,0l-4.6-5.87-2.31,13.87c.46,2.42,22.57,3.11,26.06,2.93l3.9-10.93ZM297.31,191.51c-1.3-1.55-1.8,1.12-2.06,1.68-1.32,2.83-1.53,5.08.82,7.53,2.39.42.31-3.05.32-4.6.01-1.23,1.08-4.42.92-4.61ZM303.94,191.58c-8.49-2.24-6.69,12.82-1.16,9.23,3.1-2.02,2.31-6.23,1.16-9.23ZM273,195.69c.21-.2,5.62.73,5.03-2.08-.74-3.54-12.35-.3-5.03,5.44.16-.8-.24-3.13,0-3.36ZM391.21,239.3c10.71.61,7.56-18.94,7.5-26.44-.04-4.2.88-8.59-.13-13.21-1.01-4.61-7.48-5.98-11.56-5.62,2.22,7.25,9.12,20.07,9.19,27.36.04,4.15-3.92,3.13-4.22,4.18-.84,3,.74,9.94-.78,13.73ZM316.78,231.62c-.86-.58-.22-2.85-.64-3.99-.32-.88-2-1.43-2.06-2.98-.07-1.82,2.27-3.46,2.25-4.21-.02-.66-1.73-1.57-1.35-3.21s3.09-2.07,3.72-3.08c2.52-4.09-6.65-17.62-11.31-19.29.79,10.9-9.02,6.89-11.62,8.52-.19.12-1.96,3.89-1.8,4.05,1.49,1.53,1.77-1.71,2.14-1.72.85-.03,6.61,1.84,7.67,2.39,10.26,5.35,10.93,20.76,7.36,30.35-.48,1.3-2.68,4.36-2.68,4.63,0,1.07,4.87,5.85,4.8,7.96,1.34-.99,3.06-3.51,3.81-4.97.92-1.8,3.31-7.5,3.36-9.22s-1.67-1.85-1.92-3.11c-.13-.64.71-1.9.62-1.97-.22-.18-1.71.29-2.34-.14ZM289.76,220.85c.37-.33.54-2.28.24-3.1-1.61-4.3-20.85-14.26-24.4-11.85-.11.07-.63,1.83-.98,2.37,6.96.22,14.85,4.41,20.39,8.54,1.18.88,3.8,4.9,4.75,4.04ZM347.61,208.27c-.95-.89-22.53-1.07-25.99-2.51v7.55c5.15-2.07,11.12-.64,15.5,2.52,2.79,2.01,6.21,7.33,8.87,8.74,1.68.89,13.17,2.86,14.19,2.15l-1.68-12.57c-1.74.69-1.62,3.33-3.94,4.02-9.1,2.71-6.4-9.39-6.94-9.9ZM303.18,234.28c1.32-6.65,1.1-15.57-2.34-21.55-1.58-2.74-2.91-4.27-6.03-2.36,1.7,4.44,7.45,8.18,7.12,13l-3.29-3.42-6.35-9.99c-2.64,4,.98,7.8-.44,10.88-2.7,5.84-7.96,1.12-8.76,1.71-.2.14-1.06,3.4-1.81,4.51-.82,1.23-2.48.87-2.42,2.17l24.3,5.04ZM287.25,221.68c1.61-1.43-18.84-13.2-21.79-11.72,1.18,1.96,4.44,1.36,5.92,3.7s-.31,6.27,3.06,4.38c.14-.08.18-1.24.8-1.38,5.98-1.28,6.99,4.11,12.01,5.02ZM309.88,238.46c2.26-9.27,2.53-24.77-8.37-28.5,5.22,7.92,4.82,16.95,3.35,25.98,1,.2,3.74-.35,4.15.06.48.49-.76,2.74.87,2.45ZM266.05,213.44c-4.2,1.21-1.41,6.37,2.75,4.49,2.88-1.31.69-5.48-2.75-4.49ZM389.53,237.21c.53-3.98-.39-8.89,0-13l-20.12,2.52c-.76,3.64,7.27.5,6.7,4.18-8.37-1.9-23.93-.57-31.24-4.38-2.45-1.28-4.12-4.88-6.47-6.95-4.22-3.73-7.38-4.9-13.04-4.64-2.15.1-9.74.89-6.68,4.2,2.06-1.45,4.25-1.6,6.68-1.69,1.68-.06,5.43-.85,4.64,1.71-4.54-.31-11.33.85-13.42,5.45,4.39,1.09,7.82-3.6,12.58-2.08.43,2.57-.7,1.31-2.05,1.68-3.11.84-6.44,1.31-8.84,3.78-.34,1.77.76,1.35,2.01,1.17,2.95-.42,5.75-2.05,8.88-1.6.44,2.39-.6,1.37-1.84,1.88-1.43.59-8.73,2.22-6.53,4.82.3.36,5.86-1.54,9.27-.46,1.67.53,2.78,2.41,4.38,3.16,2.79,1.31,5.87.91,8.33,1.73,4.78,1.59,10.7,5.95,16.37,7.94,11.79,4.14,28.11,7.6,30.39-9.43ZM281.36,221.46c0-1.7-1.38-3.07-3.07-3.07s-3.07,1.38-3.07,3.07,1.38,3.07,3.07,3.07,3.07-1.38,3.07-3.07ZM410.9,221.69c-1.63.64-.9,2.52,0,2.52h12.57c1.24,0,1.24-2.52,0-2.52h-12.57ZM191.68,225.05c-1.88.28-12.55-.9-12.55,1.25,0,1.45,12.97,3.02,12.55-1.25ZM213.48,225.05h-12.57v2.52h12.57v-2.52ZM235.28,225.05c-16.37-1.09-16.37,3.59,0,2.51v-2.51ZM402.1,263.62c.85-1.67,4.49-8.44,5.63-9.04,3.07-1.61,15.65-1.39,18.92,0,2.27.96,7.38,14.12,7.38,17,0,1.2-.88,1.2-.91,1.27l-5.04-15.09c-6.65,3.33-14.58,1.97-21.71.89-3.56,9.81-10.46,15.39,4.55,16.71,7.12.63,15.65.42,22.2-2.5-.27.59.55,1.16-1.03,1.93-5.5,2.7-18.36,2.42-24.44,1.32-9.42-1.7-7.83-4.13-5.55-12.48-1.53,3.03-4.91,7.55-2.16,10.96,3.75,4.64,21.76,4.18,27.51,3.08,6.35-1.22,9.39-1.72,7.6-8.86-1.42-5.67-12-24.02-12-27.4v-15.51h-11.74v15.51c0,1.21-8.11,18.14-9.22,22.22ZM190.02,229.22h-9.25v10.93h9.25v-10.93ZM211.81,229.24h-9.23c-.56,9.76,0,5.61,6.29,6.71,2.77.49,2.87,4.17,1.3,2.8-.18-.16.37-1.04-1.24-1.2-1.99-.19-4.3.26-6.35.08v2.51s9.23,0,9.23,0v-10.91ZM233.61,229.22h-9.25v10.93h9.25v-10.93ZM304.85,236.8c-9.07-1.28-18.79-5.69-27.98-4.93-5.11.42-10.39,3.08-15.6,3.26-.2,1.2,1.45,1.14,2.33,1.42,7.26,2.32,14.89,3.97,22.39,5.34l18.86-5.08ZM314.92,253.56h69.58c-1.09-4.28-2.41-1.82-5.46-1.68-9.18.42-16.91-1.31-25.29-4.88-3.14-1.34-9.91-6.18-11.78-6.66-2.07-.53-4.25.08-6.34-.37-3.71-.8-7.11-6.34-13.13-3.98.03,6.97-4.92,11.7-7.58,17.57ZM284.73,243.51c-.8-.98-21.79-5.45-24.69-5.94-1.37-.23-1.69-1.44-2.96.48-.33,1.76,1.71,1.85,2.8,2.22,2.6.89,23.97,6.65,24.86,5.73.09-.09.08-2.4,0-2.49ZM286.42,246.01c.64.66,16.03-3.48,18-4.21,3.36-1.25,4.21-3.52-.2-2.72-2.39.43-15.95,3.69-17.24,4.41-.88.49-.77,2.3-.56,2.53ZM246.2,242.66h-77.15v4.19h77.15v-4.19ZM308.21,246.85c-.43-.52.28-2.37-2.09-2.56-5.35-.44-5.72,8.2-5.52,12.22.38,7.43,7.69.38,12.64,1.24-.18-4.23-2.49-7.77-5.03-10.9,2.14,3.55-2.74,10.17-5.26,3.94-1.78-4.41,3.92-6.15,5.26-3.94ZM298.99,260.26v-13c0-.25,1.35-1.17,1.67-1.68-1.36-.79-6.12.41-6.6,1.79-.34.99-.39,10.23-.16,11.57.12.71,4.05.9,5.08,1.32ZM174.08,248.53h-2.51c1,7.95-.14,17.94.83,25.59.2,1.53-.28,1.35,1.68,1.24v-26.83ZM179.11,248.53c-1.86-1.89-4.5,2.88-3.34,5.03h3.35c-.15-1.04.26-4.76,0-5.03ZM190.01,248.53c-2.11.31-7.75-.8-8.86.79s-.53,18.8.93,20.98c2.32,3.46,7.93.85,7.93-2.06v-19.71ZM200.91,248.53h-9.23s0,5.04,0,5.04c4.87-.29,10.39,2.04,9.23-5.04ZM210.13,266.55c.4-5.28,0-11.37,0-16.77,0-1.75-6.15-1.26-7.54-1.26v19.71c0,1.43,3.06,3.71,4.69,3.78,1.47.07,4.53-2.13,4.53-2.95v-20.54h-.84v18.87c0,.51-1.32,2.82-1.67,2.09-.43-1.14.79-2.36.83-2.93ZM222.71,248.52h-9.22c-.16,7.28,3.6,4.71,9.22,5.04v-5.04ZM233.6,248.53h-9.22v19.71c0,4.51,9.22,4.76,9.22,1.68v-21.38ZM238.63,248.52h-3.35c-.36,2.73.07,6.32,3.35,4.61v-4.61ZM242.82,275.36v-25.57c0-.55-1.8-1.61-2.51-1.26v26.83h2.51ZM273.84,256.06c1.24,1.24,13.96,1.48,15.91-1.25-2.42-2.3-6.49-2.36-9.63-2.1-.98.08-8.09,1.55-6.28,3.35ZM179.11,255.23c-.6.11-3.35-.17-3.35,0v18.87c0,.09,1.17,1.26,1.26,1.26h61.62v-20.12c0-.17-3.35-.17-3.35,0v14.67c0,3.6-6.22,4.61-9.21,3.34-.4-.17-3.37-3.1-3.37-3.34v-14.67c-14.89-2.36-6.94,6.95-9.59,15.14-1.57,4.87-10.17,4.6-11.83-.84-2.5-8.23,5.03-16.46-9.6-14.3v14.67c0,4.73-12.57,5.39-12.57-1.68v-13ZM271.32,255.23c-.94-.96-23.43.73-26.83,0v20.12c0,.19,2.61-.47,3.24,1.36.46,1.32.36,7.03-1.15,7.03h-78.8c-1.51,0-1.6-5.71-1.15-7.03.63-1.83,3.24-1.17,3.24-1.36v-17.61l-24.31,35.22h312.69l-24.74-36.89c-1.15-.26-1.58.06-1.23,1.23,1.5,5.01,9.39,15.1,3.58,19.77s-35.79,5.4-38.44-2.5c-2.11-6.28,3.86-13.55,5.5-19.34h-87.18c1.57,2.45,8.26,1.85,9.66,4.18.83,1.38.82,7.8-.42,8.83-9.76,2.75-19.82,7.39-29.56,9.85-2.23.56-4.61,1.52-6.93,1.52-2.52,0-32.08-7.13-33-8.56-.6-.92-.27-7.57.65-8.77,1.95-2.55,12.46-2.91,14.68-4.46.73-.51.7-2.38.49-2.59ZM425.15,255.23c-4.36-.53-10.47,0-15.09,0-.66,0-2.81,1.11-2.1,2.51,6.29.81,12.23,1.54,18.46-.4,1.94-1.13-.83-2.05-1.27-2.11ZM290.49,260.98c.52-.84-.06-2.93.11-4.07-5.42,2.79-11.87,2.9-17.59.84-1.74,7.04,16.69,4.54,17.48,3.23ZM321.62,259.44c-6.84-3.24-13.38,2.43-19.92,3.19-3.04.35-5.76-1.75-8.13-1.51-1.43.15-2.74,1.77-4.43,2.29-4.43,1.35-11.02,1.74-15.31-.19-2.19-.98-2.2-2.48-2.67-2.76-1.64-.97-7.11,1.1-9.05,1.92-.8.34-1.92.08-1.67,1.24l28.08,7.19,33.11-11.36ZM324.14,261.94l-34.28,10.14-.08,4.95,32.97-10.2c1.97-.82,1.38-3.07,1.39-4.89ZM288.08,277.87c-.1-1.64.6-4.41-.81-5.47l-29.36-7.94c.11,1.64-.59,4.41.81,5.47l29.35,7.95ZM168.16,277.03v5.1h78.05v-5.1h-78.05ZM143.83,294.57v12.7s316.15.04,316.15.04v-12.7s-316.15-.04-316.15-.04ZM170.73,308.9h-12.99c-.69,0-1.48,2.03-1.3,2.89l.12,88.88c-.7,5.9,14.17,4.75,14.17,1.72v-93.49ZM173.24,320.64c8.8.64,10.41.37,9.26-8.85-.61-4.89-5.33-2.34-9.26-2.89v11.74ZM196.29,308.9c-2.67-.83-8.97.6-12.16,0v62.47c0,2.27,13.24,4.02,13.21-1l.25-58.58c.08-.96-.38-2.61-1.3-2.89ZM272.16,320.64c0-2.24-.3-11.13-2.2-11.68-.89-.26-3.36.78-4.89.82-14.84.38-29.73-.87-44.42-.92-7.18-.02-14.23,1.37-21.42.87v10.91h72.94ZM298.03,309.85l-24.2-.96c-.82.82,1.48,21.97,2.43,23.15,2.22,2.75,19.09,2.67,21.69.14,1.71-1.67,1.42-21.48.07-22.33ZM317.43,308.9h-17.6c3.66,5.68,13.9,5.41,17.6,0ZM345.93,318.1c-5.9-8.11-15.4-9.64-24.77-8.41-2.43.32-3.84,1.52-4.39,3.99-.61,2.74,1.25,24.59,2.53,26.03,2.28,2.57,19.31,2.48,22.1.28,1.97-1.55,1.48-16.96,2.13-20.53l2.41-1.37ZM373.59,308.9l-36.05.41c6.4,2.03,19.08,17.45,26.07,11.8.35-2.1,11.23-11.12,9.99-12.22ZM381.98,308.91c-5.28-1.18-7.92,3.14-10.9,6.69,3.88-1.11,8.45-3.39,10.9-6.69ZM345.09,326.51c.75.71,18.23,1.07,20.57.87,6.18-.53,25.03-10.09,22.96-17.11-1.17-3.98-9.05,3.49-11.12,4.65-2.91,1.63-6.51,2.3-8.88,3.7-2.62,1.55-3.99,5.74-6.53,6.07-5.8.75-11.24-4.96-17.01-4.04.18,1.14-.26,5.63,0,5.88ZM404.61,308.9c-1.79.09-13.75.33-14.26.83-.2.2.14,3.76-.63,5.66-.83,2.06-3.51,3.19-4.4,5.24h19.28v-11.74ZM420.59,308.82h-13.46v64.7h13.46v-64.7ZM422.22,320.64c8.81.62,10.39.39,9.26-8.85-.67-5.48-5.44-1.52-9.25-2.05v10.9ZM447.37,308.94h-14.25v95.6h14.25v-95.6ZM314.92,315.6c-.51-.51-11.97-.18-14.25-1.66,1.58,1.59.35,7.8.88,8.34.72.74,11.27.87,13.37,1.71-.23-1.4.33-8.06,0-8.39ZM130.49,322.32v15.09h24.31v-15.09h-24.31ZM182.46,322.32h-9.22v15.09h9.22v-15.09ZM273.87,322.32h-74.64v15.09h74.64v-15.09ZM375.45,326.68c-.9,1.54,2.68,33.79,4.35,35.13,2.62,2.11,6.49.13,7.14-2.95l-3.4-35.16c-.36-.77-.52-1.3-1.59-1.02-.37.1-6.3,3.67-6.49,4ZM404.61,322.32h-19.28l1.68,15.09h17.6v-15.09ZM431.44,322.32h-9.22v15.09h9.22v-15.09ZM472.52,322.32h-23.47v15.09h23.47v-15.09ZM303.17,369.27c.26-5.71,6.27-41.37,4.67-43.65-1.03-1.47-5.36-.57-7.18-.79-.17,7.76-.76,15.32-.79,23.1-.02,3.96-1.62,6.14,1.24,10.43l2.07,10.91ZM315.64,326.63c-.39-.63-5.38-1.32-5.75-.96l-.84,11.74h7.54c-1.95-2.39.06-9.16-.95-10.78ZM373.59,328.19c-4.53.46-6.09.62-5.89,5.43s1.78,3.96,5.89,3.79v-9.22ZM355.16,329.02c-1.6.27-9.72-.36-10.07,0-.29.3.01,6.87-.83,8.39h10.9s0-8.38,0-8.38ZM356.84,329.03l2.53,48.19c.89,4.86,10.24,4.06,9.24-1.6l-2.56-44.5c-.53-3.42-6.14-.03-9.22-2.09ZM298.14,334.06c-.49-.52-5.78,1.45-7.21,1.58-4.88.47-9.96.11-14.57-1.59-1.96,2.8,4.65,3.92,6.37,4.1,2.97.32,12.69.05,14.93-1.51.8-.56.62-2.44.48-2.59ZM298.15,338.25c-.4-.36-8.82,1.69-10.52,1.7-2.97.03-6.41-1.23-9.4-1.5-1.23-.11-2.18-.91-1.87,1.04,1.57,3,16.85,2.61,19.76,1.34.91-.4,3.05-1.67,2.02-2.58ZM154.8,339.09h-23.89c-.27,0-1.34,1.09-.91,1.71l.57,82.48c1.78,8.13,8.54,14.18,16.47,16.23l307.46.2c7.89-.28,18.02-10.36,18.02-18.03v-81.34c0-.09-1.17-1.26-1.26-1.26h-20.96c-.09,0-1.26,1.17-1.26,1.26v63.73c0,2.83-15.59,5.31-17.43-1.01l-.17-61.88c-.68-3.68-6.48-1.61-9.22-2.09v32.28c0,6.32-17.6,5.79-17.6,0v-32.28h-14.67c-.22,0-2.89,1-2.99,1.36-1.09,3.89,3.17,15.16,1.56,20.69-1.34,4.61-10.39,5.21-12.02-.2-1.41-4.65-.64-17.77-2.44-21.09-.37-.67-4.44-.31-5.47-.76l2.5,38.07c-.65,7.13-13.41,7.52-14.05-.12l-1.03-37.12-11.73-.82c-.32,6.51-2.09,13.18-1.72,19.73.41,7.3,4.63,20.25,1.91,27-1.21,3-12.35,10.59-15.57,12.1-14.81,6.96-43.45,6-29.91-16.91-13.08,5.56-28.28,14.04-42.94,9.82-11.31-3.26-8.42-14.96-1.43-21.08,3.97-3.48,13.27-7.21,16.3-10.52,1.73-1.89,1.75-4.32,2.67-6.53.42-1.01,1.75-.95,1.9-1.62.64-2.77-.54-9.67-2.08-12h-74.19v33.12c0,3.93-13.77,5.53-16.36,1.27-2.14-3.52.86-27.26-.53-33.01-.82-2.5-6.93-1-9.1-1.37v63.31c0,6.21-18.44,5.59-18.44.84v-64.15ZM316.58,339.94c-.27-.27-6.34-.18-7.53-.85l-3.55,29.58c-3.18,2.93-3.35,5.72-3.99,9.84,2.8-3.02,12.93-8.89,14.05-12.35.48-1.47,2.62-8.03,2.74-8.99.21-1.64-1.11-16.61-1.72-17.22ZM297.31,342.44c-6.58.76-13.91,2.16-20.11-.84-.35.5.62,9.56.94,9.95,1.23,1.5,13.98,1.6,10.78,9.34,2.18,1.39,8.39-2.16,8.39-3.78v-14.67ZM341.74,341.6c-.32-.37-7.52,1.61-9.59,1.71s-4.57.09-6.66-.12c-1.27-.13-6.13-1.86-6.37-1.58-.08.09-.08,2.39,0,2.49.77.95,12.58,1.81,14.65,1.68,1.68-.11,10.46-1.26,7.97-4.17ZM341.74,345.8c-7.92,1.4-14.73,2.18-22.63,0,.74,3.72,8.79,4.28,12.17,4.25,1.07-.01,13.38-1.71,10.46-4.25ZM340.9,349.99c-7.33,1.66-13.64,1.9-20.95,0,.27,2.08-.51,5.13.11,7.01.8,2.43,10.84.37,13.54,5.79,1.01,2.03-1.14,4.6,1,3.95,7.54-2.3,6.01-10.24,6.3-16.75ZM287.18,356.78c-.3-.37-8.2-3.22-8.95-3.3-2.89-.32-5.04,4.37-4.05,5.76,1.08,1.52,12.13,3.31,9.35,8.36-.13.24-3.82,3.46-4.21,3.39-2.43-.41-4.05-4.54-7.16-4.23.65,1.44,7.3,4.79,4.54,6.75-4.35,3.1-10.71-6.56-16.87-4.44-3.55,1.22-10.33,8.5-7.88,12.2,2.69,4.06,16.86,2.84,21.22,2,5.2-1,22.13-7.05,25.44-10.61,2.57-2.76.94-10.65.36-14.3-1.65.71-1.32,2.59-3.55,3.56-7.15,3.1-13.02-3.81-10.26-4.4,2.22-.48.41,1.91,2.08,1.68-.08-.72.24-2.05-.07-2.43ZM331.68,368.44c-.17-.18.21-3.24-.16-4.46-.87-2.91-11.71-5.73-13.11-1.7-2.6,7.48,8.15,4.75,11.61,8.22,3.09,3.09-.21,4.33-1.27,5.47-1.85,2-2.93,2.16-3.52,2.73-.89.86-.27,3.8-3.23,4.03s-10.26-6.92-17.13-3.8c-2.16.98-6.62,6.72-6.71,9.31-.21,5.72,14.02,5.73,18.04,5.38,7.95-.7,19.36-7.15,24.74-12.99,3.6-3.91.76-10.71.79-15.55-1.7,1.26-8.49,4.98-10.05,3.36ZM329.16,374.3c2.18-2.12-11.51-7.11-13.4-5.86-.19,1.21,1.48,1.17,2.34,1.41,2.01.57,3.99.57,6.05,1.5,1.22.55,4.31,3.62,5.01,2.94ZM299.58,377.42c.63-.75,1.73-3.17.67-3.95-11.4,8.31-26.76,13.44-40.99,12.48l-8.89-2.85c1.93,7.1,12.7,6.84,18.84,6.28,5.51-.5,27.12-8.1,30.36-11.96ZM323.3,381c-2.32-3.68-7.81-4.99-11.91-5.34-1.34-.11-2.08-.92-3.17.74,5.78.03,9.99,2.45,15.09,4.6ZM297.32,391.91c1.24,8.3,14.55,8.2,20.99,7.17,8.1-1.29,23.32-9.38,25.1-18.07-12.23,11.47-30.12,20.7-46.09,10.9Z"/>
          <path d="M366.67,258.79c2.53-.4,5.3-.47,7.79.19,7.25,1.93,22.22,17.72,16.8,25.25-.98,1.36-7.86,4.03-9.76,4.5-6.42,1.56-25.85.16-31.71-2.56-10.18-4.71-2.32-18.82,4.58-22.91,1.7-1.01,10.33-4.16,12.29-4.47ZM368.36,260.45c-2.76.41-13.56,5.13-15.64,7.03-4.26,3.89-9.2,12.87-2.34,16.43,4.98,2.59,24.09,3.97,29.97,2.82,6.27-1.23,11.57-2.77,9.12-10.07-2.42-7.22-13.17-17.38-21.11-16.21Z"/>
          <path d="M332.32,273c7.96-.93,7.48,6.05,1.66,8.44-1.92.79-3.87.4-5.66,1.04-3.36,1.2-16.26,6.73-18.69,6.16-1.56-.37-2.9-2.51-1.89-4.08.74-1.14,22.84-11.36,24.58-11.56ZM336.71,275.36c-1.01-1.03-7.75.03-8.35.88-.32.45.58,3.85.9,4.07,1.8,1.24,7.75-2.18,7.45-4.94ZM327.49,281.22c.52-.56-.02-3.4-1.95-3.23-.68.06-12.25,5.48-12.28,6.17-.09,1.63,2.34.82,3.15.66,1.19-.23,10.69-3.18,11.09-3.61Z"/>
          <path d="M290.61,118.55c7.09-20.17,34.75-9.75,46.93-25.99,1.84,1.94-9.67,8.71-11.16,9.37-10.37,4.59-24.09,2.58-32.02,11.57-1.49,1.69-1.79,4.03-3.74,5.05Z"/>
          <path d="M383.65,107.65l-2.93-9.21c-3.83-11.31-17.9-13.51-20.52-25.16,2.35,1.58,2.74,4.47,4.58,6.73,2.42,2.96,6.13,4.61,8.83,7.1,5.87,5.41,10.3,12.24,10.04,20.55Z"/>
          <path d="M326.85,166.98c-2.25-2.26-1.64-10.34,3.4-8.91,6.16,1.75,2.32,14.65-3.4,8.91ZM328.34,166.34c3.03,2.15,5.22-5.17,1.23-6.69-2.42-.92-2.23,5.99-1.23,6.69Z"/>
          <path d="M338.81,115.2c-3.3-.93-2.99-5.36,2.47-5.92,6.75-.69,16.15.98,21.36,5.57,6.36,5.59-5.28.35-7.06.35-3.71,0-14.11.75-16.77,0ZM339.65,113.52c2.37.68,11.73,0,15.09,0,.48,0,3.66,2.22,3.77.01-3.13-1.73-18.16-4.7-20.11-2.52-.47.52.59,2.32,1.26,2.51Z"/>
          <path d="M349.98,120.46c3.83-.13,13.16.29,15.63,3.16,3.44,3.99,1.99,15.22-.51,19.55-5.79,10.03-25.2,8.64-30.22-2.23-6.73-14.59,1.14-19.99,15.1-20.48ZM349.11,122.16c-5.47.4-14.43,1.91-14.88,8.66-.47,6.92,4.66,16.21,12.1,17.11,7.21.87,15.01.14,17.94-7.25,5.8-14.62-1.16-19.54-15.16-18.52Z"/>
          <path d="M391.2,127.78c.77,3.18-3.31.62-4.67,2.45-1.54,2.09,4.39,9.68-2.03,10.95,2.78-5-.08-5.4-.7-8.17-.88-3.87,4.14-6.28,7.4-5.24Z"/>
          <path d="M294.79,235.96c1.18,1.22-.31,1.45-1.07,1.86-7.78,4.26-16.5.58-24.08-2.29,2.71-4.83,23.44-1.33,25.14.43ZM291.44,235.95c-.42-.32-9.2-1.63-10.45-1.71s-8.03-.03-8,1.29c5.75,1.41,11.43,4.63,17.28,2.18.74-.31,2.74-.55,1.17-1.76Z"/>
          <path d="M371.72,281.03c-1,1-3.43,1.06-4.82,1.04v-8.39c4.87-1.6,7.96,4.2,4.82,7.35Z"/>
          <polygon points="378.63 273.68 378.62 282.07 375.28 278.71 373.6 282.06 373.59 273.68 378.63 273.68"/>
          <path d="M356.84,273.68c1.31,5.48-2.43,4.27-3.25,5.14s1.22,3.94-1.78,3.24v-8.39s5.03,0,5.03,0Z"/>
          <path d="M385.33,282.06c-1.53.21-.02-1.83-2.07-1.75-1.85.06-2.39,1.03-3.78,1.76l2.52-9.22c1.14-.89,3.93,7.92,3.33,9.22Z"/>
          <path d="M365.21,273.69c-.55,1.75-4.14-.15-2.5,3.34.06.12,2.27-1.3,2.51.83l-2.51,2.52,2.51,1.68h-4.19c.59-4.89-2.45-9.79,4.19-8.37Z"/>
          <path d="M361.02,127.79l-1.67,3.34,3.35.42c-3.67,4.22-3.71,10.55-10.66,11.97-16.77,3.44-14.9-20.81.98-18.2,3.68.6,4.14,4.42,8.01,2.47ZM353.48,141.19c6.92-1.57,6.45-11.88.04-13.87-7-2.18-11.67,2.11-12.62,8.84,2.88.07,1.1-2.95,4.41-4.4,5.55-2.43,10.49,4.4,8.16,9.43Z"/>
        </g>
      </g>
      <rect class="cls-1" width="603" height="452"/>
    </g>
  </g>
</svg>