<?xml version="1.0" encoding="UTF-8"?>
<svg id="Capa_2" data-name="Capa 2" xmlns="http://www.w3.org/2000/svg" xmlns:xlink="http://www.w3.org/1999/xlink" viewBox="0 0 603 452">
  <defs>
    <style>
      .cls-1 {
        fill: none;
      }

      .cls-2 {
        clip-path: url(#clippath);
      }
    </style>
    <clipPath id="clippath">
      <rect class="cls-1" width="603" height="452"/>
    </clipPath>
  </defs>
  <g id="Capa_1-2" data-name="Capa 1">
    <g class="cls-2">
      <g>
        <g>
          <path d="M331.14,56.25c-.23-.56-2.04-.67-2.64-.75-2.3-.32-4.95-.17-7.14-.45-.56-.07-1.15-.22-.59-.79.79-.8,16.23-2.71,18.35-1.61-.17-.6-1.62-1.04-2.17-1.21-1.66-.52-3.56-.42-5-1.38,4.04-1.63,8.58-.95,12.36,1-1.03-2.51-3.79-4.08-5.99-5.39-.51-.3-1.01.08-.79-.99,4.7-.31,9.09,2.51,12.36,5.58-2.39-.92-4.32-2.88-6.63-3.94-1.29-.59-2.75-.97-4.14-1.24,1.08.79,7.47,5.78,6.38,7.18-2.9-1.31-5.92-2.36-9.17-1.99l3.16,1.42c.28.33,3.49,1.93,2.82,2.57-5.09-1.78-10.38-1.1-15.55-.2l9.97,2.79,1.19,1.4-12.36-1.19c.78,1.2,3.3.71,4.39,1.39.62.38.06.98-.21,1s-.94-.41-1.55-.36c-4.02.35-8.05,1.36-11.81,2.76.13,1.1,1.93,0,2.19,0h6.18c.51.99-2.16,1.09-2.7,1.09-.93,0-1.76-.39-2.68-.33-.98.06-5.59,1.06-5.78.83-.1-.11-.12-.93.24-1.22,2.48-1.96,8.54-3.27,11.72-3.57-.04-.56-1.8-.7-2.24-.74-.53-.05-6.5.2-5.73-.84.97-.04,3.02-.8,3.79-.8h9.77Z"/>
          <path d="M293.64,51.46l7.29-4.08,1.47.29c-4.35,3.21-8.93,7.44-9.56,13.17-.05.44-.32,2.2.39,2.19.79-2.07,2.65-3.82,4.58-4.8.48-.24.98-.48,1,.21,0,.26-2.25,3.27-2.69,4.48-2.11,5.77-.06,11.17,3.1,16.07-.61.6-2.79-3.13-3.01-3.57-2.22-4.56-2.45-9.68-.59-14.38-1.13.44-3.11,5.79-3.59,3-.92-5.38,1.92-10.17,5.59-13.76-1.26.21-2.89,1.5-3.8,2.38s-2,3.04-2.19,3.2c-.34.3-.86.16-.78-.57.45-3.99,5.65-10.39,9.04-12.51.65-.4,1.05-1.29,1.7-.28-3.17,2.43-6.57,5.08-7.97,8.98Z"/>
          <path d="M366.64,91.36c-.9.15-.79-.07-.99-.78-1.9-6.52-3.14-10.37-8.58-14.98-2.64-2.24-4.01-2.69-7.58-2.58l5.39,3.97c.66.62,3.54,3.99,3.77,4.61.68,1.76-3.27-1.02-3.58-.41,2.55,2.61,5.47,7.64,5.9,11.26.3,2.57-2.33-1.3-3.1-1.48.56,2.02,1.88,3.79,2.29,5.88.09.48.48,2.41-.3,2.5.3-3.41-2.77-6.65-3.59-9.38-.63-2.11,3.58,2.26,3.16.43-.28-1.2-2.11-4.8-2.84-5.94s-4.25-4.55-4.32-4.87c-.48-2.19,3.1.91,3.99.41-2.59-3.1-6.01-5.15-9.17-7.59l6.38.21c-3.75-1.94-7.22-4.34-11.26-5.7-10.96-3.7-23.69-2.38-32.02,6.09-.59-.64,1.02-1.85,1.61-2.38,17.16-15.27,51.71-1.77,54.84,20.73Z"/>
          <path d="M369.83,73.4c.39-.35-2.25-5.63-2.4-6.58-.1-.61,0-.69.6-.6l3,4.18-1.2-.59c-.46.61,2.28,5.16-.52,4.73s-6.55-9.01-8.5-11.48c-1.41-1.8-3.5-3.28-4.95-5.02-.37-.45-.97-.65-.8-1.4.52-.52,4.87,3.78,5.39,4.38,2.83,3.28,4.24,7.79,6.81,10.74.39.45,1.86,2.27,2.56,1.63Z"/>
          <path d="M263.32,87.77l-1.83-3.15c-.94-1.25-2.33-2.28-3.95-2.44-1.02-.1-3.28.54-3.39.41-1.21-1.46,2.36-1.71,3.39-1.61,2.77.28,6.2,3.9,5.77,6.79Z"/>
          <path d="M255.75,102.13c-1.14.22-.64-.3-.9-.87-1.37-2.98-1.87-6.45-5.64-7.18-.7-.14-3.73.29-1.83-.93,1.34-.86,4.19.55,5.19,1.6,1.7,1.8,2.14,5.17,3.2,7.37Z"/>
          <path d="M262.53,82.18c-.63.52-4.74-3.8-5.58-4.38,1.64-1.04,5.93,4.09,5.58,4.38Z"/>
          <path d="M292.45,173.55c-.12-.77.31-1.07,1-1.19,1.96-.36,5,.14,7.17,0,6.21-.42,13.65-2.29,19.57-2.4,2.99-.05,1.58,1.04-.53,1.49-4.82,1.03-12.03,1.71-17.04,2.11-1.53.12-9.51.69-10.17,0Z"/>
          <path d="M310,159.2c-1.43,3.81-11.84-.05-9.97-2,.5-.52,3.28,2.16,4.61,2.37,1.88.29,3.51-.51,5.36-.37Z"/>
          <path d="M275.61,124.2c6.36-.21,19.1-.43,21.43,7.06,2.57,8.28-1.75,22.15-10.31,25.61-14.13,5.71-28.88.61-30.18-15.84-.3-3.75-.63-10.65,2.19-13.36,3.23-3.11,12.41-3.33,16.87-3.48ZM274.81,125.79c-4.23.16-13.21.13-15.66,3.89-2.75,4.23-.86,17.56,2.24,21.66,6.16,8.15,23.73,7.89,30.05.27,3.84-4.63,7.09-18.53,2.16-22.92-3.69-3.29-14.03-3.08-18.81-2.9Z"/>
        </g>
        <path d="M368.24,55.45c1.1,2.78,3.79,4.31,5.35,6.81,1.68,2.7,2.39,5.59,1.66,8.77-.29,1.26-1.74,2.52-1.79,3.35-.14,2.76,2.11,8.07,2.37,11.18.56,6.61-.03,20.61-1.9,26.86-.58,1.93-1.77,3.77-2.31,5.67-1.12,3.95-1.56,5.55-3.01,9.36-.79,2.09-1.14,4.35-1.97,6.43,1.51,1.81,3.28,2.87,4.55,4.99,3.77,6.33,3.45,18.76-.56,24.91s-12.43,8.31-19.49,8.23c-6.21,12.31-18.24,20.89-30.78,26.07.41.43.42,1.08,1.07,1.33,2,.76,7.24.56,9.84.93,5.79.81,11.56,2.23,13.3,8.64.49,1.8.23,5.09,1.1,6.08,4.42,2.61,13.03,9.33,18.27,8.27,2.09-.42,7.97-6.95,9.45-8.9,2.76-3.62,2.46-6.29,4.63-10.13,1.25-2.22,4.44-6.66,6.67-7.7.52-.24,1.23.27,1.67-.29.29-.37.9-2.97.89-3.49-.02-.93-3.84-8.17-4.6-9.56-2.03-3.7-4.35-7.33-6.76-10.79-1.92-2.76-6.88-6.62.13-6.91,5.88-.24,9.04,5.68,13.34,8.39,1.01-.78,4.03-21.77,4.98-25.15.54-1.94,1.69-5.39,4-5.61,3.41-.32,3.48,2.88,3.39,5.42-.16,4.76-1.7,9.77-1.59,14.56l5.64-16.1c2.14-5.47,7.85-4.87,7.53,1.55-.28,5.68-3.82,12.45-4.8,18.14,3.1-3.15,6.78-17.48,11.4-17.95,1.73-.18,3.47,1.34,3.73,3.02.76,4.91-6.58,14.89-7.56,20.12,3.58-2.34,6.35-6.45,9.57-8.98,1.96-1.55,5.2-3.5,5.6.4.29,2.84-.94,4.31-2.24,6.55-3.84,6.65-9.64,15.05-14.2,21.31-2.2,3.02-9.62,10.78-9.5,14.07.03.77,1.96,1.37,2.21,3.34.37,2.85-1.74,12.5-3.48,14.92-1.55,2.16-2.33-.24-3.95,1.25-2.07,3.71-4.21,7.45-6.6,10.96-4.62,6.76-15.53,20.83-23.93,21.95-7.25.96-14.87-3.2-21.31-5.95-.35,1.96.35,3.95.41,5.77.27,8.08-.6,16.8-.01,24.75.32,4.36,2.3,8.41,2.19,12.57-3.3,1.6-3.84,3.4-3.8,6.97.09,7.12,1.64,16.97,2.4,24.35,2.24,21.69,5.36,43.44,7.54,65.08.95.67,2.28.82,2.75,2.04-.13,1.84,1.08,12.09.44,12.84-.41.48-3.59.3-4.37.63-.5.28.33,3.26.47,3.35.84.52,4.61-.32,6.82,1.64,1.9,1.68,1.17,4.28,1.89,5,.13.13,2.82,2.01,3.05,2.14,2.25,1.23,5.6,2.12,8.14,3.43,3.29,1.71,11.57,6.69,13.92,9.22,3.37,3.63-5.98,4.05-8.12,4.17-16.12.96-32.31-3.32-48.19-5.3-.5-.11-.95-.31-1.27-.73-.94-1.25-.76-9.34-.62-11.35.04-.64.46-3.99.59-4.2.36-.62,1.74-.72,1.81-.8.11-.14-.87-2.72-.4-3.58-2.01-.25-4.29.94-5.18-1.4-1.25-3.31-2.64-11.29-1.29-14.47l-15.07-70.51c-.17-1.9-6.01-.91-6.33.06l-6.38,69.92c1.65.32,1.96.92,1.91,2.58-.92,2.13-.58,10.68-1.52,12-.45.63-2.99-.01-3.24.23-.17.18-.11,4.65-.03,4.95.13.47,1.29.08,1.57.89.37,1.08.78,6.47.84,7.94s.22,6.88-.49,7.68-18.74,3.64-21.32,4.02c-8.94,1.3-19.26,2.6-28.27,2.08-1.65-.1-8.06-.82-9.12-1.57-1.8-1.26,3.8-5.22,4.82-5.96,5.89-4.31,11.49-5.98,17.38-9.25.56-.31.62-1.26,1.61-1.69.58-.26,1.81-.24,1.87-.31.09-.1.04-1.83.32-2.67.8-2.39,3.31-3.54,5.58-3.99,2.78-.55,3.19,1.11,2.89-2.9-.46-.46-5.62.9-6.09-.89-.15-4.43-1.26-9.41-.3-13.68,1.21-.63,1.84-.46,2.02-1.96.44-3.68-.38-7.99-.44-11.58-.27-16.71.01-33.4-.39-50.09l-1.31,3.87c-2.94,1.93-2.55,3.1-6.68,2.34-4.93-.91-13.7-4.98-14.65-10.49-1.09-6.37,5.47-13.31,4.32-17.42-.18-.63-3.55-.13-4.44-2.41-.83-2.1-1.31-11.26-.15-12.98.44-.66,1.34-.82,1.59-1.22.47-.75-.2-1.99-.23-2.97-.64-21.92,5.69-43.76,15.37-63.27.79-1.6,3.79-5.91,4.1-7.07.48-1.8-.1-4.68.1-6.68.71-6.99,6.61-9.07,12.62-10.12,3.96-.69,8.73-.2,12.1-2.26-12.91-4.89-24.92-13.73-31.11-26.34-15.35.57-23.52-10.99-22.36-25.55.42-5.31,3.68-12.02,9.19-13.36-1.62-3.17-2.89-6.5-3.79-9.97-1.34-5.16-2.26-10.41-3.59-15.56-1.17-4.53.22-5.46.59-9.38.3-3.18-.39-5.03.85-8.32,1.77-4.67,5.22-10.19,9.15-13.19,1.35-1.03,2.45-1.99,3.77-3.02,1.13-.88,3.17-1.03,3.39-2.19.96-4.93-1.29-12.49-.41-17.76-1.73.76-3.6,6.91-5.13,3.86,3.37-6.44,6.46-15.29,11.65-20.48,2.8-2.8,17.89-11.58,21.63-12.08,1.89-.25,4,.17,5.91-.08,9.02-1.14,12.89-2.57,22.27.16,9.15,2.66,19.79,8.12,28.51,12.19,4.71,2.2,9.63,4.35,14.06,7.09,5.28,3.26,9.93,7.52,15.4,10.53.9,3.31-3.38.02-3.8.41ZM312.19,28.72c1.82-.2,3.93.15,5.78,0l-3.99-1.79c-4.95-1.45-10.6-1.79-15.75-1.39-2.41.19-5.14,1.35-7.25,1.44-1.64.07-2.92-.39-4.94-.07-3.16.5-14.32,6.93-17.34,8.99-5.02,3.42-7.85,8.93-10.56,14.18l2.39-1c-.41,2.46-1.14,5.27-1.21,7.76-.05,1.91.42,3.57.43,5.19,0,1.91.4,11.1-.69,11.82-.76.5-2.14.5-3.12,1.16-.76.52-1.06,1.49-1.53,1.86-1.95,1.55-5.6,3.86-7.05,5.92-.81,1.16-4.61,9.2-4.75,10.42-.2,1.66.44,2.84.38,4.33s-1,3.04-1.18,4.44c-.52,4.05.64,4.91,1.37,8.14.82,3.63,1.1,7.32,1.9,10.86.26,1.17,2.1,7.74,2.47,8.3.12.19.51.52.6.39-.88-5.73,2.31-7.67,7.59-7.58.2-6.62.52-12.97,2.38-19.36,1.27-4.34,4.44-11.33,6.58-15.36,3.92-7.39,13.88-10.99,21.89-10.32,5.01.42,11.86,3.27,16.4,3.17,3.43-.07,8.75-2.5,12.48-3.12,17.61-2.91,30.52,5.29,37.66,21.17,3.4,7.55,3.73,15.78,3.57,23.96.43,1.27,5.83.12,6.34,4.43.26,2.21.04,4.55-.81,6.59.87-.08,2.39.33,3-.39.32-.39,1.57-5.24,1.99-6.39,1.38-3.75,1.72-5.43,2.78-9.19.5-1.8,1.64-3.25,2.22-4.97,1.89-5.63,2.48-19.88,1.99-25.97-.28-3.57-2.59-8.64-2.43-11.95.08-1.67,1.72-2.73,1.99-4.42,1.11-7-5.94-9.94-8.24-15.65-.17-.43.31-.97-.07-1.5-1.3-1.78-12.91-8.85-15.46-10.1-4.54-2.23-9.98-3.84-14.38-5.97-1.91-.93-3.84-2.76-5.84-3.73-3.57-1.73-10.13-3.69-14.03-3.52-7.53.34-16.56,4.03-19.35,11.56,2.31-.85,4.15-2.88,6.5-3.68.76-.26.86-.56,1.47.29-4.58,2.5-7.66,6.12-10.76,10.17.5-2.28,2.4-4.17,3.98-5.79-.8-.58-2.43,2.17-2.79.39-.25-1.23,3.34-6.54,4.37-7.59,2.74-2.79,9.13-5.73,12.98-6.17ZM355.07,122.48c.1-6.42.03-12.95-1.81-19.14-2.54-8.52-8.41-15.99-15.55-21.15-5.59-4.04-11.94-4.54-18.69-3.95-5.75.5-12.48,3.99-17.89,3.43-6.91-.72-13.45-4.01-20.82-3.05-2.27.3-9.43,4.01-11.21,5.55-2.03,1.75-7.36,13.24-8.48,16.26-2.57,6.97-3.04,13.89-3.29,21.26,4.62.89,4.47-1.3,6.97-3.6,9.03-8.32,17.62-6.31,28.68-8.02,1.7-.26,6.1-1.95,6.86-1.93,2.63.06-.24,4.94-1.63,5.97-6.43,4.8-21.3,1.79-28.79,4.72l-4.11,2.47c7.01-.15,13.93.02,20.89.85,7.6.91,15.07,3.22,22.81,2.76,7.23-.43,14.3-3.12,21.53-3.6,6.15-.41,12.46.09,18.54.79-8.96-7.18-21.25-3.74-31.71-4.79-4.81-.48-7.04-3.79-6.19-8.57.48-2.68,2.81.61,3.61,1.17,1.8,1.25,3.99,1.66,6.14,1.84,9.49.79,21.18-1.3,28.13,6.58.59.67,2.29,3.59,2.49,3.69.5.28,2.69.16,3.51.48ZM267.71,117.69c8.5-2.99,17.93-1.03,26.59-3.53,1.99-.58,4.64-1.57,4.52-4.05-9.85,3.86-22.84.08-31.11,7.58ZM347.49,118.89c-3.26-3.81-8.61-4.74-13.37-5.18-5.26-.49-13.08.39-17.86-1.29-1.7-.6-2.35-1.75-3.88-2.3.3,2.5.79,4.81,3.56,5.41,4.78,1.04,12.87-.17,18.17.17,4.6.3,9.13,1.46,13.37,3.18ZM354.28,146.82c-4.59,10.05-10.85,12.67-21.76,11.99-9.18-.57-15.69-4.27-18.02-13.5-1.76-6.96-3.06-16.84,5.56-19.35,5.42-1.58,25.26-1.87,30.34.2,2.71,1.1,4.06,3.42,4.57,6.2.87,4.72.47,9.84-.7,14.46,1.73-3.78,1.93-9.93,4.58-13.17,1.22-1.5,2.35-1.16,2.6-3.38.3-2.68.52-4.46-2.17-5.42-4.88-1.74-22.77-2.36-28.36-1.99-5.91.39-12.07,2.47-17.99,3.16-12.52,1.46-23.81-2.59-36.23-3.16-6.45-.29-17.16-.24-23.37.99-1.51.3-3.1.79-3.48,2.5-.18.81-.25,3.95-.02,4.64s2.03,1.25,2.62,2.57c.89,2,.97,7.25,1.82,10.15,4.42,15.17,14.34,17.86,29.16,15.43,12.79-2.09,14.09-13.18,17.45-23.64,1.7-2.84,7.28-2.97,9.06,0,1.34,2.24,1.86,7.63,2.95,10.61,4.23,11.54,13.28,14.19,24.85,13.49,9.18-.56,14.23-3.63,16.54-12.79ZM334.25,126.19c-4.03.09-10.93.06-14.55,1.4-7.45,2.77-5.02,15.3-2.46,20.96,4.98,11.05,25.79,11.87,32.82,2.62,3.72-4.9,6.04-17.94,1.45-22.53-2.96-2.97-13.13-2.55-17.25-2.46ZM361.06,134.45c-.53,1.59-.38,3.57-1.12,5.07-.63,1.28-1.83,1.47-2.26,2.13-.82,1.27-1.89,6.63-2.82,8.75-3.55,8.11-8.48,10.29-17.13,10.8-12.1.71-21.63-2.17-26.15-14.17-1.17-3.09-1.63-8.35-2.87-10.7s-5.22-1.87-6.47.14c-2.94,9.56-4.9,21.04-16.18,23.72-17.9,4.24-30.4-.57-34.13-19.34-.38-1.89-.27-4.07-.58-5.81-.39-2.18-4.45.04-5.56.82-11.61,8.2-5.21,34.17,11.77,34.5,1.31.03,3.18-.83,4.17-.22.49.3,1.92,3.82,2.47,4.72,7.32,11.94,23.05,22.3,36.93,24.51,6.45,1.03,10.5.14,16.54-1.99,13.1-4.6,26.14-14.41,32.61-26.84,10.61-.42,19.63-3.11,21.49-14.81,1.39-8.78.12-20.24-10.71-21.29ZM399.7,144.88c-.37-.23-1.53-.1-1.95.14-2.66,1.58-4.86,26.08-7.17,30.1,3.04,1.53,6.57,3.13,8.76,5.82.8.98,3.92,6.22,2.2,6.97l-2.11-4.66c-2.57-4.56-7.44-5.58-11.38-8.17-4.19-2.75-7.95-9.7-13.82-7.32,2.4,2.97,4.68,6.01,6.7,9.26,1.37,2.2,8.08,14.2,8.03,15.84-.03.96-1.48,4.54-1.15,5l15.92,7.22c1.22-6.1,6.36-10.2,9.9-15.04,4.41-6.01,9.59-13.72,13.4-20.11,1.32-2.21,3.07-4.41,2.62-7.15-1.03-.13-1.83.63-2.58,1.21-2.4,1.84-8.6,9.29-10.87,9.88-.42.11-1.33.24-1.65.03-.82-1.41,0-2.66.45-4.04,1.53-4.64,6.37-11.91,6.99-16.16.21-1.4-.03-3.74-2.02-3.23-3.16.8-8.34,16.15-10.86,19.09-1.65,1-2.68-.28-2.5-2.08.56-5.59,4.64-12.83,5.1-18.47.19-2.37-.51-5.39-3.22-3.22s-5.38,16.3-7.34,20.18c-.75,1.48-1.56,2.4-2.49.49-1.25-2.6,1.36-14.05,1.48-17.85.02-.73.07-3.41-.45-3.73ZM385.19,198.44c-1.25,0-4.98,5.62-5.71,6.92s-2.51,4.33-1.88,5.7c1.19,2.6,23.62,12.58,24.96,11.79,1.49-2.51,4.1-12.24,2.97-14.58-.63-1.31-17.9-8.2-20.35-9.83ZM317.97,199.1c-5.71,1.95-10.05,2.75-16.1,1.94-2.31-.31-4.75-1.28-6.85-1.53-.54-.07-.76-.03-.58.58.16.53,1.64,3.1,2.05,3.54,3.47,3.82,20.79,2.78,21.48-4.53ZM295.64,217.05c.5.34,3.07-2.78,3.57-3.4.69-.86,3.07-3.81,2.78-4.73-1.87-1.29-4.67-2.07-6.33-3.67-1-.97-2.64-5.1-3.4-4.93-.54.12-4.32,4.26-4.17,5.28l7.54,11.46ZM317.19,217.45c.74.51,6.89-10.24,7.01-11.55l-4.42-5.6c-1.06,1.78-2.23,3.21-3.78,4.59-3.16,2.79-6.71,2.8-5.59,8.17,3.15-1.6,5.58,1.92,6.78,4.39ZM288.46,201.49c-9.68.74-21.43,1.28-19.54,14.36,1.49-1.63,4.12-2.74,5.59-4.18,2.87-2.8,4.84-6.3,9.54-7.23.86-.17,2.27.13,2.43.04s2.12-2.89,1.97-2.99ZM343.5,214.26c.98-12.12-11.39-12.57-20.34-12.77,1.28,3.84,3.29,2.16,5.67,2.47s8.04,3.45,9.48,5.31c.77,1,1,2.56,1.61,3.18.65.67,2.71,1.14,3.58,1.81ZM344.31,266.92c.55.11.95-.14,1.12-.67.59-1.82-1.65-7.41-2.13-9.7-2.07-9.86-3.52-21.65-4.58-31.73-.34-3.22-.05-11.93-1.42-14.14-1.45-2.35-6.36-4.33-8.95-5.2.15,16.08,3.82,32.27,9.67,47.18,1.9,4.84,4.52,9.37,6.29,14.26ZM326.75,205.87h-1.18c0,2.36-6.33,13.21-7.82,13.55-1.05.24-3.05-5.29-5.94-5.2s-1.34.91-1.06,2.66c2.71,16.95.62,36.94,2.42,54.24l2.41,31.31c2.83.06,5.67-.44,8.46-.92,5.12-.88,11.49-2.09,16.44-3.51,3.25-.93,6.37-2.09,9.03-4.23-2.67-7.81-3.21-16.82-5.72-24.56-1.19-3.68-3.62-7.26-5.15-10.81-7.04-16.32-11.66-34.69-11.9-52.54ZM284.47,206.28c-2.71.39-7.38,3.72-8.27,6.29-1,2.9-1.49,11.61-1.7,15.06-.32,5.28.05,10.66-.41,15.95-.76,8.71-3.11,17.29-3.93,25.99-.21,2.25-.55,4.32-.05,6.53.94.16,1.2-.79,1.54-1.44,4.09-7.73,8.95-25.55,10.7-34.38,2.22-11.23,2.97-22.56,2.11-34ZM308.8,213.46c.12-1.34-.18-2.87.02-4.17.19-1.19,1.1-1.54,1.17-2.62-2.05.58-4.25.85-6.38.8,1.29,1.65,2.68,3.79,4.06,5.31.35.39.36.86,1.12.67ZM303.62,302.04c1.12-12.93,1.5-25.92,1.21-38.92-.02-.94-.41-1.82-.43-2.76-.39-15.45-.85-30.87-2.43-46.24l-.54-.65c-1.2.61-4.68,5.74-5.54,5.56-.75-.15-6.8-9.9-8.01-11.17l-1.81-.78c1.78,20.24-2.77,40.37-9.57,59.26-3.26,9.05-7.04,16.13-8.27,26.04-.11.89-.16,1.76-.13,2.66,11.59,3.21,23.31,7.4,35.53,7.01ZM309.6,221.84c-.38-1.51-.14-3.75-.7-5.09-.6-1.44-4.45-5.15-5.68-6.48l1.2,12.37,5.18-.8ZM398.95,223.44c-7.84-2.53-15.43-5.99-22.14-10.76-2.25,2.76-8.81,11.53-12.04,12.26-7.87,1.78-17.91-8.91-25.25-10.68.18.47.39.85.41,1.38.32,10.12,1.82,20.12,3.4,30.12,5.73,5.12,18.16,11.37,25.88,10.36,8.92-1.17,21.28-18.55,25.93-25.93.49-.78,4.05-6.43,3.82-6.74ZM249.76,290.87c5.55-.12,11.16.23,16.57,1.51l.51-.58c1.16-5.37,1.61-10.02,1.68-15.51.18-13.31,3.68-26.15,4.39-39.47.18-3.31-.21-6.69-.03-10.01.23-4.31,1.1-8.63,1.21-12.95-5.87,3.73-8.87,9.92-11.63,16.09-5.87,13.08-12.52,32.88-13.11,47.13-.19,4.61.18,9.2.42,13.79ZM310.4,241.79l-.46-17.3c-.52-1.55-4.21.07-5.53-.26l.86,17.3c.34,1.13,3.95-.19,5.13.26ZM310.34,243.84c-.62-.38-3.72.16-4.73-.06l.4,16.36h5.19c-.38-2.1-.13-15.86-.86-16.31ZM346.61,250.25c-.09-.15-2.93-1.82-3.11-1.67.99,4.82,1.62,9.74,3.39,14.36-.1-1.78.13-11.98-.28-12.69ZM311.19,261.74c-1.15.89-4.9-.29-5.15.65l.37,18.1,5.58-.4-.8-18.36ZM347.1,267.72c-.8-.11-1.52.68-1.6,1.4l1.6,6.18v-7.58ZM312.39,281.69c-2.01-.04-4.03,1.01-5.98,0l-.78,16.34c1.86-.03,4.31,1.37,6.11.76.83-.28,1.12-2.94,1.73-3.79l-1.08-13.32ZM248.26,304.74c1.83,1.79,19.66,1.68,21.09-.07.57-.7.52-5.63.18-6.65-.61-1.83-3.82-.99-3.18-3.97-3.17-.92-7.06-1.42-10.41-1.58-1.44-.07-6.51-.27-7.51.06-1.79.6-1.15,11.26-.17,12.21ZM286.46,301.64l-15.56-3.99c1.18,5.45.11,11.2.18,16.77.45.71,2.97-.42,3.68-.74,4.72-2.07,9.87-7.23,11.69-12.04ZM345.9,298.05l-12.22,3.15c-.39.14-.74-.16-.52.61.93,3.34,9.47,8.32,13.14,7.41-.25-3.78-1.29-7.4-.4-11.17ZM329.48,302.09c-2.58.18-13.9,3.35-15.31,1.16-.55-.85.24-3.09-.78-4.01-.44,3.08-7.51-.26-8.18.4-.18.83.28,3-.06,3.54-.92,1.47-13.37-.45-15.64-.7-3.58,7.54-10.03,13.83-18.43,15.5l.62,73.85,26.33,1.2,6.49-69.52c-.56-3.33,8.15-3.17,8.87-2.31l15.79,72.59c2.92.33,25.35-.87,26.12-1.93l-8.66-79.17c-.24-.77-4.51-.93-5.85-1.33-4.29-1.29-9.22-5.31-11.31-9.25ZM334.47,305.49c-1.15-1.12-2.45-4.26-4.13-3.65,3.34,5.47,9.46,9.27,15.95,9.38.19-1.2-.29-.64-.97-.81-4.4-1.09-7.4-1.55-10.86-4.92ZM271.31,316.8c7.22-1.47,14.69-7.6,16.75-14.76-1.47,1.55-2.23,3.67-3.59,5.38-3.6,4.5-6.99,6.14-12.15,8.2-.62.25-1.16.32-1,1.19ZM269.31,306.83c-2.64-.5-2.73,2.63-2.81,4.57-.13,3.32.72,6.23,1.99,9.22l.82,4.17v-17.96ZM264.52,328.77v-9.58c.77-.12,1.07.31,1.19,1,.65,3.58-.74,8.46.41,12.17,2.45-1.88,1.67-7.27,1.09-10.07s-2.02-5.12-2.29-8.09c-.21-2.33.08-4.68.39-6.97-3.98.53-8.21.67-12.18.1-.56.1-.86,3.89-1.2,5.07-1.01,3.51-3.82,6.69-3.8,10.59.02,6.88,10.73,10.57,16.39,10.97-1.26-3.88-4.49-7.68-3.81-11.99.12-.73,1.09-4.28,2.22-3.17.43.42-.89,3.74-.78,4.94.13,1.33,1.24,4.2,2.38,5.03ZM298.83,406.58l1.1-10.93-.99-.96c-8.55-.36-18.12-2.15-26.64-1.27-.78.08-2.7.32-2.95,1.04.4,2.96-.15,7.61.35,10.32.08.45.14.81.65.94l28.47.86ZM330.4,408.12l27.89-3.31c1.07-.73-.34-9.27-.2-11.02l-29.75,1.62c-.7.71,1.88,10.98,2.05,12.71ZM353.85,407.01c-.76-.53-15.99,2.51-18.3,2.39.13,1.35-.58,3.55.64,4.3.72.45,12.08,1.73,12.5,1.26.08-.09-.08-1.2.08-1.7.73-2.22,5.21-2.39,5.73-3.06.11-.14-.53-3.09-.66-3.19ZM295.24,408.17c-2.58.45-18.1-1.27-18.98-.03-1.79,2.57,3.11,2.55,4.63,3.8,1.61,1.32,1.05,2.87,1.18,3.01.43.47,12.26-.8,12.71-1.25.31-.31.65-5.34.46-5.53ZM280.57,416.06c-.96-.94,1.08-2.45-2.49-3.69-2.98-1.04-8.24-1.12-10.14,1.81s2.35,2.63,4.18,4.55c.61.64,1.7,2.31.75,2.98-1.05.74-5.92-3.97-7.95-2.56,1.28.37,6.38,3.27,5.18,4.98-.89,1.27-7.15-3.91-9.16-3.18l4.41,2.96c1.42,4.45-3.18.53-5.12-.06-4.42-1.34-6.64.83-10.27,3.07-2.26,1.4-4.63,2.97-6.57,4.79,18.05,2.3,36.22-2.6,54.02-5.14.85-.59-.46-9.65-.59-11.19-2.92-.43-14.5,2.39-16.24.68ZM362.14,413.08c-1.7-1.71-6.88-1.31-9.07-.72-4.61,1.25-1.91,2.22-2.84,3.74s-13.96-.9-16.3-.75c-.23,3.72-.74,7.46-.22,11.2,17.62,2.69,35.8,7.46,53.68,5.16-1.63-1.63-3.68-2.92-5.62-4.15-3.47-2.21-6.7-4.89-10.91-3.8-2.23.58-7.71,4.87-5.84.15l4.01-2.56c-2.3-1.09-6.84,3.67-8.39,2.6-.63-.43-.47-1.13,0-1.63l4.8-3.37c-1.95-.89-7.25,3.44-8.39,2.61-2.12-3.69,5.1-4.25,5.82-5.4.45-.72-.19-2.55-.73-3.09ZM297.63,427.73c-17,2.47-33.55,6.22-50.88,5.6-1.05-.04-2.03-.38-3.16-.43-.44-.02-1.88-.27-1.81.41,10.93,1.57,21.96.65,32.84-.86,6.09-.85,15.85-2.02,21.5-3.63.59-.17,1.33-.42,1.5-1.09ZM388.58,432.52c-18.2,2.79-36.68-2.13-54.64-4.79v1.2c16,1.88,31.81,6.1,48.08,5.21,1.52-.08,4.23-.38,5.64-.76.69-.19,1.11.29.92-.85Z"/>
      </g>
    </g>
  </g>
</svg>