<?xml version="1.0" encoding="UTF-8"?>
<svg id="Capa_2" data-name="Capa 2" xmlns="http://www.w3.org/2000/svg" xmlns:xlink="http://www.w3.org/1999/xlink" viewBox="0 0 603 452">
  <defs>
    <style>
      .cls-1 {
        fill: none;
      }

      .cls-2 {
        clip-path: url(#clippath);
      }
    </style>
    <clipPath id="clippath">
      <rect class="cls-1" width="603" height="452"/>
    </clipPath>
  </defs>
  <g id="Capa_1-2" data-name="Capa 1">
    <g class="cls-2">
      <g>
        <path d="M143.37,11.08h324.49v429.84H143.36s0-429.84,0-429.84ZM466.39,11.81H144.83v179.83h22.29c.32,0,5.92.98,6.21,1.1,4.08,1.78,2.2,6,2.16,8.74-.07,5.9-.59,11.76-.73,17.54s.17,11.98.03,17.94h19.37c.72,0,5.27,4.34,4.05,6.18l-2.22,71.31h13.15c.04-4.23,1.86-8.72,2.18-12.8.26-3.38-1.05-8.97-.75-10.94.13-.84,1.78.31,2.47-1.26s1.28-7.06,1.23-8.97l-16.09-110.78h-40.56c-.08,0-1.1-1.02-1.1-1.1V40.68c0-.08,1.02-1.1,1.1-1.1h91.35c.08,0,1.1,1.02,1.1,1.1v99.42c0,1.88,3.83.4,4.76.37,1.39-.05,6.95-.28,7.56.1,1.94,1.21-1.51,7.59,4.49,5.75V47.63h88.8c3.12,0-.86,21.75,1.05,23.07.98.68,4.34.19,6.06.52,10.08,1.91,18,8.9,27.58,11.89.76.24,1.41.47,2.22.34v-43.86h73.81V11.81ZM248.61,124.39V42.15c0-.08-1.02-1.1-1.1-1.1h-88.43c-.08,0-1.1,1.02-1.1,1.1v126.1h39.46c.49-8.01-5.71-14.81,4.78-18.24,3.28-.68,24.3-.6,25.18-1.49.24-.24-.56-2.58.72-4.04s6.71-3.02,8.78-2.55c-1.27-12.28-4.48-24.47-4.96-36.76,2.6-4.18,8.27-5.28,12.34-2.41l4.31,21.64ZM466.39,41.05h-72.35v42.76c8.04,3.71,19.45,5.27,25.94,12.07,3.75,3.93.27,3.76.37,4.01,2.58,2.47,4.88,6.32,5.51,9.84.52,2.89.05,5.52.5,8.27.58,3.47,2.91,6.88,3.39,11.23.3,2.75-.02,5.56.08,8.32l-2.18-.73c.45,11.11-3.76,21.78-8.78,31.43h47.5V41.05ZM355.31,49.09h-86.97v97.23l20.76-1.34.8.57,4.75,30.01h10.23c-1.19-2.07-.97-4.59-1.65-6.76-.36-1.14-1.7-1.6-2-3.12-.18-.94-.19-7.31.06-7.6.42-.49,8.77-1.92,10.16-1.54-1.41-3.38-3.69-7.91-4.21-11.5-.3-2.07.14-9.89-.18-10.42-.07-.11-1.62,1.15-2.08-.46-1.33-4.63,1.2-13.09,3.96-17.04,1.17-1.67,6.69-5.92,6.82-6.37.24-.83-.97-9.54-.66-12.32.41-3.66,5.87-16.7,9.15-17.9,1.88-.69.64,2.53,1.45,2.18,5.38-6.31,13.21-10.23,21.4-11.49,1.99-.3,7.07.28,7.88-.89,1.24-7.12-.74-14.28.32-21.25ZM369.19,74.68c-18.29-5.47-40.47-.43-47.51,18.99l-1.44-5.11c-3.32,7.73-4.29,15.46-2.14,23.65-7.9,3.72-10.71,10.84-11.74,19.12,1.73,1.15,2.85-2.27,4.37-2.57-3.01,8.71-2.65,18.92,2.92,26.32-2.09-9.86,2.39-30.86,11.76-36.13,6.83-3.84,14.4,2.96,20.83,3.16,5.49.17,13.51-4.03,20.52-4.04,10.96-.02,26.41,10.62,29.27,21.5,1.66,6.31-.3,16.44,4.26,21.32,2.41,2.57,13.55,4.22,17.13,6.61,5.33-11.68,10.26-23.36,7.32-36.55l2.91,2.19c1.9-5.57-3.61-11.94-4.26-15.9-.31-1.89.84-4.05.65-6.39-.21-2.62-3.04-7.15-4.78-9.15s-7.73-4.97-2.57-5.47c-6.34-6.45-15.61-7.07-23.57-10.05-12.58-4.7-24.79-13.27-38.82-6.32-2.32,1.15-7.89,4.85-7.4,7.22,1.31-.9,2.81-1.68,4.25-2.33.54-.25,2.38-1.49,1.61.15-3.01.35-5.08,4.81-6.23,5.53-.62.39-2.82-.3-2.91-.42-1.83-2.37,10.73-13.04,14.05-12.63l11.53-2.71ZM248.61,141.2l-5.14-35.44c-.42-3.46-7.59-3.99-7.25-.13l5.07,35.57h7.32ZM235.45,104.65l-2.1,1.22c1.7,10.66,2.48,21.89,4.52,32.54.18.94.13,4.09,1.59,3.51l-4.01-37.27ZM398.43,160.93c-5.16-7.98-1.14-16.83-5.7-25.36-3.18-5.97-15.76-14.87-22.45-15.56-9.6-.98-16.09,3.7-23.38,3.7-5.35,0-12.75-4.88-17.47-4.43-9.76.94-15.48,23.96-14.31,32.15,2.2-1.38,3.39-3.6,5.83-4.76,4.97-2.38,20.44-4.2,18.28,4.76-8.07-.2-18.5-3.18-24.12,4.38,4.21.17,9.33.18,13.45.81,4.97.77,11.21,3.55,16.15,3.58,4.6.02,10.73-2.24,15.43-2.83,7.54-.94,15.67-1.01,23.21,0,5.13.69,10.03,2.51,15.07,3.56ZM262.49,149.24c-.94-1.8-.11-6.73-1.91-7.25l-26.59,1.41c.17,1.07.49,7.04.74,7.3,1,1.05,24.27-1.81,27.76-1.46ZM233.25,148.51l-.74-4.38c-2.49,1.31-4.38.95-3.65,4.38h4.39ZM337.76,149.97c.3-.29.11-1.97-.73-2.55-3.84-2.67-16.89-.69-19.73,4.01,2.51-.53,4.21-1.89,6.94-2.19s13.04,1.2,13.52.73ZM288.73,147.13c-3.4.17-23.54.29-24.64,1.57-.39.46.27,1.8-.56,2.05l-29.12,2.08-1.59-2.9-29.52,1.5,20.47,142.56,84.76-12.44c.37-.36-.67-9.09-1.05-10.27-1.05-3.28-5.83-4.36-6.13-9.08-.12-1.9,1.21-2.22-.22-5.04-.61-1.19-7.47-6.17-8.7-6.66-3.55-1.4-6.7,1-7.3-5.5-4.93.93-6.16,6.99-10.34,8.29-4.36,1.35-7.4-.4-11.57-.97-1.24,1.33,2.48,7.94-.73,7.3-1.93-14.56-4.05-29.08-3.67-43.85-1.41.15-1.42,2.94-1.49,3.99-.4,6.05.23,17.2.77,23.42.84,9.67,3.51,19.02,6.57,28.15-2.07.38-1.2-.49-1.64-1.6-1.81-4.52-3.2-9.65-4.27-14.41-12.19,1.49-25.02-8.62-27.63-20.26-.41-1.86,4.99-1,5.96-.83,9.88,1.73,15.62,8.94,21,16.64-1.78-10.14-1.49-20.43-1.46-30.7-1.58,1.05-2.88,4.36-4.89,4.96-5.61,1.67-10.52-1.59-10.51-7.52,0-3.58,2.23-5.92,2.97-9.14-18.46,9.84-22.71-14.94-2.92-13.9l-5.85-5.47c-5.88-7.55,1.58-17.02,9.88-11.34l4.74,5.12c1.05-19.48,21.49-14.49,13.89,3.65,4.29-2.07,11.67-4.33,14.52,1.2,3.87,7.5-3.04,13.19-10.13,13.44l5.84,5.48c7.01,9.97-3.3,17.49-12.39,10.2-1.18-.95-1.06-2.35-2.21-2.53l2.19,33.62,2.29-6.1c3.23-7.37,9.2-14.38,17.43-15.82.62,5.81-.82,10.79-2.91,16.08.21.25,5.3-3.34,5.46-3.62.25-.45-.38-1.94.19-3.45,1.21-3.23,5.67-7.6,9.33-7.61,2.15,0,6.32,2.45,7.33.8l-12.16-81.07ZM220.82,296.9c.21-.18,1.52-4.54,1.44-5.35l-20.79-139.39c-.77,1.13-3.53,1.98-3.74,3.24-.18,1.07,1.03,8.24,1.28,10.17,5.64,43.43,13.31,86.66,19.03,130.09.07,1.16,2.24,1.67,2.77,1.23ZM392.5,161.01c-1.68-1.98-25.74-2.59-29.55-2.29-6.66.52-12.8,3.35-19.74,2.97-5.7-.31-11.58-3.18-17.52-3.67-3-.25-21.65.13-22.97,1.49-1.86,1.93,1.73,7.32,2.2,9.05,1.9,7,1.88,16.18,10.31,18.93,8.03,2.62,17.82,1.7,21.71-6.55,2.41-5.1,1.4-13.62,7.75-13.46,5.07.13,4.98,7.96,6.83,12.22s3.93,7.41,8.39,9.15c5.33,2.09,17.05,2.3,21.95-.99,6.19-4.17,4.82-11.57,7-17.12.8-2.04,3.15-3.06,3.56-4.47.25-.87.39-4.88.07-5.26ZM410.11,166.06l-16.07-4.39c.21,1.13-.34,5.42.03,5.81.35.36,8.44,1.28,9.84,1.56l6.2-2.98ZM399.16,177.75c-.44-.43.65-5.97-.33-7.36s-6.9-2.43-8.26.6c-2.63,5.83-1.08,14.35-8.26,18.79-6.54,4.04-22.9,2.89-28.47-2.9-4.75-4.94-4.38-12.54-6.98-16.4-4.64-6.88-6.45,6.46-7.28,8.72-4.33,11.86-10.82,10.76-21.5,10.53-.67-.01-1.44.27-1.49.8-.11,1.38,2.61,8.7,3.5,10.38,4.93,9.37,19.25,19.46,29.81,20.62,13.09,1.43,33.24-8.08,41.97-17.81,1.23-1.37,5.66-8.16,6.31-8.35,1.23-.36,3.91,1.31,5.75,1.42,11.82.72,19.74-13.39,15.62-23.72-2.73-6.84-10.46-5.97-14.92-1.18-1.24,1.34-3.75,7.51-5.46,5.87ZM466.39,169.71h-46.04c7.8,14.94-4.94,33.44-21.81,27.87-4.85,10.17-14.63,15.76-24.23,20.74,2.61.35,5.05-1.66,7.66-1.69,1.66-.02,5.3.97,6.76,1.88,3.38,2.12,3.36,6.8,3.98,7.35.52.46,10.29,2.29,13.26,3.91,7.8,4.27,13.87,17.94,14.37,26.57.31,5.28-2.12,4.42-2.24,5.21-.05.28.78,5.21.93,5.6.46,1.24,3.07,2.02,4.15,3.89,2.24,3.89,2.35,21.94,1.52,26.91s-3.51,3.79-4.69,5.55c-.9,1.33-.78,4.78-2.56,6.21l-8.79,4.74h24.85c-.05-17.24-.48-34.32-.69-51.57-.02-1.33-.76-2.74-.71-3.68.05-1.04,2.95-3.97,3.23-3.97h31.06v-85.53ZM261.04,190.91c2-4.47,6.97-16.48.03-18.67-8.84-2.8-11.19,9.48-8.81,15.74-1.94.41-1.26-.48-1.82-1.43-.91-1.57-1.44-3.3-2.57-4.77-8.36-10.89-19.96-.11-8.38,9.85l6.19,4.4c-4.3.25-8.29-.88-12.2,1.32-6.3,3.56-4.6,12.32,2.35,12.62,4.38.19,8.81-3.83,12.78-5.16-4.08,4.14-10.42,17.07-1.47,19.4,9.55,2.48,11.36-15.92,9.41-17.11-.66-.4-2.58.07-3.74-.27-8.17-2.4-8.08-14.92.18-17.05,9.08-2.34,13.9,10.01,7.58,15.65-.85.76-3.07,1.47-3.17,1.61-.22.31,2.24,5.23,2.92,6.16,9.13,12.6,22.36.56,10.16-8.7l-6.51-4.08c6.55.42,18.56-3.96,13.46-12.38-3.81-6.27-12.85-1.13-16.38,2.87ZM304.78,177.12c-1.09-.7-7.5.3-9.4-.1,2.21,16.81,4.13,33.96,7.67,50.44,2.42-1.96,18.41-10.43,20.1-8.76.41.41-.12,2.56-.68,3.33-2.33,3.21-16.68,9.38-16.83,12.34-.06,1.21,3.02,9.42,3.96,10.66,2.53,3.36,3.76.56,6.95,1.82l6.96,6.18c4.19-5.78,8.89-11.05,13.51-16.46,4.27-5.01,3.28-6.34,9.98-9.76,1.85-.95,4.57-.63,5.39-3.01-13.46-1.36-28.99-10.86-34.73-23.38-1.45-3.17-2.16-9.76-2.9-10.99-.46-.78-4.4-2.28-5.78-3.72-1.99-2.06-3.79-8.34-4.19-8.6ZM262.56,198.45c0-4.12-3.34-7.47-7.46-7.47s-7.46,3.34-7.46,7.47,3.34,7.47,7.46,7.47,7.46-3.34,7.46-7.47ZM169.68,236.96c.97-12.27,1.03-24.6,1.47-36.91.04-1.12,1.82-6.95-.37-6.95h-25.94v43.86h24.85ZM171.14,236.96c1.9.21,2.05-1.05,2.23-2.52.55-4.62-.26-10.56-.07-15.42.23-6.06.65-12.08.76-18.24.04-2.41,2-4.22-1.1-6.22l-1.82,42.39ZM372.84,218.69c-3.35,2.97-13.58,3.19-16.1,4.74-.95.58-.05,4.93.36,5.52,2.17,3.11,18.81-4.36,15.74-10.26ZM390.38,225.26c-.09-6.91-9.36-8.67-13.88-4.74,3.31.35,8.53-1.97,10.89,1.54,1.2,1.78-.21,3.92,2.99,3.2ZM320.23,220.89c-8.99,4.03-18.32,8.06-26.31,13.87,1.37-.26,2.85.67,4.05.64,1.81-.05,17.86-10.54,20.3-12.45.72-.56,1.76-1.09,1.95-2.06ZM362.61,230.39c-.29.31,3.31,6.94,3.76,7.57.47.66.58,1.28,1.61,1.12,1.7-.26,11.4-9.89,11.12-11.66-.2-1.27-2.76-4.94-4.05-5.81-1.11,4.69-8.14,7.78-12.43,8.78ZM385.8,222.54c-1.5-1.15-7.12-1.49-7.09.17.02,1.38,6.39,2.21,7.66,1.83.74-.04-.48-1.93-.56-2ZM350.2,236.23c.82-.85,5.62-5.06,5.68-5.45.11-.73-2.3-5.12-1.31-6.97-3.16,2.86-4.47,8.35-4.37,12.43ZM402.08,232.58c-.62-.49-3.96-2.75-4.6-3.08-2.27-1.15-6.58-2.25-9.13-2.57-.8-.1-2.51-.82-2.35.53,10.18,2.61,14.19,16.74,19.12,25.1l5.71,15.84c-.26-7.56-.82-15.93-2.68-23.26-1.34-5.27-3.17-8.14-6.08-12.56,7.33,5.8,8.7,18.5,9.49,27.42.33,3.71-1.3,9.54,1.46,12.05-.39-11.38.03-28.31-7.32-37.63-1.11-1.41-4.39-5.18-5.83-4.41.88.75,1.56,1.6,2.19,2.56ZM280.76,227.46c-10.47,2.54-16.38,13.39-18.26,23.38,5.15.84,6.46-5.98,9.51-6.89,1.67-.5,4.47-.19,5-.51.8-.49,4.34-15.41,3.75-15.98ZM348.73,228.19c-13.88,4.97-11.82,26.69-12.41,38.74l6.38-24.68,6.04-14.06ZM385.27,272.77c-4.42-13.06-6.62-31.46,5.1-41.29-5.18-3.46-7.31-4.72-10.8.88-5.34,8.57-5.64,22.07-3.46,31.68.38,1.67,2.73,8.59,3.69,9.5,1.59,1.5,3.57-.78,5.47-.76ZM297.57,229.66c-5.71-1.85-9.82,2.18-11.69,7.3.5.48,10.46-6.25,11.69-7.3ZM361.88,231.85c-2.5-.45-1.73,4.51-2.2,5.84l-2.91-3.65-4.4,38.01h4.39c1.2-13.42,1.73-27.17,5.11-40.2ZM409.13,234.3c-.5-.52-3.25-2.94-4.12-2.09,5.57,5.33,6.87,13.29,7.93,20.58.45,3.1,2.13,18.4,1.23,20.08-.27.49-2.57,0-2.57,1.01,0,2.69,3.97,1.75,5.83,1.83-1.12-11.29-.09-32.9-8.3-41.41ZM348.73,238.42l-.73-5.11c-5.36,13.01-8.31,27-10.24,40.93l13.2-2.64,4.33-38.3c-2.3,1.56-3.13,5.51-6.57,5.11ZM370.09,279.19c.5.52,4.35,1.14,5.21.83.71-.25,2.59-3.98,2.66-4.74.14-1.49-3.48-9.84-4.06-12.7-1.95-9.72-1.18-19.4,2.59-28.55-5.99,4.77-9.26,12.05-13.16.74-1.16-.09-1.2,1.84-1.36,2.64-2.22,11.16-2.02,23.37-3.75,34.62,3.06.68,9.06,1.32,10.9,4.11.6.9.52,2.58.97,3.04ZM396.97,291.06c6.17-.99,14.01-4.81,13.9-12.02-.15-9.52-9.76-33.68-15.8-41.28-3.53-4.44-4.84-5.32-7.93-.02-1.77,3.05-3.12,8.52-3.32,12.02-.48,8.22,4.68,14.28,5.84,22.29,2.97-1.85,5.79-3.46,9.49-2.92-.6,1.89-5.78.03-5.11,2.91.53.38,5.43-.68,5.84,1.46-3.4.06-6.15-1.52-9.5.02,4.39,4.66,6.86,11.07,6.58,17.53ZM258.11,253.77c-5.31-10.52-13.23-18.17-25.58-19,3.52,11.67,12.76,20.34,25.58,19ZM304.14,234.77l-3.65,1.47,2.19,2.9c-1.02.83-10.33-5.45-10.96-2.54-.67,3.05,4.54,3.9,5.46,5.49.8,1.38.13,3.49,1.5,5.08,1.06,1.23,3.02.85,3.27,2.2-2.23.16-4.37-1.16-5.3-3.11-.79-1.67.13-3.67-2.39-4.17-1.63-.32-.92.67-1.19,1.7-1.81,6.86,4.04,6.72,7.47,9.56,1.27,1.05,4.77,7.28,6.11,6.97,1.19-1.17,2.69-2.32,3.66-3.68,5.57-7.83.41-5.95-2.66-11.13-1.74-2.94-2.77-7.39-3.51-10.75ZM290.26,237.7c-.26-.3-5.84,2-5.83,2.55,0,.15,1.35,2.47,1.46,2.56.4.31,6.3-2.91,4.37-5.11ZM193.79,238.43h-48.97v104.54l45.32.73,3.65-105.27ZM194.53,239.86l-3.66,103.1,2.91.1,3.66-103.1-2.91-.1ZM323.16,255.24c-.95,6.83-4.52,11.99-10.23,15.71,5.9,4.55,10.65,7.88,17.77,3.17,6.69-4.43,3.31-8.16,3.42-14.86.06-3.94.96-10.42,1.65-14.43.3-1.71,1.16-3.22,1.26-4.95-1.86,1.28-11.57,13.32-11.56,14.26,0,.58,2.98,2.81,3.53,3.65l-2.91-1.1,1.45,5.85-4.37-7.3ZM278.57,245.73c.6.55,6.17-1.55,5.84-3.27-.61-3.15-7.04,2.17-5.84,3.27ZM276.2,245.2c-4.5-1.86-6.87,3.52-7.13,7.1,3.89-.55,7.8-.64,9.46-4.76-.95-.17-2.18-2.28-2.34-2.34ZM303.43,261.09c-1.05,2.41,4.5,7.81,6.24,8.06,6.01.87,13.04-10.92,11.16-16.35-.36-1.04-6.36-4.84-7.18-4.13.19.91,1.24,1.06,1.15,2.23-.29,3.68-5.84,12.61-10.21,11.7-.81-.17.05-1.83-1.16-1.51ZM466.39,256.7h-29.96c-.26,1.01,1.01.77,1.81,1.47.64.55,2.73,2.92,2.94,2.92h25.21v-4.39ZM435.25,257.42l-2.01.05,1.73,64.32,2.01-.05-1.73-64.32ZM441.54,322.49l-1.47-60.29c.09-1.2-3.65-4.82-4.36-4.03l2.14,63.14,3.69,1.18ZM466.39,261.82h-24.85l1.47,60.67c4.67-.08,18.87,2.91,20.31,7.83.53,1.81-.21,8.59.16,8.98.48-.03,2.92-.58,2.92-.73v-76.76ZM421.8,300.56c1.65-1.66,1.69-16.33,1.47-19.36-.24-3.35-.37-10.18-4.37-10.6,1.31,9.56,3.32,19.19,1.43,28.86-.5,1.24,1.09,1.49,1.48,1.11ZM309.63,314.45h23.02c1.1-4.73-1.06-3.84-2.24-5.41-2.06-2.74.29-7.42.05-7.73s-5.13-1.9-6.97-3.65c-7.55-7.16-.59-14.79,5.51-19.76-7.92,2.32-13.32-2.36-19.36-6.59-.86-.02.52,8.39,1.01,9.09.93,1.34,4.63-.84,5.76.58.77.97,1.29,7.03.94,8.19l-13.93,2.62c1.13,2.93,4.8,22.2,6.22,22.66ZM367.73,279.36c-.4-6.56-14.32-5.52-19.36-5.1-8.1.67-32.69,8.9-24.84,20.46,5.52,8.13,22.84,7.71,31.21,4.92,3.51-1.17,11.92-4.99,12.24-8.98.5-6.23-5.95-1.14-9.49-2.88-6.39-3.14,7.13-9.04,10.24-8.41ZM383.08,293.26c-2.74,2.6,10.36,3.45,11.55-.51,1.54-5.17-1.89-19.51-8.8-18.37-.5.08-6.87,2.53-7.13,2.81-1.75,1.84,2.11.89,2.7,1.22,3.8,2.14,6.06,11.73,4.25,15.59-1.11,2.36-1.03-2.19-2.56-.74ZM418.12,277.21c-.33-.32-4.88-.26-5.49.64s-.2,3.67-.63,5.22c-.47,1.73-1.78,2.65-1.88,4.33.37.35,8.42-1.91,8.66-2.29.45-.7-.38-7.62-.66-7.9ZM384.54,291.79c.15-2.49-.27-4.96-1.12-7.29-2.5-6.87-3.88-3.1-8.74-2.89-2.81.12-5.31-1.12-7.98-.76s-5.56,3.3-8.46,3.64c1.72,4.65,7.94-2.21,9.91,3.6,1.67,4.93-1.78,6.67-4.8,9.54,4.83,1.26,9.23-5.01,12.21-5.69,2.73-.62,6.15.11,8.98-.15ZM315.08,282.31l-92.05,13.14.73,6.58,92.09-13.89-.76-5.82ZM418.89,286.67c-2.11.71-13.89,2.26-13.89,4.02v11.7c0,2.54,13.89.32,13.89-2.92v-12.79ZM401.35,291.79c-.67.88.5,19.04,0,21.93,5.74-1.67,15.65-2.57,16.82-9.87.18-1.15.11-1.21-.98-.99-3.05.6-9.21,3.52-11.89,1.42-1.57-1.23-1.34-10.61-1.76-13.23-.58.56-2.12.64-2.19.73ZM215.71,291.79c-.71.12-2.73-.18-2.91,0-.36.35.38,8.22.83,8.67.48.49,7.24.86,8.66,1.56v-4.38c-5.87,1.84-7.48.14-6.58-5.85ZM301.65,291.48l-7.25,1.86,22.73,88.61,7.25-1.86-22.73-88.61ZM302.69,329.07c-3.58-10.86-5.3-22.4-8.73-33.29-.29-.92-.19-2.84-1.85-2.52s-.54,1.85-.42,2.58c1.76,10.5,6.08,21.41,8.08,31.95l2.92,1.27ZM274.55,314.45h20.1l-5.58-20.53-17.5,2.95c.16,2.61,1.54,17.12,2.98,17.58ZM358.23,315.18h15.71c2.51,0,12.51-2.66,15.37-3.63,1.63-.55,7.12-2.45,7.36-4.01.09-.57-.53-5.62-.81-6.25-.2-.46-4.29-3.83-4.79-4.04-2.13-.91-5.49,1.9-8.68-.76-1.65-1.37-.42-2.45-4.05-2.59-4.62-.17-6.05,3.85-9.85,4.84-2.77.72-9.26-.48-10.64,1.8-.93,1.54,1.33,11.87.38,14.63ZM399.89,313.72c-.12-4.98,1.49-9.95-.16-14.83-.57-1.69-3.25-2.09-3.85-4.18l-2.56,1.83c.5,1.41,5.83,4.84,5.89,5.23.21,1.45-1.65,5.58-.75,7.81-5.11,1.8-3.43,4.67,1.43,4.14ZM269.8,296.9l-7.31.74,5.12,38.01,7.36-1.93-5.18-36.82ZM240.57,301.29v13.16h19.73l-2.2-16.08-17.54,2.92ZM261.76,298.36c-1.23.12-2.31-.73-2.2,1.1.67,11.14,4.14,23.44,4.74,34.75l2.58.7-5.12-36.55ZM231.07,302.76v95.4c0,.09-1.4,1.69.36,1.81.96.06,5.03-2.25,6.95-1.45l.77-94.7c1.42-3.62-7.77-1.43-8.08-1.06ZM356.03,301.29c-.93.1-5.6.56-5.8.77-.4.41.2,5.98-.03,7.27,2.22-.85,3.8-.36,5.83.73v-8.77ZM212.52,301.72l-12.23,69.42,2.2.39,12.23-69.42-2.2-.39ZM348,302.75c-5.41.77-10.7.25-16.08-.72-2.25,9.59,9.26,9.23,15.34,12.42.96-3.84.77-7.77.74-11.7ZM221.57,303.49l-5.85-.74-12.42,69.44,6.51-.79,11.76-67.92ZM227.38,302.75l-.03,96.5h2.99s.03-96.5.03-96.5h-2.99ZM226.68,303.48c-5.38-1.14-3.64,7.35-5.11,10.96h4.39s.72-10.96.72-10.96ZM357.5,332.73c.37-2.68-4.38-1.75-5.84-4.02,3.19-.88,10.76,1.81,12.06,4.75l10.6,54.28c.1.53,1.58,1.28,1.82,1.28h15.35c2.66,0,1.96-5.56,1.86-7.71-.39-7.98-1.82-16.08-2.25-24.06-.56-10.26-.27-20.82-.7-31.1-4.54.42-9.25-.66-12.42-4.02l9.22,3.21c1.51.01,3.72.98,3.2-1.38-2.78.14-5.79-.37-8.32-1.55-3.32-1.54-3.91-4.01-6.65-5.78l1.08,3.66c-3.95-4.77-2.95-2.93-7.64-2.89-1.37.01-8.84-.36-9.17-.04-.55.55,1.01,5.95-.72,6.58-.22-1.73.32-3.86.01-5.5-.34-1.81-2.03-1.51-2.23-2.31-.73-2.92,1.93-5.4-2.9-4.61-.13,2.43.26,11.68,2.18,12.81,1.31.77,3.58-.38,3.66,1.08-5.26.8-6.09-1.59-6.56-6.22-.38-3.72,1.81-9.27-3.66-8.4,1.71,9.13-6.93,3.26-8.07,3.97-.91.57-1.64,4.08-3.26,4.8-1.12-1.59,3.71-4.5,1.11-5.84-.29,3.4-5.21,5.38-4.76,8.03l2.56-1.45c-1.21,1.98-2.62,2.12-2.96,4.71-1.49,11.18.32,28.62.8,40.21.22,5.24-.5,10.57.29,15.79,5.46,2.26,11.41,2.32,17.22,2.15,1.1-16.48,1.89-33.02,4.36-49.36.22-1.46.14-.73.75-1.08l-4.38,50.44c.93-.04,2.15.24,2.97-.31,1.51-1.02,1.18-16.9,1.42-19.78.86-10.1,2.92-20.19,3.56-30.25-1.32-.62-2.27-.86-3.56-.09ZM337.74,313.03c-.09-.12-2.71-.97-2.89-.77l-.73,6.58c1.5-.38,4.55-4.56,3.62-5.81ZM394.04,312.26c-3.26.25-3.7.18-3.7,3.28,0,6.1,1.29,13.55,1.54,19.72.65,16.52.34,34.13,2.13,50.51.37,3.44,2.85,2.56,3.02.69l-2.99-74.2ZM389.65,313.72l-11.69,2.19c-.43,2.93,3.62,5.16,6.05,6.01,1.56.55,6.15,1.97,6.09-.21-.06-2.42-.9-5.36-.45-7.99ZM208.41,315.18h-12.42l-.73,15.35h10.96l2.19-15.35ZM225.95,315.18c-1.19.21-3.79-.56-4.47.42-1.41,2.03-1.36,11.63-2.85,14.55l7.32.38v-15.35ZM260.3,315.18h-19.73v15.35h21.92l-2.19-15.35ZM294.28,315.18h-20.1l1.46,15.36c7.86.68,15.04-.88,22.66-2.2-.82-2.12-2.45-12.65-4.02-13.15ZM332.65,315.18h-23.39l3.65,15.35h19l.73-15.35ZM434.24,321.76c.27-.26.63-7.06-1.83-6.58l-36.18.73.73,14.63c2.36-.38,6.22.59,8.29-.12.91-.31,1.79-2.41,3.15-3.43,6.38-4.78,24.88-4.31,25.84-5.22ZM408.66,332.73c10.83,4.64,24.46,5.33,36.16,4.37,9.42-.77,26.97-6.1,7.69-11.32-8.98-2.43-36.67-3.48-43.52,3.26-2.62,2.57-2.63,8.9.43,11.33,6.67,5.3,29.84,5.19,38.25,3.97,6.98-1.02,16.72-2.35,14.33-11.61-11.13,6.81-27.73,6.93-40.35,4.91-4.15-.66-10.09-1.67-12.99-4.91ZM304.88,337.84c-1.22-2.01-.64-6.22-3.3-6.61l-60.97,11.04-.04,7.28,64.31-11.71ZM205.49,332h-10.23c-.32,4.66,1.86,11.44-4.2,12.98-5.54,1.41-27.13.42-34.2.21-3.77-.11-7.98-1.43-12.03-.76v95.03h57.37l31.99-21.37c1.57-1.23,3.58.08,4.94-.27s2.86-2.59,5.46-2.54c3.41.06,6.86,5.09,5.91,8.12-.64,2.04-2.63,2.16-3.41,3.23s-.7,2.59-1.74,4.11c-2.13,3.09-8.18,5.6-10.64,8.73h231.67v-99.42c-3.32-.63-4.99,2.48-8.03,2.93l1.47,1.09-1.29.49,6.39,44.84c.2,3.82.62,8.46-4.62,8.18-7.17-.38-4.98-14.55-7.07-19.52-.48-.34-10.69,3.18-11.25,3.58-1.45,1.02.43,18.87-.58,22.24-.89,2.95-6.36,3.51-8.6,1.58-2.93-2.51-.78-10.81-1.5-14.58-.38-2-2.34-2.4-2.76-3.82-.47-1.57.23-5.49-.22-6s-10.77-2.26-12.34-3.73c-.82.61-1.98,15.73-3.32,18.26-1.98,3.75-9.57,2.17-8.92-2.32l7.14-49.19c-.4-2.15-4.32-2.97-4.99-5.28-.44-1.52.11-6.54-.15-6.8-.31-.31-7.39.23-8.78,0,.28,9.12-.36,18.33-.03,27.45.25,7.02.63,19.05,1.46,25.59.29,2.31,1.92,3.17,2.24,5.79.23,1.88.21,6.6-.5,8.26s-3.02,1.11-3.23,2.07c-.37,1.76,1.86,4.31,2.18,6.57,1.1,7.57.59,10.04-5.4,14.21-7.32,5.1-18.16,8.29-27.06,7.29-16.31-1.83,2.88-18.07,8.18-22.15.64-.89.46-2.64,1.29-3.47.94-.92,2.69-.12,2.58-1.42-2.87-.8-6.31-.7-7.15-4.19-1-4.17-.86-8.27.61-12.22l-8.82-46.48c-1.42.3-1.28,1.47-1.46,2.55-1.6,9.89-2.87,23.67-2.95,33.6-.04,5.55,1.32,11.53.68,16.77-.39,3.18-.87,4.01-4.3,4.1,2.13,5.33,1.48,11.06,1.36,16.7-2.04,3.19-34.66,4.27-39.65,3.68-8.46-1-9.38-5.73-2.59-10.47,4.29-3,11.92-4.57,15.99-7.39,1.44-.99,2.33-3.52,4.42-4.35-4.67-.08-4.31-8.33-3.64-11.68.64-3.18,1.36-1.08,1.42-6.56.08-7.41-.54-14.65-.73-21.93-.19-7.43.2-14.9.03-22.33h-18.27l12.12,49c-3.42,1.89-11.42,3.71-13.92-.05l-10.96-40.75c-19.96,4.62-40.65,6.83-60.36,12.01l-.81,46.55c-3.13,2.3-10.4,3.83-13.44.52-2.61-2.84-.38-11.98-.3-15.73.37-17.17-.34-34.4-.03-51.57-1.94.34-7.18-1.01-7.92,1.22l-7.09,38.97c-1.79,2.14-10.12,2.29-12.06-.5l6.6-39.68ZM262.49,332c-1.01-.73-18.95.55-21.92,0l.37,6.59c2.77-.59,22.22-3.19,22.27-4.76,0-.1-.64-1.77-.72-1.83ZM264.68,336.39l-3.93.08-12.14,2.83,3.81-.2,12.26-2.71ZM305.15,339.4l-2.59.68,10.86,41.52,2.59-.68-10.86-41.52ZM418.84,345.2c-.21-.25-4.83-.67-5.79-1.51l-7.35,50.05c.49,2.91,4.76,2.47,5.71-.15.48-1.33,3.03-15.46,3.01-16.69,0-.52-2.64-.25-2.13-3.58.35-2.29,2.39-1.97,2.92-3.16.14-3.14,4.45-24,3.63-24.96ZM454.19,370.53c.63.86,2.41.61,2.73,2.81.41,2.8-1.75,3.23-1.93,4.31-.14.84,2.34,15.91,2.77,16.71,1.72,3.21,7.49,1.04,5.7-3.49l-6.71-45.21c.12-1.72-6.19-.74-6.44-.5-.92.89,3.12,24.33,3.87,25.37ZM429.85,346.62c-2.2.64-7.87-1.98-9.18-.05l-3.23,21.98,11.35-3.62c.97-6.08-.45-12.31,1.07-18.3ZM451.77,367.81l-3.24-21.24c-.55-.85-7.43-.24-7.72.04-.68.65,1.67,16.33.83,18.91l10.13,2.29ZM439.36,346.61h-6.59s.73,55.93.73,55.93c.55,3.26,6.02,2.94,6.59,0l-.74-55.94ZM429.85,367.09c-.51-.54-10.02,2.19-11.55,2.73-1.18.42-1.95-.38-1.6,1.65,1.79.41,12.43-.76,13.07-1.54.2-.25.18-2.74.08-2.84ZM441.65,369.91c.32.47,9.97,3.41,10.86,1.18.54-2.49-9.16-2.42-10.6-4-.67.24-.48,2.49-.25,2.81ZM447.39,372.94l-5.84-1.47v2.92s5.84-1.45,5.84-1.45ZM432.04,380.24c.2-.22.05-2.36-.33-2.95-.51-.78-13.97-4.66-15.73-4.8-2.67-.22-3.18,2.07-.95,3.21,1.21.62,16.41,5.19,17.01,4.55ZM455.42,372.2c-.55-.42-12.63,3.57-13.15,4.01-1.18.99-.65,2.76-.71,4.03,2.11-1.38,14.22-4.01,14.54-5.56.04-.22-.57-2.4-.67-2.48ZM333.72,382.56c-1.42.24-2.34,8.29.91,9.96,3.52,1.8,21.46,4.31,22.74.41.21-.64.55-5.74.54-6.8-.02-2.84-6.48-.68-8.8-.75-2.97-.09-14.62-2.95-15.4-2.82ZM398.42,389.02c-8.57,2.07-16.89,3.14-25.57.73.45,2.44.07,8.21,1.94,9.38,2.43,1.52,22.02,1.11,23.56-.68.54-.63-.24-7.81.07-9.43ZM354.57,400.72c-3.57.74-6.68,1.89-10.41,1.28-4.41-.72-2.45-2.44-3.76-3.49-1.73-1.38-4.82-2.46-6.55-.78-1.64,1.6.5,1.48,1.34,2.23,1.51,1.35,3.67,2.89,1.12,4.08-1.7.79-4.74-4.33-5.86-3.32l3.65,5.11c-2.85.82-3.51-1.95-5.84-2.18l2.19,2.56c-2.02,5.25-4.52-2.28-7.3-1.48,3.43.97,3.35,7.36,3.65,7.68.98,1.04,27.64-1.81,28.4-3.02.96-1.51-1.28-6.58-.64-8.67ZM353.84,396.33h-12.42c.85.68,1.38,3.37,1.57,3.54.56.5,13.63,1.1,10.86-3.54ZM394.66,401.55c-.45-.28-8.94.54-10.5.62-.82.04-2-.47-1.81.73,3.14-1.45,6.49,3.36,6.89,3.43,2.48.45,8.8-2.67,5.42-4.78ZM381.62,421.91c2.55,1.15,13.18-4.83,14.67-6.89s.37-5.95.68-8.46c-3.01.2-6.75,2.39-9.78,1.51-.68-.2.26-3.16-5.2-3.7-2.99-.29-4.61-.54-4.74,2.91,1.73-.67,8.73,1.73,8.75,3.29.04,3.22-9.27-3.06-10.94-1.82.86,1.83,9.33,2.02,7.7,5.13-2.68,5.11-6.22.83-10.45.17-.78-.12-2.54-.78-2.36.54,3.65-.08,11.41,3.42,11.69,7.32-2.04-.92-3.21-3.43-5.34-4.53-6.64-3.43-12.66-.4-13.67,6.72,3.7.77,7.54,1.02,11.32.73,1.88-.15,7.83-.82,7.69-2.91ZM326.07,412.41c-1.48-11.08-8.59-6.86-13.88-1.09,4.51,1.35,9.21,1.14,13.88,1.09ZM355.3,410.95c-11.56,1.16-23.78,3.7-35.43,2.9-2.52-.17-5.14-1.42-7.68-1.09.99,1.12,2.66,1.56,4.08,1.77,8.92,1.33,20.08.42,29.07-.77,2.5-.33,5.54-.83,7.93-1.58.77-.24,2.21-.19,2.04-1.23ZM397.69,416.07c-4.34,1.68-7.47,4.85-11.93,6.7s-10.91,3.53-15.47,3.58c-3.19.03-5.47-1.15-8.41-1.16,5.23,3.86,14.1,2.08,20.05.32,5.67-1.68,11.47-5.37,15.76-9.45ZM248.6,424.1c1.31-3.2-1.62-7.36-5.11-7.3l5.11,7.3ZM239.84,432.15c11.95-2.6-1.92-19.34-8.05-9.51,4.31,1.26,7.3,5.25,8.05,9.51ZM227.52,439.34c2.64,1.68,10.94-4,11.47-6.24.76-3.21-4.69-9.01-7.74-9.62-2.63-.53-9.79,5.47-12.61,6.85l6.95,5.45c1.1.51,1.56,3.33,1.92,3.56ZM226.68,439.46c-.72-2.88-7.15-8.14-9.75-7.89-2.26.22-6.59,5.2-9.25,5.71-.3.44,2.21,2.18,2.56,2.18h16.44Z"/>
        <path d="M291.17,413.68c.89.87,4.73.28,5.53,2.89s-.84,8.51-3.91,9.01c-2.57.42-3.94-1.21-5.08-1.21-.93,0-2.26,1.3-4.36,1.24-4.65-.12-30.85-9.53-36.39-11.92-1.05-.45-4.51-1.55-4.17-3.06.29-1.31,11.77-11.34,13.49-11.33,1.02,0,5.95,2.5,7.85,3.07,4.75,1.42,24.03,6.14,26.17,8.94.53.69.5,2,.88,2.38ZM257.37,401.45l-3.61,1.13c-.9,1.64-8.34,6.73-8.07,7.99.17.8,1.21,1.27,2.2.76.48-.25,7.34-6.53,8.04-7.31s1.72-1.26,1.44-2.57ZM266.14,404.38c-2.47.5-5.28-1.97-7.51-1.36-.73.2-10.45,8.84-10.03,9.39l10.95,3.66c.51-5.17,3.28-8.12,6.59-11.69ZM270.37,405.96c-3.28-3.5-10.48,5.86-9.38,10.35.26,1.06,11.46,3.72,13.19,4.87-.96-5.46,2.37-8.7,4.39-13.15-2.28.31-4.17-1.05-6.21-1.47s.57,2.61-1.45,1.46c-1.25-.71-.41-1.91-.54-2.06ZM286.61,410.96c-5.16-1.72-7.48-2.98-10.04,2.74-3.09,6.9-1.73,8.91,5.65,9.68-.7-5.3.74-8.74,4.39-12.42ZM286.5,423.26c.43-.71-.08-3.43.43-5.05.29-.94,5.04-5.77,1.49-6.53-3-.65-7.35,9.64-4.73,12.43.26.18,2.66-.61,2.81-.85ZM293.19,416.07c-3.86-1.54-7.06,5.82-4.01,7.3l4.01-7.3ZM291.73,424.1c2.71.73,4.94-7.47,2.55-7.29-1.11.08-3.24,5.87-2.55,7.29Z"/>
        <g>
          <path d="M406.46,123.65c-3.83-2.84-6.92-8.01-12.42-7.3,2.71,2.7,6.14,4.13,8.04,7.67l-3.65-1.09c2.23,3.31,5.62,6.66,5.11,10.96l-2.18-1.46c-.62.76,3.15,5,.73,5.84-.09-3.23-2.45-5.61-3.67-8.4.45-.51,4.7,2.6,3.65,0-1.2-2.99-5.04-6.44-7.3-8.79l4.38.74c-2.11-2.16-4.83-3.5-7.31-5.14-.39-.26-2.77-.58-1.45-1.81.12-.11,1.98.83,3.27.8,1.65-.03,2.81-.96,4.54-.28,1.11.44,9.34,7.1,8.25,8.25Z"/>
          <path d="M372.85,101.72c-.08-.1.07-.73-.53-.7l-6.77-1.48c5.5-1.26,11.11-2.54,16.8-2.21l-5.11-1.46c-.13-1.06,1.92-1.32,2.62-1.39,3.03-.3,5.42.35,8.34.67l-4.38.73,3.65,2.91c-5.45-.94-10.6-.3-16.07.01l6.56,1.84,2.94,1.8c-2.72.1-5.33-.54-8.04-.72.49.63.83,1.36.73,2.19l-10.22,1.47,5.11,1.45-10.22,1.47c-2.11-2.49,9.7-4.4,10.22-5.49l-5.11-1.08c3.37-1.15,6.09-.24,9.5,0Z"/>
          <path d="M340.7,106.11l4.37-2.92c.15,1.56-1.31,2.22-1.82,3.66-1.85,5.21-.79,8.22,1.09,13.16-3.75-3.03-3.32-8.89-2.19-13.16l-1.82,2.19c-3.52-1.45,2.76-12.42,4.8-14.2.94-.82,2.48-1.24,3.59-1.88-2.02,4.91-8.3,6.86-8.02,13.16Z"/>
          <path d="M415.96,114.15l1.46-2.2.74,3.65c-3.14,2.79-13.79-11.94-16.08-13.88,3.13-.25,12.11,14.01,13.88,12.42Z"/>
          <path d="M368.83,109.03c-.63.04-2.05,1.26-3.29.72-.15-1.05,2-1.13,2.75-1.25,5.55-.87,11.45-.49,16.83,1.05.57.16,2.43.05,1.23.95-1.75.55-4.78-1.47-5.84-1.47-3.83,0-7.9-.22-11.69,0Z"/>
          <path d="M422.54,114.15c-3.55-.02-4.27-4.4-6.57-6.57.9-.82,7.42,5.8,6.57,6.57Z"/>
          <path d="M341.06,201.14c-.25-.06-1.12-.99-1.1-1.45,4.15.41,7.81.61,11.97-.1,3.44-.59,6.77-2.57,9.95-2.47-1.84,1.65-7.63,4.02-9.86,4.02-2.69,0-8.9.52-10.96,0Z"/>
          <path d="M416.7,176.28c-3.62-1.12-6.21-1.32-8.37,2.23-1.14,1.87-.42,4.62-2.59,4.35-.37-5.66,6.34-12.36,10.96-6.58Z"/>
          <path d="M345.08,189.45c.29,1.82-.32,1.61-1.84,1.48-5.04-.44-6.47-5.21-2.18-8.05,1.12,1.11-1.01,2.02-1.13,3.32-.28,2.95,2.72,3.61,5.15,3.25Z"/>
          <path d="M384.28,152.42c7.09,7.42-1.83,2.34-4.67,1.38-2.41-.82-5.46-2-7.94-2.29-6.04-.71-12.63.76-18.38-.26-.85-2.1-1.33-4.58,1.23-5.34,8.68-2.57,23.35-.19,29.76,6.51ZM380.89,152.16c-7.14-6.47-17.44-5.52-26.31-5.11v2.92c8.97-.68,17.68-.64,26.31,2.19Z"/>
          <path d="M349.25,275.87c6.36-1.47,9.67,3.33,3.75,5.2-6.63,2.09-9.76-3.81-3.75-5.2ZM354.57,277.18c-.84-1.24-7.81-.6-7.3,1.8.47,2.19,9.53,1.49,7.3-1.8Z"/>
          <path d="M332.86,280.29c1.56-1.63,6.95-2.68,8.22-.2,3.26,6.41-13.18,5.39-8.22.2ZM335.36,280.25c-3.2.98-2.6,4.36,2.45,3.18,5.52-1.29,2.1-4.57-2.45-3.18Z"/>
          <path d="M351.46,290.46c5.57-1.12,7.87,4.43,1.67,6.1-7.42,2-6.26-5.18-1.67-6.1ZM348.73,295.44c.93,1.33,7.76-.4,7.3-2.54-1.89-3-9.19-.17-7.3,2.54Z"/>
          <path d="M330.22,286.19c5.39-.1,4.68,5.15,1.18,6.18-8.15,2.39-8.47-6.04-1.18-6.18ZM328.8,287.56c-4.43.98-3.39,5.56,1.7,3.9,4.25-1.38,3.65-5.09-1.7-3.9Z"/>
          <path d="M342.89,296.17c2.17-5.46-8.93-4.01-6.58.73-2.49.54-1.55-2.29-.78-3.33,2.57-3.5,12.18-1.75,7.36,2.61Z"/>
          <path d="M319.35,158.95c13.85-.46,22.32,2.32,17.9,17.92-1.59,5.6-4.74,9.69-10.81,10.39-11.15,1.27-18.21-2.68-19.36-14.26-1.11-11.18,1.28-13.67,12.27-14.04ZM314.38,183.6v-20.83c0-.27-.97-1.1-.74-1.83-8.9,1.73-5.44,19.08.74,22.67ZM315.84,160.94c-.55,3.38.72,6.61.77,9.83.14,10.05-5.28,17.02,9.77,14.96,9.75-1.34,13.78-19.28,7.69-22.91-.52-.31-5.14-1.88-5.43-1.88h-12.79Z"/>
          <path d="M385.06,163.34c3.31,3.85,1.3,16.41-1.37,20.51-5.32,8.16-23.27,7.1-28.7-.29-3.33-4.53-6.58-17.09-1.41-21.05,4.52-3.47,27.75-3.5,31.48.84ZM354.05,164.07c-4.07,4.02-.11,17.26,4.22,20.59,5.64,4.34,19.14,5.25,23.66-1.11,2.76-3.88,5.48-16.4,1.41-19.59s-25.68-3.46-29.29.1Z"/>
        </g>
        <path d="M226.88,429.47c-.65.79.61,2.48-1.66,1.94-.09-.76,1.1-2.47.72-2.92-.25-.3-1.86,1.4-2.18.37,1.02-1.32,7.09-4.98,5.27-1.31-.61,1.22-1.6,1.26-2.14,1.92Z"/>
        <g>
          <path d="M208.24,403.81c3.67-.41,3.98,1.14,5.63,1.24,2.99.18,7.75-4.63,9.57,2.92,2.03,8.42-1.84,5.58-5.2,8.05-.84.62-1.22,2.18-2.13,2.98-1.37,1.2-30.22,11.55-33.25,12.1-.85.15-1.47.47-2.43.21-1.87-.52-9.12-14.34-10.02-17.05.36-1.35,6.36-1.59,8.16-2.05,8.68-2.22,21.4-7.49,29.67-8.41ZM205.49,409.49c3.83,3.24,3,5.47,4.36,9.92,7.06.34,7.35-5.9,4.29-10.89-3.29-5.36-5.04-2.11-10.11-1.94.77.91,1,1.9,1.46,2.92-.81-.69-2.3-2.11-3.26-2.16-.67-.04-12.81,3.32-12.81,3.99,3.49,3.32,6.47,7.79,6.57,12.8,1.7-.25,11.97-3.22,12.31-3.76,1.53-2.39-1.72-8.45-2.82-10.86ZM222.18,413.03c1.1-1.8-.98-8.56-3.89-7.92-1.45.32-.78,1.01-.39,1.82,1.08,2.25,3.04,4.31,1.48,6.94.31.26,2.65-.59,2.81-.84ZM195.23,424.79c-.08-4.21-4.13-13.46-8.89-12.97-1.15.12-9.31,2.47-9.33,3.15l8,13.2,10.23-3.37ZM176.14,414.72c-.58-.36-4.01-.77-3.52.95.2.69,6.75,11.97,7.25,12.49.83.84,3.11,1.62,3.69,1.06s-6.73-14.07-7.42-14.5Z"/>
          <rect x="195.31" y="411.59" width="4.66" height="1.15" transform="translate(-199.78 186.33) rotate(-34.77)"/>
        </g>
        <g>
          <path d="M158.93,360.72c3.67-4.31,24.27-3.98,29.21-1.51,7.39,3.69-.1,6.92.51,11.13.27,1.86,2.89,3.26,3.99,4.84,3.87,5.54,3.52,12.68.27,18.45-.87,1.55-6.65,9.39-7.62,9.92-4.39,2.36-18.34,2.51-22.16-1.04-.49-.45-5.15-6.49-5.76-7.4-3.48-5.22-4.7-11.97-1.88-17.72,1.19-2.43,5.18-5.32,5.43-7.06.54-3.75-4.88-6.23-1.99-9.62ZM157.98,378.05c-.46.82-2.78,1.42-1.53,3.3,1.45,2.18,5.57,3.31,8.11,3.29.14,1.36-2.38.7-3.11.55-2.21-.48-3.86-1.47-5.65-2.75-1.07,15.93,13.57,21.03,27.05,17.19,6.2-1.76,10.83-8.17,11-14.66.08-3.15-1.44-2.57-1.43-2.85.04-.74.93-1.69.64-2.93-.35-1.52-2.52-.51-3.65-.4.76-.54,1.52-1.2,2.18-1.87.48-1.86-5.69-3.22-4.22-9.31.7-2.91,4.98-5.11-1.01-7.32-5.04-1.87-18.08-1.93-23.03.09-6.79,2.76-1.94,3.66-1.11,7.24,1.19,5.12-1.36,4.89-3.42,8.01-.56.85-.52,1.91-.82,2.44ZM180.27,401.44c-3.51.37-8.03,0-11.69,0-.93,0-3.33-1.75-4.75-1.46,1.09,3.8,8.94,3.81,12.09,3.68.91-.04,12.17-1.4,9.83-3.68-1.73-.09-4.03,1.31-5.48,1.46Z"/>
          <path d="M189.41,378.78c-3.88,2.74-15.77,2.62-20.85,2.22-3.23-.25-7.95-1.05-10.57-2.95,7.34,1.8,14.68,2.71,22.28,2.18,2.91-.2,6.06-1.16,9.15-1.45Z"/>
          <path d="M187.21,361.98c1.82,2.32-8.13,3.6-9.11,3.67-2.55.19-15.1.08-15.74-2.59-.56-2.35,8.84-3.24,10.56-3.31,2.22-.08,13.26.93,14.28,2.23ZM185.75,363.42c-.72-1.68-3.88-2.02-5.49-2.18-2.24-.22-15.42-.11-16.44.73-.21,1.91.03,1.16,1.07,1.48,6.14,1.9,14.48.25,20.86-.03Z"/>
          <path d="M181,367.82c.81-.06,2.6-1.4,4.02-.72v.72c-.91-.28-2.12.74-2.55.74h-15.35c-.56,0-4.7-1.64-4.02-2.19,1.57-.24,4.33,1.46,5.48,1.46,4.03,0,8.47.27,12.42,0Z"/>
        </g>
      </g>
    </g>
  </g>
</svg>