<?xml version="1.0" encoding="UTF-8"?>
<svg id="Capa_2" data-name="Capa 2" xmlns="http://www.w3.org/2000/svg" xmlns:xlink="http://www.w3.org/1999/xlink" viewBox="0 0 603 452">
  <defs>
    <style>
      .cls-1 {
        fill: none;
      }

      .cls-2 {
        clip-path: url(#clippath);
      }
    </style>
    <clipPath id="clippath">
      <rect class="cls-1" width="603" height="452"/>
    </clipPath>
  </defs>
  <g id="Capa_1-2" data-name="Capa 1">
    <g class="cls-2">
      <g>
        <path d="M463.57,15.78v420.43H146.19V15.78c105.78-.01,211.6.01,317.39,0ZM274.14,16.5h-126.53l1.55,1.64,97.82,12.66v162.31l-99.36,8.59v5.72c9.16-.51,18.36-1.28,27.51-2.15,18.6-1.77,42.83-6.55,60.76-6.49,8.56.03,19.47,4.01,28.23,4.71,1.2.64,1.3,1.6,1.46,2.82,1.33,9.94.11,27.23-.07,37.9-.05,3.01-1.69,9.68.8,11.43,1.59,1.11,5.8,2.39,7.82,3.26v-56.84c0-5.62-5.33-17.46-7.67-23.07-3.21-7.68.81-9.05,7.67-9.46-1.49-5.11-3.88-9.44-4.82-14.84-.82-4.72.62-3.35-1.95-7.32-2.03-3.13.94-13.78,2.88-17.13.78-1.35,3.89-4.39,3.89-4.69V16.5ZM462.14,16.5h-187.29v95.1l1.81-7.13c2.55-7.75,11.84-17.74,19.66-20.38,2.88-.97,15.71-2.27,16.8-3.93l.33-39.36,148.69-16.44v-7.87ZM245.55,32.23l-97.93-12.87c.44,2.57-1.5,6.74,1.95,6.96l89.55,10.92v149.44l-91.5,6.43v7.16s97.94-7.87,97.94-7.87V32.23ZM319.18,79.78v-33.25l143.01-16.78-.05-3.96-147.22,16.48-.75,36.79c-.11,2.47,4.51,2.32,5,.71ZM238.4,38.67l-90.42-11.45-.36,7.15c3.29,1.08,40.74,3.31,40.74,5.37v33.96l-40.75-2.86c-.14,4.67-.94,5.31,3.94,5.72,11.63.97,23.36,1.43,35.02,2.15.59-.02,1.79.67,1.79,1.07v109.04h5.01s.1-108.22.1-108.22l.56-.87,38.65,2.55v102.96c-12.07.14-24.08,1.39-36.11,2.14-1.43.09-2.07-.56-1.77,1.43l43.6-3.57V38.67ZM462.14,32.23l-135.1,15.73,21.73,2.79,113.38-11.37v-7.16ZM184.07,72.27v-31.82c0-1.84-33.32-3.9-36.46-4.65v33.61l36.46,2.86ZM186.93,40.1h-1.43v28.96c0,.52-1.26,2.04-.71,3.21h2.14s0-32.17,0-32.17ZM462.14,40.81l-113.66,10.72c-1.21,9.62,2.18,6.37,8.85,7.25,7.66,1.01,12.34,1.63,20,2.12,4.95.32,10.41,3.14,15.44,3.54-1.65,7.35,11.14,3.44,13.94,7.15.8,1.06.44,3.35,1.82,3.54v-17.16c10.05-2.58,18.79,4.03,28.6,4.29-3.06-9.16,9.44-4.35,10.72-5.72.33-.35-.63-2.9.41-3.66,2.2-1.6,11.19-.62,13.88.8v-12.87ZM320.61,47.96v32.89h4.29v-15.37c.91-1.75,7.89-1.09,8.54-1.83.34-.39-.3-2.21.11-2.74.76-.98,6.6-.51,8.01-.82.49-.11.49-1.18,1.05-1.35,1.09-.32,4.95-.63,5.13-.81.23-.24.57-6.2-1.17-6.26l-25.95-3.71ZM458.33,52.92l-9.29.04.23,47.95,9.29-.04-.23-47.95ZM462.14,55.11l-2.86-.72v46.48c0,.14,2.86.14,2.86,0v-45.76ZM447.85,57.53h-10.01v44.06h10.01v-44.06ZM416.4,58.69c-11.03-1.98-6.54,6.28-6.37,13.23.03,1.33-.54,2.63-.51,3.7.17,8.87.8,17.8.44,26.7h6.44v-43.62ZM422.83,102.3l6.37-39.59c-.49-1.69-10.01-3.01-12.09-4.02v41.83c.36,2.74,3.65,1.63,5.71,1.78ZM348.49,59.4h-5.72v28.96c0,.62,4.58,2.95,5.72,2.5v-31.46ZM349.92,60.12v31.1c3,2.02,7.16,2.91,10.72,3.22v-31.1c0-.26.79-.83,1.18-.96,1.73-.55,4.98.78,5.96-.82-5.98-.5-11.82-1.97-17.87-1.44ZM341.34,60.83c-10.89-.09-6.39,4.94-6.43,11.8-.05,7.41-4.07,14.67,7.15,15.37.35-.26-.71-.91-.71-1.07v-26.1ZM378.51,62.26l-8.58.72v34.68l8.58,5.36v-40.76ZM368.46,67.22c.14-.14.75-3.52.08-3.91-3.7-.67-8.53-.88-7.19,3.96,1.26-.22,6.75.33,7.11-.04ZM379.22,62.98v40.76c1.49.09,10.62.16,10.75-1.12l-9.9-31.33c.94-1.91,3.89-3.1,5.84-2.61.53.13.47,1.24.58,1.3.96.49,4.04-2.44,5.6-2.36.19-1.43,0-1.71-1.23-2.34-1.06-.55-11.22-2.72-11.64-2.3ZM436.31,63.79c-.89-1.47-8.18-1.6-6.33,2.75l6.43.73c-.14-.98.34-2.75-.1-3.47ZM333.47,65.12c-1.67.23-5.92-.65-6.84.67-.61.88-.55,15.41.11,15.86,1.04.71,5.22,1.8,6.73,2.06v-18.59ZM435.7,67.98c-.26-.25-7.07-1.23-6.43,1.06.17.82,4.71,1.84,5.3,1.72,1.08-.22,1.51-2.41,1.13-2.77ZM368.5,68.7h-7.15v26.46c0,.37,6.22,1.28,7.15,2.15v-28.6ZM385.65,69.41l-4.23,1.5c1.26,3.74,8.56,30.82,9.9,31.81,1.19.87,3.05-.17,4.31-.46l-9.99-32.85ZM402.81,102.3l-10.14-31.68c-.82-2.6-5.45-.18-5.29,1.7l9.76,30.65,5.67-.67ZM405.52,71.7c-1.4-1.03-9.67-1.07-11.99-2.29l10.41,33.64c2.02-.1,4.14.66,4.6-1.83.6-3.26.41-17.12-.06-20.68-.14-1.04-2.58-8.57-2.95-8.85ZM437.13,101.59v-32.18l-6.44,31.81,6.44.37ZM434.95,71.59c-1.67-.07-4.93-1.7-6.08-.06-.66.95-4.68,22.04-3.87,22.88,1.35-.25,4.8,1.28,5.63.7.98-.69,3.63-20.59,4.32-23.51ZM147.62,77.28v14.3c0,.24,4.47.65,4.71.65.63,0-.07-1.43.65-1.37,1.81,4.1-3.18.81-5.36,1.44v39.68c0,4,7.97,10.82,10.01,14.29l-10.01-8.93v16.45c0,.28,3.09-1.22,4.3,1.79.26.65-.13,1.75-.72.71-.06-2.47-3.58-1.97-3.58-.7v34.68c3.24-1.05,6.64-.69,10.01-.71-.2-3.57,2.5-28.31,1.43-29.32-.26-.25-6.39.12-6.44-2.5l6.43,1.78-.7-11.43c1.61.44,1.39,3.36,1.46,4.61.33,6.66-.33,13.41,0,20.08l-1.45,15.66c.31,1.6,6.86-.24,8.56.39l-2.14-25.39c-.47-7.33-.03-14.39,4.64-20.37l-3.94,11.79v3.94s5.01-1.42,5.01-1.42c-.24,2.17-4.92,1.86-5.04,2.54l2.19,28.92,16.43-1.44c0-12.03.02-24.09.04-36.13,0-2.61,0-5.2,0-7.81-.04-10.43,1.21-25.31.02-35.09-.18-1.52-1.22-1.15-2.2-2.13l2.14.36-.03-26.42-36.42-2.9ZM186.93,80.14h-1.43v108.68h1.43v-108.68ZM231.25,183.82v-44.33c-2.12-.48-1.53,2.21-2.85,2.14-1-3.22,2.85-2.62,2.85-2.86v-17.16l-2.87,1.07c-.18-2.29,2.56-2.51,2.88-4.26.78-4.36-.59-10.77-.02-15.39-1.28-.29-.46,1.16-.71,1.42-.41.42-1.7.31-1.45-1.08.28-1.54,1.83-1.92,2.15-3.57.86-4.41-.54-11.29-.07-16l-33.77-2.87c-4.1,2.62.01,8.68-.57,10.88-.23.84-1.4,1.33-1.66,1.95-.79,1.89-.85,33.67-.42,37.56.33,2.99,2.46,1.97-.02,4.19l.07,51.18,18.58-1.43,1.48-40.31c-.2-.74-5.39-.95-3.61-2.59.29-.27,2.46,1.91,3.56,1.43.32-5.14.45-8.56-3.57-12.14,2.61.25,4.04,3.04,4.3,5.34.69,5.95.02,12.03-.04,17.86-.11,10.17-.44,20.27-.68,30.42l8.58-.71c-.88-12.54-1.9-24.97-2.16-37.54-.03-1.38-.77-2.8-.77-4.3,0-3.46.68-9.68,2.57-12.51.47,1.76-.89,3.33-1.08,5.36-.13,1.41-.26,6.81.3,7.57.7.95,2.7.02,2.55,1.37l-2.87.42c-.06,12.64,1.43,25.23,2.16,37.84-.72,2.43,6.85,1.35,7.15,1.08ZM276.29,168.08v-14.66c0-5.36,4.95-17.24,9.28-20.75,9.26-7.49,14.94.55,23.21.4,9.16-.17,15.75-7.43,27.83-4.24,7.5,1.98,21.08,13.18,22.43,21.19,1.06,6.32-.91,18.3,7.14,21.45,2.95,1.15,11.4,3.72,13.2.7s4.65-12.49,5.35-16.1c1.18-6.17,1.58-12-.5-18.02l2.87,2.85c.96.18.74-.27.73-1.07-.08-6.89-4.74-11.26-5.61-15.91-.39-2.11.67-3.58.62-5.51-.12-5.59-5.87-10.57-10.04-13.61l3.57-.36c-7-6.47-17.02-7.41-25.7-10.39-12-4.12-22.4-11.2-35.77-6.06-.11-1,1.7-1.2,2.48-1.44,4.11-1.3,8.23-1.64,12.53-1.42-.59-1.05-3.67-1.69-4.84-1.94-8.7-1.86-17.85-.32-25.54,4.09-1.07-.23,1.55-2.7-.69-2.13-8.2,2.11-18.18,12.84-20.61,20.86s-1,14.56,1.64,22.02l-2.49-2.85c-5.67,4.65-8.98,11.83-8.21,19.29l2.84-2.14c-1.67,8.01-.63,14.85,2.33,22.34.38.96.88,3.23,1.97,3.4ZM430.7,95.87c-2.83.56-7.3-2.79-6.44,1.42l2.86.71h-3.57c-.08,1.91-.32,3.19,1.79,3.58,5.9,1.09,4.47-.95,5.37-5.72ZM462.15,102.3c-27.21.82-54.28,1.6-81.41,2.95-.57,2.61-1.74,3.86,1.67,4.24,13.5,1.48,32.51-.99,46.47-1.49,11.06-.4,22.21-.24,33.27-.68v-5.01ZM462.13,108.23l-79.37,2.27.09,2.98,79.37-2.27-.09-2.98ZM405.67,153.07h11.08c.62,0,5.48-6.19,6.8-6.78s4.13-.22,4.28-.37c1.05-1-1.34-27.62.66-29.01,1.08-.75,11.35.18,14.02-.28s4.53-2.18,7.83-2.24c3.53-.06,8.15,1.75,11.78,2.2v-4.29c-26.01.22-51.97.97-77.91,2.15-.16,7.33,1.65,4,6.82,4.25,4.64.23,8.63,1.77,12.33,2.83,1.75.5,6.12.52,6.96,1.48,2.04,2.34,3.81,21.82,5.39,26.1l-1.23,1.69-8.82,2.26ZM445.7,115.89v37.9h8.58v-36.82c0-.15,1.07-.81.71-1.07h-9.29ZM444.27,118.03c-1.16-1-7.15-.54-7.15,0v35.75h7.15v-35.75ZM455.71,117.32v36.47h6.43v-36.47h-6.43ZM435.7,118.03c-1.34.05-7.15-.5-7.15,1.07v26.81c7.75-3.21,1.88,6.61,7.15,7.87v-35.75ZM391.38,120.18h-5.72c-.07,8.22,4.94,15.16,3.57,23.59l-2.13-.71c.95,3.22,1.03,6.07,0,9.29h4.29s0-32.17,0-32.17ZM401.38,120.9c-3.63.96-9.8-3.47-8.57,2.13l8.57-2.13ZM403.46,151.56c.91-1.27-5.38-23.68-5.07-27.32-.64-1.94-4.35-1.93-4.16,1.96s3.65,20.98,5,24.36c.87,2.17,3.33,2.25,4.22,1ZM409.86,123.85c-3.43-1.14-7.06-.81-10.62-.81l5.73,28.6c1.65-1.2,9.55-.89,9.84-2.48l-4.95-25.31ZM392.81,127.69c.25,8.21-.19,16.47,0,24.67l5.73-.37c-2.63-8.3-3.22-17.12-5.19-25.55-.21-.9-1.36-2.27-1.27-.17.05.51.72,1.11.73,1.43ZM361.35,170.23c-.53-2.99-2.89-5.37-3.4-8.39-1.1-6.56,1.14-11.04-3.15-17.59-2.82-4.29-13.02-12.02-17.9-13.56-10.25-3.23-15.96,1.81-24.84,3.46-11.41,2.13-20-10.14-28.77,4.12-4.62,7.52-6.01,19.1-4.86,27.67,7.2-6.91,17.47-4.16,26.44-5.72,1.23,9.97-13.56,5.73-20.31,6.49-1.06.12-4.28.88-4.7,2.08,4.31.27,8.94-.35,13.21.02,5.31.46,11.05,2.98,16.46,2.9,7.23-.1,15.93-3.74,23.59-4.33,4.31-.33,8.88.23,13.21-.02l-7.51-2.12c-6.18-1.15-24.46,5.71-21.43-5.75,9.53,3.13,20.72-2.21,29.61,3.99,1.57,1.09,3.49,4.26,4.18,4.58,2.29,1.05,7.46.91,10.16,2.17ZM427.82,160.93c.29-.24,3.86-6.01,3.98-6.4,1.39-4.36-3.73-8.25-7.75-7.04-1.93.58-4.06,4.5-5.5,5.94,3.68,1.5,5.31,4.42,7.79,7.05.47.5.99.85,1.47.45ZM386.37,158.79h15.37l7.5-4.28c-2.89-.73-21.52-1.33-22.24-.31-.44.63-.92,4.3-.63,4.59ZM423.53,180.95c.28-.26,2.29-6.18,2.52-7.14,1.41-5.87,2.05-11.29-2.87-15.73-7.4-6.69-16.72-1.35-23.22,3.93,8.44,1.33,16.58,8.37,21.04,15.41.52.81,1.23,4.75,2.53,3.53ZM462.14,155.21h-29.31c-.39,1.99,2.12,4.64,3.95,4.99,4.36.83,12.24-.19,17.17-.01,2.64.09,5.37,1.27,8.19.75v-5.72ZM444.27,202.41v-26.81c0-1.35-3.02-7.44-3.98-8.89-.82-1.25-7.92-8.59-8.53-8.61-.46-.02-1.3,1.03-.73,2.14.81,1.58,5.12,4.77,6.68,6.91,1.23,1.68,4.41,7.39,4.41,9.17v26.1h2.14ZM399.24,160.22h-11.79c-.28,0-1.06-.99-1.78-.72.08,3.86-5.96,13.66-4.66,16.43.44.95,2.06,1.83,2.88,3.59,2.6,5.63,1.06,14.3-2.51,19.3l43.96,3.64c5.1-1.01,10.1-2.68,15.38-2.2-.87-12.65,3.37-25.42-6.4-35.43-.56-.58-4.38-3.89-4.68-3.89-2.46,0-1.03,6.32-1.15,8.12-.23,3.18-3.42,13.76-6.36,15.1-5.1,2.32-15.87-5.52-19.27-9.3s-8.59-10.47-3.6-14.63ZM303.45,161.65c-7.15,1.82-16.39-1.19-22.16,4.28,2.74-.28,6.27-1.48,8.93-1.48,3.96,0,12.72,3.43,13.22-2.8ZM346.34,165.22c-8.04-6.62-18.68-1.54-27.88-3.56-.18,1.59,1.22,2.59,2.52,2.84,4.98.95,11.19-1.05,16.45-.72,3.02.19,5.87,1.43,8.91,1.45ZM462.14,162.36l-24.3-.71c3.41,4.06,6.89,8.67,7.68,14.12.6,4.16-.54,23.04.5,24.52.75,1.08,5.52,1.07,7.05,2.07.72.46.7,1.76,1.66,2.07,1.9.62,5.18-.32,7.42.83v-42.9ZM407.82,165.95c-.38-.47-10.79-5.78-8.74.5,2.46,7.55,14.03,17.2,22.32,16.64.95-.95-2.95-8.11-3.6-8.56-1.03-.71-3.16,3.67-7.78.99-6.47-3.74-1.86-9.14-2.2-9.57ZM408.9,167.37c-4.61.95,3.43,13.45,7.16,5.72-1.03-1.08-6.13-5.93-7.16-5.72ZM356.89,171.11c-1.27-1.26-16.74-2.41-19.52-2.34-10.31.25-21.05,5.1-30.73,4.34-9.37-.74-15.84-3.73-26.41-2.87-1.49.12-12.04,1.71-12.48,2.17-.14.15-.18,3.28-.08,3.93.39,2.48,1.81,2.68,2.56,4.59,2.2,5.64.98,12.37,6.75,16.84s19.94,4.55,24.63-1.85c3.28-4.47,3.71-15.13,7.03-16.58,7.06-3.09,8.12,10.77,11.37,15.44,5.15,7.4,21.74,8.1,28.43,2.94,5.54-4.28,4.28-12.52,6.42-17.89.87-2.18,5.39-5.36,2.03-8.71ZM370.65,173.81c-.44-.38-9.86-1.78-11.44-2.15.05,4.1-1.27,5.21,3.29,5.63,3.16.3,4.62-.05,7.2-1.9.42-.3,2.17-.52.94-1.59ZM292.37,202.41c-3.24.38-7.05-.28-10.37,0,3.55,16.18,23.14,30.31,39.6,28.53,11.17-1.21,27.52-10.3,34.72-18.89,1.35-1.61,5.08-8.19,5.75-8.6.37-.23,6.58.6,8.76.22,9.53-1.65,14.32-14.17,11.47-22.57-2.69-7.94-11.18-6.9-15.54-.81-.91,1.28-2.33,5.46-2.56,5.67-1.9,1.81-2.47-6.33-2.13-7.15-8.17-1.77-5.95,6.37-7.65,12.02-3.3,10.96-12.95,12.63-23.25,11.38-6.92-.84-10.45-3.02-13.79-9.08-1.69-3.07-3.21-9.88-4.59-11.66-4.49-5.74-6.36,7.65-7.18,9.87-2.4,6.54-6.06,10.22-13.24,11.07ZM184.79,189.53l-.34-1.41c-9.45,1.4-19.05,1.73-28.6,2.14l-8.22,1.42h8.92s28.24-2.14,28.24-2.14ZM274.86,198.83v61.49c0,.19,2.87.81,3.22,2.12,9.48-12.78,18.88-24.56,34.68-29.65-11.01-3.31-23.73-10.25-29.19-20.86-1.22-2.37-2.74-9.52-3.14-10.08-.33-.45-4.66-2.19-5.56-3.02ZM259.13,203.84l-23.23-3.64c-27.16,2.85-54.32,6.01-81.49,8.63-1.84.18-6.05-.79-6.69,1.18-.58,1.76.18,4.73-.1,6.7l111.51-12.87ZM425.59,203.93c-.22-.36-2.44-.75-3.11-.81-13.55-1.24-27.25-1.4-40.79-2.9-2.63.3-4.23,3.06-6.76,3.98l-7.86,2.49,95.06,8.59v-9.3c-2.04.39-5.7-.53-7.42-.04-.73.21-.47,1.84-1.09,2.59-2.5,3.04-18.29,2.29-22.4,1.56-8.12-1.43-4.05-3.48-5.64-6.16ZM440.51,201.92c-2.83-1.28-9.65.61-12.67,1.55,6.27,2.88,16.8,3.48,23.31,1.16,3.4-1.21-1.87-2.28-3.63-2.25-3.93.07-2.68,1.5-7.01-.46ZM264.14,254.6v-48.26c0-1.14-2.92-1.14-3.91-1.08-20.02,1.07-42.77,5.46-63.02,7.79-16.5,1.9-33.08,3.4-49.6,5.09v4.3s2.48-.01,2.48-.01l109.75-13.58v43.97c0,.62,3.99,2.13,4.29,1.79ZM452.84,205.27c-6.56,2.29-14.2,2.29-21.02,1.37-1.7-.23-6.1-2.92-4.7.41.83,1.96,13.63,2.61,16.07,2.49,1.38-.07,12.05-1.11,9.65-4.28ZM462.15,215.99c-1.77-.09-3.59.18-5.36,0-29.89-3.09-60.87-6.67-90.79-8.56-2.86-.18-4.9-.59-6.06,2.5-.58,1.55,1.01.91,1.75,1.07,1.17.26,2.42.56,3.6.7,30.98,3.49,64.08,7.12,95.09,9.3.59.04,1.18.03,1.77,0v-5.01ZM258.41,247.45l.67-36.01c-.36-.81-.69-.99-1.56-1.02-4.93-.2-12.31,2.95-17.69,2.01-.36,2.17.56,1.13,1.74,1.44,3.62.94,7.38,1.68,11.09,2.16.92,3.79-1.09,29.66.03,30.72.21.2,4.61-.05,5.72.71ZM434.26,219.57l-74.72-7.22c-2.46.17-3.35,2.99-5.33,4.72-2.01,1.76-4.4,3.25-6.43,5,3.97,1.47,4.97,6.23,9.28,5.37.37-.36-.34-6.05-.03-7.4.26-1.11,19.44-4.58,21.7-4.03.58.14.19,1.29,1.51,1.47,3.89.53,7.77-1.45,11.3,0,.61.25.34,1.44,1.57,1.42,2.86-.04,8.03-3.02,9.7-.06l-10.86,1.66-6.29,1.92c5.15,2.17,18.23-4.64,21.7-3.48,2.52.84.28,9.97,1.54,9.93,3.56-1.8,11.09-1.91,14.15-3.56.93-.5.37-2.41,1.66-2.78l9.55-2.96ZM242.69,216.71c-5.62-.04-10.76-2.88-16.43-2.14l10.45,2.77,5.99-.62ZM233.4,218.84c-.22-1.28-1.45-1.23-2.4-1.53-4.04-1.28-10-2.68-14.04-1.32l11.88,2.76,4.56.08ZM228.39,219.57c-4.22-.24-8.28-1.76-12.44-2.28-1.09-.14-1.7-.85-2.56.49,3.14.77,6.5,1.99,9.72,2.42,1.06.14,4.86.71,5.28-.63ZM218.39,223.5v29.67c.92-.89,4.13-.57,4.29-.72,1.15-1.08-.84-27.56-.03-31.43-1.87.37-19.98-5.16-19.99-3.25,3.25,1.77,14.92,1.86,15.73,5.72ZM246.26,219.21c1.19,8.73-.89,19.95,0,28.96.98-1.09,5-.46,5-.72v-23.6c-1.52-.3-3.63,1.48-4.29-.71,5.85.73,4.17-.8,4.29-5.73l-5.72.72c-.35.28.69.86.71,1.07ZM377.79,217.43l-3.73.19-11.99,2.65,7.99-.93,7.73-1.91ZM194.8,249.6c1.12-1.75-.85-26.5,0-30.75,6.55.06,12.66,3.76,19.3,3.57-.38-1.14-3.27-1.38-4.41-1.65-4.1-.97-8.28-1.69-12.38-2.69l-31.1,4c0,.69,11.8,2.8,13.16,3.87.72.57.09,1.79.9,2.23,2.6,1.41,6.01,0,7.21,4.09.74,2.51,2.34,17.41,3.06,18.03.74.22,4.15-.51,4.27-.69ZM391.37,218.14l-7.6,1.33-6.69,2.23c4.2.05,8.6-.81,12.63-2.05,1.16-.36,2.02.58,1.66-1.51ZM238.4,249.6v-30.75l-8.58,1.43v30.03l8.58-.72ZM244.83,218.85h-5v30.03c.62-.05,5-.46,5-.72v-29.32ZM195.51,220.28v28.96c2.08,1.03,13.41,5.43,14.66,5.33.84-.06,1.02-1.69,1.1-2.44.97-9.05-.58-19.8-.82-28.93l-14.94-2.93ZM371.36,220.29c-1.12.71-5.51.51-5.72.71-.26.24-.26,6.91,0,7.16.19.18,3.96-.33,5,.71.19-2.86-.58-5.91.72-8.57ZM407.1,220.28c-.52-.52-13.84,2.65-14.51,3-1.72.89-1.74,11.66-.86,13.46.45.91,4.84,3.54,6.09,4.63s4.42,4.97,5.36,5.37c1.53.64.95-.93.89-1.6-.29-3.05-1.67-13.15.49-14.9.75-.61,2.38-.37,2.59-1.09.57-2.02-.49-6.46-.05-8.86ZM443.56,220.29c-2.99-.29-5.83.29-8.72.92-1.8.39-5.22,1.04-6.29,2.64l5.76-.31,9.25-3.25ZM229.11,221c-1.13-.1-5.14.06-5.62.82-1.4,2.26,0,8.1,4.18,6.34-.04,1.38-2.79,1.05-3.57.71v22.88c.62-.05,5-.46,5-.72v-30.03ZM364.13,221.79c-.25-.3-5.36-1.07-5.64-.79v6.44s5.72,0,5.72,0c-.24-1.21.4-5.09-.08-5.65ZM450.71,221c-5.22-.43-10,2.21-15.01,3.21,1.04,1.43,2.27,1.08,3.73.92,3.02-.33,9.03-2.05,11.28-4.12ZM375.61,222.46c-.15-.15-2.74-.02-3.53-.75.27,4.44-1.91,8.4,4.28,7.86-.39-1.17-.5-6.86-.75-7.11ZM440.7,226v41.11c0,.14,1.14.85.04,1.45-1.22.67-14-1.05-15.48-1.74-2.72-1.26-1.55-3.19-1.72-5.79-1.25.45-8.61,2.81-8.6,3.27.02,1.74,1.12,2.63,2.68,2.98,14.12,3.19,30.17,3.95,44.53,6.62v-6.43c-6.72,3.35-12.55,5.14-19.69,1.45l-.26-41.43,17.08-5.07c-6.5-2.19-12.36,2.34-18.58,3.57ZM169.77,226.01l-14.29-2.86c-.17,1.05,1.24.95,2,1.2,2.26.77,5.54,1.79,7.84,2.18.9.15,4.29.9,4.46-.52ZM216.96,223.14c-1.01-.12-5-.19-5,1.07v30.39c.73-.34,5-.46,5-.72v-30.75ZM381.37,223.14h-4.3c.19,4.17-1.57,8.03,3.93,8.59l.37-8.59ZM390.66,236.01v-10.37c0-2.59-6.52-2.12-8.58-2.51.35,1.89-.69,8.52.44,9.37.45.34,7.84,3.83,8.14,3.5ZM462.04,225.9c.23-.38.41-2.49-.24-2.75l-16.09,4.99c2.38,1.76,15.48-.83,16.33-2.24ZM162.62,227.44c-4.93-1.33-9.82-3.51-15-3.58-.35,1.87.36,1.26,1.42,1.75,3.41,1.59,7.33,2.6,11.08,2.54.85-.01,2.67.51,2.5-.71ZM176.93,226.01l-10.72-2.14c.91,1.64,4.69,1.14,6.01,2.06.81.56.26,2.05.42,2.22.24.25,4.28-.89,4.28-2.14ZM431.41,224.57l-6.43-.71c-1.87,13.98.05,28.14-.01,42.19,1.23-.53,6.44,1.19,6.44-.36v-41.11ZM352.77,230.28c-1.02-3.46-2.94-5.77-6.78-5.78-1.47,0-6.01.57-4.31,2.2,2.59-1.32,5.76-1.28,7.55,1.08,1.22,1.61-.27,3.2,3.54,2.5ZM439.27,267.48l.71-39.69c-.59-3.22-4.83-.87-7.14-2.5l-.04,41c.32,1.36,5.23,1.26,6.47,1.19ZM156.2,264.61v-34.68l-8.58-3.22v34.68l8.58,3.22ZM423.54,226.72l-16.43,4.28c5.03.33,9.88-1.52,14.68-2.85,1.14-.32,2.12.77,1.75-1.43ZM171.21,227.43c-.88.11-5,.94-5,1.79v33.96c.73-.34,5-.46,5-.72v-35.04ZM348.49,229.57c-1.14-2.94-4.17-2.22-6.43-1.41,1.06,2.37,4.41,1.19,6.43,1.41ZM462.14,227.43l-8.59,2.16c-.04.5.72.89.72,1.06v38.97c1.08-.79,7.86-2.89,7.86-3.93v-38.25ZM179.07,228.15c-.28-.29-5.39.49-5.64.79-1.16,1.39-.01,4.83,2.78,3.51l-2.15.71c-1.63,4.13,5.45,1.81,5.72,1.42.39-.55-1-2.27-1.11-3.18-.09-.73.76-2.87.39-3.24ZM324.17,241.01c-.73-4.58,16.03-8.5,12.87-12.86-1.99,1.69-15.58,4.26-16.12,4.97-1.5,1.97,1.65,3.18,2.18,4.33.61,1.33-.25,3.48,1.07,3.56ZM165.49,228.86l-8.58.71c.75,11.64.86,23.33.72,35.04l7.87-.72v-35.04ZM324.18,257.47c.72-.8,1.15-14.47,3.94-17.88.85-1.04.62-.66,1.43-.02,1.17.92,3.71,6.43,4.28,6.44,5.15-4.84,12.77-10.3,5.72-17.14-1.85,6.65-12.12,7.43-14.83,13.06-.49,1.02-.34,2.94-.69,3.28-.32.32-1.55-.23-2.02.57-.29.49-.9,4.34-.69,4.54,4.85-.61,3.83,3.63-.7,1.44v5.72c1.14-1.23,3.44.14,3.56,0ZM452.85,229.58l-10-.71c.27,13.12-.79,26.35,1.03,39.37l8.98,2.1v-40.76ZM366.71,229.58c-3.97-.4-8.47.29-12.51,0,.24,1.38,1.49,1.18,2.47,1.46,3.3.95,6.35.88,9.72,2.43,15.08,6.97,12.89,30.99,15.7,44.72l1.42-1.42c-1.89,7.84.29,15.71.01,23.59,3.01-2.27,5.93-5.5,10-5.71l-7.15,4.63-4.28,5.36c.61.49,7.6-2.85,8.94-2.85h10.37l-10.75,1.76c-8.98,2.33-17.28,7.57-23.56,14.33-.14,1.86.28.76,1.23.51,6.82-1.75,11.65-3.63,19.05-2.94.8.08,3.95.32,4.02,1.34h-12.51c-9.25,0-25.4,11.59-32.75,17.29-6.1,4.73-12.26,10.22-14.8,17.74-1.49.08-.41-2-.15-2.65,1.51-3.75,4.31-6.95,6.59-10.2-2.46,1.2-11.16,2.45-12.7,3.73-1.29,1.07-5.72,23.53-7.91,26.84.76,3.7.12,7.85-1.52,11.28-1.78,3.73-3.32,1.66-5.06,2.8-1.71,1.12.64,5.13,0,7.1,31.66,6.36,85.82-.69,104.42-30.65,23.97-38.59,5.02-125.12-48.27-130.51ZM423.54,230.29h-6.43c-.32,1.23,1.02.44,1.36.79.29.3-.65.84-.65,1v29.67c1.05-.05,5.72-1.96,5.72-2.5v-28.96ZM416.39,231.01c-1.79.51-4.78.31-5.01,2.49.77,7.66-.11,16.9.7,24.34.39,3.55,2.75,7.29,5.02,2.84l-.72-29.67ZM171.92,231.72v26.81c0,.9,4.65,1.84,5.72,1.78l-3.78-22.31-1.94-6.29ZM186.21,231.72c-.23-.25-5.54,1.2-5.72,1.44-.11.14,1.18,2.55.73,3.57,3.46-.89,5.94-.74,5-5.01ZM374.21,268.18c.02-11.08-1.41-27.24-12.37-33.02-5.49-2.89-12.27-3.36-18.36-3.44.9,3.78,2.3,1.24,5.17,1.55,9.11.97,17.13,15.68,20.46,23.21l5.1,11.69ZM410.68,232.44l-5.72-.72v16.8l5.72,7.51v-23.6ZM316.3,243.16c.57-.49,3-5.16,4.1-6.07-1.02-1.43-2.08-2.75-1.95-4.65-4.28,1.37-3.6,6.68-3.57,10.37-.08.62,1.33.43,1.42.35ZM184.08,259.6l-4.64-24.29c-.83.95-4.48.82-4.71,1.88s2.74,19.42,3.26,20.31c.63,1.07,3.25-.52,4.65-.03-.46,1.74-4.95-.02-4.28,2.85l5.72-.72ZM312.74,235.3c-11.69,2.2-10.16,15.83-11.43,25.02,5.59-.36,3.6-.86,4.46-4.46,1.7-7.07,3.28-14.22,6.97-20.56ZM352.06,281.75c-3.81-13.29-6.35-32.15,3.56-43.24-2.16-1.68-7.17-4.74-9.2-2.06-6.19,8.14-5.91,25.18-3.29,34.59.62,2.21,3.67,11.33,5.72,11.48,1.1.08,2.14-.65,3.21-.76ZM364.93,235.3c7.52,6.85,9.77,17.01,10.71,26.82.2,2.07-.63,15.23,1.79,15.35.16,0,2.25-1.22,2.39-1.83-2.9-13.15.28-34.44-14.9-40.33ZM186.93,236.02c-1.59.42-4.87.77-5.06,2.49-.24,2.13,2.22,16.76,2.96,19.28,1.02,3.48,6.46,1.09,5.69-2.46h-3.58c-.16-1.51,2.49-.35,2.86-.72.83-.83-2.78-13.36-2.14-15.73h-2.86s2.14-2.85,2.14-2.85ZM345.62,286.78c2.24-4.15-.76-5.63-2.27-9.53-3.44-8.87-4.71-18.45-3.27-27.84l3.04-11.26c-1.14,2.01-7.34,9.88-9.3,9.87-1.46,0-3.08-4.33-3.75-5.38-.35-.55-.52-2.01-1.6-.92-.55.56-2.94,14.01-2.9,15.41.1,4.14,2.62,3.29,4.3,4.26,2.09,1.21,4.05,16.82,5.69,19.89l10.05,5.49ZM319.89,240.3l-4.64,5.71c-2.17-1.83-1.85-4.56-1.79-7.14-1.26-1.8-6.69,18.72-6.42,20.02l12.14-1.43c-.77-6.05,2.4-11.23.71-17.15ZM282.73,269.62c6.59-2.63,7.91-10.59,11.3-16.21l8.69-13.82c-5,3.25-9.64,7.3-13.59,11.78-1.45,1.64-8.47,10.51-8.93,11.86-.75,2.15,2.57,3.98,2.53,6.39ZM364.93,300.36c16.07-3.36,12.43-14.98,8.76-27-1.31-4.31-3.26-9.38-5.07-13.52-1.4-3.22-9.3-19.76-12.64-19.51-4.4,6.04-6.46,17.32-5.31,24.6.66,4.19,5.08,10.75,5.68,15.41,1.88.08,2.52-2,4.24-2.54s3.36-.33,5.04-.31l-5.71,2.85c2.88-1.13,5.05.08,7.86.73l-9.29.71c5.47,5.09,7.08,11.21,6.44,18.58ZM299.78,260.94c.62-.97-.05-12.43,1.52-14.91-3.4,4.22-8.27,11.76-9.99,16.82-.61,1.78.65.65,1.22.51,1.06-.27,7.04-2.09,7.25-2.41ZM255.55,247.46c-11.26,1.81-22.51,3.87-33.74,5.93-3,.55-6.76,2.38-9.63,2.39-5.3.03-15.53-6.13-20.51-4.65-2.43.72,1.55,6.67-.16,7.84-6.68,2.07-12.77,3.71-19.59,1.35-.11.91.44,2.34-.41,2.95-.53.39-11.72,2.7-12.89,2.7-3.39-.02-7.61-2.21-11-2.78v5.72s107.93-21.45,107.93-21.45ZM259.14,249.6l-111.48,20.77-.03,4.97,97.46-19.28c.85-4.44,3.45-1.67,5.68-2.26,1.6-.42,1.68-2.73,2.38-2.84,1.55-.24,3.94,2.19,5.99,1.49v-2.85ZM282.72,273.19c-3.46-12.68-18.2-18.07-30.02-18.95l6.43,3.93-7.86-2.85c.17,1.07,1.35,1.33,2.13,1.8,7.5,4.46,15.95,8.48,23.55,12.91,1.41,2.28,2.92,3.5,5.77,3.16ZM276.08,271.97l-28.03-16.65c-.54-.11-.46.69-.34,1.05,1.08,3.4,6.39,17.53,7.94,19.94,1.28,1.99,4.97,3.32,5.67,4.52,2.1,3.59,3.39,8.61,3.29,12.87-.02,1.03-1.04,1.7-1.03,2.59,0,.53,1.32,4.29,1.66,4.74l23.91,13.62-13.07-42.69ZM147.62,322.53c33.32-7.54,66.33-16.52,99.29-25.45l7.01-5.64c-1.4-3.55-4.38-10.51-3.23-14.16.41-1.3,2.14-1.53,2.02-3.65-.05-.83-5.57-14.8-6.09-15.44-1.19-1.47-4.41-.13-6.08.36-.03.97,6.71,1.22,6.45,3.57-.53,4.25.96,33.21-.69,34.36-.44.31-9.49,2.35-10.46,2.42-1.23.09-2.56-.84-3.4-.72-.54.08-.69,1.51-1.64,2.07-4.07,2.36-10.26-.28-14.2-1.98-1.3.11-1.18,4.71-1.76,5.89-.96,1.96-8.59-.15-10.58-.71-3.48-.99-10.03-4.69-12.83-5.06-1.39-.18-10.68,2.22-10.88,3.12.28,2.24,3.13,6.69,1.41,8.53-.67.71-4.94,2.52-6.08,2.53-2.95.03-5.45-2.44-8.23-2.88-.26,1.24.44,4.06-.1,4.9-.45.7-8.37,2.17-9.57,2.12-2.77-.1-7.44-2.74-10.33-3.45v9.3ZM323.92,259.9c-1.76-.88-2.25-1.12-4.35-1.03-5.13.22-15.88,2.57-20.95,4.12-4.3,1.32-11.85,3.74-11.61,8.76l38.6-9.29c.73-.57-1.49-2.46-1.69-2.56ZM244.83,261.05c-3.43-.61-6.38-2.01-10-1.43.69,1.36,4.07,1.87,5.43,2.06.89.12,4.4.71,4.57-.63ZM233.4,263.18c-4.46-1.61-8.23-2.38-12.86-.71l9.48,3.02c.53.22,1.95,1.3,1.95,1.62v30.39h1.43v-34.32ZM241.26,296.07c1.35.09,2.71-.05,3.89-.79,1.62-1.02.4-1.33.4-1.71v-31.1c-.89.96-4.29.5-4.29.72v32.89ZM229.11,266.05c-.54-.51-13.22-3.91-14.29-1.79,4.19.7,8.93,3.76,13.22,3.23.98-.12,2.13-.45,1.07-1.44ZM329.12,263.24l-40.38,10.66,11.92,42.85c4.59-1.5,37.14-5.45,38.22-7.06.58-.87-.04-4.03-.45-4.3s-3.74.96-4.96-.02l-.39,2.2-28.86,4.68c-2.21.23-.71-1.82-.92-2.76-.24-1.06-1.15-1.81-1.2-3-.06-1.43,1.17-3.62.64-5.4l.71,7.14,5-1.42c-.93,1.68-4.53,1.48-4.28,4.28l14.29-2.15c.24-.16-3.84-4.27,1.42-.71l-.7-5c2.59.75,1.39,2.5,1.68,3.44.04.14.88.11.95.27.16.35-.66,1.17-.5,1.29.44.32,8.92-2.46,10.72-1.43,1.75-1.37-5.47-3.61-6.43-2.86-.17-1.31,3.75-.2,2.14-2.12-.53-.63-4.31-1.21-3.58-4.31-4.16,2.12-5.83.53-.71-.72-1.54-1.59-.82-7.08.66-8.28,2.36-1.92,9.32-.88,10-2.9.94-2.78-4.53-18.37-4.99-22.37ZM239.83,263.9h-5v33.61c.77.21,5-.46,5-.72v-32.89ZM224.82,268.19c-1.39.11-16.43-5.56-16.45-3.22,2.15,1.03,11.4,3.17,12.05,5.12,1.34,4.03-4.19,21.59-4.23,26.97l8.26,2.6.37-31.47ZM217.67,268.91c-4.71-.51-8.78-3.76-13.57-3.58-.36,2.02.48,1.17,1.57,1.61,2.55,1.02,6.88,2.21,9.59,2.61.75.11,2.6.6,2.42-.63ZM179.79,299.65c2.53-.81,10.86-1.47,12.1-3.27l5.04-29.63-31.44,6.44,8.93,3.57,5.37,22.88ZM211.92,269.65c-4.65-.2-8.75-3.29-13.46-2.81-.48,4.25-6.23,29.35-4.99,31.28l13.13,5.1,5.32-33.57ZM230.54,268.19c-1.01-.12-5-.19-5,1.07v31.1c.88-.11,5-.94,5-1.79v-30.39ZM462.11,275.37l-44.99-7.19,1.59,4.83c13.99,2.07,28.32,5.51,42.42,7.29,1.75.22,1.16-4.74.98-4.93ZM219.1,271.06c-.18-.22-5.26-1.01-5.66-.67-1.05.89-3.27,23.81-4.77,27.07-.56,2.09,5.87,1.67,6.11,1.43.87-.84,3.02-21.01,4.14-23.95-.36-2.03-4.35-.05-4.81-1.75h5c-.1-.6.16-1.93,0-2.14ZM171.92,276.78c-4.4-.43-8.53-3.97-12.86-2.14l9.04,4.08c.86.27,4.36-1.25,3.82-1.94ZM287.71,274.64c-.49-.48-7.55,1.65-9.27-.73.18,6.93,4.16,7.16,10,5.71-.25-.82-.55-4.81-.73-4.98ZM164.77,278.21c-2.82-.3-5.56-2.54-8.3-2.83-1.53-.16-10.23.46-6.42,2.17,3.55,1.59,7.54,2.34,11.42,1.99.71-.06,3.37-.29,3.29-1.33ZM439.26,278.21l-19.29-2.87,4.29,17.87c1.53-.94.77-4.2,1.8-5.69,1.39-2.02,5.7-.47,4.74-5.62l8.45-3.69ZM259.84,283.92c2.16-2.37-6.28-4.61-5.73-7.15-6.98,3.34,5.09,7.84,5.73,7.15ZM156.2,314.66v-33.25l-8.58-3.93v35.04l8.58,2.15ZM181.12,309.56c.83-1.34-7.13-26.78-7.41-30.66l-6.08.73,7.93,31.4c.93.5,5.32-1.08,5.57-1.47ZM366.36,301.79c-.36.41.27,8.48,0,10.01,5.44-.39,14.1-4.46,14.95-10.43.72-5.08.02-16-.85-21.22-.51-3.06-3.17-2.8-2.93.04.57,6.61,3.25,12.7-3.06,17.92-2.19,1.81-7.81,3.35-8.11,3.68ZM446.41,278.92l-5.03.32-7.11,3.24c3.78.6,6.99-.88,10.47-2.06,1.11-.37,2.04.63,1.67-1.5ZM166.2,279.63l-9.29,1.43v34.32l9.29-1.43v-34.32ZM457.85,281.07c-5.63-1.15-10.77-1.89-15.01,2.85l8.17.68,6.84-3.53ZM289.15,280.34l-8.57,1.07c1.95,2.91,5.58,1.53,8.57,1.81.15.96-2.86,1.22-3.41,1.23-1.54.03-3.19-.96-4.44-.17l7.53,23.93c1.05,2.21,8.26,2.28,8.08-.18l-7.76-27.68ZM462.14,281.77l-2.88.34-5.69,3.23,8.57,1.44v-5ZM350.63,302.52c1.01,3.4,8.38,2.28,10.4.74,5.39-4.08,1.01-22.14-7.57-20.48-.64.12-6.17,2.33-6.41,2.58-.05.06-.26,1.51.34,1.4,6.64-2.09,8.6,10.81,6.98,15.56-.1.31-1.21,2.23-1.62,1.24l.36-1.78-2.49.73ZM437.84,283.92c-7.59-2.72-9.86,2.19-1.42,3.22l-5.01-.36v31.46c0,.32,5.63.83,6.43.72v-35.04ZM261.99,288.2c2.49-2.47-7-4.07-8.57-4.28-1.31,3.55,7.98,4.87,8.57,4.28ZM325.25,291.78c2.79.69,7.96-.51,11.08,0-.42,1.24-3.73,1.82-4.83,1.96-2.44.31-4.87.17-7.32.19,1.46,4.33,9.22,2.74,12.86,2.15-2.58,3.34-7.81,1.8-11.44,2.15,2.96,3.05,8.26,3.15,12.15,2.14.29,1.99-.34,1.33-1.77,1.43-2.25.15-4.55-.11-6.8,0,7.22,6.74,16.09-3.26,24.31-1.43.24-2.92-1.09-11.88-4.66-12.17-1.48-.12-2.54,1.06-4.66.44-2.56-.75-4.31-5.37-7.84-4.71-.55,1.22,1.76,2.42,1.42,2.85-1.12,1.44-9.39,1.87-11.47,2.48-1.54.45-2.87,2.08-1.04,2.54ZM451.42,286.06l-10.72-1.43v34.68c0,1.04,10.72,3.46,10.72,1.43v-34.68ZM167.63,286.06v22.88c0,.3,4.92,1.55,5.72,1.8,1.06.34.69.67.74-.74l-6.45-23.95ZM462.14,287.49l-10.01-1.43v35.39c0,1.31,8.47,2.17,10.01,2.5v-36.47ZM254.84,288.93c.44,3.04,8.52,3.84,8.56,1.78.03-1.26-7.23-1.47-8.56-1.78ZM427.83,300.36c.71-4.06,2.08-7.51,2.15-11.44-.84.15-3.25-.24-3.57,0-1.67,1.27,1.95,1.3,1.42,2.13-.66.08-2.06-.37-2.19.4-.78,4.5-.15,9.4.06,13.91l2.14-5c-.7,4.05-1.78,8.01-1.43,12.15.17.17,3.57-.53,3.57-.71v-16.45h-.71c-.21,1.57,0,4.3-1.44,5.01ZM261.86,296.92c-.45-.39-3.42-.3-4.85-1.23-1.01-.66-1.53-2.58-1.81-2.47-.92.37-7.38,5.42-8.56,6.45-18.5,16.26-25.08,45.66-8.61,65.77,1.66,2.02,10.03,10.03,12.18,10.03,2.43,0,2.39-6.22,6.77-4.32.83-3.25-2.23-1.99-3.98-3.53s-1.42-9.92-.23-11.79c.5-.79,1.88-.93,2.08-1.63.68-2.48.49-16.37.7-20.59.17-3.46-.62-7.16.72-10.35l-5.71,1.07c.92-1.71,4.82-1.79,5.55-2.67.38-.46,1.33-4.47,2.18-6.04,1.33-2.47,2.98-3.45,4.42-5.59l-5.12-2.05-7.76-1.17c2.66.11,5.4-.29,8.05.16,2.11.36,4.71,2.42,6,2.53,1.78.16,4.58-2.73,6.67-2.71-1.45-2.21-4.24-2.27-6.11-4.25-1.55-1.64-2.37-5.42-2.6-5.62ZM214.03,300.43c-.34-.5-4.99-1.19-5.56-.69-.21.18-.63,2.79-.8,3.48,1.54-.51,4.16.98,5.27.67,1.2-.33,1.58-2.73,1.09-3.46ZM439.27,299.65h-.71v18.59h.71v-18.59ZM242.69,300.37l-95.04,23.62-.03,5.69,90.49-24.24,4.58-5.06ZM360.63,305.37c-2.65,1.02-8.48,1.44-10.68-.4-1.39-1.17-.74-2.95-3.79-2.34-.37.07-6.04,2.48-6.25,2.75-.13.17,1.29,2.75,1.39,4,.08.92-.74,2.3-.67,2.4.6.87,17.48,6.33,20,7.18,1.73-4.54.07-8.99,0-13.59ZM364.92,302.51c-3.8.19-2.28,10.03-1.07,10,1.82-.05.85-8.42,1.07-10ZM147.62,331.11v15.73c27.33-9.41,54.75-18.64,82.38-27.17l6.26-11.79-88.65,23.23ZM282.72,327.53c-.67-.5-2.08-.64-2.15-.73s.65-2.05.73-2.13c.12-.12,1.94.82,3.19.78,1.69-.05,3.25-.74,4.99-.81,2.91-.13,8.26.61,10.61.04.41-.1,4.5-5.61,5.51-6.44-3-.62-5.5,1.76-8.33,1.88-4.92.22-8.49-3.94-12.64-6.3-5.81-3.31-9.25-6.93-15.97-4.29-6.77,2.66-9.81,7-10.88,14.14l-1.47,31.71,17.06,2.84,4.34-27.11c-.36,9.22-2.27,18.38-3.58,27.51.03.78,2.8.49,3.27-.31l3.9-26.5,1.42.72c.07-1.66-.07-3.35,0-5.01,1.93,1.44.97,3.01,1.78,5,4.85-4,15.17,1.16,14.66-7.14-2.07.17-15.79.22-16.44.71-.09.07.02,1.01,0,1.43ZM297.73,310.38c-.48-.49-3.11.64-4,.64-1.51,0-3.29-1.18-4.57-.29,1.46,2.11,6.03,3.02,8.1,1.8.74-.44.67-1.95.48-2.15ZM343.47,318.95c-2.89-2.3-1.84-6.39-6.76-6.45-5.61-.07-21.49,3.16-26.59,5.62-4.1,1.97-6.75,4.28-8.72,8.44-2.59,5.45-7.04,30-7.26,36.42-.03.87-.11,1.68.37,2.47.87,1.43,15.13,5.46,17.07,5.03.83-.19-.01-1.78,1.16-1.47-.22,1.4-.07,3.1,1.45,1.8,1.89-1.62,8.58-25.94,8.62-29.33.02-1.81-.98-3.51-.76-5.35l2.13,4.28c.54-2.86-.88-5.2-1.42-7.86,2.56,1.7,3.11,5.06,2.86,7.86.53.65,14.65-4.35,15.98-5.1,3-1.7,13.64-9.47,14.93-12.24.33-.72,1.37-4.18-.52-3.38-.64.27-3.81,4.72-5.43,6.01-2.23,1.78-5.64,3.75-8.51,3.99l8.2-5.02c1.2-.99,3.47-3.24,3.94-4.64.64-1.91-1.14-.41-1.29-.49-.14-.08-.16-1.07-1.02-1.5-1.41-.7-4.14-1.92-5.57-2.34-2.17-.64-2.5,1.59-3.92-1.72l1.07,5ZM298.44,313.23c-1.37-.15-2.63.72-3.96.76-1.55.04-4.21-1.72-3.9.32.77,5.12,11.29,6.21,7.87-1.07ZM361.35,321.09c.59.49,2.62-.89,3.22-1.42.53-.47,5.11-5.97,4.64-6.44-1.44,1.21-5.31.14-6.12,1.38-.89,1.36.44,4.83-1.74,6.48ZM429.97,313.24c-3.74-1.57-4.67,4.98-3.5,6.36s31.52,5.83,35.66,7.94l-1.18-2.74-20-3.57c-1.91-2.73-2.56-.73-4.83-.89-9-.63-5.22-6.11-6.15-7.09ZM462.14,328.26l-35.73-7.15c.02,1.54-.52,3.54,1.2,4.15l34.53,7.29c-.15-.9.24-4.04,0-4.29ZM229.1,321.82l-81.41,26.52-.07,6.36,80.27-27.86,1.21-5.02ZM462.05,334.78c-.99-1.53-31.44-6.58-35.65-7.96.23,1.54-1.47,6.13-.65,7.09,1.24,1.46,31.87,6.25,36.04,8.63.2-1.54.97-6.65.25-7.76ZM227.67,328.25l-79.62,27.81-.43,5.08c15.98-6.49,32.21-12.5,48.42-18.41,4.23-1.54,30.35-9.79,31.28-11.61.32-.62.59-2.6.34-2.87ZM297.73,331.83c-5.1.08-10.16,1.21-14.91,2.95-.28,1.47.05,2.97-.19,4.46-.83,5.19-3.35,14.13-3.43,18.76-.06,3.91,1.71,6.11-.11,11.31-1.27,3.62-4.11,2.05-4.28,2.95-.1.52.7,10.07.87,10.57.43,1.31,10.29,4.29,11.57,4.1.56-.09,1.85-3.51,2.95-4.38.78-.62,2.36-.46,2.56-1.07,1.19-3.69-4.6-2.32-4.68-6.81s1.87-8.95,4.48-12.61l5.16-30.22ZM226.96,333.26l-78.2,28.67c-2.27,1.78-.8,8.98-1.03,11.97,38.88,22.69,79.53,41.96,120.38,60.85l100.59-.12c24.8-14.66,49.72-29.22,74.09-44.59,4.27-2.7,14.9-8.45,17.89-11.42,2.48-2.45,1.51-6.42,1.11-9.61-4.47,2.19-12.32,7.88-16.8,8.99-.85.21-1.23.47-2.14-.02-1.38-.74-12.88-20.58-12.88-22.2,10.65.29,21.34,5.16,31.81,7.51.57-.04.82-6.68-.34-7.53l-38.2-9.69c-3.34,11.09-9.65,21.31-18.98,28.29,0,.64,9.31,3.85,10.41,3.9,2.1.09,11.47-3.76,12.44-2.82.31,1.82-2.18,6.45-1.34,7.77.3.47,11.05,4.06,9.21,5.81-3.45.86-10.7.88-13.55,2.54-1.7.99-5.49,9.61-6.82,9.61-2.48-1.54-4.75-8.65-6.79-9.64-2.26-1.1-11.1-.23-14.3-1.08.56-2.87,9.23-5.49,9.89-6.54s-.6-7.69-1.67-7.74c-22.01,15.33-48.61,19.65-75.09,18.6-3.02-.12-13.79-2.01-15.62-1.51-.85.23-.95,4.49-1.54,5.73-2,4.15-16.9,10.36-21.6,11.28-9.46,1.87-24.81.63-13.72-11.58,3.21-3.54,8.04-6.55,11.41-10.03-1.29-.68-9.58-2.95-10-2.5-.46.49,1.33,3.36-2.14,4.66-5.25,1.98-14.33,1.78-20.03,2.49l1.4,15.44-1.15,1.62-34.56-4.91c-.02-.97-.24-1.39.48-2.18,2.33-2.58,13.79-7.08,17.39-9.27-.56-1.28-3.02-.82-4.48-1.58-9.1-4.67,11.68-13.92,15.21-14.87.88-1.2-4.69-4.41-5.72-5.34-4.89-4.42-8.65-9.29-11.57-15.23-4.63,1.35-22.58-3.37-24.56-7.31s10.58-7.74,13.12-8.36c1.87-.46,7.72-.64,8.01-.92.27-.26-.2-5.96,0-7.15ZM462.07,344.05c-1.21-1.41-31.83-6.5-36.07-8.48-.78.16-1.65,3.3-1.56,3.81.33,1.83,31.84,7.85,35.98,9.55l1.71.06c-.21-1.1.38-4.42-.07-4.94ZM226.96,341.12c-3.18-.22-20.86,4.36-20.01,8.2.54,2.46,19.54,8.23,22.88,6.09-1.92-4.49-3.14-9.38-2.86-14.29ZM424.06,340.5l-1.07,4.11,39.05,10.17,1.07-4.11-39.05-10.17ZM278.41,361.17l-24.27-4.32-.04,8.82c.24,1,8.47,2.69,10.01,3,1.64.33,11.08,1.89,11.73,1.7,1.68-.49,2.47-7.39,2.57-9.21ZM462.14,364.01l-30.01-7.15c-.86.82,10.57,20.46,11.78,20.56,2.13-1.49,17.59-8.37,18.12-9.23.27-.45.26-4.02.11-4.17ZM312,372.61c-7.04-.89-13.6-3.57-20.27-5.79-.69.11-1.95,6.62-1.86,7.54.38,4.11,16.25,7.1,20.01,7.52l2.12-9.27ZM273.39,371.9c-.52-.55-12.99-1.72-14.97-2.18-.26,2.34,2.79,2.26,3.91,3.59.92,1.09.83,3.42,1.52,3.61,1.16.32,8.19.01,9.15-.68.71-.52.57-4.12.37-4.33ZM274.14,377.59c-2.32.75-11.17,1.89-12.53.02-.5-.69-.12-2.26-1.03-3.26-1.55-1.69-7.37-2.59-7.11.75.06.82,6.44,2.92,4.23,5.34-1.17,1.28-3.64-2.56-5-2.13.09,1.01,2.85,2.76,2.85,3.21,0,.13-1.65,1.77-1.77,1.77-.49.01-1.76-2.7-3.22-2.13,1.95,1.92,1.91,3.69-1.1,3.53-2.2-.12-3.09-4.12-5.33-3.18,2.47.71,3.15,7.09,3.66,7.42,2.7,1.76,21.92-2.16,26.36-2.05v-9.3ZM315.6,372.58c-.1-.1-2.74-.1-2.84,0-.11.11.04,2.19-.19,3.02-.3,1.08-2.26,5.99-1.97,6.27,2.58,2.41,5.73-8.59,5-9.29ZM250.91,434.79h13.94l-6.18-3.47c-37.97-16.5-74.7-35.47-110.69-55.88-1.36,5.01-.32,5.71,3.45,7.99,31.44,19.05,66.92,34.18,99.48,51.36ZM425.68,376.88c-3.84.03-7.15,2.3-11.08,2.2s-7.22-2.72-11.08-2.92c3.67,10.11-1.09,8.11-7.15,13.57,3.18.24,10.22-.54,12.86,1.09,1.29.8,3.56,7.55,5.37,8.91.89,0,4.49-8.51,5.85-9.32,2.42-1.44,9.33-1.54,12.37-2.11-4.99-4.92-10.89-2.22-7.15-11.43ZM372.08,434.79h15.37c2.02,0,30-18.87,34.18-21.59,13.24-8.62,25.84-18.27,39.49-26.28,1.91-1.86.76-5.42,1.03-7.9l-90.06,55.77ZM308.46,383.31c-.13-.13-2.73,0-3.73-.2-3.74-.72-6.89-2.2-10.56-2.66-.9,3.32,4.06,2.19,5.77,4.59.87,1.22.55,3.15.66,3.27.46.49,7.09-.94,7.75-2.62.19-.47.21-2.3.11-2.39ZM246.98,389.74c-.19-2.07-1.77-7.32-4.03-7.74-1.39-.26-8.97,4.41-10.25,5.96-.02,1.55,12.61,2.03,14.28,1.78ZM228.75,434.79c5.11,1.05,13.44-.77,18.94,0l-100.07-52.2c.43,3.15-1.16,7.61,1.14,9.93,1.52,1.53,11.89,6.98,14.54,8.33,10.71,5.47,22.13,10,32.93,15.68,6.51,3.43,27.47,17.22,32.51,18.25ZM299.16,389.74c-.57-.6,1.69-4.69-4.83-5.57-3.01-.41-4.07.3-4.47,3.42,1.86,0,8.01,1.92,7.85,3.94-.21,2.64-6.49-1.11-7.8-1.48-.69-.19-2.36-.91-2.18.4,1.62.47,5.35,1.38,6.41,2.53,3.04,3.3-1.46,2.1-2.03,2.59-.35.3-.05,2.27-1.17,2.75-1.47-1.17-3.34-2.89-5.16-3.41-.64-.19-3.84-.79-3.78.56,3.84-.19,6.59,2.31,8.89,5.05,1.24,1.48.77,3.7,3.28,3.26,1.74-.3,13.76-6.89,14.16-8.07.65-1.91-.2-5.24.11-7.39-1.6.56-8.43,2.34-9.29,1.43ZM274.14,387.6c-13.18,2.45-26.46,3.61-39.88,2.34-.79-.07-2.43-.84-2.29.5,12.4,3.2,25.51.63,38.02-.92l4.15-1.92ZM389.95,434.79h16.8l54.35-37.87c2.05-2.31.68-6.36,1.04-9.32l-72.19,47.19ZM253.41,409.76c-.47-4.25.02-10.67-.71-14.66-.59-3.23-3.74-1.06-6.04-1.05-2.57.02-5.03-.2-7.56-.43l-17.85,9.7c-.16,1.88-.07,1.18,1.08,1.39,10.3,1.91,20.88,2.53,31.07,5.03ZM147.62,394.03v40.76h77.2l-77.2-40.76ZM292.01,404.75c-4.72-11.16-15.07-11.36-19.29.34,5.68,3.59,13.29,1.33,19.29-.34ZM285.94,407.62c-3.14.37-7.41,0-10.72,0-.19,0-4.76-1.33-1.79.36,8.19,4.69,26.63-3.21,33.54-8.65.3-.24,2.07-1.39,1.13-1.73-6.6,3.47-14.62,9.12-22.15,10.02ZM462.14,434.79v-36.47l-52.18,36.47h52.18Z"/>
        <path d="M373.49,393.32c.68,1.5,2.73,8.43,3.55,8.97,2.01,1.31,12.02.68,15.04,1.76-1.53,3.43-11.21,5.27-12.55,7.87-.64,1.25,1.18,7.85.4,9.99-.94,1.07-11.38-7-13.2-7.1-2.29-.12-14.59,6.45-15.39,5.67l5.54-11.09c-.09-.99-8.38-6.18-8.39-7.14-.03-2.36,9.5-.41,10.98-.43.79-.01,4.26-.57,4.92-.81,1.98-.72,7.73-8.67,9.09-7.69ZM364.57,402.61c-3.03.86-9.72-.63-13.22,0,.66,1.99,6.86,5.22,6.98,6.78.05.7-4.59,7.25-4.83,8.94.94.77,11.15-4.99,13.11-4.84,2.58.21,9.19,6.15,12.26,7,.5-2.19-1.3-8.21-.23-9.9.21-.33,5.84-2.65,7.04-3.32,1.05-.58,3.16-1.41,3.56-2.51-9.04-.66-14.55.56-16.45-10.02-.64-.47-7.28,7.6-8.21,7.86Z"/>
        <path d="M218.39,367.58c-2,2.89-6.24,4.06-9.29,5.73.74,1.7,6.72,8.68,5.71,10-3.97-.88-11.7-5.05-15.39-4.92-1.82.07-12.79,7.09-14.27,7.05-1.31-.04-.64-1.35-.54-1.94.29-1.63,3.35-7.93,2.75-8.81-1.33-1.24-10.77-3.79-11.14-4.26-.69-.87.72-1.94,1.79-2.13,3.65-.66,9.5-.15,13.43-.7,1.56-1.22,4.11-7.22,5.86-7.21,1.55,0,4.28,5.65,6.58,6.34,3.35,1,10.52-.29,14.51.87ZM216.24,368.29h-13.22c-.43,0-4.37-5.85-5.72-6.42-2.19,1.14-3.9,6.4-5.85,7-3.21.98-8.73-.7-12.37.86,1.32,1.95,7.97,2.67,8.95,4.27,1.62,2.63-2.15,6.37-1.8,9.31.5.63,11.63-6.02,13.2-6.12,2.38-.14,12.64,4.46,13.24,3.97l-4.86-7.51,8.44-5.35Z"/>
        <path d="M232.68,44.39v32.89l-38.12-2.98c-2.58-.86-.51-7.79-.44-10.21.22-7.77.35-16.42-.75-23.98l39.32,4.28ZM194.8,41.53v31.1c0,1.14,4.25,1.4,5.28,1.12.88-.24.27-2.79,1.86-2.9l-.71,2.85,30.01,2.86v-31.46s-36.45-3.57-36.45-3.57Z"/>
        <path d="M161.2,130.55c-.1.93-1.28,2.46-.72,3.93l-1.18-1.04,1.19-31.84c2.16-.35,1.14.54,1.44,1.74,1.38,5.48.92,12.87,1.41,18.64h1.44s-2.15,1.79-2.15,1.79c-.15-4.67-.54-9.27-.72-13.95-.03-.88.54-2.66-.72-2.49-.57,7.43.78,15.94,0,23.24Z"/>
        <path d="M165.49,147.34c-1.98.3-1.34-.33-1.43-1.77-.75-12.67-1.97-13.72,3.22-25.39,1.62-3.64,2.06-8.22,6.06-10.73-.72,6.54-8.07,12.99-9.11,19.12-.9,5.27.93,13.26,1.26,18.77Z"/>
        <path d="M174.06,124.47l-1.42,8.57v-4.28s-.73,2.85-.73,2.85c-1.22.19-.77-1.72-.65-2.43.09-.56,1.43-6.35,2.8-4.71Z"/>
        <path d="M151.9,120.89c-1.8.35-1.26-.34-1.8-1.38-.87-1.7-1.5-3.87-1.77-5.76,2.37,1.36,3.75,4.49,3.56,7.15Z"/>
        <path d="M171.21,86.56l-6.16-2.09-5.99-.03c3.9-1.26,9.43-1.31,12.15,2.13Z"/>
        <path d="M214.81,87.29l.71,10.01c-1.16-1.78-5.82-4.66-6.42-6.09-1.22-2.89,3.84,1.27,4.28,1.8.5-1.57-1.32-6.28,1.43-5.72Z"/>
        <path d="M217.67,104.8c-.11-1.05-2.03-3.24-1.44-5,.89-.77,1.74,3.56,1.82,3.9,1.52,7.06-.16,14.3-.38,21.47l-2.15-2.49,1.43.36c-.61-1.34.72-3.29.72-3.94,0-4.44.46-10.05,0-14.3Z"/>
        <path d="M227.18,105.7c.09.21,3.58.73-.93,2.32l-.71-2.86-.71,5c.14-3.82-.53-7.75.72-11.43l1.64,6.97Z"/>
        <path d="M219.82,118.03c-.51-4.57.65-10.32.05-14.71-.18-1.37-1.49-.96-1.5-1.43-.02-.57,1.31-9.6,1.8-9.61.69,1.81.33,4.15.38,6.12.16,5.75.24,11.53.39,17.5.03,1.08.34,1.76-1.12,2.13Z"/>
        <path d="M204.08,118.04c.3.29,2.93,6.72,2.86,7.86-1.32.32-.26-1.49-1.07-1.43-.26.02-.6,3.29-3.21.36l2.15-.72-2.15-5.72c-.1-.61,1.35-.4,1.41-.34Z"/>
        <path d="M209.61,108.94l3.77,9.81c-2.65-2.02-3.32-6.19-5.09-8.87-.7-1.06-1.93-1.02-2.05-1.15-1.77-1.98,2.37-1.36,3.37.21Z"/>
        <path d="M220.54,129.48l1.42.34-2.14.72c-.75-7.26,1.09-13.83,6.43-18.95-2.77,6.07-6.97,10.53-5.71,17.88Z"/>
        <g>
          <path d="M372.07,331.83l-2.17.39-13.55-3.25c5.4-.36,10.61,1.39,15.72,2.86Z"/>
          <path d="M335.98,107.31c-.3.03-3.42.69-3.21,1.42,2.97.05,7.46.12,9.29,2.86l-9.29-.7,2.14.71c1.27.95-10.34,3.58-11.43,3.58l6.43,1.41-10.72.72c2.42-2.89,7.01-4.05,10.72-4.29l-6.42-1.41,7.85-.73-5.71-.71c-1.94-1.43,16.12-4.86,17.15-3.58-.39-1.76-5.2-1.08-5.72-1.43,1.96-2.83,7.44-.87,10.72-1.42l-5.71.72,4.29,2.85c-3.33.26-7.1-.36-10.37,0Z"/>
          <path d="M305.59,101.59c1.08,1.03-3.47,3.43-2.85,5l6.07-3.57c2.39-.77-4.71,6.1-4.96,6.48-1.32,1.93-3.04,5.54-2.19,7.82,1.71-1.29,1.89-4.13,4.65-3.56-3.7,4.51-2.73,7.77-1.74,12.82.14.73.93,2.35-.39,2.18-1.78-3.81-1.93-7.38-.73-11.43l-2.85,2.14c.06-1.96-.24-3.96.16-5.91.43-2.13,2.48-3.44,2.69-5.53-1.98.09-2.36,4.55-4.28,3.22,1.02-.84,3.8-12.16,6.42-9.66Z"/>
          <path d="M356.35,123.76l-2.14,1.41c3.66.96,6.7,3.61,8.57,6.81l-2.14.71c1.74,2.79,4.31,5.41,4.28,8.94-2.03-1.79-3.93-.17-4.99-3.22l3.58.71c-1.69-3.59-4.26-6.63-7.15-9.29h3.57s-8.57-5.37-8.57-5.37l4.99-.7Z"/>
          <path d="M375.64,121.61l-2.13-5.72c3.78,1.58,3.18,2.93,3.57,6.43-2.32,1.59-9.54-5.41-8.57-6.43l7.13,5.72Z"/>
          <path d="M348.48,118.76c.16,1.31-1.52.62-2.3.52-4.19-.56-7.05-1.62-11.66-1.26-2.81.22-5.39,1.76-8.2,1.1,7.07-2.79,14.95-2.18,22.16-.35Z"/>
          <path d="M305.6,97.3l5.71-2.85c-.88,1.15-6.76,6.81-7.86,5.71-.05-2.47,1.48-4.8,3.22-6.43l-1.07,3.57Z"/>
          <path d="M317.39,210.99c2.35-.3,6.14-2.16,8.57-2.87,1.34,1,.38,1.15-.54,1.61-4.14,2.07-11.26,3.14-15.82,2.62-.7-.08-2.69-.31-2.56-1.36,3.3-.29,7.16.41,10.37,0Z"/>
          <path d="M378.5,183.81c-3-1.65-5.76-.63-7.47,2.18-1.11,1.83-.41,4.52-2.53,4.26-.24-4.3,3.49-9.41,8.2-8.6,1.22.21,2.03.81,1.8,2.16Z"/>
          <path d="M312.02,201.7c.21,1.18-1.8.82-2.5.72-4.01-.55-6.68-4.02-2.5-6.45-1.82,4.34,1.08,5.32,5.01,5.73Z"/>
          <rect x="325.2" y="332.53" width="12.88" height="1.17" transform="translate(-88.1 121.53) rotate(-18.37)"/>
          <path d="M297.02,284.63c-.88-1.58-3.04-6.25-2.05-7.78.82-1.28,28.04-7.66,29.48-7.19s2.67,8,2.58,9.94l-29.95,6.37c-.27-.41.06-1.13-.06-1.35.06.14,1.22.7,1.64.58l27.68-6.31c-.48-1.83-.95-8.52-3.05-8.44-2.37.09-7.8,1.74-10.54,2.36-2.16.49-16.6,3.98-17.12,4.7-.21.29,1.25,6.78,1.4,7.11Z"/>
          <path d="M278.98,171.85c6.74-1.06,24.11-1.83,25.2,7.3s-1.93,19.12-11.89,20.32c-10.24,1.23-16.63-.91-19.24-11.34-1.65-6.58-2.51-14.96,5.93-16.28ZM294.52,173.09c-4-.53-10.01,0-14.3,0-.11,0-1.74.74-1.78,1.13,2.5,4.6.86,19.45,2.83,22.67.96,1.57,9.2,1.41,11.03,1.16,6.67-.92,9.85-6.97,10.42-13.17.63-6.8-.93-10.82-8.21-11.79ZM277,174.52c-4.02.12-3.14,8.16-2.85,11.07.38,3.73,2.04,7.93,4.99,10.38-.23-7.19-.78-14.4-2.14-21.45Z"/>
          <path d="M327.61,171.16c6.99-.79,23.11-2.41,24.38,6.65s-.54,20.25-11.08,21.68c-12.46,1.7-21.91-2.14-23.7-15.49-1.21-9.01,1.62-11.84,10.39-12.83ZM328.32,172.59c-8.51.91-10.95,2.99-9.39,11.83,2.13,12.07,10.37,15.27,21.86,13.51,9.47-1.45,10.79-11.43,9.85-19.49-.94-8.05-16.19-6.5-22.32-5.85Z"/>
        </g>
        <path d="M451.42,261.76c.06.06.27,1.51-.35,1.41-1.36-1.32-6.81-3.01-6.09.36.21.96,5.92.34,6.43,1.78-1.03.13-6.86-.49-7.11-.74-.34-.35.14-3.32-.03-4.25,1.33.59,6.57.84,7.14,1.44Z"/>
        <path d="M444.27,288.92c1.42-.07,2.87.04,4.29,0v7.87c-.32.31-6.04-.41-6.36-.79-.52-.61.2-6.33-.08-7.79,2.27-.57,2.02.65,2.14.72-.47.02-.96-.04-1.43,0,.21,1.2-.33,6.02.04,6.4.18.18,4.11.53,4.96.75-.17-1.11.26-6.2,0-6.44-.23-.21-2.35.19-3.17.03-.62-.12-.38-.72-.41-.74Z"/>
        <path d="M459.99,290.36c.31.3-.21,7.22,0,8.57-7.88-.51-6.57-2.26-6.43-9.29,1.05.3,6.19.5,6.42.72ZM459.28,291.08c-.17-.16-4.35-.6-4.66-.05-1.14,5-.85,6.9,4.67,6.48-.18-1.14.27-6.18,0-6.43Z"/>
        <path d="M164.77,283.21c-.23,1.27.36,6.71-.03,7.11-.2.2-4.76.65-5.68.75.19-1.21-.29-6.87,0-7.14.21-.2,4.76-.3,5.71-.72ZM164.06,284.63h-4.3s.01,5.72.01,5.72c.92-.9,4.12-.57,4.28-.72.25-.23-.16-4.03,0-5.01Z"/>
        <path d="M357.78,64.41v15.02c-1.56-.19-5.24.6-6.12-.67-.59-.85-.55-11.92.04-12.92.91-1.54,4.42-1.52,6.08-1.42ZM352.77,65.84v12.87h4.29v-12.87h-4.29Z"/>
        <path d="M433.55,240.3v-11.44c6.38-1.46,5.39,4.25,5.04,8.97-.35,4.67-1.45,2.55-5.04,2.47ZM434.27,229.58v10.01h3.58c-.62-3.74,2.21-10.98-3.58-10.01Z"/>
        <path d="M236.25,222.42v6.44c-7.36,1.5-6.74-7.13,0-6.44ZM235.54,223.14c-5.1-.45-2.87,8-.34,4.3.71-1.04.24-3.04.34-4.3Z"/>
        <path d="M216.88,280.98c-.58.49-3.91.18-4.1-.97-.04-.24,1.17-4.48,1.37-4.61,3.41-2.31,4.33,4.23,2.73,5.58Z"/>
        <path d="M173.33,281.07c.23,2.14,1.76,5.48,1.48,7.48-.43,3.16-4.38,1.99-3.6-1.05,1.09-.2.77,1.24,1.41,1.8,2.2,1.92.54-6.58,0-7.52l-2.14,3.57c-1.17.23-.85-2.58-.73-3.09.21-.89,2.67-1.26,3.58-1.19Z"/>
        <path d="M228.39,273.91v21.45c-.46.05-1.43-.95-1.43-1.07v-20.38h1.43Z"/>
        <path d="M362.79,78.71l1.64,10.86,1.2,2c1.49-4.45.81-8.81.69-13.2-.02-.8-.45-2.71.74-2.52.75,5.54,1.26,12.23-1.78,17.14-2.21,0-2.92-12.31-2.49-14.28Z"/>
      </g>
    </g>
  </g>
</svg>