<?xml version="1.0" encoding="UTF-8"?>
<svg id="Capa_2" data-name="Capa 2" xmlns="http://www.w3.org/2000/svg" xmlns:xlink="http://www.w3.org/1999/xlink" viewBox="0 0 603 452">
  <defs>
    <style>
      .cls-1 {
        fill: none;
      }

      .cls-2 {
        clip-path: url(#clippath);
      }
    </style>
    <clipPath id="clippath">
      <rect class="cls-1" width="603" height="452"/>
    </clipPath>
  </defs>
  <g id="Capa_1-2" data-name="Capa 1">
    <g class="cls-2">
      <g>
        <path d="M480.54,10.26v431.22H139.34V10.26h341.2ZM289.96,11.79h-149.08v51.5c4.2.27,4.97-4.29,4.62-7.69,1.49.7,2.85,2.02,4.61,1.23l4.6-4.3c.13,4.77-3.49,5.68-7.6,5.46.36,2.56-3.02,5.47-3.1,7.19-.04.83,4.26,13.71,4.97,15.75.52,1.5,1.37,4.55,2.65,5.4,5.72-14.13,8.71-29.45,10.01-44.58,4.66,3.82,9.71,2.9,9.22-3.84.64-.79,4.06,2.59,5.18,2.89,3.82,1.01,4.46-.93,7.1-2.89-.3,5.79-6.86,5.34-10.75,3.08-2.59,20.34-6.09,40.93-5,61.49,13.04-14.36,27.52-29.62,31.89-49.19-5.44,3.28-10.23,1.78-11.52-4.6,2.56-.24,1.31,3.06,3.86,4.2,7.04,3.17,11.19-5.19,10.75-11.12,2.02-.34,2.12,2.04,3.54,2.98,3.66,2.43,4.77-1.35,6.83-3.74,2.83,6.76,7.74-.42,8.06-.01.58.72-.47,2.94-1.53,3.45-3.68,1.8-6.66-2.72-9.89,3.18l-6.25,22.57c1.75,1.92,15.34-12.75,16.9-14.23.24-1.92-2.17-.12-4.04-.5-2.48-.52-4.15-2.63-3.63-5.25,4.62,7.33,9.04,2.22,13.44-2.29,1.2.03,2.83,8.08,9.04,6.77,1.26-.26,3.73-2.83,4.4-2.17s-.9,2.17-1.57,2.65c-4.51,3.27-8.8-.66-9.18-.35-.15.12-.81,2.41-1.52,3.49-9.28,14.14-18.25,18.12-30.01,28.4-2.91,2.55-15.98,17.63-15.3,20.68.29,1.28,4.63,2.51,5.89,2.58,7.06.4,12.17-7.15,11.72-13.65,2.83-.33,3.59,2.35,6.15,3.46,8.17,3.55,14.5-2.11,14.6-10.37,2.35-.04,3.78,2.39,5.92,2.91,7.51,1.82,6.57-4.28,2.53-8.28,4.91.17,12.97-3.14,10.35-9.22-1.04-2.4-5.71-2.9-4.97-6.16,3.35.14,7.12.4,9.26-2.68,1.19-1.72-.13-3.33,2.5-2.56,1.06.31,1.98,1.72,3.39,2.03,5.85,1.28,4.33-4.9,5.99-5.25.84-.18,2.46,1.41,3.87,1.53,5.82.51,3.41-5.59-.42-7.3-1-1.91,4.61-.68,5.33-3.17.64-2.23-2.57-2.81-2.25-4.89,6.66.81,15.91-3.65,16.17-11.18.12-3.42-2.1-4.97-2.33-8.04,9.29,1.34,15.87-6.37,14.6-15.38ZM386.78,11.79h-95.29c1.33,9.2-3.8,16.5-13.07,17.69,3.65,9.98-3.88,18.51-13.83,18.45,3.4,4.32-2.28,6.85-2.29,7.29,0,.37,3.39,3.72.82,7-2.2,2.8-7.47,0-7.75.3-.14.15-.09,2.54-1.18,3.83-3.62,4.26-8.77-1.31-9.56-.74-1.09.78-2.27,6.34-6.94,4.61,2.65,2.89,3.84,5.35,2.91,9.44-1.08,4.74-7.77,5.26-8.29,5.94-.63.82,4.8,14.41-10.74,6.91-1.49,7.44-7.19,11.4-14.82,9.81-2.3-.48-3.69-2.64-5.93-2.89-.61,7.22-6.9,12.75-14.24,12.35-2.17-.12-6-2.28-6.53-2.03-3.15,1.5-13.34,28.58-11.5,31.18,1.88-2.15,6.85-2.14,8.43-3.47.9-.76,1.66-4.09,2.76-5.7,6.61-9.74,22.44-7.97,26.86,3.03.36.89.27,2.91.4,3.04.22.22,4.49-.03,6.14.39,10.46,2.64,14.14,17.51,9.51,26.46-.89,1.71-3.83,4.4-4.05,5.23-.4,1.54,1.92,4.35,2.22,6.74.44,3.46.04,7.29-1.55,10.39,20.79,2.46,37.01,17.94,57.41,22.19,1.93.13,2.13-3.53,3.12-5.07,1.91-2.98,6.11-3.54,9.4-4.05l-6.85-4.29c-4.57-5.64-3.92-1.41-8.31-.49-8.77,1.83-19.67-3.51-21.55-12.68-.55-2.67.54-8.52.17-9.47-.64-1.7-8-9.74-9.89-13.09-1.48-2.62-2.89-7.73-3.93-9.19-.51-.72-1.87,0-2.68-1.04-3.13-3.94-3.26-14.31-2.08-19.09.93-3.75,3.06-6.37,4.39-9.82-8.09,5.6-7.04-1.6-1.92-5.39,1.55-1.15,5.53-2.12,5.71-2.37.45-.62-.78-4.76-.73-6.42.24-8.53,8.36-20.71,15.03-25.77,3.02-2.29,4.79-2.34,8.13-4.94,6.32-4.91,13.66-10.19,21.9-11.14,3.78-.44,7.42.6,10.58.44,1.36-.07,2.88-1.21,4.71-1.3,6.72-.33,21.25,1.92,27.05,5.23,2.76,1.58,1.97,3.14,3.06,4.05,3.54,2.94,13,4.88,12.55,11.48l-3.08.38c3.51,2.98,6.22,7.07,7.83,11.39,4.5,12.12-4.34,3.11-4.75,3.6,3.52,8.55,3.91,17.87,2.3,26.9,5.67-1.25,13.21-2.64,13.64,5.19.1,1.73-.76,3.36-.65,5.18.33,5.55,2.38,11.42-.81,16.8-.89,1.5-3.23,2.83-3.61,4.13-.5,1.74.99,10.15.64,13.65-1.57,15.47-16.94,32.36-33.03,32.68.32,2.96,6.6,5.12,8.92,5.34,4.21.4,17.03-5.5,21.56-7.52,15.23-6.8,29.27-16.97,46.62-17.75,5.44-22.56,21.69-40.42,34.7-10.06l3.46-9.21-3.05-.83c1-3.82,8.41-29.05,10.35-29.92,1.2-.54,2.66,3.69,3.05,4.62,2.08,4.88,7.75,18.37,8.67,22.84.87,4.23-1.93,1.73-2.15,2.9l1.94,6.55c7,1.31,14.87,1.32,21.89,3.83v-42.66c-9.76-5.98-21.24-13.64-33.24-11.73-1.93.31-10.41,4.17-11.39,5.52-1.49,2.05-.22,5.54-1.05,8.17-1.55,4.93-11.57,9.58-16.52,9.92-1.42-8.43.56-16.33,9.31-19.43,5.73-2.03,8.11-2.39,13.2-6.78.67-.58,1.98-1.04.51-1.82-2.02-1.07-21.31-2.99-24.16-2.61-1.21.16-10.78,3.39-11.11,3.88-1.39,2.05,1.26,7.33-5.1,12.2-1.22.93-9.13,4.78-9.96,4.61-3.37-.66-.11-11.65,1.9-14.22,3.82-4.86,7.07-3.04,11.33-4.81,1.72-.72,6.08-4.24,7.88-5.56l-21.85-5.44c-2.17,7.54-8.39,8.58-15.46,7.77-5.85-.67.87-7.94,3.73-9.42,5.38-2.78,9.02.26,14.37-1.39-1.75-2.89-5.69-2.6-8.23-3.67-6.38-2.69-8.69-7.99-8.68-14.77,5.44-.23,13.98,2.21,15.2,8.25.85,4.21-.95,7.65,4.77,9.84,1.76.67,11.54,2.59,13.27,2.48,3.55-.22,5.24-2.43,7.49-4.81-8.06-2.26-16.16-9.24-17.49-17.86-.64-4.17.87-11.65-3.3-14.38-1.44-.94-5.37-.8-3.71-3.41.16-.25,3.51-1.06,4.49-2.04,1.63-1.64,1.8-4.72,4.69-6.84,3.55-2.61,9.12-2.76,13.06-.86,5.67,2.73,5.99,8.1,9.18,12.34,2.84,3.78,9.71,8.69,13.49,12.67,1.3,1.37.63,3.09,2.66,1.96,1.11-.62,4.41-5.35,6.12-6.95,1.04-.97,6-5.15,6.89-5.42,4.16-1.3,3.5,1.94,4.33,2.01,1.14.09,4.68-2.31,5.62.46.86,2.54-1.27,3.94-1.28,4.52,0,.69,3.47,2.23,1.76,4.98-1.87,3-18.73,7.46-18.82,8.83.78,1.58,6.15,7.07,3.85,8.48-3.15,1.93-9.61-1.53-13.07-.84-.69.14-6.35,2.57-6.72,2.95-.98.98-3.76,5.72-2.19,6.75,4,2.62,21.03,1.03,26.86,1.59,8.92.85,18.46,4.69,27.37,6.06v-12.68c0-2.07-13.35-34.73-15.23-38.58-.49-1-3.75-6.87-4.08-7.11-.35-.25-2.72.85-4.06.72-1.98-.19-3.26-2.26-4.67-2.29-1.93-.04-3.46,2.27-7.53,1.35-4.8-1.09-4.63-6.26-5.17-6.76s-6.59,2.83-9.56-1.58c-.65-.96-.93-3.45-1.29-3.71-1.1-.77-7.51,1.16-9.51-3.19-1.66-3.62,2.23-6.69,1.92-6.9-5.81,2.16-7.58-6.19-8.52-6.87-1.16-.83-6.97,3.7-11.73-.16-2.53-2.05-1.53-4.4-2.16-5.14-.22-.26-4.56-1.07-6.41-2.43-2.78-2.05-3.88-6.7-4.22-6.92ZM479,11.79h-90.68c1.18,2.5,2.82,5.39,5.6,6.31,1.94.64,5.71.41,5.93.61.26.25-1.81,4.91,1.54,6.53,4.63,2.24,11.11-2.35,11.53-1.92-.15,7.36,4.96,9.31,11.53,8.46.12,2.37-3.23,2.48-4.21,4.62-2.83,6.22,5.93,5.78,9.59,3.83-1.13,6.83,3.43,9.79,8.85,5.4,1.51.09.71,7.6,6.32,8.28,3.35.41,5.63-2.88,5.97-2.88.37,0,4.29,4.81,6.53,2.66-5.02-4.76-10.65-8.74-15.39-13.82-1.62-1.73-4.26-6.48-5.68-7.38-2.63-1.67-8.88-.35-8.12-6.85,1.41.28,1.02,2.3,2.32,3.43,5.03,4.38,6.24-3.41,7.28-3.42.64,0,3.05,4.24,6.13.73.91-1.04.64-2.98,1.94-3.04,1.83,3.91-4.58,6.1-4.59,6.53-.01,1.69,15.24,16.18,19.19,14.98.57-.58-2.24-14.69-2.82-15.96-.82-1.82-7.57-3.15-5.62-8.63,1.26.35,1.02,2.41,1.94,3.81,3.73,5.68,8.56-.71,9.56.03,1.46,1.08,2.43,11.02,9.99,5.38-.89,5.05-5.21,2.62-8.44,1.54-.76.81,4.85,19.84,5.82,21.46,2.22,3.73,8.01,2.44,8.01.44V11.79ZM479,96.35v-11.15c0-1.07-4.33-6.26-3.85-8.44.81-1.23.9.58,1.18,1.12.75,1.48,1.64,2.97,1.92,4.63,1.27.21.82-1.87.79-2.71-.2-5.17-3.25-8.12-5.02-12.67-5.12-13.18-8.93-26.9-11.93-40.73-.87.41-2.73,1.07-2.96,1.99-.92,3.78,9.75,22.98-3.7,16.59-5.67-2.69-11.41-9.8-15.64-14.37-.2-.21-2.53-4.27-2.32-.73.41,6.75,16.25,16.87,20.81,21.47,3.56,3.59,6.72,9.65,8.78,14.28l11.94,30.72ZM170.07,44.85c-.12-.14-2.48,1.29-3.47,1.25-1.4-.07-2.1-1.99-3.07-.5-.71,5.99-7.28,41.98-12.3,43.06-1.18.25-1.62-.98-2.06-1.75-2.84-5.02-4.2-14.48-6.56-20.38-.47-1.16.45-2.08-1.73-1.69.44,6.58-.61,13.87,0,20.36.43,4.56,2.35,9.88,2.97,14.71,2.49,19.59.92,39.83-3,59.06l.03,89.58c5.14-2.17,6.74,1.07,9.6,4.61l1.94-8.81.75-31.15c1.34-.18.72,1.74.76,2.68.25,6.14.23,13.11.04,19.26-.05,1.67-1.41,8.21-.81,8.81.19.19,3.76-.33,5.37.39,1.76.79,2.16,3.33,2.33,3.45.25.17,3.09-2.54,5.58-2.17s2.05,2.29,3.62,2.93c-3.65-21.61-4.31-43.12-4.57-64.98-.44-36.71-1.14-63.59,24.58-92.95,8.81-10.06,21.37-15.39,30.69-26.95,2.39-2.97,10.5-11.38,3.87-12.66-.14,4.98-20.37,25-23.83,21.52-.25-2.21.47-4.22.99-6.31,1.11-4.43,5.83-15.22,5.85-18.72,0-.23-3.21-2.04-3.76-2.64-2.99,16.11-10.16,29.12-20.01,41.87-2.17,2.81-13.04,16.12-15.07,17.21-5.79,3.08-4.26-5.44-4.11-9.49.48-13.39,2.37-27.39,3.84-40.74.33-2.94,1.04-5.93,1.52-8.85ZM438.26,86.36c.71-.76-5.92-8.66-6.87-9.64-6.92-7.15-8.17-5.95-13.73-15.48-3.68-6.3-10.23-9.93-16.87-5.06s-.56,6.5-.23,8.37-3.08,2.42-3.07,3.02c.02,1.02,1.36,2.37,1.55,3.84.37,2.93-.18,5.68.39,8.84,2.53,14.09,19.21,21.25,31.93,16.1-3.28-2.74-8.02-3.96-11.48-6.58-4.81-3.65-11.26-11.77-5.81-17.24.18,2.48-.83,4.5-.22,7.14.9,3.92,4.91,7.5,9.06,6.69l-.38-1.54,4.21.78-.76-3.84,3.83.76c-1.42-5.16-.13-2.26,3.85-2.3.58,2.91-1.64.47-2.36,1.08-.65.55-.41,2.02-.95,2.57-.34.35-1.47.09-1.8.41-.74.7-.89,2-1.81,2.5-.72.39-5.59-.15-6.91.36l5.62,3.98c6.2,2.76,12.91,4.84,19.73,5.24.34-1.96-.3-1.38-1.53-1.88-2.9-1.17-6.89-1.98-9.98-2.74-.22-1.3,1.9-.86,2.63-.71,2.49.5,4.64,2.45,7.35,2.25l-9.99-8.84,4.6,1.93ZM479,73.29v-17.68l-6.93,1.16c1.93,4.37,3.22,9.01,5.03,13.42.38.93.79,3.08,1.89,3.1ZM345.29,125.56v-16.53c0-2.94-7.48-13.66-6.91-14.22,3.29.61,6.62,2.04,8.84,4.6.32-2.93-2.03-6.66-3.91-9.15-1.44-1.91-6.7-6.1-7.23-7.38-1.09-2.64,4.94.39,5.37-.75-4.57-4.51-11.1-8.06-17.67-8.08-.79-2.84,3.44-1.16,3.84-3.06-6.13-2.42-12.61-3.53-19.2-3.09l2.3-1.52c-9.86-1.21-18.19,2.3-26.12,7.68-.31-1.45.71-1.86,1.59-2.63,1.39-1.21,7.2-3.7,6.08-5.06-16.61,1.76-33.2,12.36-35.35,29.97-1.43.16-.63-1.62-.54-2.46.39-3.62,1.85-6.97,2.08-10.6-1.19-1.38-7.71,7.34-8.31,8.21-2.92,4.31-6.17,10.79-6.31,16.04-.06,2.11,1.46,5.94.46,7.31-.81,1.1-8.68,1.57-8.12,5.33,2-1.21,4.57-2.3,6.9-1.16-4.2,4.98-7.62,11.81-7.7,18.49-.01,1.16,1.26,9.36,2.32,8.03l1.54-3.84c.93,11.34,7.34,21.86,15,29.97,1.62-2.75,14.38-11.94,14.69-14.19.17-1.2-1.31-3.84-1.2-6.07.13-2.78,2.26-6.45,2.26-9.33,0-3.17-2.31-8-2.29-11.53.05-16.22,19.63-24.92,33.8-23.45l-6.57-8.41-1.89-6.95-1.53,6.91c-1.12.18-1.06-1.35-1.29-2.15-1.02-3.54-.62-5.81-.25-9.38l-1.54,1.14,1.56-6.52,1.52,2.29c.33-1.76,3-5.29,4.62-4.23-3.81,3.5-5.73,8.24-5.37,13.45,1.27-.58,1.28-2.93,2.14-4.38.41-.69.77-1.69,1.69-1.76-2,5.46,3.87,18.92,9.61,19.29,4.1.27,8.03-4.97,11.67-6.86,7.47-3.86,15.07-3.3,21,2.93-3.07-.02-5.38-3.02-8.24-3.66-1.01-.23-5.29-.89-5.58.59,7.76,2.23,13.14,8.1,17.03,14.87l5.25,11.28ZM441.35,82.51c-.41-1.7.97-1.71,1.76-2.46,1.95-1.85,9.43-6.84,10.16-8.29.68-1.35.15-1.46-.78-2.3-.93-.04-13.16,11.87-13.33,12.78-.26,1.3,2.29,4.7,3.78,4.56,1.56-.15,14.08-5.58,15.58-6.72.87-.66,1.58-.8,1.27-2.18-1.75-1.52-11.21,4.25-13.57,5.25-.7.3-1.96,1.67-2.56.52,2.42-1.95,16.79-8.21,16.13-11.52-.39-1.95-3.9.02-4.86.5-4.78,2.42-8.83,7.24-13.57,9.86ZM389.09,96.34c-.31-7.98-5.76-10.81-13.07-11.52-.11,6.87,5.98,14.04,13.07,11.52ZM140.87,94.04v52.27l2.21-8.16c1.28-10.79-.28-21.33.08-32.18l-2.3-11.92ZM423.67,100.2c-1.63.69-5.94-1.19-6.8-.68-.27.16-2.29,4.53-3.19,5.28,5.23,1.85,8.54.97,9.99-4.6ZM340.67,120.94c-2.46-8.93-13.4-22.93-23.86-19.64-1.92.6-4.63,3.79-6.62,4.9-6.17,3.43-12.78,2.06-19.62,3.44-12.4,2.5-21.86,10.44-20.58,23.98.27,2.9,1.6,5.34,1.59,8.46-.02,4.51-2.78,9.23-1.6,14.22,4.38-1.7,6.68-5.78,10.53-8.3,12.16-7.96,22.43-7.83,35.88-9.46,7.48-.9,9.69-3.91,15.55-6.74,2.4-1.16,9.14-2.77,10.27-3.56,3.11-2.17-3.61-3.37-5.01-3.45-5.69-.33-15.74,5.08-14.9-3.78,6.17-1.75,12.23-2.11,18.37-.07ZM386.01,104.8c-3.82-4.24-12.51,1.14-13.06,6.15,5.44.26,11.59.59,13.83-5.37l-8.45,1.92c2.11-1.59,5.03-2.74,7.68-2.7ZM406.76,105.58c-5.09-.85-10.14-2.59-15.36-2.31l12.89,3.7,2.47-1.39ZM416.67,107.19c-1.98-2.4-11.97.53-.69,3.38-2.47,1.94-6.73,1-8.45,4.22,2.75-1.55,8.59-1.64,10.77-2.67.35-.16.97-.99.76-1.16-4.04.93-1.49-2.68-2.39-3.77ZM478.99,115.57c-10.72-1.15-21.11-5.38-31.89-6.15-5.74-.41-11.89.2-17.7.03-2.02-.06-8.21-2.23-8.02,1.89.08,1.81,21.66,3.1,24.57,5-2.94,2.68-7.57,3.35-9.99,6.9,3.98-1.19,7.21-3.59,11.49-4.26,10.61-1.64,22.26,6.14,31.17,11.18,1.59-1.74-.68-3.15-1.16-4.23-.28-.63,1.33-.08,1.54-.88.62-2.36-.45-6.8-.01-9.49ZM401.38,117.88c-8.51-.06-12.26,6.8-11.52,14.59,6.87-1.29,14.05-6.04,13.05-13.83-3.43,1.94-5.47,4.85-8.06,7.68-.18-3.14,4.3-6.04,6.54-8.44ZM337.22,121.71c-3.4-.39-7.95,0-11.53,0-.51,0-2.88,1.27-1.92,2.3,1.42,1.51,13.22-1.91,16.13-.77.29-.82-2.38-1.49-2.69-1.53ZM429.82,126.33c-9.15.38-12.61,8.61-11.52,16.9,7.85-2.62,15.44-6.42,13.82-16.14-1.3-1.47-7.13,7.24-8.44,7.68.64-3.59,4.32-5.6,6.14-8.45ZM202.08,130.44c-6.15-5.66-17.12-4.11-21.6,2.84-1.04,1.62-1.94,6.07-2.68,6.55-.19.12-2.8-.43-4.51.06-1.37.39-4.97,2.5-5.38,3.88-.37,1.22-.84,8.56-.94,10.59-.23,4.27-.65,14.73.05,18.46.56,2.96,3.56,3.14,3.82,3.49.32.45-1.38,2.79-1.57,4.17-1.29,9.14,5.22,15.62,14.28,15.08,6.21-.37,7.15-1.33,6.42-7.26-1.05-8.53-7.65-15.67-10.67-23.51,1.87-.41,1.96.33,2.96,1.26,3.12,2.9,5.3,8.15,8.56,11.03.62-5.1.32-10.76.78-15.75.24-2.59.53-6.68,1.92-8.84,2.55,7.27,1.58,15.42,2.69,23.05l6.68-10.58c.09-1.24,2.28-1.17,2.53-.94,1.17,1.06-12.36,22.32-7.76,28.13.82,1.03,4.49,1.78,5.87,1.85,10.03.56,17.25-8.03,15.54-17.89-.34-1.96-2.9-5.72-2.81-6.22.15-.86,3.25-3.14,4.1-4.39,5.76-8.45,2.2-23.71-8.58-25.9-1.52-.31-4.91.11-5.49-.28-.41-.28-1.56-6.42-4.21-8.86ZM327.42,144.98c.87.84,2.93,6.15,4.49,8.19,5.21,6.84,11.99,8.31,20.06,4.82,10.02-4.33,6.31-14.08,5.77-22.05-.14-2.02,1.78-5.05-.52-7.32-1.95-1.93-14.74,1.12-17.91,2.1-7.29,2.26-12.99,7.98-20.11,9.1-4.56.71-9.35.49-14.13,1.24-5.39.85-20.94,5.62-24.62,9.19-3.87,3.75,1.54,5.57,3.15,7.05,3.12,2.87,4.11,10.09,9.06,13.61,6.2,4.41,20.36,1.41,24.99-4.22,5.44-6.61,1.45-13.69,3.23-19.83.75-2.61,4.53-3.84,6.56-1.88ZM446.72,137.09c-1.97-.31-1.19.18-1.6,1.08-3.43,7.56-4.32,17.18-8.35,24.68.46,1.24,3,.82,3.08,1.56.28,2.56-3.79,9.9-3.79,13.04,0,4.44,4.3,13.33,4.46,19.34.25,9.71-3.63,18.38-10.7,24.85,4.45-.74,9.3.75,13.42.81,4.47.07,8.13-.62,12.29-.83,4.33-.22,8.82,1.98,11.25-1.88,1.24-1.98-5.81-16.41-6.18-19.94l4.5-2.28c-1.14-4.12-13.47-32.23-12.22-33.51.14-.15,2.59.1,3.04-1.15l-9.19-25.76ZM353.74,174.37c.57-3.65,0-9.82,0-13.84,0-1.92-6.08.77-7.5.95-4.16.55-7.34.08-10.94-2.1,1.26,1.99-3.54,7.16-4.62,6.14,7.48-7.37-.61-7.72-1.53-10.37-.24-.69,1.72-.11,1.54-.75-.4-1.44-4.86-9.08-6.45-8.82-3.67.6-1.2,7.66-1.24,9.57-.13,7.05-2.65,12.97-9.06,16.31-9.21,4.8-19.53,5.62-26.29-3.24-1.25-1.64-4.8-9.96-6.47-9.57-.44.1-7.03,5.08-7.26,5.47-.65,1.12,3.59,12.3-2.85,9.15-4.46-2.19-10.43-7.58-15.3-.81-7.23,10.04,7.47,25.52,19.39,20.16,1.5-.68,2.37-2.9,4.27-2.41.43.11,5.28,4.42,6.94,5.43,14.35,8.72,39.26,11.45,53.14.62,5.19-4.05,13.22-15.42,14.24-21.89ZM261.52,167.83c7.3.74,12.16-6.76,18.09-9.98l-1.96-4.62c-5.54,4.61-11.4,9.15-16.13,14.6ZM195.44,178.59c-1.09-6.75-1.35-13.85-1.55-20.74l-1.52,10.38c-.18,2.68.61,9.36-.38,11.15-.81,1.46-1.23.17-1.82-.51-1.8-2.08-3.44-5.34-5.33-7.74-.27-.34-1.21-2.44-1.71-1.36,1.89,4.85,6.48,10.42,7.64,15.42,2.28,9.89.14,26.77.09,37.64,0,1.83-.95,3.51-.79,5.27.33,3.73,4.19,7.73,7.72,4.6l-1.61-22.17c.68-14.2-2.86-28.56,6.17-40.79l-1.4.14-5.49,8.71ZM418.29,200.5c.73-6.19,0-14.99,0-21.52,0-.17,1.33-1.41,1.53-1.15l.78,9.22,3.83-4.61c-2.13,6.98-4.29,11.62-2.29,19.22,2.42-1.44,3.4-4.62,5.76-6.15,1.04-.67,1.89-.63,1.9.38.01.93-6.89,10.13-7.33,13.42s1.19,8.7.44,12.34c10.81-.88,16.13-14.52,16.06-24.13-.14-18.46-18.22-58.28-33.11-24.05-4.11,9.44-7.42,23.43-4.7,33.42,1.97,7.24,8.21,14.58,16.03,15.5,1.54.18.96.02,1.11-1.1.26-1.99.22-6.35-.18-8.3-1.05-5.13-7.46-11.18-7.5-16.7l6.53,7.68c.2-1.02,1.04-2.5,1.15-3.46ZM273.05,171.67l-1.14-6.14-3.46,3.45,4.61,2.69ZM478.96,176.32l-21.48-3.1c.62,3.81,10.81,25.26,9.22,26.9-1.12.33-5.21-.97-4.59,1.12,2.12,1.96,5.52,16.56,6.26,17.19.15.12,3.54,1.03,3.69.91.25-.18.89-4.39,2.27-5.81,1.31-1.34,4.47-1.49,4.69-2.39l-.07-34.82ZM190.05,195.51c-6.61,2.73-15.01,2.11-19.61-3.83-1.52-1.96-1.59-4.12-3.43-5.4.36,4,.41,31.12,1.56,32.25,2.11,2.08,12.01-4.11,14.76,2.53.57,1.38.42,4.02.7,4.34.23.25,1.44-.07,1.92.3.95.74,1.11,3.36,3.34,1.71l.76-31.89ZM399.85,186.28c-17.25.78-32.49,11.73-47.9,18.58-2.38,1.06-17.41,6.22-17.41,7.17,1.95,2.33,4.73,4.96,6.46,7.36,2.65,3.71,9.98,16.59,12.89,18.23,1.08.6,3-.34,4.9.87,3.43,2.19,7.85,13.23,7.22,17.3-.25,1.6-3.02,4.62.55,6.44.88.45,7.14,1.84,7.93,1.34.55-.35,5.89-10.7,6.13-11.6.54-2.05-3.17-.49-3.8-2.28l6.12-11.54c-.84-1.13-3.39.77-3.08-1.53s3.49-7.54,4.61-10l-2.3-.38,6.94-19.98c.65.09,1.9-.2,2.24.02.9.58,6.11,17.62,7.73,19.95-.4.42-2.75-.94-2.28,1.12.42,1.86,5.4,8.28,4.24,9.68-.5.6-1.99.44-1.98,1.13.02,1.23,1.76,2.7,2.32,3.86,4.07-2.28,6.84-4.24,11.88-3.45,1.7.27,2.6,1.56,4.26,1.49l.7-16.06c-18.78-2.53-21.72-22.16-18.37-37.74ZM419.06,187.05v19.99l-3.85-2.68c8.36,11.35,2.8,25.1,3.86,38.04.62-.67,3.52-2.22,3.66-2.46.87-1.49-1.29-16.27-1.4-19.41-.24-6.84-.74-12.6,3.11-18.47-1.33.21-2.61,4.12-3.72.63-.84-2.65-.19-10.25-.4-13.59l-1.27-2.04ZM273.81,209.35c-13.22-.51-44.39-23.97-55.55-20.6-1.44.43-3.41,3.5-5.37,4.61-5.59,3.18-10.08,1.99-15.91.61,1.66,5.66.39,12.15.74,18.09l1.69,20.99c2.89-.25,4.67,4.35,5.76,4.67.83.24,5.61-1.86,8.17-1.31,1.67.36,3.99,3.59,4.79,2.14.62-1.1.7-5.26.04-6.21-1.15-1.66-7.12,1.07-11.19-4.18-5.08-6.56-.2-7.42-.1-11.49.06-2.83-1.79-3.73.52-7.31,2.48-3.84,5.18-2.27,8.02-3.5,1.29-.56,2.03-2.74,4.41-3.28,4.6-1.05,9.01,1.22,9.88,5.96.21,1.13-.6,2.59-.36,2.98.27.45,3.39,1.24,4.21,3.94-.53,4,1.2,9.21-.55,12.61-2.97,5.8-10.97,3.87-11.43,4.32-.27.26.19,5.03,0,6.15,2.31-.12,2.84-2.4,5.57-2.16,2.48.22,3.61,2.21,5.41,3.1.85.42,1.99.04,3.09.67.73.42,6.29,5.24,6.59,5.78,2.18,3.88-1.47,6.18,5.3,7.01,2.68.33,3.19.99,3.79-1.89.97-4.72-.67-2.45-2.49-4.04-2.12-1.86,1.51-13.88,2.48-16.75,2.52-7.43,5.96-13.86,13.3-17.44l9.2-3.47ZM296.1,207.04c-1.04-7.87-16.28-5.4-16.13,2.3,3.32.75,2.49-2.98,4.96-4.64,5.92-3.96,10.79,2.82,11.17,2.33ZM227.71,212.39c-.24-.32,2.28-4.38-1.48-7.33-1.87-1.47-4.76-1.62-6.96-.69-1.78.75-2.77,3.83-3.2,4.14-.49.35-3.97-1.96-6.78.48-3.29,2.85-.31,6.47-.93,9-.58,2.39-2.99,2.25-1.82,6.75,1.3,5.02,6.8,5.54,11.17,6.13-.11-3.68-2.36-6.78-3.84-9.98,3.41-.23,2.62,4.19,4.6,5.37l2.31-11.52.02,7.68,3.83-3.84c-.48,4.51-4.22,7.37-3.07,12.3,3.91.4,10.11-.18,10.74-5.06.28-2.18-.54-3.55-.59-5.32-.04-1.38.85-2.54.5-4.43-.65-3.42-4.18-3.27-4.48-3.67ZM319.93,218.57v-11.15c0-.24,1.06-1.09.77-1.92-5.51.63-10.89-.89-16.32-1.03-4.42-.11-.71,3.03,1.02,4.42,4.83,3.89,11.02,3.87,14.53,9.67ZM293.03,207.8c-1.3-3.55-7.97-3.12-8.45.77l8.45-.77ZM300.7,206.27c-.09-.08-1.62-.28-1.51.37,1.18,2.6,7.54,19.97,11.48,17.27.37-.25,2.68-6.92,3.88-8.02-3.7-2.3-8.02-3.47-11.47-6.23-1.66-1.32-2.2-3.24-2.38-3.39ZM298.4,207.81c-2.01.68-1.78,3.06-1.19,4.65,7.02,11.45,11.06,24.53,19.25,35.31,1.68-1.26.87-1.19.22-2.5-6.1-12.24-14.46-23.91-18.29-37.45ZM326.83,219.33c-.29-3.78-.37-9.51-4.6-10.76l-.77,10.76c1.44.09.52-3.62,2.67-3.07.86.22,1.36,2.93,2.69,3.07ZM399.85,236.24c.37-.34-4.34-7.62-4.52-9.02-.23-1.81,1.66-2.37,1.13-4.02l-6.6-14.61-6.15,15.76,2.3.38c.93.9-3.5,9.69-4.61,11.15-.19.71,3.15-.01,2.97,2.17-.17,2-4.64,7.8-5.26,10.15-.58,2.21,3.98.14,3.72,2.92-.19,2.03-7.78,12.64-6.81,13.58,2.65-.4,5.68,2.03,7.94.71,2.6-1.52,1.57-4.09,3.5-5.78s4.04-.74,4.59-1.17c.17-.14.41-2.82,1.61-4.16,1.5-1.68,4.15-1.64,4.5-2.04.29-.33,2.31-8.13,2.28-8.57-.24-3.04-6.93-7.31-.59-7.44ZM293.03,209.35c-8.52.71-16.85,3.36-24.22,7.67-2.25.17-.65-.91.13-1.41,1.61-1.02,3.79-1.95,5.64-2.43-.3-1.68-4.58-.11-5.54.23-11.55,4.12-15.47,14.8-17.89,25.91-.48,2.19-2.18,6.04.38,6.92,2.32-8.86,3.15-27.74,15.26-28.78,2.66-.23,11.89,1.77,12.46,1.5,1.02-.49,2.15-4.47,4.61-6.12,3.26-2.19,6.71-.97,9.18-3.49ZM336.84,232.4c4.97-2.42,2.04-9.1.36-13.05-2-4.71-4.38-7.22-9.59-8.46,4.06,6.74,7.36,13.82,9.23,21.51ZM296.1,253.16c7.5,1.07,7.32-3.56,7.72-9.58.73-11.05-3.98-39.88-20.01-27.33,2.91-.45,4.42,1.48,6.13,3.49,7.04,8.29,7.33,23.13,6.17,33.42ZM479,213.19c-4.64-.78-4.83,7.07-5.45,7.61-.81.7-6.13-1.44-8.42,2.72-1.03,1.87-.39,6.46-1.88,6.55-.76.05-3.43-3.04-7.52-2.14-4.88,1.08-2.74,5.76-3.96,7.59-.83,1.24-9.13.57-6.59,8.4-3.31-2.68-7.18-3.09-10.38-.01-2.43,2.33-2.18,7.93-2.75,8.39-.53.42-3.89-.5-6.46,1.61-3.07,2.51-1.37,5.34-2.02,6.06-.46.52-4.67.06-2.58,3.95,19.11-3.83,38.46-7.82,58.01-8.46v-42.28ZM323,243.93c5.16-2.38,10.69,2.32,13.57-3.44l-7.44-24.22c-1.43-.17-.6,1.56-.42,2.34.69,2.88,7.39,21.43,6.57,22.25-4.63-1.21-9.44-1.34-12.29,3.07ZM322.8,232.99c2.1-3.53-3.74-13.37-6.71-15.96,0,1.52,1.87,10.44,2.31,10.77.33.25,4.04-2.72,3.06,1.54-4.45-2.14-2.19,2.84-1.93,5.39l3.27-1.73ZM278.43,255.47c1.94-.78,10.03,1.04,10.8.45,1.25-.96,2.6-15.28,4.55-17.81.9-3.94-4.44-19.5-8.16-20.19-1.15-.21-3.78,1.36-3.35,2.95,1.95-.94,8.01,4.21,6.91,5.39-6.31-5.32-7.85-7.99-12.19.48-5.06,9.88-10.93,33.67-9.27,44.44,1.7,11.01,17.66,9.48,25.29,6.55-1.69-6.66-3.58-13.07-1.52-19.95-5.43,1.04-10.81,2.05-15.36,5.38-1.39-1.42,7.4-6.4,9.21-5.39-1.19-3.89-7.38,1.19-6.91-2.29ZM331.45,231.63c-1.06-2.3-1.13-4.96-2.42-7.18-.84-1.45-4.21-5.35-6.03-5.87-.54,2.1.99,13.32,2.65,13.64.82.16,4.25-1.24,5.8-.58ZM183.42,226.75c-1.35-2.44-.74-6.31-3.9-7.25-3.86-1.14-6.7,2.43-10.98.61l1.64,16.42,1.15,1.15c15.4,1.06,30.61,4.05,45.63,7.4,7.16,1.6,16.42,5.11,23.21,6.01.98.13,1.06.94,2.12-.62-.94-1.15-.93-3.25-1.91-4.23-2.9-2.93-6.85-4.45-10.5-6.24-.77-.38-.89-1.61-2.11-1.93-2.93-.77-2.67,1.24-4.47,1.83-.66.22-4.7.91-5.26.88-1.63-.09-2.56-2.22-4.15-2.71-.31-.1-5.35-.24-5.62-.16-1.22.33-1.95,2.39-3.16,2.14-1.86-.39-2.19-6.05-8.47-5.35-1.18.13-2.64,1.55-3.52,1.15-3.98-1.77-3.29-6.03-3.96-6.44-.94-.58-4.04.42-5.76-2.68ZM267.67,221.64c.84-3.15.5-3.78-1.69-.53-6.51,9.65-6.08,26.16-7.53,37.43,2.01.17,1.27.1,1.51-1.15,1.64-8.84,1.28-29.51,7.71-35.74-1.42,5.3-3.3,9.55-4.37,15.23-1.44,7.67-1.54,15.49-2.55,23.2-.28.29-2.91-.54-3.1-1.29-.7-2.85.48-11.69.89-15.14.99-8.16,2.64-16.37,6.82-23.53-1.5-.13-2.85.93-3.84,1.92-4.95,4.92-7.84,22.92-8.45,29.98-.11,1.3-.78,7.26-.68,7.63.47,1.86,9.8,2.27,11.86,3.34,1.33-.25,1.83-7.93,2.25-9.85,2.08-9.55,4.84-19.85,8.96-28.71.83-1.78,3.69-3.9,1.06-4.3-4.05-.62-5.84-1.38-8.83,1.52ZM315.31,219.34c-2.01-.36-1.19.29-1.6,1.1-1.52,2.97-1.75,8.55-5.7,4.29-.58-.12-.49.74-.37,1.13.92,2.9,6.66,13.3,8.57,16.03.74,1.06,1.71,2.33,2.94,2.82l-3.84-25.37ZM444.41,223.95c-3.03-.21-19.5-2.01-20.66-.69-.59,5.64.4,11.16.74,16.75,2.41,1.16,3.53-1.04,6.48-.77,2.48.22,2.9,2.02,3.93,2.24,1.46.31,5.9-2.79,8.73-.63l.77-16.9ZM462.86,223.17l-12.3.78.78,5.37c1.17.29.59-1.1,1.3-1.54,3.61-2.22,6.3-1.57,10.21-.77v-3.84ZM449.8,223.95c-.91.17-3.44-.3-3.8.04-.53.5-1.21,11.68-.8,12.26.9-1.63,4.6-1.29,4.6-1.54v-10.76ZM346.76,230.9c-.31-.23-7.29,1.28-7.55,1.57-.45.53.13,3.47-.07,4.54l8.45-3.08c.16-.22-.69-2.92-.84-3.03ZM306.18,255.4c1.52,1.05,8.66-3.94,8.4-7.18-.2-2.43-8.33-12.09-8.87-15.82-.75.02-.37,13.38-.39,14.99-.02,1.97-1.72,6.24.86,8.01ZM331.45,237.77c-.52-7.07-12.32-3.33-8.03,2.34l8.03-2.34ZM351.31,236.36c-1.99-1.27-9.98.78-11.4,3.35.94,1.22,3.48-.31,4.27-.17.88.16,5.36,13.5,4.63,14.44-.87,1.11-3.39-.19-2.75,2.25l8.45-3.47c-1.47-2.52-5.43-9.38-4.24-11.87.35-.73,3.35-3.06,1.04-4.53ZM140.87,250.08c-.39.59,0,12.1,0,14.22,0,1.76,3.44.67,4.24.76,3.86.46,1.51.14,4.66-.4,4.2-.71,4.73,3.9,5.72,4.63.26.2,2.79-2.89,6.15-1.16,1.65.85,1.19,2.97,1.98,4.2.71,1.11,3.3,1.56,2.63,4.65,8.45-7.04,7.76,3.38,9.16,4.29,1,.65,2.79-.06,3.73.51.36.22.44,1.41.94,1.7,1.63.93,4.57-.08,5.38,2.72-1.55.33-1.96-1.42-3.41-1.48-.89-.04-3,1.15-3.48.7-1.04-.97,1.41-4.4-4.63-1.52.28-3.92.06-9.42-5.19-7.11-2.37,1.05-1.69,3.47-4.04,3.26-.19-1.47.38-3.59-.09-4.9-.54-1.5-2.55-.97-2.88-1.34-.68-.76.66-3.66-.56-4.59-2.59-1.95-5.39,2.35-6.44,1.6-.28-.2-2.87-5.35-4.25-5.36-.42,0-2.66,3.05-3.07,3.05-.56,0-2.09-3.14-3.36-2.17-.1.08.02,2.53-1.62,1.38-.24-.17.62-2.23-1.55-1.51v34.59c0,.2,2.98-.16,3.84.77l.17-2.14,3.67-1.7c-.73,1.94-.27,2.92.77,4.6-2.28.7-1.67-2.92-3.45-2.3-.85.3-.05,1.87-.44,2.23-.46.43-4.57-.15-4.57.08v86.47c0,.67,6.26,8.93,7.33,11.11,2.61,5.28,4.14,11.09,5.5,16.79l2.52,19.37c.08-3.91.4-7.94.87-11.81.66-5.45,4.14-20.7,3.75-24.68-.08-.8-6.42-10.19-7.46-14.07-4.01-14.87,2.13-16.28,7.82-3.21l1.93,6.89,5.39-19.2c-.78-.64-6.51,5.39-9.91-.49-2.43-4.2,1-5.8,3.27-7.9,1.78-1.64-.61-1.59-1.41-2.35-8.73-8.27.66-13.58,8.04-6.94,6.68-37.38,49.96-46.81,80.71-56.56.06-4.27-3.74-3.4-5.3-6.17-2.62-4.64-1.54-18.12-.76-23.65.56-3.97,1.09-8.05,3.74-11.23-24.9-7-50.22-13.15-76.07-15.38.45,1.5.96,8.81,1.54,9.22.65.46,5.22-3.34,8.8.79,3.16,3.65.75,9.36,1.19,9.97.18.26,3.23-1.72,5.75,1.54,2.33,3.02.04,5.83.72,6.92.44.72,2.89,1.45,3.95,2.27.78.6.94,2.07,1.21,2.27.41.31,2.91-1.11,4.72-.59,1.31.38,2,2.23,2.82,2.54s2.1-.47,3.29-.21c6.99,1.52,3.29,7.22,3.67,7.54,1.57-.1,2.94-.03,4.41.58.46.19,7.42,5.42,7.92,5.91,4.06,3.96.47,8.64-4.46,9.47-3.83.64-7.65-.65-10.48-.36-.97.1-1.99,1.18-3.21,1.28-2.84.23-5.64-.42-8.4.82l.37-3.86-4.24,2.31.02-4.61-3.08,5.36c-3.34-5.96-3.69-4.96-3.47,1.55-5.71-3.61-8.34.82-13.53,1.45-4.61.56-9.53.07-14.15-.38-1.51-.15-.2,1.22-1.14,1.25-2.33.06-.13-1.3-.38-2.31l-2.29,1.54-.77-5.37-2.31,4.61c-.27-5.05,3.93-10.07,4.61-2.3,3.1-2.04,1.98.87,3.54,1.43,2.2.78,12.66.11,15.25-.7,1.72-.54,2.99-2.1,4.71-2.27,1.38-.14,5.23,1.26,5.7.78.29-.3-.66-3.82,1.17-4.61l3.44,3.07c-.17-2.56,1.87-3.78,3.48-5.37l1.15,3.83c4.28-2.28,3.31,2.07,4.31,2.36,3.74,1.07,6.77-1.4,9.17-1.56,3.14-.21,16.07,3.2,14.97-4.21-.46-3.08-3.68-2.7-5.35-3.94-2.91-2.16-3.15-5.64-9.27-4.18-.62-.54,3.29-4.96.23-6.98-1.74-1.15-3.63.45-5.12,0-1.12-.34-1.04-2.93-4.01-2.98-2.19-.04-2.98,1.46-4.93,1.51.26-6.05-2.38-2.82-4.22-3.08-1.54-.22-.31-2.42-.57-2.87-.14-.23-1.33-.2-1.41-.66-.32-1.86,2.94-4.28.45-6.47-1.74-1.53-5.11-.48-7.31-.76,3.3-4.48,1.92-14.08-5.2-11.01-1.13.49-2.54,4.38-4.01,3.33s-2.1-12-8.85-2.32c-1.89-1.74-2.09-5.71-5.34-5.4-4.82.46-2.34,9.35-5.43,10.02-2.08.45-2.49-5.86-6.89-6.05-.34-.01-2.62.56-2.69.68ZM359.12,241.62c-1.59-2.87-7.73-2.06-7.68,1.54l7.68-1.54ZM420.58,244.7c-1.19.83-3.4-2.68-4.66-3.39-3.56-2.01-8.08-1.47-11.43.74-5.66,3.74-4.22,11.37-4.68,11.85-.16.17-3.03-.11-4.56,1.2-1.84,1.57-1.36,4.72-1.59,4.94-.48.48-4.26-.49-5.25.13-.7.44-.62,3.72-1.04,4.76-.75,1.85-5.25,3.22-.58,7.1,10.74-1.4,21.42-5.28,32.17-7.43-.9-3.53,1.89-4.33,2.68-6.04.46-.99.03-2.32.9-3.79,2.48-4.19,7.35-3.42,7.94-4.01.22-.22.29-3.06.8-4.2.76-1.73,4.04-3.91,1.41-5.12-3.84-1.78-4.73.97-6.35.96-1.79-.02-1.82-2.81-5.03.39-.6.6-.65,1.86-.74,1.92ZM294.57,252.77c.55-3.25-.4-7.72,0-11.15l-3.08,13.44c1.14.7,2.92-1.36,3.08-2.3ZM343.95,252.19c.56.5,3.56,1.26,3.62-.18.04-.86-4.16-12.98-7.66-10.38,1.81,1.94,2.69,9.35,4.04,10.55ZM339.12,242.4c-9.67,1.58,1.3,7.39-.75,13.05,8.22-1.09,1.14-7.87.75-13.05ZM362.19,246.23c-.87-3.78-9.43-2.62-9.2.4l9.2-.4ZM333.76,246.25c-.18-.19-4.29-1.57-5-1.6-10.06-.5-11.53,7.82-17.34,11.14-1.67.95-7.29,1.76-7.55,2.05-.78.91.86,12.37,2.21,13.41l28.85-10.4.37-1.55c-.32-.29-6.6.19-8.08,0-1.06-.13-2.37-.54-1.14-1.53,3.13-.83,6.48-.4,9.63-.77,4.39-.51-2.75-2.92-4.63-3.09s-7.56,1.4-5.76-.75c1.08-1.29,9.51-.89,11.52-.01-1.48-5.75-8.72-3.28-13.06-3.08-.38-2.15.47-1.28,1.68-1.73,2.49-.91,5.37-1.84,7.91-.56.68.09.46-1.46.39-1.54ZM362.9,248.61c-.87-1.4-8.07-.71-7.62,1.84.31,1.75,6.27-.29,7.68.39-.1-.68.21-1.8-.06-2.23ZM364.49,255.46c1.67-1.58-1.49-3.14-3.45-3.14-8.13.02,1.52,4.96,3.45,3.14ZM303.79,254.7c-.51-.37-8.5,1.04-9.43,1.52-3.46,1.8-1.65,20.8,3.06,22.18,2.72.8,10.13-1.52,10.98-4.89-1.94-1.76-1.11,1.97-2.67,1.15-3.03-1.57-5.07-16.95-1.93-19.97ZM362.96,262.38c.32-6.09-3.76-4.78-7.48-7.54-9.25,1.24-8.51,4.35-6.35,12.15,4.52-1.85,8.54-5.37,13.83-4.61ZM250.76,255.47c-1.2-.27-1.59.4-2.33,1.12-3.77,3.61-4.43,22.89-3.6,28.26.4,2.57.7,4.08,3.26,5.2,1.01-5.92-.06-12.1.39-18.05.42-5.56,2.73-10.91,2.29-16.53ZM479,257c-45.3,2.03-87.88,18.79-132.18,26.14-.6.58,2.51,12.82,2.31,14.97-.21,2.26-3.63,3.13-3.66,5.22l13.63,66.3,81.85,15.75c1.94-6.33-1.02-13.63,6.95-6.95,2.11,1.77,6.01,7.29,7.32,8.06,1,.59,14.4,2.85,15.72,2.75,2.04-.15,3.83-5.56,4.84-7.48.59-1.11,3.22-3.83,3.22-4.46v-43.43c-3.02.95.57,4.4-1.5,5.81s-5.23-1.18-6.57.3l-3.45,9.26c-1.28-2.77,1.55-6.47,1.58-8.02.01-.6-2.14-.77-2.78-1.96-1.01-1.88.52-3.17.46-4.18-.05-.74-2.37-.21-2.42-3.13-.08-4.38,4.77-2.05,5.43-2.73.26-.27-.63-4.17,2.86-4.46,2.4-.2,2.88,3.48,2.56,5.25.86-.92,3.84-.57,3.84-.77v-42.66c0-.22-.87-.97-1.26-1.09-3.2-.98-6.16,3.92-7.18,3.01-.27-4.07-3.42-5.96-6.91-3.44-1.53,1.11-1.7,3.69-3.85,3.44-1.07-9.08-11.62-16.43-13.08-3.07-1.12.98-7.05-4.59-9.4.97s2.04,10.09,1.71,10.53c-.12.16-1.77.04-2.19,1.27-.48,1.39.07,3.4-.11,4.91-2.92-2.07-7.06-2.32-6.14,2.31-.73.84-7.13-5.52-11.12.02-2.12,2.94-.8,5.26-.41,8.43-7.33-1.15-13.16,3.85-6.16,9.61-15.39,7.02-.71,11.66,8.82,10.35,2.54-.35,2.27-3,5.79.8l.39-2.3,3.46,2.3c-.56-6.26,1.84-4.31,3.1,0l3.04-1.52,1.55,2.29c-1.25-.37-3.38.88-4.18.7s-1.76-4.23-2.74-1.67c-.32.84.71,2.57-1.92,1.77-.32-.1-.31-1.61-.77-1.59-1.1.06-1.72,1.27-2.3,1.3-.7.05-1.75-1.14-3.03-1.18-1.46-.05-3.34.87-5.43.74-4.48-.27-14.21-.43-14.01-6.47.13-3.77,5.13-5.74,5.15-6.27s-2.92-2.87-.93-7.13c1.7-3.63,7.57-2.95,7.89-3.25.38-.36-1.19-5.96,2.26-8.89,4.67-3.97,9.53-.08,9.95-.39,1.34-1.01,1.85-4.85,6.23-2.25-.98-2.02,1.49-4.61,1.41-5.63-.26-2.98-3.1-5.46-.54-10.04s6.84-1.64,8.7-2.1c1.33-.33,1.91-7.14,7.68-6.82,3.22.18,7.77,5.97,8.13,9.22.55.42,4.47-5.47,9.21-1.91,1.32.99,1.43,2.59,1.55,2.68.34.25,5.01-4.38,7.67-1.54v-27.67ZM342.21,267.76c-.57-1.81-2.12-8.52-3.46-9.21-1.62-.83-1.04,2.71-2.45,3.88-4.04,3.36-13.92-.88-9.44,9.18,4.78-2.23,9.92-5.51,15.36-3.84ZM345.28,258.54c-4.51.44-.57,8.14-.08,11.22.3,1.87,0,3.82.08,5.69l8.45-.78c-.46-1.68-3.58-.3-4.67-2.04-1.21-1.94-3.23-13.55-3.79-14.09ZM265.28,264.77c-.45-.52-12.68-2.78-13.41-1.66-1.25,1.93-2.48,26.2-.59,27.77,1.76,1.46,14.42,5.15,15.7,3.34.83-1.17,1.71-17.17.57-17.89-1.3-.82-13.73.22-16.02-3.57l15.37,2.69c-2.21-1.87-1.07-10.04-1.62-10.67ZM364.5,263.92c-1.36-1.4-13.32,1.8-13.87,5.01-.51,2.99,1.07,3.85,3.87,3.44.07-1.46-3.56-.48-3.07-2.67s9.2-6.16,11.55-4.65c2.05,1.33-1.23,3.17-.79,3.47,1.88,1.3,3.05-3.84,2.31-4.6ZM382.77,267.93c-1.06-1.06-13.52-2.86-15.96-4.01.08,2.06.1,4.26-1.6,5.71-6.36,2.78-11.97,9.21-19.16,8.13-.96,5.38,4.07,3.46,7.86,2.86,10.57-1.67,20.87-5.36,31.33-7.49-1.47-.97-2.01-4.74-2.47-5.2ZM362.19,266.23c-3.11.05-7.29,1.2-9.22,3.83,3.11-.05,7.29-1.2,9.22-3.83ZM321.47,300.81c2.83.04,5.05-.2,5.42-3.41.65-5.69-.5-21.69-2.21-27.08-.21-.66-.5-2.52-1.29-2.54-3.26-.08-1.16,5.23-1.12,7.25.17,8.56.33,17.36-.8,25.78ZM342.87,269.4c-.3-.48-3.25-.95-4.1-.91-2.12.09-13.45,4.03-11.16,6.96,3.24-2.63,6.77-5.26,11.17-5.41,3.29-.11,4.67,1.27,1.89,3.49,1.92,1.59,3.05-2.76,2.2-4.13ZM319.93,269.29c-1.01-1.05-8.12,1.49-9.22,2.7-1.82,1.97-.05,4.93-4.61,6.92-1.16.51-6.21,1.95-7.34,1.98-2.42.05-3.34-1.51-4.56-1.56-2.16-.1-8.64,7.87-10.74,9.98-1.09,1.09-3.28,2-3.85,3.07-.64,1.22-1.57,6.62-.83,7.7,1.32,1.93,19.15,5.64,22.43,6.02,3.02.34,16.03,1.1,18.01-.24.64-4.1,1.34-9.57,1.52-13.85.33-7.58-.09-15.2-.8-22.71ZM340.67,271.61c-3.52-.22-8.06.48-9.99,3.83,1.34.15,2.55-.02,3.85-.37,1.63-.44,5.12-1.98,6.14-3.46ZM343.74,275.45c-3.73,1.19-6.44,3.83-10.67,3.91l1.46,24.52c2.87.39,11.58-3.33,12.17-5.92.89-3.91-4.08-17.35-2.95-22.52ZM332.22,300.81l-.86-20.27-3.74-2.02.78,19.58c.33,1.98,1.82,3,3.82,2.71ZM272.88,280.99c-.16-.26-2.31-1.26-2.9-1.7-.91,3.26.1,15.12-2.3,16.53-3.39,2-13.41-1.67-16.91-3.47-.74,12.27,14.02,13.13,23.04,14.6-2.3-4.73.75-23.11-.93-25.97ZM276.9,291.59c.48.57,5.48-3.62,6.15-4.21.92-.81,6.13-5.62,5.36-6.54-6.34.63-12.2,3.61-11.52,10.76ZM278.43,282.37l-3.84-.77c.2,8.13-1.22,15.15.2,23.27.53,3.01,1.72,2.07,4.4,2.09,1.13-4.97-1.05-4-2.36-5.69-1.57-2.02.09-5.16.83-7.37-.35-.26-2.19.51-2.36-.43-.76-4.02.61-8.02,3.12-11.1ZM176.99,439.94h16.14c-3.02-11.6,2.99-12.82,8.25-3.25.75,1.37.74,4.73,3.22,3.2.24-.15,1.01-3.39.88-4.05-.12-.59-1.94-1.04-2.71-2.08-3.34-4.52-4.16-7.63-3.42-13.37.88-6.85,6.6.32,7.43,3.96l1.7,6.35c.02-2.29,3.12-5.41,3.07-7.32-.03-1.01-3.31-4.4-3.76-7.73-1.18-8.68,3.41-17,7.28-4.98l1.1,6.96c3.05-4.3,2.82-10.05,6.16-14.21,2.56-3.2,7.43-5.51,11.53-5,.08,1.57.05,3.13-.33,4.67-1.02,4.05-4.54,5.59-5.81,9.16,7.65,3.2,14.6,7.74,22.01,11.43,4.28,2.13,34.03,16.25,36.01,16.25h123.34c-1.27-2.14-3.27-4.19-3.05-6.89,5.96-1.81,11.99-.79,17.65,1.5.28-.27-1.92-6.36-.37-7.69,6.03-.02,8.4,11.95,9.57,12.72,1.63,1.08,7.03-.04,9.25.34-1.53-2.01-4.83-3.66-6.52-5.38-2.54-2.57-11.17-14.23-11.15-17.33.02-3.52,6.97-1.22,9.06-.56,7.41,2.33,13.71,7.43,19.37,12.51-5.97-13.43-10.68-27.38-11.63-42.17l-82.11-15.48c.55,1.75.35,4.96.9,6.39.47,1.23,2.1,1.25,2.77,2.61.41.83,1.75,7.34,1.74,8.34-.03,2.85-1.99,2.17-3.12,4.17,3.65-.03,3.6,2.56,7.38,2.99,5.83.66,11.42-.87,17.19,1.27,10.7,3.95,2.56,8.95-3.29,12.04s-32.28,12.36-37.69,10.51c-1.52-.52-4.67-12.33-4.79-14.48-.09-1.81.79-2.38.86-3.45.31-4.91-3.86-1.66-5.68-2.82-.34-.22-2.7-6.76-2.86-7.55-.55-2.71.47-4.03.3-6.34-.43-5.82-5.1-14.29-5.6-20.6-.61-.8-17.76-5.29-19.33-5.35-2.62-.1-4.85,5.59-6.57,7.91-6.04,8.17-9.93,11.49-13.52,21.07-.21.56-3.88,5.85-4.24,6.13-1.74,1.36-4.61.48-5.2,1.5-4.16,7.17,16.72,18.17,10.88,25.33-2.96,3.62-18.91.95-22.9-1.08-4.61-2.34-14.74-15.78-17.02-20.66-.48-1.02-.96-1.43-.76-2.76.23-1.52,5.49-9.42,6.79-10.95.9-1.06,3.71-2.59,3.83-3.13.21-.94-2.75-2.79-.28-8.7,2.2-5.26,4.3-4.6,7.12-7.48,3.32-3.39,5.45-12.35,9.3-16.05-8.13-3.25-16.37-5.98-23.74-10.83-18.32-12.04-12.27-21.81,3.76-31.48.82-.5,4.92-1.46,2.59-2.66-4.36-2.24-6.61-2.38-9.18-7.6-17.41,4.73-35.04,9.96-50.77,18.99-11.11,6.38-21.16,14.62-25.61,27.03,7.29-1.05,8.37,4.97,6.92,10.77,12.2-4.09,13.48,11.38.76,10-.26,1.48,1.13,2.31,1.38,3.61.49,2.58-.58,7.49,3.13,8.29,5.15,1.11,3.35-2.19,4.32-4.22,2.15-4.51,7.73.56,8.46,3.84,5.05-7.45,11.61-.04,5.76,6.14,8.27,1.94,6.7,12.02-2.3,8.47-.3.31.57,2.71.94,3.28,2.69,4.21,13.84,9.04,17.5,13.24-.55,1.07-2.01.03-2.73-.34-5.18-2.7-10.86-7.61-15.32-11.45-2.72,2.32-4.7,3.39-7.32.27-.99-1.18-1.38-3.35-1.54-3.47-.68-.51-2.97,1.51-4.21,1.5-1.47,0-2.8-1.94-4.23-1.18-.43.23-5.09,6.11-4.6,6.59,3.86-1.46,9.42-1.4,12.27,1.92-2.97,6.2-14.16,1.6-16.56,3.39-2.64,1.97-8.48,16.9-9.54,20.82,8.54-10.05,19.61-20.19,33.81-19.21-1.49,9.78-8.19,18.52-14.21,26.14l-8.08,7.68ZM324.54,314.65c.8-1.05,1.01-10.08.78-11.86-6.13-2.37-4.26,9.68-4.62,13.4.16.17,3.71-1.37,3.84-1.53-.13.21.28.98-.51,1.58-1.07.81-3.59,1.25-4.87,2.27l.76-9.99h-17.67c-.16,0-.37,1.97-1.18,3.03-4.25,5.6-8.21,6.41-14.6,8.47-1.58,9.55-.92,22.62-3.66,31.7-1.38,4.58-13.54,21.4-13.39,23.3,1.53,1.95,3.34,3.73,5.38,5.16,2.52,1.77,8.74,5.84,11.33,3.3,4.97-7.89,12.99-15.28,17.18-23.56,5.16-10.22,7.48-23.67,11.68-34.44,1.28-2.18,8.26-5.13,10.75-5.41,1.47-.17,1.65.93,1.11,1.5-1.44,1.48-10.41,2.63-10,6.48,7.8,18.28,13.26,37.32,18.06,56.58.55,1.4,4.17.32,4.25-.46-4.21-18.43-9.99-36.29-16.14-54.12l2.87,5.95c6.08,15.55,10.19,31.6,14.03,47.85l18.44-4.62c-2.37-10.67-3.67-21.56-5.75-32.29-1.14-5.9-5.42-30.44-7.31-34.01-.56-1.07-2.52-1.06-3.51-2.05-1.09-1.09-1.02-2.94-2.31-3.84-1.77-1.23-4.62-.38-5.76-1.15s-.48-3.24-.74-3.49c-.23-.23-4.97.43-6.12-1.56-.11,3.57.05,8.49-.81,11.91-.43,1.7-1.25,1.53-1.5,1.93ZM281.49,352.31l5.36-45.81c-.04-2.21-3.37-1.94-4.95-2.63-2.04,15.35-1.42,31.05-3.53,46.4-4.91,5.8-7.86,13.56-11.96,20.1,2.56,6.62,2.21,3.01,4.21-.14,3.29-5.18,6.32-10.52,9.74-15.62l-1.14-3.85,2.29,1.54ZM298.41,307.74l-10.75-2.31-.77,9.99c4.67-1,9.68-2.94,11.52-7.68ZM279.2,309.28c-1.9-.11-3.85.17-5.75-.02-3.12-.31-9.3-2.27-11.56-2.2-5.37.16-19.95,11.85-19.94,17.97,0,11.17,24.96,21,34.18,23.45l3.08-39.2ZM286.89,318.49c1.42,1.63,14.65-6.03,14.58-9.61-.07-3.49-4.21,2.78-4.56,3.11-3.91,3.7-5.93,2.59-9.49,4.21-.93.42-.65,2.15-.53,2.29ZM473.61,326.18c-3,.05-3.35,2.97-3.08,5.38-.97-.76-4.9-2.67-5.37-.37s3.67,2.51,3.84,2.69c.57.6-2.51,3.78-1.53,5.37,2.16.84,3.29-2.02,4.32-2.26,1.29-.3,2.72,3.14,4.89,2.26.98-1.58-2.1-4.77-1.53-5.37.15-.16,3.76-.37,3.83-1.93.09-2.06-4.43-.09-5-1.11-.74-1.31-.27-3.19-.36-4.65ZM326.84,362.3l-11.52-30.73-8.44,24.98c.08,1.04,19.12,6.38,19.96,5.75ZM159.55,356.71c.82.99,5.98,3.26,7.12,3.07.82-.14,1.37-2.62,3.36-3.29,2.21-.74,4.68.39,5.48.04,2.76-1.19,4.48-9.78.18-11.03-4.91-1.44-6.3,7.37-5.61,10.66-2.98-1.86-5.14-6.51-9.43-5.25-2.54.74-2.58,4-1.09,5.8ZM186.77,361.34c4.67-4.95-7.44-8.55-10.18-3.69-.2.35.35,4.38.85,4.75,1.86,1.38,7.74.63,9.33-1.06ZM175.37,362.22c2.15-4.91-4.32-6.36-6.78-2.52.63,3.23,4.34,2.8,6.78,2.52ZM167.61,360.93c-3.71-1.77-12.95,8.29-4.86,9.13,5.48.57,4.77-3.93,8.85-5.45-1.42,3.78,2.97,13.58,7.5,9.03,1.92-1.92-.2-8.88-1.47-9.68-.87-.55-5.01.12-6.99-.33-2.09-.47-2.85-2.62-3.04-2.71ZM170.84,369.99c-1.22-1.34-1.31.29-1.55,1.12-4.12,14.05-6.85,28.61-9.21,43.07l8.04-11.17,2.72-.73c.09,1.4.25,3.35-1.53,3.84l.37-2.31h-1.13c-2.41,4.99-7.24,10.02-8.87,15.36-1.91,6.27-.88,14.32-2.67,20.76,1.96.35,1.38-.3,1.88-1.53,5.01-12.4,7.92-25.96,16.24-36.87-1.03-5.32-3.94-12.16-.36-17.23,3.94-5.58,6.55,8.21,4.53,11.06,4.86-2.26,4.04-7.37,7.67-10.38-6.88-1.01-2.35-7.38-5.74-9.67-2.11-1.42-3.09,2.02-7.12.25-3.39-1.49-2.77-5.02-3.27-5.57ZM264.59,370.76c-1.81-1.32-4.98,6.21-4.47,8.66,1.47,7.09,23.18,21.92,25.99,6.72-6.81.51-15.68-5.57-19.54-10.81-.92-1.25-1.78-4.41-1.98-4.56ZM192.49,380.61c5.6,3.23,3.3-9.65-1.25-8.3-2.8.83.15,7.67,1.25,8.3ZM161.62,396.89c.45-7.95-1.45-16.85-7.67-22.29-.91,7.5,1.99,14.53,5.77,20.77.58.96-.16,1.95,1.9,1.52ZM200.59,374.73c-1.99.56-4.51,4.44-2.91,6.46,3.81,4.82,9.99-8.47,2.91-6.46ZM185.99,377.78c-4.44,1.12-1.24,6.12,3.71,6.09,6.12-.04-.91-6.79-3.71-6.09ZM479,439.94v-59.19c-9.57,12.92-11.89,30.37-9.99,46.12-2.03.34-1.36-.33-1.75-1.66-1.17-3.94-1.45-8.53-2.65-12.76-3.67-12.89-9.36-26.75-20.57-34.77-2.46,16.53,2.72,34.48,9.72,49.46.8,1.72,6.53,12.41,7.31,12.67.85.28,4.34.9,3.98-.9-2.96-14.91-9.44-29.04-13.7-43.56l7.12,17.08,7.92,27.54,8.01-.04c-1.28-7.87-.13-15.53,0-23.44l3.06-17.3c-1.29,13.57-2.97,27.05-2.3,40.74h3.85ZM360.62,380.77c-1.08-.76-23.43,5.44-25.35,7.27-1.59,1.5.94,8.31,1.66,8.76,1.72,1.09,21.4-7.13,25.21-6.87l-1.51-9.16ZM197.57,382.48c-2.63-2.53-7,1.19-2.89,3.27,3.51,1.77,4.39-1.82,2.89-3.27ZM200.49,383.11c-3.91.94.95,9.64,5.38,6.17,3.74-2.93-3.59-6.6-5.38-6.17ZM176.98,399.2c1.16-4.95,3-10.03-.37-14.6-2.67,3.14-2.19,7.65-1.39,11.37.16.74.73,3.29,1.76,3.22ZM193.84,386.22c-3.01-4.13-12.59,4.28-6.17,5.68,2.77.6,7.15-4.33,6.17-5.68ZM261.14,384.61c-3.77-.11,2.44,9.29,5,8.1.2-.09,1.51-1.47,1.51-1.58,0-.46-6.06-6.5-6.52-6.52ZM258.44,386.9c-1.15-1.03-6.42,6.74-6.01,8.65.33,1.54,11.78,17.3,13.29,18.3,2.33,1.54,4.88-3.1,7.28-4.32,2.15-1.1,4.58-1.59,6.96-1.88.21-1.31-1.85-.83-2.62-.7-1.33.23-5.91,2.19-6.59,1.47-.1-.11-.13-2.72.09-2.98.63-.77,6.3-.11,6.83-2.38-1.91-.48-10.04,3.15-9.22-.38l4.6-2.69-5.37-.38c1.68-2.41,5.97-.28,7.72-1.5.81-.56,1.05-3.04.69-3.47-.22-.26-6.17-2.19-6.51-2.16-1.25.12-1.71,2.62-2.01,2.79-1.75,1.03-10.01-5.1-9.13-8.36ZM194.74,387.75c-1.9,1.29-.52,9.26,3.24,8.3,4.72-1.74.14-10.59-3.24-8.3ZM471.32,390.76l-14.6-2.31c3.9,7.78,8.04,15.83,9.23,24.59l5.37-22.28ZM140.87,392.28v34.97c0,.68,5.67,11.67,6.09,12.21.7.89,1.46.4,2.36.48.47-11.25-4.08-21.76-6.57-32.25-.18-.78-1.01-2.51.42-2.34,3.83,11.18,6.91,22.69,7.72,34.57.74-.09,2.86.19,3.05.02,1.09-1.04-1.18-19.51-1.76-22.45-1.7-8.54-5.32-18.91-11.3-25.21ZM357.58,393.06l-15.38,4.61c-.01,6.43,6.84,5.05,10.31,2.23,1.61-1.31.98-2.89,1.94-4.21.73-1,2.8-1.18,3.12-2.63ZM362.95,402.28c-.5.45-3.01-.33-3.05-1.15-.07-1.68,8.14-6.73-.42-5.82-5.87.62-3.15,3.34-3.77,4.66-.91,1.94-7.48,3.82-9.67,4.31-1.57.35-2.89-.88-3.83.71l2.32,10.35c.94.91,24.25-5.6,25.34-6.52,1.33-1.12,1.69-8.44,3.84-10.37-2.63-.69-3.53,4.38-4.22,4.62-3.79,1.3-.98-3.61.38-4.62-2.52-.77-3.75,4.62-4.23,4.61-3.24-.54-.92-2.81.39-4.24-2.39-1.97-2.81,3.22-3.08,3.46ZM287.65,419.19h-13.45c-.3,0-5.13-1.6-5.78-1.91-7.1-3.42-12.6-15.31-17.65-21.15,7.19,15.33,15.23,26.79,34.22,24.63,1.15-.13,2.38-.16,2.66-1.57ZM387.55,399.98c-.96-.98-10.77-2.18-12.14-1.39-1.01.58-4.06,7.35-3.23,9.06.62.65,12.85-4.97,14.38-5.96.6-.39,2.14-.53.99-1.71ZM181.41,400.16c-2.65.48-5.35,2.25-1.73,2.89,9.54,1.68,13.94-5.1,1.73-2.89ZM232.32,399.98c-6.96.34-11.29,6.71-12.29,13.06,5.83-1.51,12.31-6.61,12.29-13.06ZM387.55,403.05c-4.69,1.56-9.01,4.21-13.63,5.96-8.58,3.26-17.27,4.58-25.73,7.33-.81.26-2.32.19-2.14,1.3,7.73-.35,16.1-2.79,23.45-5.36,5.92-2.07,13.64-4.88,18.04-9.23ZM213.1,421.49c1.27-4.94,1.67-11.21-1.91-15.36-3.47,3.97-2.71,12.45,1.91,15.36ZM197.74,407.66c-17.43.61-32.05,16.29-36.88,32.28,1.45-.07,3.31.39,4.6-.38,2.39-1.42,8.43-13.89,12.69-15.75,1.25.76-.25,1.7-.76,2.31-2.32,2.74-9.29,9.92-10.37,12.69-.73,1.87,5.6,1.27,6.49,1.1,7.19-1.32,22.32-24.67,24.24-32.24ZM287.65,417.65c-.28-10.57-16.16-10.05-19.21-2.68-.62,1.5.97,1.07,1.69,1.34,5.51,2.08,11.77,2.07,17.52,1.34ZM206.19,439.94h40.34c.27,0,3.24-4.08,2.69-4.61l-6.14,2.3c-.44-.46,3.05-13.59-3.46-.77l-2.7-6.91-1.52,7.68c-2.42-7.1.74-16.15,3.84-3.84,1.22-.1,1.2-1.84,2.23-2.75,3.88-3.42,4,1.29,3.14,4.29.4.43,10.27-5.43,3.84,4.62h33.04l-19.49-8.56-36.23-18.84c-2.89,1.36-7.5,2-8.06,5.87,4.48-1.27,8.8-1.25,13.02.82-.04,5.37-8.23,7.36-12.57,6.82-1.42-.18-3.79-1.58-4.6-1.39-1.08.26-3.4,5.88-4.31,7.2,4.71-1.65,10.93-4.04,15.68-1.07,2.63,1.64.02,3.28-1.58,4.4-3.93,2.76-7.52,2.66-12.16,2.43-3.09-.15-4.5-2.56-5,2.31ZM459.02,439.93c-7.47-11.15-18.45-21.22-32.27-23.05-2.51,2.58,14.25,22.17,18.86,23.02,1.79.33,3.88-.11,5.73.03l-.39-2.3c1.99,3.03,4.86,2.35,8.07,2.29ZM206.19,434.56c.19-4.8,0-13.63-5.37-15.37-.34,5.91-.28,12.07,5.37,15.37ZM229.25,419.97c-2.77-.8-5.78-1.2-8.66-.6-1.06.22-7.18,3.06-5.93,4.43,5.08,1.42,11.62,1.23,14.6-3.83ZM430.58,439.94c-.38-4.23-2.46-8.51-6.14-10.76l1.53,8.45c-5.55-2.39-12.66-6.01-18.42-2.69,1.49.48,2.77,5,3.06,5h19.98ZM223.86,431.49c-5.24-1.22-11.44-.51-15.35,3.45-.08,2.53,15.8,1.74,15.35-3.45ZM145.48,439.93l-4.6-8.45v8.46s4.6-.01,4.6-.01ZM200.81,439.94c-.66-3.77-3.42-6.99-6.9-8.45.01,6.67-.91,9.72,6.9,8.45Z"/>
        <path d="M329.92,51c-.8-8.1,6.43-5.66,9.22-7.3,1.05-.62,1.57-3.47,3.62-4.07,1.69-.49,5.65.26,6.27-.28.23-.2.82-3.36,2.48-4.82,2.7-2.38,7.8-2.75,10.98-1.12s4.15,5.82,5.04,6.49c.38.29,4.54-1.46,7.34,1.88.76.91.97,2.86,1.94,3.44,1.46.88,3.9.05,5.79,1.89s1.34,3.88-.8,3.88h-51.87ZM375.39,46.25c-.41-.26-1.17-3.93-3.23-4.86-2.28-1.04-4.46.74-5.39.08-.75-.53-1.2-3.81-3.01-5.49-4.37-4.09-10.39-2.87-13.28,2.19-.47.82-.51,2.72-.62,2.82-.85.76-5.62-2.45-8.45,1.16-.69.88-.84,2.7-1.48,3.17-.8.58-8.38-1.37-9.25,4.15h51.48c.45-3.19-5.79-2.57-6.78-3.2Z"/>
        <path d="M313.62,427.04c2.99-.26,8.39.63,9.35,3.99-1.68,4.31-16.48,3.17-16.73.09-.19-2.39,5.45-3.91,7.38-4.08ZM307.63,431.48c.89.96,14.57,1.98,13.83-1.13-.42-1.76-6.43-2.08-8.06-1.94-.94.08-7.33,1.38-5.76,3.08Z"/>
        <path d="M419.63,395.95c-4.47,3.48-22.41-.59-10.23-4.48,4.95-1.58,14.1,1.46,10.23,4.48ZM406.77,395.36c4.14.58,8.59,1.71,12.28-1.15-.05-2.34-12.29-3.35-12.28,1.15Z"/>
        <path d="M405.01,416.28c6.57-1.52,8.61,3.86,2.83,4.43-4.42.44-8.5-3.11-2.83-4.43Z"/>
        <path d="M192.91,334.8c6.74-2.01,15.15,2.69,6.57,4.26-5.73,1.05-12.44-2.51-6.57-4.26ZM201.58,337.71c.66-3.72-8.5-2.27-9.21-1.52-1.08,1.12.07,1.39,1.14,1.53,2.51.32,5.5-.23,8.08,0Z"/>
        <path d="M247.69,355.39c-2.78,1.52-11.5,1.78-11.51-1.15,0-2.76,11.53-4.28,12.99-.71,1.01,2.45-1,1.6-1.48,1.86.29-.1.95-1.08-.02-1.9-2.44-2.07-7.65-1.42-9.97.75,1.81,1.28,8.23,1.75,9.99,1.15Z"/>
        <path d="M306.64,377.84c7.76-2.31,13.54,4.02,5.16,4.39-3.57.16-10.41-2.82-5.16-4.39ZM314.54,379.23c-.78-.8-7.79-1.59-8.44.75,2.33.7,4.87,1.11,7.31.78,1.06-.14,2.23-.39,1.13-1.53Z"/>
        <path d="M201.59,340.79c2.42-.92,4.33-.98,6.13,1.15-1.87,2.52-5.79,2.26-6.13-1.15Z"/>
        <path d="M451.15,322.53c1.07,1.09.93,3.71.96,5.19,3.71-3.6,8.77.67,5.39,4.27-.85.9-2.25,1.02-2.32,1.13-.49.67,1.38,2.43,1.55,3.49.62,3.81-3.2,4.11-3.08,4.55.66,2.42,3.22,6.15,4.21,9.62,1.06,3.69,1.97,7.66,1.93,11.52l3.44-10.76,2.32-3.06c2.78,4.8,0,10.28.39,15.37,2.63-2.26,4.21-6.46,8.44-6.15.14,1.34,0,2.56-.36,3.86-.23.81-4.62,9.58-5.03,9.97-.06.06-1.62.29-1.52-.37,1.93-3.76,4.78-7.71,5.36-11.92-5.02,2.74-5.85,8.36-9.21,12.3l1.52-19.98-2.85,9.05-.99,10.93c-2.23-2.1-2.56-5.49-4.28-8.39-2.13-3.59-7.2-8.89-11.45-9.31-.79-.08-2.53-.36-1.92,1.16,1.34,3.33,12.13,6.45,15.02,13.42.29.69.98,2.52-.42,2.34-2.17-8.83-15.27-9.84-16.15-18.44,4.97-.79,8.85,1.82,12.33,4.96l4.57,6.56c-.08-4.66-5.07-24.5-9.71-25.31-1.34-.23-4.43,5.05-7.2,1.88s1-6.27.78-6.54c-.69-.81-5.46-.54-3.75-6.06,1.38-1.18,5.18-.45,5.95-.96.39-.26,1.87-8.58,6.06-4.32ZM450.57,329.25c1.58-7.82-4.8-8.9-3.85,0-7.09-3.9-9.24,3.01-1.53,3.85.85.92-4.87,4.81-1.14,6.91,2.84.28,4.02-4.29,5.35-3.84s2.76,4.28,5.77,3.06c.37-2.58-.2-4.23-2.29-5.76.82-1.42,3.15-1.33,3.91-2.45,3.08-4.53-3.88-2.72-6.22-1.78Z"/>
        <path d="M412.91,365.38c-2.11-1.34-3.46-5.93-5.92-6.76-1.03-.34-2.23-.14-3.3-.15l2.69,5.37c-1.98-1.66-3.33-3.31-4.2-5.77l4.58-1.15c.39-1.35-1.84-.36-1.53-1.14.85-2.14,2.8-1.34,2.75,1.05l3.39,4.7c-.02-4.14-.23-8.26.78-12.3,3.94,1.28,4.7,7.13,4.61,10.76,3.89-5.47,10.64-9.41,6.13.76,4.05,0,3.51,2.27,1.15,4.62v-3.84s-4.22,4.6-4.22,4.6c-.35-3.91,3.92-7.06,2.69-10.75-1.36,1.23-2.57,2.6-3.48,4.2-.46.8-1.81,6.65-3.05,5.02-.47-.62.36-11.88-3.08-13.06v13.84Z"/>
        <path d="M392.37,313.67c.81.85,4.14.35,3.51,3.48-.59,2.91-3.46,3.07-4.26,3.87-.94.94-.28,3.97-3.65,3.65-2.98-.28-2.4-3.53-2.74-3.89-.22-.23-4.35,2.38-5.8-.75-.65-1.41,2.01-2.96,2.31-3.82.42-1.23-1.41-3.83.92-4.58,2.08-.67,4.62,1.66,4.87,1.47.3-.24.25-3.42,3.42-2.26,1.25.46.86,2.23,1.42,2.81ZM390.63,315.41c-.23-.21,1.64-3.4-.4-3.83-1.58-.33-2.58,2.66-2.69,3.83-1.21.26-.7-1.41-1.49-1.92-1.12-.71-2.62-.33-3.87-.38-.29,2.13,1.88,2.5,3.07,3.45-.34.86-6.24,1.39-4.6,3.46,1.17,1.47,4.85-1.14,5.36-.76.27.2.32,4.68,2.7,4.59,1.61-.06.98-4.43,1.15-4.6.22-.23,2.99.17,3.84,0l-3.07-1.52,3.83-1.17c-.02-3.12-3.3-.65-3.84-1.15Z"/>
        <path d="M379.87,343.09l4.6-3.07c-.79,2.73.88,7.59-3.07,7.68-.72-.75,3.02-5.4.77-6.14-.2.62-2.67,6.84-3.85,5.37-.5-2.78,1.36-7.52-1.53-9.22l-1.53,10.76c-.7-2.4-2.42-4.9-4.61-6.14l3.06,6.54c-1.17,1.7-3.87-3.75-4.24-4.98s-.46-2.54-.36-3.86c3.17-.12,4.05,3.08,6.14,4.61-.03-3.41-.52-8.04,3.07-9.99l1.55,8.45Z"/>
        <path d="M452.88,295.43l-.39-5.36-1.93,4.6c-4.88-2.67-9.11-2.84-3.06,2.3-3.34-.15-4.35-2.26-3.85-5.37,1.98.31,5.77-1.19,5.39,1.53h.75c.28-1.8,1.03-4.26,3.46-3.83,1.67.51,1.86,5.66-.37,6.14Z"/>
        <path d="M469.79,304.66c.46.32,1.92-1.71,3.07-1.19,1.7.78,2.13,2.99,0,3.5l-.39-2.3-2.31,2.29c-.93,0-1.66-5.38-4.22-4.59l-.76,6.14c-.72-2.13-1.71-6.09.75-7.34s3.62,3.33,3.87,3.51Z"/>
        <path d="M413.67,277.76c-.7,3,1.81,6.57-1.15,8.45l-.39-4.6c-1.83.15-1.26,4.29-1.53,4.61-1.61,1.86-2.38-4.56-3.46-4.61l.38,5.37-3.07-1.92c2.95-.63.17-3.55,1.54-5.76l3.82,4.6c.05-.92,2.47-7.76,3.85-6.14Z"/>
        <path d="M438.27,314.64l-3.07-.76c.05,4.4,1.04,5.13-3.84,4.61l1.53,3.06c-7.59-3.3.24-3.51.67-3.93.78-.74-.31-8.26,4.7-2.99Z"/>
        <path d="M156.04,321.02c.45.56.27,2,.92,2.53.5.41,3.67-1.64,5.09,1.1,1.06,2.04-1.19,2.78-1.07,4.09.11,1.21,3.07,4.68-.85,5.59-2.54.59-3.4-1.08-4.28-1.03-.77.04-2.65,3.1-4.49,2.76-3.73-.69-1-5.79-1.25-6.03-.34-.31-4.58-.06-3.77-3.32.69-2.8,4.88-1.77,5.25-2.12.27-.26,1.1-7.74,4.45-3.57ZM155.48,325.42c-.28-.3.6-4.43-2.31-3.85v5.37c-4.98-2.2-8.54,1.84-1.54,2.32-1.25,2.09-2.32,7.05,1.53,5.05,1.14-.59,1.33-2.71,1.99-2.81,1.22-.17,5.1,3.25,5.7.43.37-1.75-2.31-1.55-2.31-2.3,0-1.69,3.07-2.56,2.31-4.98-1.14-.44-4.98,1.2-5.37.77Z"/>
        <path d="M209.13,259.44c.7,1.24-.45,2.43-.55,3.37-.03.23,4.29,2.98-.08,3.4,1.42-2.27-1.67-2.07-2.19-3.57-.39-1.11.11-3.89-.11-4.11-.08-.08-2.21-.07-2.3,0-.37.33.9,2.81-1.14,2.3-1.17-.65-1.21-4.2-3.07-3.83-2.75.54,1.14,4.71.97,5.8s-3.47,1.34-2.9,3.42c1.02-.62,2.81.11,3.36-.02.92-.23-.05-1.83,1.24-1.51l.39,3.07c1.27-.52.93-2.82,1.17-3.07,1.94-2.08,1.89,3.07-.51,3.76-.7.2-6.08-1.25-6.29-1.58-.42-.63-.44-4.77-.89-6.02h2.31c-1.45-2.64-1.03-5.37,2.49-4.43,2.34.63,3.36.41,4.64.72.2.05,3.38,2.13,3.49,2.31Z"/>
        <path d="M243.86,24.09c.07,7.38-6.79,9.04-11.53,3.84-1.85,8.53-11.51,6.56-13.08-1.15.25-3.14,1.99,1.92,2.31,2.31,4.57,5.44,9.77,3.53,10-3.46,2.5,1.74,4.26,4.75,7.89,3.71,3.92-1.12,2.32-7.53,4.02-7.54,4.75,4.85,9.49,1.65,8.85-4.62,1.36-.07.88,3.5.74,4.2-.8,4.06-6.12,5.13-9.19,2.71Z"/>
        <path d="M178.52,61.76c1.13,7.89,6.61.37,6.92.77-1.78,8.8-6.46,1.9-8.17,1.62-1.1-.18-4.78,3.78-7.19-.47,1.18-.86,2.57.64,4.17.43,2-.26,2.39-2.65,4.27-2.34Z"/>
        <path d="M154.7,26.4c.17.18-.06,3.24,2.07,3.77s3.84-3.25,4.85-2.23c1.2,1.21-2.79,3.73-4.71,3.46-1.38-.19-2.98-1.76-3.37-1.76-.44,0-5.74,5.15-6.51-.17,1.56.69,2.98,1.25,4.61.41,1.44-.75,1.52-5.03,3.05-3.48Z"/>
        <path d="M143.17,237.78c-1.32.19-.81-1.81-.75-2.67.56-7.66,3.3-15.34,3.82-23.09.6-9.01-.45-18.58.02-27.66.5-9.82,3.13-19.54,3.82-29.23.61-8.48-.41-17.6-.02-26.16l1.56-13.42c.85,5.17-.85,10.92-.83,15.75.07,15.25-.56,23.47-2.14,38.54-1.62,15.44-.05,30.28-1.65,45.24-.81,7.61-3.25,15.04-3.84,22.68Z"/>
        <path d="M163.15,245.47l-1.52-8.08c.3-24.5-7.21-48.18-3.07-72.63,1.31-.14.83,2.64.8,3.49-.37,8.4-1.36,16.82-.79,25.32.48,7.13,2.43,15.02,3.06,22.31.85,9.81.83,19.76,1.54,29.58Z"/>
        <path d="M160.85,159.38c-1.32.14-.84-2.65-.79-3.48.23-3.72,1.25-7.79,1.56-11.51.54-6.33.1-14.59,1.78-20.52.23-.8.18-2.33,1.29-2.15l-3.84,37.66Z"/>
        <path d="M404.85,59.46c3.45-1.04,3.12,4.11.75,4.6-2.21.45-2.69-4.01-.75-4.6Z"/>
        <rect x="470.38" y="57.43" width="1.19" height="15.55" transform="translate(5.95 164.29) rotate(-19.91)"/>
        <path d="M465.17,118.63l-9.18-3.5-13.87-1.87c7.65-.12,17.19-.24,23.05,5.37Z"/>
        <rect x="447.08" y="330.38" width="3.89" height="3.89" transform="translate(-103.49 414.77) rotate(-44.99)"/>
        <g>
          <path d="M332.98,87.13l-6.28.17c-6.06.77-10.68,3.11-14.45,7.9-1.29,1.64-1.54,3.98-3.07,4.99,2.01-10.21,14.1-16.33,23.81-13.05Z"/>
          <path d="M320.69,77.14l-7.12,3.04c-1.6,2.28-8.67,9.28-2.88,5.41.44.56-2.67,4.96-3.24,6.36-.63,1.56-.06,4.04-1.36,4.4-.52-3.29.74-5.72,2.3-8.45l-2.29-.38,3.83-4.63c.29-.76-1.8,0-1.53-.76.71-2.04,9.76-5.74,12.29-4.99Z"/>
          <path d="M339.14,172.45c-4.24,4.88-12.15,6.7-18.44,6.91-.17-1.99-.12-1.28,1.15-1.51,6.8-1.22,10.94-2.99,17.29-5.4Z"/>
          <path d="M270.75,181.67c-4.98-1.01-.49,4.38-.77,4.61-2.72,2.22-2.35-5.96-2.44-6.36-.7-3.04-6.93-4.62-8.7-1.32-.9-3.45,4.04-3.53,6.58-2.72,1.3.41,6.27,4.9,5.34,5.8Z"/>
          <path d="M307.57,125.61c.79,1.16-.36,4.59-1.52,5.67-1.84,1.72-9.91,4-13.26,5.96-2.12,1.24-4.84,3.23-6.73,4.82-.24.2-4.37,5.93-4.54,2.34-.07-1.4,3.82-7.45,5.03-8.79,2.5-2.78,18.71-13.39,21.02-9.99ZM306.09,127.1c-1.96-1.67-18.95,8.41-19.98,12.29l10.48-6.03c3.27-1.66,8.66-1.75,9.49-6.26Z"/>
          <path d="M308.24,141.93c11.14-.93,11.97,7.83,10.92,17.07-1.13,9.92-13.68,14.58-22.31,12.32-6.16-1.62-12.31-14.57-10.03-20.06,2.12-5.12,16.16-8.89,21.42-9.32ZM308.24,143.46c-4.72.38-18.81,4.03-20.28,8.98-1.27,4.27,4.21,15.92,8.87,17.36,7.44,2.3,19.8-2.24,20.79-10.8.95-8.25.76-16.34-9.38-15.53Z"/>
          <path d="M347.44,130.36c3.31-.27,6.25-.14,8,3.11,2.11,3.92,2.84,12.59,1.97,16.89-1.28,6.32-11.34,9.22-16.94,8.07-6.58-1.36-12.99-13.82-11.15-20.03,1.26-4.26,14.05-7.71,18.12-8.03ZM348.22,131.9c-3.61.19-16.28,3.57-17.38,7.27-1.5,5.03,4.12,16.04,9.02,17.56,4.56,1.41,14.29-.7,15.84-5.77,1.14-3.74.38-16.1-3.19-18.41-1.66-1.07-2.56-.75-4.29-.66Z"/>
        </g>
      </g>
    </g>
  </g>
</svg>