<?xml version="1.0" encoding="UTF-8"?>
<svg id="Capa_2" data-name="Capa 2" xmlns="http://www.w3.org/2000/svg" xmlns:xlink="http://www.w3.org/1999/xlink" viewBox="0 0 603 452">
  <defs>
    <style>
      .cls-1 {
        fill: none;
      }

      .cls-2 {
        clip-path: url(#clippath);
      }
    </style>
    <clipPath id="clippath">
      <rect class="cls-1" width="603" height="452"/>
    </clipPath>
  </defs>
  <g id="Capa_1-2" data-name="Capa 1">
    <g class="cls-2">
      <g>
        <path d="M474.79,6.99v438.03H128.21V6.99h346.58ZM473.23,8.55H129.77v74.18h78.45c2,0,.91,9.81,1.17,11.71h-79.62v60.9h10.93v-13.66c0-2.18,3.81-2.7,3.95-3.21.42-1.46.03-8.63-.01-10.88-.03-1.22-.86-3.29-.73-3.81.48-1.96,4.28-.94,4.6-1.23.53-.49-.81-7.78.45-8.68,1.65-1.18,8.95-1.1,10.49.46,1.64,1.66.39,6.6.77,9l5.09-.74c1.65-2.61-1.69-7.71.32-9.06.95-.64,7.48-.56,8.85-.19,3.53.96.11,8.83,1.33,9.99.3.28,3.87-.59,4.68,1.18-.53.88-4.68.15-4.68.39v24.2h-30.44c-.45,0,1.01-8.11-1.18-8.58-.76-.17-1.94.88-1.94,1.17v13.66h56.2v-13.66c0-.83-2.25-1.49-3.12-1.17l-.04,6.6-.75.03v-20.3c0-.33,1.64-1.14,1.56-1.94l-5.46-.02c.34-2.41,6.93-1.92,7.01-.39,0,.18-1.33,1.77-1.5,3.17-.2,1.67-.42,9.67-.09,10.8.15.51,3.95,1.03,3.95,3.21v13.66c1.74.05,8.48-.35,9.26.89.51.82.49,11.6-1.06,11.6h-78.45v92.92h10.93v-24.2c0-.17-2.45.44-3.02-1.26s-.57-5.76,1.85-5.76h11.32c-.25-2.87.38-6.14-.04-8.94-.26-1.72-3.59-5.29.04-7.07,1.64-.81,12.37-.74,13.73.32,2.77,2.15-.17,4.17-.42,5.97-.44,3.04.23,6.61-.04,9.73h8.14c.64-.09.66-7.86.49-9.02-.32-2.24-3.43-5.33-.04-6.99,1.44-.71,9.32-.64,11.27-.34,6.26.97,2.39,4.28,1.96,7.32s.38,6.73.05,9.8c2.67-1.35,5.71-.65,8.58-.78-.31-3.08.45-6.75-.04-9.73-.3-1.81-2.93-3.38-.76-5.52,1.82-1.8,13.89-1.87,15.25.4,1.56,2.61-.86,4.06-1.15,5.91-.43,2.79.21,6.07-.04,8.94h12.1c.89,0,1.93,3.11,1.91,4.23-.06,3.92-3.08,2.55-3.08,2.8v24.2h34.74c.43,0,5.71-3.58,7.43-4.28,7.02-2.85,16.82-4.03,21.14-10.08l6.16-4.37c-11.17-4.46-22.8-11.24-30.42-20.72-1.45-1.8-5.7-9.87-6.22-10.16-.49-.28-2.79.56-4.21.37-11.02-1.51-18.56-7.78-21.23-18.66-1.31-5.34-1.45-14,1.62-18.73,2.07-3.19,6.92-4.4,6.67-8.22l-8.5-32.25c.45-14.47,4.76-27.76,17.01-36.46,1.25-.89,5.18-1.79,5.36-2.08,1.44-2.23-1.83-16.48-.68-20.19-2.26,1.53-2.33,6.27-6.25,4.28,4.26-10.72,10.02-22.76,20.07-29.11,6.64-4.19,16.41-9.17,24.14-10.22,1.12-.15,2.38.68,3.62.51,10.85-1.5,14.89-3.18,26.34-.22,13.2,3.41,36.59,13.99,48.92,20.56,7.82,4.16,14.55,10.23,22.53,14.16,1.6,4.3-1.82,1.37-4.31,1.97,4.63,4.49,9.95,9.89,8.41,17.01-.37,1.69-2.01,3.1-2.14,4.9-.2,2.96,2.77,11.29,3.08,15.59.98,13.53-2.58,28.95-6.77,41.62-.96,2.89-5.39,10.54-4.99,12.94.12.71,2.25.91,3.14,1.68,3.07,2.61,4.72,5.47,5.3,9.54,2.21,15.37-5.24,29.42-21.5,31.26-1.74.2-3.7-.99-4.84-.28-.55.34-5.35,8.96-7.05,10.96-7.09,8.41-18.52,15.6-28.85,19.16l7.04,5.04c3.69,5.54,11.36,6.38,17.43,9.11,2.08.93,8.19,5.35,8.7,5.35h73.77c.77-1.91-3.97-3.12-5.07-3.12h-16.78c.22-1.23-.43-3.7.11-4.58.63-1.03,18.29-2.93,17.45,3.01,1.51-2.27,4.48-7.38,1.43-9.24-4.23-2.13-19.42-5.66-22.13-8.3-2.06-2.01-.65-6.44,3.13-5.55,6.37,1.5,19.44,6.69,25.78,9.42,1.65.71,2.87,2.61,4.31,2.77,7.2.77,12.93-17.98,1.93-23.06-8.56-3.95-3.94,2.47-4.05,3.77-.5,5.98-4.8,2.27-5.98,2.96-.79.46-2.53,6.42-4.51,6.79-.52.1-4.73-1.31-4.86-1.52-1.71-2.67,3.36-7.21.27-8.48-.4-.17-3,5.82-7.06,3.17-4.36-2.85.11-5.19.32-6.82.17-1.3-2.16-1.62-.87-4.72,2.19-5.22,5.65-.29,6.44-1l9.01-23.4c4.51-2.04,6.12-6.55,7.64-11.09.94-2.79-.58-6.19,3.25-6.17,1.5.01,9.62,3.5,9.82,4.5.72,3.58-2.26,3.98-3.36,5.9-.91,1.59-3.88,8.78-3.56,10.15.18.77,1.32,1.47,1.37,2.54.1,1.79-2.85,4.31-2.27,6.16.22.7,6.16,3.18,7.79,4.75,11.03,10.66,10.35,29.94,2.18,42.06-.97,1.44-4.2,3.97-4.38,4.92-.18.91,1.17,4.19,1.79,4.19h20.69v-92.92h-65.18c-1.59,0-1.63-10.62-.83-11.76,1.17-1.68,9.81-.42,12.14.05-.08-2.26-2.41-2.91-2.95-5.24-.89-3.87.05-8.67,3.46-11.04,2.82-1.96,6.43-1.11,8.12-2.81.38-.38,4.46-7.52,4.5-7.98.08-.91-1.91-3.38-2.16-5.43-1.91-15.91,22.91-15.21,20.2.82-.32,1.87-2.13,3.31-1.96,4.38.09.58,5.55,9.66,6.05,9.95,1.12.64,4.31-.24,6.67.75,6.06,2.55,6.59,11.69,1.76,15.8,1.7.86,10.15,1.56,10.15-.38v-60.51h-66.35v-11.71h12.49c-2.8-3.57-1.63-8.62,2.71-10.24,1.85-.69,3.25.25,4.71-.62,1.07-.64,4.02-4.46,4.07-5.76.03-.87-.53-7.85-.74-8.21-.27-.47-7.87-6.57-8.38-6.76-2.14-.8-8.05,2.48-10.38-2.96-4.87-11.37,11.19-14.54,13.27-6.25.47,1.87-.23,4,.57,5.68.18.38,5.79,5.03,6.37,5.36,3.24,1.82,4.61-.56,7.72-.73,1.48-.08,4.63.93,4.93.75.28-.16,3.62-5.07,3.71-5.38.68-2.31-1.24-4.2,1.42-7.1,4.24-4.63,11.53-.41,10.29,5.56-1.32,6.33-8.38,2.89-10.83,8.78-.43,1.03.02,8.93.37,10.16.24.83,6.05,5.75,6.63,5.9,1.24.31,3.77-.95,6.03-.64,5.86.79,7.53,8.41,3.57,12.46h7.81s0-74.17,0-74.17ZM423.24,44.45c0-3.06-2.48-5.55-5.55-5.55s-5.55,2.48-5.55,5.55,2.48,5.55,5.55,5.55,5.55-2.48,5.55-5.55ZM456.64,48.17c2-1.74,1.68-7.45-2.54-7.69-8.64-.49-2.85,12.39,2.54,7.69ZM318.67,43.69c-3.72-.85-7.45-2.08-11.28-2.38-7.32-.57-24.64,1.13-31.16,4.03-8.93,3.97-23.12,12.37-26.23,22.17-.7,2.2,1.52,0,1.56.77.08,1.91-.77,4.01-.82,6.2-.11,4.51,1.27,19.6-.36,22.28-.7,1.15-3.35,1.36-4.69,2.34-2.47,1.81-8,6.63-9.75,8.99-9.79,13.26-6.33,29.48-2.76,44.14.29,1.18,2.37,7.77,3.15,7.77,1.82-1.91,8.16-4.1,9.38-6.19.33-.57-.59-3-.47-4.33,1.15-13.3,4.1-23.89,10.58-35.56,8.39-15.12,27.19-15.15,41.79-10.13-4.23-6.04-6.81-13.1-3.91-20.29l-3.89,3.12c.12-2.38-.31-4.87.17-7.24.63-3.13,3.62-5.4,4.5-8.37l-6.23,5.47c.93-3.63,2.42-7.19,3.74-10.69,1.44-3.84,1.13-3.79,2.05-7.26,2.44-9.25,14.55-11.96,22.32-13.67.86-.19,2.53-.01,2.32-1.16ZM379.56,163.93c0-1.02-.02-2.17.38-3.13,6.78-16.17,10.75-32.39,8.99-50.36-.37-3.78-3.01-9.4-2.94-12.68.03-1.32,1.64-2.23,2.23-3.67,2.56-6.3-3.75-10.71-6.95-15.03-1.47-1.98-1.9-4.2-2.91-5.67-4.84-7.06-28.49-15.81-36.78-19.43-5.87-2.56-8.14-5.36-15.7-6.94-11.2-2.33-24.75.08-29.82,11.48.38.41,6.77-5.22,8.57-3.52-6.83,4.46-11.01,8.74-13.26,16.79,3.17-2.2,6.58-5.87,10.92-5.08-5.53,4.23-12.09,10-11.32,17.57,1.64-2.32,3.56-4.97,6.64-5.45-1.55,3.76-3.97,7.02-3.96,11.31,0,3.17,3.11,13.22,6.23,14.11,4.89,1.39,17.58-3.72,23.98-4.25,22.91-1.89,40.88,16.9,43.91,38.64.65,4.69.51,10.55.86,15.36.37,1.55,7.65,4.63,8.41,5.42,1.49,1.57-.17,5.09,2.53,4.5ZM431.86,56.95c1.36-1.55-5.71-6.77-6.94-7.5s-1.01-1.72-2.4.08c.86.89,8.67,8.19,9.35,7.41ZM450.59,48.37c-1.31-.44-3.05,2.31-3.52,3.1-.6,1-1.64,1.45-1.15,3.14,1.31.44,3.05-2.31,3.52-3.1.6-1,1.64-1.45,1.15-3.14ZM447.7,61.91c0-4.4-3.56-7.96-7.96-7.96s-7.96,3.56-7.96,7.96,3.56,7.96,7.96,7.96,7.96-3.56,7.96-7.96ZM455.27,71.81l-7.8-4.7c-1.1,1.11,5.46,6.42,7.41,6.25.68-.06.51-1.41.39-1.55ZM433.42,68.67c-1.62-1.44-5.61,3.72-5.46,5.46.89.89,6.36-4.65,5.46-5.46ZM455.28,82.72c-2.55-1.89-1.47-6.03-2.28-7.44-.51-.89-5.77-4.98-6.73-5.08-1.65-.17-3.38,1.46-5.43,1.64-2.23.19-5.11-1.13-6.61-.47-4.79,2.13-4.05,7.36-5.5,11.35h26.54ZM459.76,71.91c-6.55,1.2-6.37,12.41,2.13,10.8,5.67-1.07,4.87-12.09-2.13-10.8ZM428.36,78.34c0-2.42-1.96-4.37-4.37-4.37s-4.37,1.96-4.37,4.37,1.96,4.37,4.37,4.37,4.37-1.96,4.37-4.37ZM129.77,84.28v8.59h78.11v-8.59h-78.11ZM408.43,84.25v8.63h64.82v-8.63h-64.82ZM293.3,145.19c-2.85.8-14.71,0-18.73,0-2.48,0-8.26,1.56-10.94,2.33l-8.18,3.91c33.64-5.09,68.23-5.15,101.85.02,1.25-.82-.58-.92-1.13-1.2-2.14-1.08-4.31-2.1-6.64-2.74s-8.9-2.32-10.95-2.32h-19.51c-1.63,0-3.31-8.6,4.68-8.59,10.58,0,30.36,1.92,35.87,12.57.41.79-.44,2.19.37,2.68.5.3,6.09,1.39,6.3,1.15.16-16.91-3.66-31-16.8-42.14-10.16-8.61-17.04-9.74-30.19-7.6-5.12.83-11.81,3.65-16.62,3.67-5.94.02-12.93-3.23-18.83-3.8-16.17-1.58-24.29,7.48-30.25,21.08-4.02,9.18-5.86,18.73-5.95,28.79,1-.09,5.97-.61,6.18-.84s.02-2.73.4-3.89c1.62-4.83,11.98-8.93,16.67-9.88,4.2-.85,18.85-2.25,22.24-.84,2.83,1.18,2.78,6.9.17,7.63ZM442.58,130.12c.5-.59.17-1.93,1.46-2.87,1.16-.85,2.9.4,3.81-.76,2.73-3.5.11-10.39-3.69-11.93-8.47-3.44-15.23,5.55-10.38,12.73,2.9.45,6.1,6.02,8.81,2.85ZM175.04,114.74h-8.58s0,4.67,0,4.67c1.31-.21,7.51.31,7.8,0,.16-.17-.19-3.67.78-4.67ZM158.66,117.07h-8.59c-.03,4.69-1.07,6.43,4.31,6.31,5.33-.12,4.41-1.57,4.29-6.31ZM174.27,123.32v-3.12c-2.44,1.27-5.18.7-7.81.78.09,3.75,5.22,2,7.81,2.33ZM148.5,124.89h-2.34v22.64h2.34v-22.64ZM158.65,124.88h-8.59s0,7.03,0,7.03c7.05.2,9.62,1.28,8.59-7.03ZM165.68,124.89l-6.26.4c1.27,6.96,1.33,15.35.01,22.23h6.24s0-22.64,0-22.64ZM174.26,124.89h-7.81c-.49,7.6.69,15.07.78,22.65h7.03v-22.65ZM454.5,142.06c.67-.5-8.14-14-8.98-14.03-1.08-.04-1.25,1.87-.76,3.09.26.65,5.8,9.75,6.22,10.18.75.77,2.99,1.16,3.52.76ZM434.32,129.09l-7.02,11.73,2.67,1.6,7.02-11.73-2.67-1.6ZM451.37,155.34c-2.9-3.07-3.64-5.46-3.09-9.73.17-1.33,1.62-1.86,1.22-3.54-.25-1.07-5.7-9.8-6.28-9.89-.29-.04-5.5.54-5.75.68-.36.2-4.09,6.62-4.26,7.12-.65,1.86,1.9,4.94,1.8,7.92-.09,2.78-1.66,5.26-3.16,7.44h19.51ZM150.06,147.53c1.56-.11,8.59.62,8.59-1.17v-12.49c0-1.45-8.59-.84-8.59-.39v14.05ZM292.83,143.55c.75-1.31.7-3.41-.69-4.23-2.74-1.63-21.78,1.18-25.6,2.52-2.27.8-5.04,2.04-6.41,4.12,10.74-3.01,21.66-2.76,32.7-2.41ZM355.36,147.52c-4.54-4.97-11.27-6.6-17.66-7.71-3.54.82-18.27-3.57-18.28,1.86,0,3.63,10.89,1.09,13.73,1.13,7.43.1,15.34,2.01,22.21,4.71ZM426.35,139.75c-2.2-1.63-8.05,3.17-8.51,6.68-1.44,11,14.15,12.25,15.44,2.07.93-7.33-3.76-4.41-5.57-5.57-1.21-.78-1.04-2.94-1.36-3.18ZM456.57,140.6c-1.13.4-1.25,2.02-2.12,2.59-2.71,1.79-5.56-.1-4.61,6.24,1.34,8.91,16.35,7.71,14.77-3.01-.48-3.28-4.71-7-8.04-5.82ZM248.69,194.1c6.42,5.92,29.5,7.27,37.37,4.74,10.54-3.4,12.89-19.86,18.34-21.49,8.5-2.54,11.93,14.59,18.57,19.36,8.14,5.85,37.52,4.03,43.65-4.73,3.97-5.67,5.89-26.71,3.36-32.92-1.58-3.89-12.01-5.18-16.02-5.84-24.63-4.06-55.26-3.99-80.17-1.78-5.3.47-25.31,2.92-28.82,5.53-3.88,2.88-2.1,23.15-.85,28.05.74,2.92,2.35,7.04,4.57,9.09ZM129.77,157.68v7.81h77.28v-7.81h-77.28ZM408.44,157.68v7.81h64.79v-7.81h-64.79ZM241.39,160.03c-3.95.09-3.72,2.71-3.94,5.82-.37,5.29-.83,14.39,3.93,17.6-.72-7.6-1.67-15.95,0-23.42ZM371.75,183.44c4.18-.82,4.51-7.85,4.72-11.28.27-4.39,1.22-10.39-3.55-12.13.49,7.78,1.05,15.81-1.17,23.41ZM235.15,171.74c-3.22-.01-6.09,4.91-6.83,7.6-3.94,14.31,6.52,31.29,22.45,29.09-1.55-3.33-1.58-8.47-2.93-11.5-.91-2.04-5.12-6.55-6.42-8.79-1.59,4.23-.9,8.12,2.33,11.32-.89,1.31-3.3-1.47-3.8-2.45-2.54-4.93,1.08-9.44.32-11.2-3.36-2.49-2.71-6.16-7.44-3.93-.63-2.49,2.81-2.07,3.09-2.38.34-.38-1.47-6.31-.76-7.77ZM363.95,208.43c16.34,1.33,24.97-13.3,22.45-28.31-.58-3.45-3.92-8.43-7.62-8.39.47,1.51-1.46,7.13-.77,7.8.31.3,4.47-.6,3.88,2.36-2.45-2.63-7.76,2.28-7.79,4.28-.03,1.6,1.91,3.5,1.59,7.05-.17,1.86-1.88,6.8-3.93,5.47,3.13-3.81,2.72-7.1.77-11.32-5.22,5.79-7.64,13.26-8.58,21.08ZM451.37,181.88c-.5-1.8-8.87-5.08-9.36-4.67-.43,2.08.53,1.34,1.54,1.94,2.28,1.34,5.14,2.63,7.83,2.74ZM363.94,197.5c-9.45,4.76-31.14,7.42-40.22,2.37-1.85-1.03-3.65-2.74-5.06-4.3-3.6-3.98-6.55-12.41-9.32-14.87-5.73-5.11-8.96,6.57-11.11,10.02-2.65,4.25-5.89,8.47-10.8,10.28-6.81,2.51-22.08,1.36-29.35-.27-2.53-.57-4.31-1.87-6.17-2.42-1.25-.37-1.22.09-1.15,1.15.92,15.53,15.7,28.73,28.37,35.66,22.23,12.16,37.75,11.17,59.01-2.15,12.95-8.11,23.7-19.72,25.81-35.47ZM444.34,195.16l4.68-11.33c-7.07-5.52-8.65-.92-10.53,5.86-1.22,4.41,2.3,3.9,5.85,5.47ZM445.13,199.06c1.56-1.42-7.1-4.68-7.95-4.93-1.24-.36-2.45-.68-3.76-.53.93,1.44,11.23,5.89,11.7,5.45ZM443.46,204.42c.13-.11.84-2.98.76-3.33-.22-1.02-10.13-5.22-10.83-4.81-1.51,2.52-9.42,20.54-8.55,21.51l11.69,4.7c3.4-5.66-3.12-7.31-1.2-13.31,1.67-5.21,7.27-4.03,8.13-4.75ZM447.03,211.67c0-2.9-2.35-5.26-5.26-5.26s-5.26,2.35-5.26,5.26,2.35,5.26,5.26,5.26,5.26-2.35,5.26-5.26ZM446.42,250.08c3.61,3.5,2.34,7.9,7.95-.78,8.12-12.59,6.45-31.5-5.73-40.86-.1,6.52-1.43,10.99-8.97,10.15l8.52,4.35c5.34,5.41,3.86,20.28-3.26,23.17-2.44.99-5.17-.12-6.83,2.54,3.36-.02,5.45-1.35,8.31,1.43ZM152.41,218.19c.76,2.61-.55,8.28,0,11.32h10.15s0-10.15,0-10.15c-.72-.72-8.49,1.48-9.37-1.55,1.85-.35,10.48.94,10.92-1.19.75-3.57-11.18-1.41-13.26-1.16-.55,1.51,1.38,2.12,1.56,2.73ZM172.7,215.46c-2.87,3,13.29,3.22,13.25,1.17-.05-2.74-11.19-2.07-13.25-1.17ZM207.83,215.46c-2.82-.6-5.25-.92-8.19-.78-.82.04-5.44.31-5.08,1.93,1.01,2.26,15.93,1.64,13.26-1.15ZM437.22,224.93c-.54-.86-17.93-8.65-18.62-7.91-.17.18-.26,1.81.48,2.39.85.67,13.82,7,15.11,7.38,2.08.61,4.61.63,3.04-1.87ZM174.26,218.58v10.93h10.15c-.22-2.66.28-5.62.04-8.24-.39-4.09-1.81-1.66-4.28-1.88-1.96-.17-3.85-1.18-5.9-.82ZM206.27,218.58h-10.15v10.93h10.15v-10.93ZM430.3,229.52l-3.88-.78c-1.7,3.23-.02,3.8,3.09,4.68l.79-3.9ZM139.14,231.86v3.12h80.4v-3.12h-80.4ZM409.22,237.32c8.8,2.15,17.43,6.97,26,9.54,3.53,1.06,3.98-1.11.53-2.88-2.57-1.33-23.94-9.26-25.24-8.91-.95.25-1.5,1.27-1.29,2.26ZM145.38,236.54c-.56.1-3.12-.16-3.12,0v29.67c.91.32,3.12-.34,3.12-1.17v-28.5ZM150.85,236.54h-3.9v24.2h3.9v-24.2ZM162.57,236.53h-10.17v9.4h10.17v-9.4ZM172.7,236.54h-8.59v24.2h8.59v-24.2ZM184.41,241.23c1.26-7.1-5.53-4.15-10.16-4.69l.76,5.13,9.39-.44ZM194.56,236.54h-8.59v24.2h9.37c.39-.29-.78-1-.78-1.17v-23.03ZM206.27,236.53h-10.17s0,4.71,0,4.71h10.17s0-4.71,0-4.71ZM211.73,236.54h-3.9v24.2h3.9v-24.2ZM214.07,236.54v29.67h2.34c.82-10,.16-19.69,0-29.67h-2.34ZM184.41,242.79h-10.15v16.79c0,1.67,3.81,4.52,5.82,4.31,1.38-.14,4.32-3.37,4.32-4.31v-16.79ZM206.27,242.79h-10.15v16.01c0,3.25,4.78,6.35,8.04,4.33.2-.12,2.1-2.6,2.1-2.77v-17.57ZM291.35,245.11c.08-.09.29-1.64-.38-1.54-11.02,5.07-14.99,17.13-19.15,27.69l12.45,5.16c1.91,2.66-7.94,9.14-7.76,12.74l17.18,33.26c-1.9-24.29-7.22-48.43-6.85-72.84.8-3.57,3.74-3.57,4.51-4.47ZM309.32,266.99c2.81-1.61.73-5.15,2.42-8.11,1.26-2.2,7.68-5.66,8.88-8.3.93-2.06.21-4.8.4-7.01-8.51,3.73-17.71,3.13-26.53.78-2.22,11.2,12.29,12.5,14.84,22.64ZM343.65,271.67c-4.47-9.68-7.23-23.86-18.73-27.31,4.51,4.05,4.16,8.83,3.94,14.47-.67,16.41-4.64,34.86-6.27,51.51-.39,3.99-.68,8.09-.78,12.09l17.06-33.37c.37-2.53-8.77-9.85-8.45-11.44.4-1.92,10.91-5.22,13.24-5.95ZM301.5,259.2c-5.28-2.21-9.48-6.62-9.75-12.5-3.71,2.27-3.24,9.73-2.76,13.68.41,3.4,2.88,6.54,4.7,9.36l7.79-9.4v-1.13ZM162.55,247.47h-10.15v12.1c0,1.69,3.53,4.64,5.81,4.32,1.79-.25,4.34-3.63,4.34-5.1v-11.32ZM321.03,269.33c1.91,1.32,5.14-6.52,5.38-8.26.37-2.67.76-12.33-1.89-13.59-1.83-.87-1.02,4.51-2.72,5.07l-8.58,7.81c3.45.33,6.77,8.24,7.82,8.97ZM436.54,249.03c-3.03-2.31-4.97,3.8-2.72,4.68,1.42.55,3.19-4.1,2.72-4.68ZM451.37,263.87c-1.2-2.92-4.81-12.33-7.21-13.48-7.45-3.56-8.88,8.55-9.19,13.48h16.39ZM277.3,253.73l-17.9,6.31,3.06,17.1c-1.16.2-.97-1.46-1.16-2.33-1.05-4.66-1.27-9.59-3.11-14.06-7.2,4.35-13.94,9.43-20.61,14.52-9.1,6.94-27.47,20.05-30.91,30.76-4.41,13.73,7.61,21.55,19.9,21.85-6.96-11.12-3.97-24.16,5.46-32.78-5.36.14-10.53,1.61-15.61,3.11,2.74-4.21,9.41-4.39,14.05-4.68l-7.02-2.33c4.66-1.54,8.25,1.55,11.49,2.16s7.29.44,10.57,1.14c1.69.36,3.03,1.87,4.93,2.13,3.31.45,6.97-1.45,10.47-.76-1.29-3.06-3.33-12.78,2.61-10.85,2.6.85,5.07,13.29,6.44,16.24,1.6,3.44,8.64,11.25,9.18,13.51.84,3.52-2.47,4.32-2.99,5.29-1.74,3.26,3.59,15.23,3.86,19.55.93,1.24,11.87.88,14.46,1.55.4-19.09-13.04-35.55-20.71-52.26-.4-2.08,6.74-8.47,8.21-10.6-1.82-2.59-11.69-4.15-12.4-6.38-.79-2.49,6.47-14.97,7.73-18.21ZM321.01,331.41c-1.58,11.07,1.17,25.63,0,37.09,1.81-.22,4.72.56,6.26-.38.63-.38,5.04-9.94,5.28-11.11.37-1.8.54-10.76.05-12.19-.66-1.92-3.88-1.01-3.86-5.59.02-4.85,5.35-4.18,3.95-11.67-.38-2.05-2.75-2.9-.8-5.56s10.54-2.94,13.63-2.59c5.87.67,10.09,2.38,5.94,8.49,1.97.32,3.21-.94,4.31-2.36l-2.74-34.33,3.33,19.69c1.56,1.04,5.59,8.88,6.05,9.19,1.57,1.07,4.61-4.92,5.96-6.12s4.38-2.83,6.18-3.19c.74-.15,2.9-.59,2.67.72-3.97.85-8,2.6-10.14,6.25,5.13-2.12,10.06-3.44,15.61-1.54l-8.62,1.13c-3.38.97-6.56,2.54-9.33,4.72,11.62,2.64,17.76,15.98,15.62,26.93,8.03-5.3,15.66-13.52,15.65-23.81-.01-14.48-24.48-48.96-34.87-59.64-.53-.55-3.5-3.89-4.19-3.21l-3.91,14.83c-1.52-2.9,3.68-15.11,3.01-16.27-.51-.88-16.93-7.86-17.85-7.15,1.14,2.79,8.14,16.43,7.7,18.26-.57,2.38-11.86,4.54-12.39,5.16-1.69,1.97,8.14,8.8,7.7,11.9-4.53,9.62-10.31,18.68-14.61,28.41-1.46,3.31-5.13,10.85-5.57,13.94ZM426.4,256.06c-.28-4.22-4.38-1.54-6.67-1.53-2.46.02-6.39-2.53-6.6,1.53h13.27ZM311.65,368.5c-1.52-31.49-.51-63.27-.76-94.89-.46-3.88-5.18-9.14-7.82-12.08l1.59,10.51.74,96.47h6.25ZM221.88,273.24h-83.91c-1.26,0-1.27-2.97-1.02-4.12.61-2.84,4.49-3.25,3.75-5.63-.67-2.18-8.87-.82-10.92-1.18v17.18h98.75l21.47-17.18h-31.22c-1.06,5.15,4.94,4.62,3.12,10.93ZM146.94,266.21h64.79v-3.91c-4.82-1.3-6.06,3.37-10.52,3.18-3.35-.14-4.05-2.73-6.28-3.16-1.27-.24-8.94-.31-9.97-.03-.97.26-1.06,3.38-5.61,3.18-3.36-.15-4.05-2.73-6.28-3.16-1.69-.33-7.55-.3-9.38-.08-1.73.21-1.49,3.04-5.45,3.23-4.84.23-6.47-4.26-11.31-3.17v3.91ZM433.42,263.87c.06-.51-1.03-1.56-1.17-1.56h-69.86l12.49,17.18h98.35v-17.18h-20.3c-.6,2.67,2.33,1.15,4.14,1.71,3.23.99,3.07,6.49,2.88,9.22h-54.25c-.26,0-.65.89-1.58.11-2.74-2.32.76-9.48,2.36-9.48h26.93ZM303.84,344.28c-.61-1.16-.78-2.15-.82-3.47-.6-21.62,1.23-44.21.07-65.66-.2-3.65-.74-8.79-1.98-12.07-4.06,4.14-6.52,15.58-10.55,4.69-1.3-.21-.86,1.91-.8,2.75,1.5,23.17,7.57,46.59,6.38,70.14.43,1.27,6.05,2.73,7.7,3.61ZM325.69,268.55c-5.88,8.99-6.48-2.28-12.1-5.46l-1.08,3.6.69,101.81h6.25c-.58-1.18-.79-2.14-.83-3.47-.45-17.94.04-36.07,1.61-53.92,1.25-14.2,3.63-28.43,5.45-42.56ZM458.4,271.68c-.31-8.63-4.48-5.55-9.73-5.43-7.9.17-15.66-.73-23.41-.85-5.4-.08-13.52-.42-18.62.8-1.3.31-1.4,4.25-1.32,5.48h53.08ZM220.34,267.77h-81.2v3.9h81.2v-3.9ZM225,281.05h-95.23v7.81h87.04c.47,0,6.24-5.17,7.2-6.02.52-.46,1.49.06,1-1.78ZM473.23,288.85c-.06-1.46.54-7.81-1.17-7.81h-94.84c-.35,1.44,4.6,7.81,5.07,7.81h90.94ZM266.37,298.22c.31-1.74-2.67-13.47-5.45-10.93-.48.44,1.82,11.46,5.45,10.93ZM214.85,290.42h-85.08v4.68h47.23c.08,0,1.17,1.09,1.17,1.17v37.87h5.46v-37.87c0-.08,1.09-1.17,1.17-1.17h25.76c.32,0,3.87-3.81,4.29-4.68ZM473.23,290.42h-89.77c-.37.83,2.45,4.68,2.73,4.68h19.12v73.4s6.24,0,6.24,0v-72.22c0-.08,1.09-1.17,1.17-1.17h60.5v-4.68ZM245.29,296.67c-16.27-5.55-24.56,12.94-19.65,26.29,3.02,8.22,6.73,5.31,14.2,5.7-9.03-7.4-7.73-23.54,1.59-30.02,1.43-.99,3.52-.65,3.87-1.97ZM176.6,296.66h-46.84v71.83h11.71c1.17-6.57-1.14-4.49-2.72-6.24s-1.41-7.04.77-7.04h12.49c.28,0,1.31-1.13,1.02-1.76-1.4-3.56-.17-7.57-.61-11.15-.25-2.02-1.76-3.84-1.61-5.41.08-.86,1.49-2.77,1.98-2.77h14.83c3.05,0-.26,6.95-.43,8.16-.54,3.88.48,8.9.04,12.93h9.38c-.44-4.03.58-9.06.04-12.93-.27-1.88-1.59-2.97-1.69-4.65-.14-2.25,1.4-3.34,1.69-5.42,1.49-10.57-1.19-24.61-.04-35.57ZM208.61,296.66h-22.64c.96,4.71-1.56,35.83,0,37.48.88.94,8.41-2.58,6.89,4.12-.22.97-1.42,2.33-1.42,2.51v14.44h9.37c-.44-4.03.58-9.05.04-12.92-.17-1.21-3.48-8.16-.43-8.16h15.61c3.05,0-.26,6.95-.43,8.16-.54,3.87.48,8.89.04,12.92h13.66c1.39,0,1.67,5.91.82,7.09-.97,1.34-4.21-.37-2.77,6.19h22.25c.44,0,1.2-1.31,1.17-1.95-1.09-3.96,1.31-10.79.8-14.01-.33-2.05-3.84-3.89-3.72-5.52.14-1.95,4.64-2.61,5.14-4.02,1.45-4.1.59-11.35,1.69-15.88-1.95,1-5.74-1.72-6.57-1.51-.45.11-3.21,4.22-7.44,5.07-17.99,3.61-44.73-5.1-35.19-28.17.91-2.19,2.8-3.58,3.14-5.84ZM403.76,296.66h-16.39c5.27,11.65,14.07,22.44,9.93,36.09-3.37,11.11-22.09,27.09-34.13,27.16l.78,8.58h39.81v-71.83ZM473.23,296.66h-60.11v71.83c2.74-.41,7.55,1.15,9.3-1.24,2.63-3.6,3.09-18.12,2.37-22.53-.35-2.12-2.64-3.72-2.23-5.36,1.12-4.44,18.85-4.66,20.12-.8.8,2.42-1.18,3.82-1.5,6.07-1,7.06-.05,17.15,2.38,23.86h29.66v-71.83ZM262.47,306.04c4.81.29,7.18,15.5,10.53,14.82,2.42-2.58.3-9.34-1.02-12.23-1.55-3.38-6.88-9.72-10.72-10.36-2.95-.49-13.02.89-16.3,1.57-5.97,1.23-10.42,12.03-8.93,17.41.73,2.65,4.02-.1,3.41-2.63,1.76,4.38,5.02,3.69,7.84,5.44s2.65,6.04,7.39,4.71l-2.73-10.14c2.32.97,4.75,9.09,6.23,9.21,5.56.45.7-10.61-1.15-12.73,1.35-1.38,3.37,2.45,4.04,3.77.92,1.82,2.59,10.63,5.39,6.26s-2.23-11.19-3.97-15.09ZM358.47,316.97c-2.51-1.95-.1,4.61-.76,6.24.15.17,3.02-.66,3.12-.78.23-.3-2.12-5.27-2.36-5.45ZM246.86,322.43c-2.5.66-5.3-2.71-6.77-2.96-5.58-.98-1.67,7.35,1.74,7.68,2.08.2,5.84-3.87,5.03-4.72ZM274,323.38c-.36-.42-2.8-.51-3.34-1.73-.6-.12-.47.7-.37,1.14,1.91,8.41,6.12,17.06,7.77,25.66,3.96,2.58,1.42-3.42.75-5.93-.43-1.59-.45-2.27-.86-3.88-.56-2.18-3.44-14.67-3.95-15.27ZM349.81,328.58c.19-.2-.65-4.07,1.63-4.99,0-2.31-17.13-3.31-17.88.08-.19.84,1.31,2.48,1.47,3.86.31,2.66-.14,5.48.04,8.16,1.75-3.89,13.85-6.2,14.73-7.12ZM268.7,323.21c-2.4,1.67-4.84.72-6.51,1.01-1.22.21-3.05,2.52-5.1,2.2l-1.64,16.31c5.74-1.74,11.93-2.3,17.94-2.35l-4.69-17.17ZM367.85,356.78c8.45-3.23,12.69-4.13,11.62-14.36-1.2-11.47-12.77-25.68-23.33-13.75,11.58,1.9,17.47,18.34,11.71,28.11ZM342.88,355.23c-2.16,2.99,8.37,2.45,9.68,2.27,11.23-1.55,10.58-14.01,6.61-22.09-3.06-6.24-8.08-5.01-13.96-3.22-2.82.86-10.52,4.16-6.57,7.35,4.03-.42,9.86-4.04,13.59-1.88-2.88,2.13-15.09,3.37-16.33,6.31-.28.67-.36,1.39.4,1.94,3.6,2.59,13.01-2.45,17.49-1.6-.16,1.17-2.73,1.79-3.73,2.12-1.77.58-10.7,2.18-10.99,2.66-.27.44-.27,2.62-.01,2.94,2.22,2.77,14.93-2.01,15.52-1.48,2.9,2.66-11.32,4.16-11.7,4.69ZM362.92,334.4c-.66-.67-2.57-1.8-2.08.11,1.38,5.31,3.19,9.12,2.73,15.26,8.06.14,2.31-12.38-.65-15.37ZM167.24,335.7h-13.66c-.28,0-1.34,1.18-1.17,1.94.66,2.89,9.94.41,12.48,1.19,1.27.96-.01,1.41-1.15,1.56-2.7.35-6.48.23-8.99-.78v15.62h10.93v-16.4c0-.21,2.54.53,1.56-3.12ZM189.88,355.22c.41-4.62-.54-9.98-.05-14.49.13-1.23,2.78-5.03.44-5.03h-13.66c-.78,1.51,1.56,3.31,1.56,3.51v16.01h11.71ZM215.63,335.7h-13.66c-2.34,0,.3,3.8.44,5.03.49,4.51-.45,9.87-.05,14.49h11.71v-16.01c0-.2,2.34-2,1.56-3.51ZM439.27,338.04c-3.14-.49-8.26,0-11.71,0-.32,0-2.55,1.49-2.68,2.03-.15.63,1.37,2.91,1.53,4.58.54,5.55-.29,12.14-.21,17.79l-13.91,35.36c-.07,2.16,1.73,3.47,3.41,4.42l13.03,3.74c-5,.68-17.49-.53-18.61-6.81-.87-4.87,9.41-22.45,10.81-28.31h-60.11c7.56,17.19,23.17,33.07-6.74,35.82-7.7.71-31,.69-36.6-4.57-6.66-6.25,6.37-24.43,8.99-31.25h-24.98v26.94c0,.22-1.18,3.73-1.38,4.09-3.24,5.83-25.44,5.45-31.7,4.8-2.44-.25-13.76-3.06-13.76-5.76v-30.06h-27.32v27.33c0,.19,2.36.04,2.97,2.1.51,1.72,0,3.9.15,5.71h-91.72c-1.64,0-1.74-5.98.45-7.4.83-.54,2.29-.3,2.29-.41v-27.33h-11.71v46.85h343.46v-46.85h-28.1c.89,6.43,11.11,22.96,10.01,28.32-1.1,5.34-10.6,7.35-15.2,7.53-.96.04-3.37.12-3.39-1.1-.03-2.19,15.83-.03,16.44-7.02.12-1.33-.18-2.31-.45-3.53-2.15-9.52-11.2-22.22-12.7-31.8-.68-4.32-.67-14.92-.21-19.36.27-2.62,3.29-5.27-.37-5.83ZM276.52,348.97c-1.02-1.52-1.09-6.5-2.79-6.92-7.44,1.19-15.18.65-22.18,3.81l16.79,3.1h8.19ZM301.49,345.08c-6.23-2.51-12.84-1.92-19.32-2.97-2.66-.73-.47,5.29.19,6.09,1.34,1.61,12.02-.41,14.61-1.02,1.17-.28,4.18-.79,4.52-2.1ZM301.5,347.42c-6.04,1.89-12.32,3.25-18.73,3.12.18,6.59,6.31,10.65,3.9,17.17,2.49-.21,10.26.94,11.33,3.12.84,1.7.68,25.84-.21,27.92-2.24,5.24-20.5,5.3-25.55,4.87-3.41-.29-13.69-1.94-14.44-5.86-1.44-7.57.94-19.53.09-27.59,7.14-2.74,14.9-3.5,22.53-3.24-1.34-2.54-.51-5.31-.98-7.99-2.02-11.46-3.78-7.44-12.67-8.41-2.33-.25-14.43-2.92-15.23-2.32.88,1.74,2.44,3.14,3.26,4.93,3.74,8.23.47,33.13,1.39,43.89.39,4.48,1.82,5.07,6.1,6.39,8.06,2.49,22.9,2.66,30.96.17,2.92-.9,5.49-1.7,5.94-4.99,1.77-13.12-1.38-30.17-.03-43.75.26-2.61,1.06-5.14,2.33-7.42ZM336.62,348.2c-2.84-.55-1.29,5.36-1.56,7.42-1.37,10.72-14.74,27.59-17.43,38.8-1.49,6.19,2.57,7.16,7.58,8.53,8.38,2.29,21.02,2.51,29.66,1.37,5.39-.72,16.3-1.64,15.01-9.29l-16-34.64c-1.42-1.82-11.53,1.87-13.02-3.59-.29-1.06.55-2.26.46-2.34-1.09-1.06-6.4.43-4.7-6.26ZM303.06,368.5v-19.52h-.77c.3.97-.79,2.26-.79,2.73v16.79h1.56ZM281.14,350.29l-2.28.53,1.89,8.21,2.28-.53-1.89-8.21ZM367.85,350.54c-3.26.42-6.45,2.88-7.02,6.24,4.95,1.57,6.73-1.7,7.02-6.24ZM254.66,368.49c-.16-3.2.28-6.49-.07-9.69-.08-.75-.34-2.94-1.48-2.8,1.2,3.46-2.59,12.1,1.55,12.48ZM139.88,356.75v4.8s89.04,0,89.04,0v-4.8s-89.04,0-89.04,0ZM360.7,358.49c-.84-1.3-4.52-.62-5.24,1.01,1.31,1.13,3.68,8.84,4.2,9.01.39.13,2.02.29,1.96-.47.18-1.34-.42-8.78-.92-9.55ZM285.1,370.05c-.55-4.05,2.25-11.16-3.89-10.15,0,1.84-.24,3.72.34,5.52.33,1.02,2.51,3.89,3.55,4.63ZM146.16,363.03c-.56.1-3.12-.16-3.12,0v33.96c0,.83,2.22,1.49,3.12,1.17v-35.14ZM153.19,363.02h-5.48v5.48h5.48v-5.48ZM165.68,363.03h-10.93v12.49h10.93v-12.49ZM176.61,363.02h-9.39s0,5.49,0,5.49h9.39s0-5.49,0-5.49ZM189.88,363.03h-11.71v3.9h11.71v-3.9ZM200.81,363.02h-9.39s0,5.49,0,5.49h9.39s0-5.49,0-5.49ZM214.07,363.03h-11.71c1.46,2.37,8.1,1.87,10.55,1.56,1.15-.15,2.42-.61,1.16-1.56ZM215.63,363.02v5.48h4.69v-5.48h-4.69ZM225,363.03c-.56.1-3.12-.16-3.12,0v33.96c0,.83,2.22,1.49,3.12,1.17v-35.14ZM202.36,365.37v23.81c0,4.42,6.94,8.25,10.05,3.81,1.89-2.69,2.55-25.13,1.32-26.89-1.11-1.59-9.03-.34-11.37-.73ZM189.88,368.5h-11.71v19.91c0,7.9,11.71,8.38,11.71,1.56v-21.47ZM286.68,368.49c-.16.21.23,3.83-1.17,3.89s-2.84-3.06-3.52-3.49c-2.08-1.3-15.02-.16-18.12.59-.55.13-6.06,1.35-4.51,2.9.63.63,15.56,2.39,17.56,2.41,4.07.03,13.84-.81,17.41-2.17.98-.37,2.29-.48,2.5-1.78-1.47-.3-9.83-2.77-10.14-2.36ZM148.89,398.17h71.42v-27.33h-4.68v19.91c0,4.65-7.6,7.66-11.69,4.67-.74-.54-3.14-4.19-3.14-4.67v-19.91h-9.37v19.91c0,.48-2.4,4.13-3.14,4.67-4.33,3.17-11.69-.62-11.69-5.45v-19.13h-9.37v20.69c0,1.33-3.67,4.58-5.25,4.92-10.84,2.39-8.53-11.29-8.77-17.45-.11-2.86-1.78-5.38-.03-8.16-.97.16-4.41-.28-4.68,0-.5.53-.83,10.47-.82,12.13,0,2.42.83,4.56.88,6.99.04,1.78-2.21,7.41.32,8.2ZM296.82,373.18c-12.18,3.62-26.04,3.23-38.25,0-.33.89.78,1.74.78,1.95v23.42c0,1.25,8.24,3.26,9.84,3.43,3.25.36,27.63.55,27.63-3.43v-25.38ZM165.68,376.3h-10.93v14.44c0,1.85,3.93,4.26,5.88,4.21,1.72-.04,5.05-2.79,5.05-4.21v-14.44ZM139.13,399.68v4.73h89.81v-4.73h-89.81ZM129.77,419.21v13.31h343.46v-13.31H129.77ZM129.77,434.08v9.37h343.46v-9.37H129.77Z"/>
        <path d="M180.51,125.67c2.45-.85,1.13,1.87,1.6,2.26.28.24,6.47.86,7.38.87,2.49.03,0-2.06,1.94-2.35.07,1.46.66,2.84.78,4.3.22,2.69.28,17.7-2,18.27-1.01.25-9.7-2.22-9.7-4.22v-19.13ZM190.66,129.57h-8.59v14.44c0,1.91,8.59,4.11,8.59,1.56v-16.01Z"/>
        <g>
          <path d="M429.52,402.85l14.88-1.91c1.69-.34,5.74-1.39,6.09-3.27s-6.18-13.52-6.17-16.65c-7.62,1.14-15.17,2.12-22.59-.82-.15,4.03-7.21,15.12-6.19,18.24s10.82,1.68,12.43,4.4c-3.84-.4-14.62-.55-13.74-6.27.23-1.51,6.33-16.85,7.15-17.88,2.25-2.84,18.81-3.06,21.88-.89,1.8,1.28,8.63,18.48,8.01,20.59s-7.78,4.46-9.63,4.46h-12.1ZM442.78,378.66c-1.61-1.69-16.33-.64-19.51,0,.27,1.5,1.63,1.29,2.7,1.59,4.06,1.14,11.63,1.24,15.68-.01.84-.26,2.4-.25,1.14-1.57Z"/>
          <path d="M438.88,340.39c.35,2.03-.3,1.4-1.68,1.78-3.78,1.05-7.05.57-10.8-.23.43-1.74,1.12-1.06,2.15-1.05,3.39.03,7.1,1.08,10.33-.5Z"/>
        </g>
        <g>
          <path d="M345.21,72.57l-7.02-3.11c4.34-1.15,9.71-1.6,13.69.77.36-3.92,3.29,1.63,2.69,2.34-3.5-2.15-7.57-3.12-11.7-3.11l6.33,3.44c.82-.04,2.35,1.17,1.46,2.02-.24.23-4.73-1.47-6.6-1.59-3.97-.25-7.47.52-11.35.81l7.56,2.19c.4.54,5.7,1.82,4.14,3.27-.43.4-9.6-2.79-11.7-1.55l3.12,2.33c-5.06-.28-9.94,1.35-14.83,2.36l8.58,1.55-14.04.4c3.7-3.63,8.99-3.25,13.26-5.47l-7.8-.39.77-1.18,13.28-1.94h-10.93c.82-1.47,8.11-3.12,9.76-3.12h11.32Z"/>
          <path d="M379.55,117.07l-3.47-8.62c-9.2-14.26-27.56-22.88-44.55-21.08l-13.63,3.55c15.91-9.61,36.05-4.58,49.89,6.31,5.79,4.55,11.79,12.11,11.77,19.84Z"/>
          <path d="M370.19,106.93l-3.11-.39c3.37,3.68,5.35,8.39,6.25,13.27-.14.86-3.02-.27-3.13-.39-1.39-1.58,1.85-1.17,1.5-2.62-.93-3.84-5.99-9.45-8.52-12.6l3.11-.77c-2.13-2.75-5.18-4.2-7.89-6.19-.42-.31-2.83-.82-1.47-2.01,1.06-.93,13.73,8.38,13.26,11.71Z"/>
          <path d="M383.45,96.78c.35-3.1-3.45-5.61-1.95-8.58,3.46,2.27,2.96,6.43,3.51,10.14-3.08,3.15-12.01-13.58-13.71-15.56s-4.89-2.72-5.01-5.52c8.48,4.3,10.18,14.1,17.16,19.52Z"/>
          <path d="M327.03,208.66c.27.25,1.09,2.03,1.01,2.1-4.51-.33-8.92,2.79-13.86,3.71-6.5,1.21-13.98,1.48-20.48.19,1.21-2.67,4.75-.59,7.42-.72,4.54-.22,17.69-1.69,21.27-3.77,1.9-1.1,1.75-4.2,4.65-1.52Z"/>
          <path d="M309.3,199.85c.26,1.12-2.42,1.13-3.04,1.11-2.86-.11-6.7-1.81-7.1-5.02,2.12-.08,2.63,2.09,4.5,2.91,1.62.71,3.87.86,5.64,1Z"/>
          <path d="M243.73,126.44c-1.61-.85-1.25-2.92-3.13-4.27-2.33-1.68-5.73-.1-5.44-2.75,4.41-.27,8.62,2.35,8.57,7.02Z"/>
          <path d="M253.1,110.05c-1.57-.86-2.9-2.19-4.65-2.76-1.56-.5-4.35.26-4.7-1.14,3.29-1.67,8.63.09,9.35,3.89Z"/>
          <path d="M288.07,154.01c17.75-.9,38.28-.71,55.88,1.43,4.97.61,18.6,1.94,21.12,6.2,3.37,5.7,2.19,21.31-.96,27.04-4.97,9.05-30.38,11.2-38.37,6.05-7.39-4.76-10.52-21.36-19.15-21.46-9.48-.11-11.63,18.15-20.69,22.29-8.8,4.02-31.23,2.04-36.58-7.15-3.03-5.2-4.66-23.06-.46-27.56,2.16-2.32,7.32-3.09,10.35-3.7,8.77-1.77,19.88-2.69,28.86-3.14ZM289.63,155.57c-9.18.45-20.8,1.33-29.77,3.02-5.1.96-10.44,1.12-11.39,7.34s-.21,20.1,4.3,24.48c5.04,4.89,24.18,6.54,30.78,4.37,10.62-3.5,11.57-23.06,23.01-23.06,11.47,0,12.45,20.21,23.61,23.25,6.93,1.89,23.37.41,29.34-3.85,5.92-4.22,7.63-21.62,4.59-27.75-2.07-4.17-11.15-4.93-15.5-5.58-18.34-2.73-40.43-3.13-58.98-2.22Z"/>
          <circle cx="308.16" cy="364.5" r="2.21"/>
          <path d="M306.66,296.74c3.68-1.15,4.5,2.85,1.34,3.71-2.83.77-3.58-3.01-1.34-3.71Z"/>
          <circle cx="307.35" cy="277.53" r="2.02"/>
        </g>
        <rect x="183.63" y="334.92" width="1.57" height="9.38" transform="translate(-155.25 523.92) rotate(-89.98)"/>
        <path d="M213.29,338.83c2.59,1.97-5.87,1.66-6.67,1.6-1.34-.1-2.58.08-3.47-1.22l10.14-.38Z"/>
        <g>
          <path d="M439,256.72c-1.75-2.83,1.18-7.12,4.23-4.65,4.01,3.26-2.45,7.52-4.23,4.65Z"/>
          <path d="M445.45,211.8c0,2.03-1.65,3.68-3.68,3.68s-3.68-1.65-3.68-3.68,1.65-3.68,3.68-3.68,3.68,1.65,3.68,3.68ZM444.07,211.6c0-1.28-1.03-2.31-2.31-2.31s-2.31,1.03-2.31,2.31,1.03,2.31,2.31,2.31,2.31-1.03,2.31-2.31Z"/>
        </g>
        <g>
          <path d="M328.22,374.92c1.23-1.25,9.69-2.44,11.89-2.55,3.56-.18,14.74.37,17.56,2.02,1.98,1.17,10.31,19.29,10.16,21.77-.05.82-.39,1.63-.84,2.31-3.16,4.81-26.61,4.83-32.3,4.36-25.61-2.09-11.54-12.51-6.47-27.92ZM357.7,375.53c-.29-.3-7.16-1.47-8.21-1.56-5.26-.45-13.87-.29-18.81,1.46-4.38,1.55,4.79,3.06,6.35,3.2,4.8.41,15.43.45,19.7-1.36.84-.36,1.93-.79.98-1.75ZM328.11,377.92c-3.45,11.68-15.7,21.53,4.23,23.35,6.9.63,22.76.64,29.12-1.3,10.78-3.3-.72-15.22-2.94-21.75-10.26,2.63-20.2,2.59-30.41-.3Z"/>
          <path d="M348.34,323.99c-1.94,2.52-10.66,2.47-12.49,0h12.49Z"/>
          <circle cx="340.23" cy="394.27" r="2.75"/>
          <circle cx="333.62" cy="385.17" r="2.74"/>
          <circle cx="356.13" cy="393.96" r="2.29"/>
        </g>
      </g>
    </g>
  </g>
</svg>