<?xml version="1.0" encoding="UTF-8"?>
<svg id="Capa_2" data-name="Capa 2" xmlns="http://www.w3.org/2000/svg" viewBox="0 0 958.94 164.19">
  <defs>
    <style>
      .cls-1 {
        fill: #3aaa35;
      }

      .cls-2 {
        fill: #2d2e83;
      }

      .cls-3 {
        fill: #82368c;
      }

      .cls-4 {
        fill: #e94e1b;
      }

      .cls-5 {
        fill: #e30613;
      }

      .cls-6 {
        fill: #36a9e1;
      }

      .cls-7 {
        fill: #e6007e;
      }

      .cls-8 {
        fill: #00983a;
      }

      .cls-9 {
        fill: #ea5b0c;
      }

      .cls-10 {
        fill: #ffed00;
      }
    </style>
  </defs>
  <g id="Capa_1-2" data-name="Capa 1">
    <g>
      <g>
        <g>
          <path class="cls-4" d="M372.36,51.76V4.31h8.82v47.45h-8.82ZM372.36,51.76v-8.12h32.54v8.12h-32.54Z"/>
          <path class="cls-4" d="M412.46,51.76v-8.35h13.77v8.35h-13.77ZM414.46,24.69v-8.35h20.11v8.35h-20.11ZM429.66,11.56c-1.72,0-3.11-.53-4.18-1.6-1.07-1.07-1.6-2.46-1.6-4.18s.53-3.11,1.6-4.18,2.46-1.6,4.18-1.6,3.11.53,4.18,1.6c1.07,1.07,1.6,2.46,1.6,4.18s-.53,3.11-1.6,4.18c-1.07,1.07-2.46,1.6-4.18,1.6ZM425.55,51.76V18.34h9.02v33.41h-9.02ZM433.91,51.76v-8.35h11.16v8.35h-11.16Z"/>
          <path class="cls-4" d="M452.65,51.76V1.64h9.06v49.52l-9.06.6ZM462.71,52.43c-1.69,0-3.36-.06-5.01-.18-1.65-.12-3.33-.28-5.05-.48l3.31-8.99c1.18.56,2.48.89,3.91.99,1.43.1,2.84.15,4.24.15,3.72,0,6.6-1.06,8.64-3.19,2.04-2.13,3.06-5.13,3.06-9,0-2.41-.56-4.26-1.69-5.56-1.12-1.3-2.72-1.95-4.79-1.95-5.08,0-7.62,2.55-7.62,7.65l-2.07-9.09h3.01c.6-4.72,3.41-7.08,8.42-7.08,4.45,0,7.9,1.39,10.34,4.18,2.44,2.79,3.66,6.74,3.66,11.86,0,6.57-1.94,11.67-5.83,15.29-3.89,3.62-9.4,5.43-16.52,5.43Z"/>
          <path class="cls-4" d="M489.97,51.76v-7.75h24.79v7.75h-24.79ZM491.31,24.09v-7.75h13.37l.67,7.75h-14.03ZM497.46,51.76V16.34h7.69l1.34,10.16v25.26h-9.02ZM506.48,36.52l-2.07-12.2h3.04c.36-5.77,3.37-8.65,9.06-8.65,3.36,0,5.94,1.24,7.73,3.71s2.69,6.04,2.69,10.69h-9.02c0-2.09-.38-3.6-1.15-4.51-.77-.91-2-1.37-3.69-1.37-2.21,0-3.85,1.07-4.95,3.21-1.09,2.14-1.64,5.18-1.64,9.12Z"/>
          <path class="cls-4" d="M548.01,52.43c-5.1,0-9.06-1.6-11.86-4.81-2.81-3.21-4.21-7.73-4.21-13.57s1.4-10.39,4.21-13.58c2.81-3.2,6.76-4.79,11.86-4.79s9.06,1.6,11.86,4.79c2.81,3.2,4.21,7.72,4.21,13.58s-1.4,10.36-4.21,13.57c-2.81,3.21-6.76,4.81-11.86,4.81ZM548.01,43.84c2.18,0,3.86-.85,5.05-2.56,1.18-1.7,1.77-4.12,1.77-7.23s-.59-5.56-1.77-7.25c-1.18-1.69-2.86-2.54-5.05-2.54s-3.84.85-5.03,2.54c-1.19,1.69-1.79,4.11-1.79,7.25s.6,5.53,1.79,7.23c1.19,1.7,2.87,2.56,5.03,2.56Z"/>
          <path class="cls-4" d="M613.2,67.13V16.34h8.39l.67,7.48v43.3h-9.06ZM631.72,52.43c-2.47,0-4.46-.59-5.95-1.77-1.49-1.18-2.42-2.95-2.77-5.31h-3.14l2.41-11.26c0,3.43.51,5.93,1.54,7.48,1.02,1.56,2.82,2.34,5.38,2.34,2.36,0,4.15-.82,5.36-2.47,1.21-1.65,1.82-4.1,1.82-7.35s-.62-5.57-1.87-7.3c-1.25-1.73-3.02-2.59-5.31-2.59s-4.02.79-5.18,2.37c-1.16,1.58-1.74,4.09-1.74,7.52l-2.07-11.33h2.61c.42-2.38,1.33-4.16,2.72-5.33,1.39-1.17,3.44-1.75,6.13-1.75,4.43,0,7.87,1.6,10.31,4.81,2.44,3.21,3.66,7.74,3.66,13.6s-1.22,10.44-3.66,13.6c-2.44,3.16-5.85,4.75-10.24,4.75Z"/>
          <path class="cls-4" d="M662.82,52.43c-3.76,0-6.69-.92-8.79-2.77-2.09-1.85-3.14-4.48-3.14-7.89,0-3.96,1.37-7.01,4.11-9.12,2.74-2.12,6.63-3.17,11.66-3.17,1.94,0,3.61.1,5.03.3,1.41.2,2.85.51,4.29.94l-1.47,7.05c-1.43-.33-2.71-.53-3.84-.58-1.14-.06-2.33-.08-3.58-.08-4.68,0-7.02,1.34-7.02,4.01,0,1.2.42,2.12,1.27,2.76.85.63,2.08.95,3.71.95,1.96,0,3.6-.37,4.91-1.1,1.31-.73,2.3-1.67,2.96-2.81s.99-2.31.99-3.51v-2.21l1.27,9.09h-2.84l1.17-1.07c-.07,2.05-.53,3.76-1.4,5.13-.87,1.37-2.09,2.39-3.66,3.07-1.57.68-3.45,1.02-5.63,1.02ZM674.82,52.09l-.77-10.49-.13-4.61v-6.92c0-1.89-.81-3.28-2.42-4.16-1.62-.88-4.02-1.36-7.2-1.45l-9.06-.23.67-8.22,7.72.1c6.42.09,11.18,1.35,14.3,3.79,3.12,2.44,4.68,6,4.68,10.68v13.1l4.91.73v7.35l-12.7.33Z"/>
          <path class="cls-4" d="M690.46,51.76v-7.75h24.79v7.75h-24.79ZM691.79,24.09v-7.75h13.37l.67,7.75h-14.03ZM697.94,51.76V16.34h7.69l1.34,10.16v25.26h-9.02ZM706.96,36.52l-2.07-12.2h3.04c.36-5.77,3.37-8.65,9.06-8.65,3.36,0,5.94,1.24,7.73,3.71s2.69,6.04,2.69,10.69h-9.02c0-2.09-.38-3.6-1.15-4.51-.77-.91-2-1.37-3.69-1.37-2.21,0-3.85,1.07-4.95,3.21-1.09,2.14-1.64,5.18-1.64,9.12Z"/>
          <path class="cls-4" d="M743.02,52.43c-3.76,0-6.69-.92-8.79-2.77-2.09-1.85-3.14-4.48-3.14-7.89,0-3.96,1.37-7.01,4.11-9.12,2.74-2.12,6.63-3.17,11.66-3.17,1.94,0,3.61.1,5.03.3,1.41.2,2.85.51,4.29.94l-1.47,7.05c-1.43-.33-2.71-.53-3.84-.58-1.14-.06-2.33-.08-3.58-.08-4.68,0-7.02,1.34-7.02,4.01,0,1.2.42,2.12,1.27,2.76.85.63,2.08.95,3.71.95,1.96,0,3.6-.37,4.91-1.1,1.31-.73,2.3-1.67,2.96-2.81s.99-2.31.99-3.51v-2.21l1.27,9.09h-2.84l1.17-1.07c-.07,2.05-.53,3.76-1.4,5.13-.87,1.37-2.09,2.39-3.66,3.07-1.57.68-3.45,1.02-5.63,1.02ZM755.01,52.09l-.77-10.49-.13-4.61v-6.92c0-1.89-.81-3.28-2.42-4.16-1.62-.88-4.02-1.36-7.2-1.45l-9.06-.23.67-8.22,7.72.1c6.42.09,11.18,1.35,14.3,3.79,3.12,2.44,4.68,6,4.68,10.68v13.1l4.91.73v7.35l-12.7.33Z"/>
        </g>
        <g>
          <path class="cls-7" d="M411.28,77.62c1.06-.18,2.08-.27,3.05-.27,5.49,0,10.71.8,15.67,2.39,13.1,4.43,21.82,12.88,26.15,25.36.97,2.74,1.46,4.47,1.46,5.18,0,.62-3.85.93-11.55.93h-3.98c-3.63,0-5.82-.09-6.57-.27-.75-.18-1.22-.62-1.39-1.33-.35-1.42-1.66-3.25-3.92-5.51s-4.36-3.87-6.31-4.85c-2.39-1.06-4.96-1.59-7.7-1.59-6.46,0-11.64,2.17-15.53,6.51-2.12,2.48-3.61,4.89-4.45,7.24-.84,2.35-1.26,5.33-1.26,8.96,0,2.92.11,4.94.33,6.04.22,1.11.82,2.55,1.79,4.31,2.74,4.96,6.68,8.54,11.82,10.75,2.21,1.06,4.6,1.59,7.17,1.59,3.63,0,7.08-1.04,10.36-3.12,3.27-2.08,5.84-4.89,7.7-8.43l1.06-2.12h22.7l-.53,2.26c-.35,1.68-1.46,4.47-3.32,8.36-3.45,6.99-8.65,12.5-15.6,16.53-6.95,4.03-14.49,6.04-22.64,6.04-7.17,0-13.9-1.55-20.18-4.65-5.93-2.83-10.89-6.97-14.87-12.41s-6.59-11.66-7.83-18.65c-.44-2.66-.66-5.04-.66-7.17,0-7.88,2.1-15.22,6.31-22.04,4.2-6.81,9.85-11.9,16.93-15.27,4.43-2.12,9.69-3.72,15.8-4.78Z"/>
          <path class="cls-10" d="M495.59,77.09c1.86-.27,3.8-.4,5.84-.4,8.23,0,15.62,1.82,22.17,5.44,6.55,3.72,11.77,8.98,15.67,15.8,3.89,6.82,5.84,14.03,5.84,21.64,0,3.36-.4,6.64-1.19,9.82-1.77,7.26-5.29,13.63-10.55,19.12-5.27,5.49-11.44,9.34-18.52,11.55-3.36.98-7.52,1.46-12.48,1.46-5.22,0-9.21-.49-11.95-1.46-14.6-5.04-24.12-14.56-28.54-28.54-1.06-3.45-1.59-7.7-1.59-12.75,0-4.6.44-8.36,1.33-11.29,2.3-7.7,6.62-14.38,12.94-20.05,6.33-5.66,13.34-9.11,21.04-10.36ZM511.26,98.33c-2.83-1.33-6.06-1.99-9.69-1.99-2.66,0-4.83.4-6.51,1.19-4.16,1.95-7.57,5.49-10.22,10.62-1.59,3.01-2.39,6.9-2.39,11.68,0,2.66.35,5.13,1.06,7.44,1.42,4.43,3.87,7.95,7.37,10.55,3.5,2.61,7.46,3.92,11.88,3.92.97,0,1.73-.04,2.26-.13,5.13-.62,9.29-2.96,12.48-7.04,3.19-4.07,4.78-9.12,4.78-15.14v-1.73c-.53-9.56-4.21-16.02-11.02-19.38Z"/>
          <path class="cls-1" d="M548.43,101.65v-20.84h20.98v62.4c3.01,0,7.46.05,13.34.13,5.89.09,10.29.13,13.21.13l.13,9.56.27,9.69h-48.86l.4-20.18c.35-14.69.53-28.32.53-40.89Z"/>
          <path class="cls-6" d="M634.06,77.09c1.86-.27,3.8-.4,5.84-.4,8.23,0,15.62,1.82,22.17,5.44,6.55,3.72,11.77,8.98,15.67,15.8,3.89,6.82,5.84,14.03,5.84,21.64,0,3.36-.4,6.64-1.19,9.82-1.77,7.26-5.29,13.63-10.55,19.12-5.27,5.49-11.44,9.34-18.52,11.55-3.36.98-7.52,1.46-12.48,1.46-5.22,0-9.21-.49-11.95-1.46-14.6-5.04-24.12-14.56-28.54-28.54-1.06-3.45-1.59-7.7-1.59-12.75,0-4.6.44-8.36,1.33-11.29,2.3-7.7,6.62-14.38,12.94-20.05,6.33-5.66,13.34-9.11,21.04-10.36ZM649.73,98.33c-2.83-1.33-6.06-1.99-9.69-1.99-2.66,0-4.83.4-6.51,1.19-4.16,1.95-7.57,5.49-10.22,10.62-1.59,3.01-2.39,6.9-2.39,11.68,0,2.66.35,5.13,1.06,7.44,1.42,4.43,3.87,7.95,7.37,10.55,3.5,2.61,7.46,3.92,11.88,3.92.97,0,1.73-.04,2.26-.13,5.13-.62,9.29-2.96,12.48-7.04,3.19-4.07,4.78-9.12,4.78-15.14v-1.73c-.53-9.56-4.21-16.02-11.02-19.38Z"/>
          <path class="cls-5" d="M685.97,159.54v-82.18h19.92c10.71,0,17.72.22,21.04.66,3.32.44,6.57,1.59,9.76,3.45,2.04,1.24,4.05,3.05,6.04,5.44,1.99,2.39,3.47,4.78,4.45,7.17,1.06,2.66,1.64,6.42,1.73,11.29,0,4.87-.66,8.76-1.99,11.68-1.24,2.74-3.03,5.33-5.38,7.77-2.35,2.44-4.67,4.18-6.97,5.24l-3.45,1.59,9.82,13.54c6.55,8.94,9.82,13.59,9.82,13.94,0,.27-4.12.4-12.35.4h-12.21c-6.46-9.03-12.61-17.57-18.45-25.62v25.62h-21.77ZM721.69,97.8c-2.48-1.06-5.4-1.59-8.76-1.59h-5.18v21.24l6.11-.27c3.72-.18,6.42-.62,8.1-1.33,1.59-.8,2.92-2.06,3.98-3.78,1.06-1.73,1.59-3.52,1.59-5.38,0-4.25-1.95-7.21-5.84-8.9Z"/>
          <path class="cls-8" d="M753.15,161.93v-81.78h50.05v18.85h-28.28v11.55h26.02v18.85h-26.02v13.01h28.28v19.52h-50.05Z"/>
          <path class="cls-3" d="M837.46,83.46l.8-1.99,10.09.13,10.09.27,16.46,39.7c9.03,21.86,14.65,35.58,16.86,41.16.09.53-.22.84-.93.93-.89.18-4.47.31-10.75.4h-11.95c-2.48-5.66-4.29-9.96-5.44-12.88h-20.05c-1.15,0-2.1.02-2.85.07-.75.05-1.51.05-2.26,0-.75-.04-1.35.05-1.79.27-.44.22-.86.33-1.26.33s-.75.2-1.06.6c-.31.4-.55.62-.73.66-.18.05-.4.4-.66,1.06-.27.66-.44,1.11-.53,1.33-.09.22-.29.82-.6,1.79-.31.98-.51,1.64-.6,1.99l-1.59,4.91-10.49-.13c-7.61-.18-11.68-.35-12.21-.53-.27-.09-.4-.35-.4-.8,0-1.41,5-14.25,15-38.5,11.06-26.82,16.68-40.4,16.86-40.76ZM856.18,132.59l-1.86-5.84c-1.24-3.8-2.48-7.59-3.72-11.35-1.24-3.76-1.95-5.64-2.12-5.64s-1.55,3.76-4.12,11.29c-2.57,7.52-3.85,11.6-3.85,12.21,0,.35,2.66.53,7.97.53s7.83-.27,7.83-.8c0-.09-.05-.22-.13-.4Z"/>
          <path class="cls-9" d="M894.15,159.54v-82.18h19.92c10.71,0,17.72.22,21.04.66,3.32.44,6.57,1.59,9.76,3.45,2.04,1.24,4.05,3.05,6.04,5.44,1.99,2.39,3.47,4.78,4.45,7.17,1.06,2.66,1.64,6.42,1.73,11.29,0,4.87-.66,8.76-1.99,11.68-1.24,2.74-3.03,5.33-5.38,7.77-2.35,2.44-4.67,4.18-6.97,5.24l-3.45,1.59,9.82,13.54c6.55,8.94,9.82,13.59,9.82,13.94,0,.27-4.12.4-12.35.4h-12.21c-6.46-9.03-12.61-17.57-18.45-25.62v25.62h-21.77ZM929.86,97.8c-2.48-1.06-5.4-1.59-8.76-1.59h-5.18v21.24l6.11-.27c3.72-.18,6.42-.62,8.1-1.33,1.59-.8,2.92-2.06,3.98-3.78,1.06-1.73,1.59-3.52,1.59-5.38,0-4.25-1.95-7.21-5.84-8.9Z"/>
        </g>
      </g>
      <g>
        <path class="cls-2" d="M354.53,10c.03-3.12-.41-4.59-3.36-4.52-8.61.21-73.17-.1-96.85-.04-2.67,0-3.72,1.91-3.67,4.67.28,15.38.41,30.77.5,46.16.02,3.39,0,6.78-.03,10.17-.02,1.7-.04,3.39-.06,5.09-.01,1.06.22,4.19-.44,4.95-.81.92-2.41,1.24-3.59,1.24-1.69,0-28.16,0-34.7,0-2.7.02-2.85-1.73-2.87-3.83-.2-20.17-.45-65.95-.51-68.49-6.66.17-13.22.18-19.4.18-2.54,0-3.36.78-3.31,3.36.4,20.85.59,43.4,1.07,64.25.08,3.4-.86,4.54-4.11,4.54-16.9.01-58.38-.05-62.15.04-.09-3.5-.02-5.71.04-8.68.07-3.33,1.33-4.13,4.68-4.11,16.21.07,32.42-.2,48.62-.23,2.94,0,3.81-.87,3.63-3.91-.3-5-.16-9.79-.13-14.81.01-2.52-.86-3.09-3.45-3.05-16.93.27-51.77.14-53.36.09-.09-3.49-.08-6.77-.29-10.03-.14-2.15.76-2.79,2.79-2.76,3.22.05,6.44-.12,9.66-.16,15.41-.19,30.81-.36,46.22-.57,1.48-.02,3.54.52,3.48-2.06-.08-3.67-.25-18.76-.39-19.76s-1.01-2.24-2.19-2.23c-14.67,0-68.45-.12-71.45-.09-.09,0-.18,0-.26,0-2.85.05-5.89-.22-8.68.35-.89.18-1.62.84-2.14,1.57-10.24,14.42-21.13,31.73-31.24,46.24-1.69,2.43-3.42,4.84-5.33,7.54-1.05-1.42-1.75-2.34-2.42-3.28-11.48-15.98-22.97-31.94-34.4-47.95-1.65-2.3-3.47-4.4-6.36-4.42-5.58-.03-8.45.24-13.99.06C1.18,5.41.03,6.38.1,9.29h-.1v88.98h.1c.06,2.42,1.27,2.49,3.32,2.46,5.2-.07,10.86.07,16.07,0,3.32-.04,3.69-.4,3.6-3.61-.43-16.17-1-50.04-.78-51.3,13.02,18.47,25.93,36.69,38.91,55.1,12.45-17.89,24.53-35.22,37.14-53.34.46,17.89-.4,35.8.04,53.08,1.69.07,148.41-.32,171.97,0,3.01.04,3.47-1.46,3.47-4.48-.02-10.11,0-18.53-.02-27.64,0-4.55.03-4.28,4.58-4.19,7.37.14,36.92-.08,44.29.01.55,0,1.07.07,1.58-.15.37-.16.69-.43.88-.78.38-.69.23-1.46.22-2.21,0-.88-.07-14.62-.17-18.24-16.92-.11-34.29.24-51.26.13-.12-4.53.1-9.72-.01-14.18,19.42-.05,38.5-.1,56.94-.15.24,9.16.67,54.93.56,68.83-.02,2.56.71,3.12,3.52,3.06,5.28-.11,10.54.35,15.85.09,3.01-.15,3.72.07,3.72-2.74,0-12.75-.18-71.36,0-88Z"/>
        <g>
          <path class="cls-2" d="M10.19,112.7c.85,0,1.18.26,1.5.86l19.15,35.45c.2.4.39.46.78.46h.33c.33,0,.52-.07.72-.46l18.89-35.45c.33-.66.72-.86,1.5-.86h8.56c1.05,0,1.24.66.78,1.52l-21.44,39.6c-2.16,4.02-4.12,5.01-6.86,5.01h-3.79c-3.4,0-5.29-.99-7.52-5.01L1.1,114.21c-.46-.86-.26-1.52.85-1.52h8.24Z"/>
          <path class="cls-2" d="M129.81,112.7c.98,0,1.44.46,1.44,1.45v43.22c0,.99-.46,1.45-1.44,1.45h-7.06c-.98,0-1.5-.46-1.5-1.45v-43.22c0-.99.52-1.45,1.5-1.45h7.06Z"/>
          <path class="cls-2" d="M232.82,112.7c9.02,0,12.42,3.56,12.42,10.87v3.16c0,3.76-1.44,6.52-4.18,8.37,3.07,1.78,4.51,4.61,4.51,8.5v3.82c0,6.98-2.88,11.4-11.57,11.4h-38.83c-1.31,0-1.96-.66-1.96-1.98v-42.17c0-1.32.65-1.98,1.96-1.98h37.65ZM203.21,131.87h26.8c4.31,0,5.62-1.32,5.62-3.89v-2.24c0-2.7-1.44-3.95-4.84-3.95h-26.73c-.59,0-.85.26-.85.86v9.22ZM203.21,139.05v9.82c0,.59.26.86.85.86h26.8c3.46,0,4.84-1.25,4.84-4.02v-2.5c0-2.7-1.37-4.15-5.69-4.15h-26.8Z"/>
          <path class="cls-2" d="M353.09,112.7c.98,0,1.5.46,1.5,1.45v6.26c0,.99-.52,1.45-1.5,1.45h-28.56c-6.8,0-8.69,2.04-8.69,8.96v.66h36.93c.98,0,1.44.46,1.44,1.45v5.21c0,.99-.46,1.45-1.44,1.45h-36.93v1.12c0,6.92,1.9,8.96,8.69,8.96h28.56c.98,0,1.5.46,1.5,1.45v6.26c0,.99-.52,1.45-1.5,1.45h-28.76c-13.2,0-18.3-4.74-18.3-17.39v-11.33c0-12.65,5.1-17.39,18.3-17.39h28.76Z"/>
        </g>
      </g>
    </g>
  </g>
</svg>